<svg xmlns="http://www.w3.org/2000/svg" viewBox="8.5 10.5 25 19" width="260" height="200">
  <path fill="currentColor" d="M10.5 26H12v-6h-1.5a.5.5 0 0 0-.5.5v5a.5.5 0 0 0 .5.5M30 20v6h1.5a.5.5 0 0 0 .5-.5v-5a.5.5 0 0 0-.5-.5Zm-8.5-8h-1a.5.5 0 0 0-.5.5V16h-5.5a.5.5 0 0 0-.5.5v11a.5.5 0 0 0 .5.5h13a.5.5 0 0 0 .5-.5v-11a.5.5 0 0 0-.5-.5H22v-3.5a.5.5 0 0 0-.5-.5M18 18a2 2 0 1 1-2 2 2 2 0 0 1 2-2m8 8H16v-2h10Zm-2-8a2 2 0 1 1-2 2 2 2 0 0 1 2-2" style="fill:rgb(255, 255, 255);stroke:none;color:rgb(255, 255, 255);stroke-width:1px;stroke-linecap:butt;stroke-linejoin:miter;opacity:1;font-family:&quot;Anthropic Sans&quot;, -apple-system, BlinkMacSystemFont, &quot;Segoe UI&quot;, sans-serif;font-size:16px;font-weight:400;text-anchor:start;dominant-baseline:auto"/>
</svg>