<svg width="24" height="24" viewBox="0 0 24 24" fill="none" xmlns="http://www.w3.org/2000/svg">
  <!-- Panel trasero con pestaña -->
  <path d="M7.78388 4H5C3.89543 4 3 4.89543 3 6V16C3 17.1046 3.89543 18 5 18H19C20.1046 18 21 17.1046 21 16V8.875C21 7.77043 20.1046 6.875 19 6.875H12.7161C12.2531 6.875 11.8044 6.71435 11.4466 6.42045L9.05336 4.45455C8.69558 4.16065 8.2469 4 7.78388 4Z" fill="#2d3f4a" stroke="#607d8b" stroke-width="1.8" stroke-linejoin="round"/>
  <!-- Panel frontal abierto -->
  <path d="M3 11.5H21V17C21 18.1046 20.1046 19 19 19H5C3.89543 19 3 18.1046 3 17V11.5Z" fill="#1a2126" stroke="#90a4ae" stroke-width="2" stroke-linejoin="round"/>
  <!-- Línea larga -->
  <line x1="6.5" y1="13.8" x2="15.5" y2="13.8" stroke="#90a4ae" stroke-width="1.6" stroke-linecap="round"/>
  <!-- Línea corta -->
  <line x1="6.5" y1="16.2" x2="11.5" y2="16.2" stroke="#90a4ae" stroke-width="1.6" stroke-linecap="round"/>
</svg>