<svg width="16" height="16" viewBox="0 0 16 16" fill="none" xmlns="http://www.w3.org/2000/svg">

  <defs>
    <linearGradient id="bolt-grad" x1="0" y1="0" x2="0" y2="1">
      <stop offset="0%" stop-color="#FDAE2C"/>
      <stop offset="100%" stop-color="#FD9413"/>
    </linearGradient>

    <clipPath id="clip0">
      <rect width="16" height="16" fill="white"/>
    </clipPath>
  </defs>

  <g clip-path="url(#clip0)">

    <!-- Open Folder -->
    <path
      opacity="0.8"
      d="M9.00021 2.9999H11.0002C12.4002 2.9999 13.1002 2.99991 13.635 3.27236C14.1054 3.51205 14.4881 3.89473 14.7278 4.36514C15.0001 4.89988 15.0002 5.6 15.0002 6.9999V8.9999C15.0002 9.62273 14.9988 10.1071 14.9748 10.4999H14.716C14.5599 10.4999 14.4071 10.4522 14.2795 10.3622C14.0024 10.1668 13.8892 9.81078 14.0022 9.49111L14.5998 7.80264L14.6623 7.60439C15.2131 5.62608 13.5524 3.71029 11.5158 3.97451L11.3108 4.00771C11.1451 4.04087 10.9836 4.09302 10.8303 4.16299L10.6799 4.23916L8.74728 5.30752C7.84709 5.80531 7.21441 6.67235 7.01096 7.67373L6.9758 7.87588L6.85959 8.6874C6.73467 9.56176 6.50939 10.419 6.18869 11.2411L6.04611 11.5917L5.4426 12.9999H5.00021C3.60036 12.9999 2.90019 12.9998 2.36545 12.7274C1.89504 12.4878 1.51236 12.1051 1.27267 11.6347C1.00027 11.0999 1.00021 10.3999 1.00021 8.9999V4.2001C1.00021 3.07999 1 2.51952 1.21799 2.0917C1.40974 1.71549 1.71577 1.40938 2.09201 1.21767C2.51982 0.999752 3.08041 0.999901 4.20041 0.999901H7.00021L9.00021 2.9999Z"
      fill="#0090FF"/>

    <!-- Lightning -->
    <path
      fill="url(#bolt-grad)"
      d="M10.6 4.8H13.2L11.6 7.6H14.0L9.2 13.6L10.5 9.2H8.0L10.6 4.8Z"/>

  </g>

</svg>