<svg width="16" height="16" viewBox="0 0 16 16" fill="none" xmlns="http://www.w3.org/2000/svg">

  <defs>
    <linearGradient id="bolt-grad" x1="0" y1="0" x2="0" y2="1">
      <stop offset="0%" stop-color="#FDAE2C"/>
      <stop offset="100%" stop-color="#FD9413"/>
    </linearGradient>

    <clipPath id="clip0">
      <rect width="16" height="16" fill="white"/>
    </clipPath>
  </defs>

  <g clip-path="url(#clip0)">

    <!-- Folder -->
    <path
      opacity="0.8"
      d="M9.00021 2.9999H11.0002C12.4 2.9999 13.1003 2.99998 13.635 3.27236C14.1053 3.51205 14.4881 3.89478 14.7278 4.36514C15.0001 4.89988 15.0002 5.6 15.0002 6.9999V8.9999C15.0002 9.62277 14.9979 10.1071 14.9738 10.4999H14.716C14.5599 10.4999 14.4071 10.4522 14.2795 10.3622C14.0024 10.1668 13.8892 9.81078 14.0022 9.49111L14.5998 7.80264L14.6623 7.60439C15.2131 5.62608 13.5524 3.71029 11.5158 3.97451L11.3108 4.00771C11.1451 4.04087 10.9836 4.09302 10.8303 4.16299L10.6799 4.23916L10.2082 4.4999H8.37912L6.37912 2.4999H4.20041C3.61594 2.4999 3.26721 2.5013 3.009 2.52236C2.88885 2.53218 2.82126 2.54397 2.7883 2.55166L2.77365 2.55459C2.70313 2.59052 2.64205 2.64256 2.59592 2.70596L2.5549 2.77334C2.57142 2.74082 2.54231 2.76847 2.52267 3.00869C2.50159 3.26691 2.50021 3.61552 2.50021 4.2001V8.9999C2.50021 9.72445 2.50163 10.1778 2.52951 10.5194C2.55599 10.8436 2.59905 10.9333 2.60959 10.954L2.69162 11.0878C2.78387 11.2147 2.90507 11.3186 3.04611 11.3905L3.14963 11.4247C3.21508 11.44 3.31884 11.4574 3.48068 11.4706C3.82225 11.4985 4.27576 11.4999 5.00021 11.4999H6.08322L6.04611 11.5917L5.4426 12.9999H5.00021C3.77511 12.9999 3.08583 12.9998 2.57443 12.8173L2.36545 12.7274C1.954 12.5178 1.60955 12.1989 1.36935 11.8075L1.27267 11.6347C1.00028 11.0999 1.00021 10.3999 1.00021 8.9999V4.2001C1.00021 3.22015 1.00071 2.66876 1.1467 2.25967L1.21799 2.0917C1.38576 1.76254 1.64112 1.48694 1.95432 1.29482L2.09201 1.21767C2.4128 1.0543 2.80839 1.01305 3.45822 1.00283L4.20041 0.999901H7.00021L9.00021 2.9999Z"
      fill="#0090FF"/>

    <!-- Lightning -->
    <path
      fill="url(#bolt-grad)"
      d="M9.8 4.8H12.4L10.8 7.6H13.2L8.4 13.6L9.7 9.2H7.2L9.8 4.8Z"/>

  </g>

</svg>