<?xml version="1.0" encoding="UTF-8"?>
<svg version="1.1" xmlns="http://www.w3.org/2000/svg" width="200" height="200">
<path d="M0 0 C2.00066813 0.00560559 4.00134042 0.00987113 6.00201416 0.01286316 C11.22985501 0.02423616 16.4574399 0.05363721 21.68518066 0.0869751 C27.97791252 0.1232807 34.27073066 0.1368731 40.5635376 0.15433502 C50.08941061 0.18327994 59.61472364 0.24081965 69.140625 0.29296875 C69.140625 13.16296875 69.140625 26.03296875 69.140625 39.29296875 C64.0875 39.87046875 59.034375 40.44796875 53.828125 41.04296875 C30.06459552 43.07795965 30.06459552 43.07795965 8.140625 51.29296875 C6.9292797 53.90173925 6.9292797 53.90173925 7.140625 56.29296875 C7.70652344 56.66808594 8.27242188 57.04320312 8.85546875 57.4296875 C9.58894531 57.94144531 10.32242188 58.45320313 11.078125 58.98046875 C11.80902344 59.47933594 12.53992188 59.97820312 13.29296875 60.4921875 C15.54818468 62.69018865 15.81005808 64.21292459 16.140625 67.29296875 C-1.27869087 78.0654404 -23.57379935 80.17759122 -43.39648438 83.84545898 C-50.34964878 85.14251636 -57.18509859 86.46361103 -63.89550781 88.75927734 C-67.16232998 89.64705373 -69.66308653 89.25185529 -72.859375 88.29296875 C-75.54707174 86.1794728 -76.72103431 85.0089471 -77.37695312 81.61425781 C-77.3837207 80.1017041 -77.3837207 80.1017041 -77.390625 78.55859375 C-77.39884277 77.43453125 -77.40706055 76.31046875 -77.41552734 75.15234375 C-77.38773193 73.36570313 -77.38773193 73.36570313 -77.359375 71.54296875 C-77.34729004 70.32609375 -77.33520508 69.10921875 -77.32275391 67.85546875 C-76.85755275 46.65357356 -69.56982098 30.57216414 -54.359375 15.66796875 C-50.20245964 12.06104527 -45.85889538 9.40972524 -40.984375 6.91796875 C-40.04948242 6.43529541 -40.04948242 6.43529541 -39.09570312 5.94287109 C-26.411891 -0.16953684 -13.75414274 -0.11397434 0 0 Z " fill="#00D4FD" transform="translate(103.859375,25.70703125)"/>
<path d="M0 0 C0.10017076 5.97325964 0.17207253 11.946012 0.21972656 17.91992188 C0.23962815 19.94474828 0.26675946 21.96951889 0.30175781 23.99414062 C0.68148093 46.5541612 -2.88393828 65.07712445 -18.79125977 81.9387207 C-28.29636161 91.55497421 -40.68392481 98.58406811 -54.1875 100.4375 C-66.28148466 99.04966569 -80.03344333 90.72942845 -88.25 81.8125 C-91.82261149 77.22945293 -93.24260033 73.38893208 -92.9375 67.5625 C-91.88220432 60.56237196 -88.17455739 56.65902395 -82.6875 52.4375 C-71.29440245 44.97535424 -58.09030858 42.06280644 -44.95678711 39.17944336 C-31.38057745 36.40094374 -31.38057745 36.40094374 -21 28 C-20.67696506 24.01590241 -22.7788245 21.98177031 -25.1875 19.0625 C-25.75855469 18.43472656 -26.32960938 17.80695313 -26.91796875 17.16015625 C-28 15 -28 15 -27.515625 11.9453125 C-24.40967905 5.90953094 -17.02142404 4.00588556 -10.8671875 1.95703125 C-7.15550736 0.90291409 -3.86954878 0 0 0 Z " fill="#005AA1" transform="translate(173,71)"/>
<path d="M0 0 C0 3.96 0 7.92 0 12 C-2.57161458 13.26953125 -5.14322917 14.5390625 -7.71484375 15.80859375 C-9.90528904 16.80525394 -9.90528904 16.80525394 -11 18 C-11.50265692 20.78839304 -11.50265692 20.78839304 -11 24 C-10.175 24.969375 -9.35 25.93875 -8.5 26.9375 C-6 30 -6 30 -5.3125 33.5625 C-6.04092433 37.20462165 -6.85899457 38.69595406 -9.90234375 40.82421875 C-19.74221974 46.33967996 -30.60069732 48.460239 -41.53417969 50.76928711 C-54.12028812 53.48584228 -67.48101431 57.72152147 -75 69 C-75.66 69.99 -76.32 70.98 -77 72 C-77.56683071 78.91533465 -76.22000462 82.71110427 -72.3125 88.5 C-69.22436025 91.83852946 -65.70475052 94.38329514 -62 97 C-62.99 97.495 -62.99 97.495 -64 98 C-66.60995625 96.77196278 -69.06459837 95.49116718 -71.5625 94.0625 C-72.64470825 93.44713379 -72.64470825 93.44713379 -73.7487793 92.81933594 C-81.47410951 88.30963862 -90.0723263 82.90546402 -92.6171875 73.7890625 C-93.26349309 68.36401257 -92.8116609 64.87354556 -90 60 C-87.625 57.3125 -87.625 57.3125 -85 55 C-84.278125 54.34 -83.55625 53.68 -82.8125 53 C-73.01941222 46.03602647 -61.82432833 43.4424963 -50.33984375 40.59375 C-49.33655029 40.34101318 -48.33325684 40.08827637 -47.29956055 39.82788086 C-45.31811105 39.33057526 -43.33397868 38.84379808 -41.34692383 38.36938477 C-29.69957 35.53270408 -29.69957 35.53270408 -21 28 C-21 23.21772259 -23.86429692 20.51712731 -26.91796875 17.16015625 C-28 15 -28 15 -27.515625 11.9453125 C-24.40967905 5.90953094 -17.02142404 4.00588556 -10.8671875 1.95703125 C-7.15550736 0.90291409 -3.86954878 0 0 0 Z " fill="#00437C" transform="translate(173,71)"/>
</svg>
