<svg id="svg" version="1.1" xmlns="http://www.w3.org/2000/svg" xmlns:xlink="http://www.w3.org/1999/xlink" width="400" height="400" viewBox="0, 0, 400,400"><g id="svgg"><path id="path0" d="M78.554 126.977 C 78.432 127.294,78.417 127.879,78.520 128.277 C 78.642 128.750,78.723 128.620,78.754 127.900 C 78.810 126.566,78.569 126.557,81.208 127.993 C 82.414 128.649,84.300 129.632,85.400 130.179 C 86.500 130.725,89.020 132.073,91.000 133.175 C 92.980 134.276,95.323 135.518,96.206 135.934 C 97.089 136.350,98.046 136.974,98.333 137.320 C 98.620 137.666,99.381 138.064,100.023 138.205 C 100.665 138.346,101.306 138.648,101.447 138.875 C 101.587 139.103,102.624 139.719,103.751 140.244 C 104.878 140.769,106.070 141.379,106.400 141.600 C 106.730 141.820,107.450 142.193,108.000 142.428 C 108.550 142.663,109.900 143.378,111.000 144.015 C 112.100 144.653,113.810 145.607,114.800 146.135 C 115.790 146.663,117.410 147.565,118.400 148.141 C 121.053 149.682,123.264 150.899,125.032 151.793 C 125.894 152.229,132.006 155.579,138.613 159.238 C 145.219 162.897,151.069 166.026,151.613 166.193 C 152.156 166.359,152.870 166.714,153.200 166.983 C 153.530 167.251,155.870 168.589,158.400 169.956 C 160.930 171.323,163.270 172.617,163.600 172.831 C 163.930 173.045,164.941 173.573,165.847 174.005 C 166.753 174.437,167.705 175.045,167.964 175.356 C 168.222 175.667,168.880 176.034,169.426 176.171 C 169.972 176.308,174.451 178.665,179.379 181.410 C 184.306 184.154,188.473 186.400,188.638 186.400 C 188.802 186.400,189.221 186.655,189.569 186.967 C 189.916 187.278,191.820 188.368,193.800 189.389 C 195.780 190.409,197.940 191.564,198.600 191.955 L 199.800 192.665 199.800 263.699 C 199.800 302.768,199.678 334.856,199.528 335.005 C 199.262 335.271,196.206 333.828,192.200 331.544 C 191.100 330.916,189.480 330.043,188.600 329.602 C 187.720 329.161,186.654 328.533,186.231 328.205 C 185.807 327.878,184.848 327.495,184.099 327.355 C 183.349 327.214,182.645 326.860,182.533 326.569 C 182.421 326.277,181.670 325.826,180.865 325.566 C 180.059 325.306,179.078 324.758,178.684 324.347 C 178.291 323.936,177.782 323.600,177.554 323.600 C 176.886 323.600,179.304 325.462,180.400 325.791 C 180.950 325.957,181.760 326.408,182.200 326.793 C 182.640 327.179,183.526 327.620,184.168 327.772 C 184.811 327.925,185.780 328.398,186.322 328.825 C 186.864 329.251,187.529 329.600,187.800 329.600 C 188.071 329.600,188.730 329.944,189.264 330.365 C 189.799 330.785,191.722 331.910,193.539 332.865 C 195.355 333.819,197.237 334.822,197.721 335.094 C 199.008 335.818,200.955 335.708,202.046 334.850 C 202.988 334.110,204.596 333.215,207.883 331.603 C 208.809 331.149,209.667 330.615,209.789 330.418 C 209.911 330.220,210.684 329.840,211.506 329.573 C 212.328 329.305,213.144 328.843,213.319 328.544 C 213.495 328.246,214.455 327.796,215.453 327.545 C 216.452 327.293,217.359 326.852,217.469 326.563 C 217.580 326.275,218.330 325.828,219.135 325.570 C 219.941 325.312,220.960 324.777,221.400 324.380 C 221.840 323.984,222.682 323.540,223.271 323.394 C 223.859 323.248,224.652 322.784,225.033 322.364 C 225.413 321.944,226.030 321.600,226.404 321.600 C 226.777 321.600,227.569 321.150,228.162 320.600 C 228.756 320.050,229.566 319.600,229.962 319.600 C 230.359 319.600,231.144 319.173,231.707 318.651 C 232.270 318.129,233.359 317.584,234.127 317.440 C 234.895 317.296,235.618 316.931,235.733 316.629 C 235.849 316.328,236.632 315.857,237.472 315.584 C 238.312 315.310,239.136 314.856,239.303 314.573 C 239.470 314.291,240.280 313.844,241.103 313.581 C 241.926 313.317,242.960 312.784,243.400 312.397 C 243.840 312.009,244.636 311.559,245.169 311.397 C 245.702 311.235,246.501 310.764,246.945 310.351 C 247.388 309.938,247.952 309.600,248.198 309.600 C 248.443 309.600,249.242 309.159,249.972 308.621 C 250.701 308.082,251.801 307.531,252.416 307.397 C 253.030 307.262,253.626 306.910,253.739 306.616 C 253.852 306.321,254.632 305.860,255.472 305.590 C 256.312 305.320,257.277 304.858,257.615 304.565 C 257.953 304.271,258.853 303.740,259.615 303.384 C 260.377 303.029,261.900 302.221,263.000 301.590 C 264.100 300.958,265.720 300.063,266.600 299.600 C 267.480 299.137,269.100 298.235,270.200 297.595 C 271.300 296.956,272.958 296.060,273.883 295.605 C 274.809 295.150,275.672 294.607,275.800 294.399 C 275.929 294.192,276.756 293.827,277.638 293.590 C 278.520 293.352,279.574 292.826,279.980 292.420 C 280.386 292.014,281.277 291.559,281.959 291.409 C 282.642 291.259,283.200 290.964,283.200 290.754 C 283.200 290.544,284.051 290.007,285.092 289.561 C 286.133 289.115,287.078 288.616,287.192 288.452 C 287.306 288.289,288.210 287.741,289.200 287.236 C 291.077 286.276,292.444 285.517,295.800 283.568 C 296.900 282.929,298.430 282.131,299.200 281.794 C 299.970 281.456,300.870 281.000,301.200 280.780 C 301.530 280.560,302.520 280.008,303.400 279.553 C 304.280 279.098,305.900 278.212,307.000 277.583 C 308.100 276.955,309.720 276.063,310.600 275.600 C 311.480 275.137,313.100 274.236,314.200 273.597 C 315.300 272.958,316.832 272.112,317.605 271.718 C 318.378 271.323,319.563 270.604,320.239 270.120 L 321.468 269.240 321.723 199.015 C 321.907 148.517,321.855 128.520,321.541 127.829 L 321.103 126.869 317.251 128.902 C 315.133 130.021,312.500 131.437,311.400 132.050 C 310.300 132.663,308.680 133.542,307.800 134.003 C 306.920 134.464,305.300 135.356,304.200 135.986 C 303.100 136.616,301.390 137.560,300.400 138.085 C 299.410 138.610,296.530 140.137,294.000 141.479 C 291.470 142.820,288.352 144.474,287.071 145.153 C 285.789 145.832,284.280 146.751,283.717 147.194 C 283.153 147.637,282.434 148.000,282.119 148.000 C 281.804 148.000,280.957 148.450,280.236 149.000 C 279.514 149.550,278.651 150.000,278.316 150.000 C 277.982 150.000,277.279 150.334,276.754 150.743 C 276.229 151.151,274.990 151.865,274.000 152.329 C 273.010 152.792,270.580 154.084,268.600 155.198 C 266.620 156.313,264.370 157.507,263.600 157.852 C 262.830 158.197,261.930 158.708,261.600 158.987 C 260.981 159.510,257.490 161.424,250.695 164.965 C 248.548 166.084,245.938 167.481,244.895 168.069 C 243.853 168.657,242.377 169.429,241.615 169.784 C 240.853 170.140,239.953 170.672,239.615 170.968 C 239.277 171.264,238.550 171.641,238.000 171.807 C 237.450 171.974,236.491 172.535,235.869 173.055 C 235.247 173.575,234.508 174.000,234.225 174.000 C 233.943 174.000,233.049 174.450,232.238 175.000 C 231.428 175.550,230.585 176.000,230.366 176.000 C 230.147 176.000,226.733 177.800,222.780 180.000 C 218.828 182.200,215.439 184.000,215.251 184.000 C 215.062 184.000,214.456 184.356,213.903 184.790 C 213.351 185.225,210.671 186.718,207.949 188.108 C 205.227 189.498,202.540 190.940,201.978 191.312 C 200.860 192.053,198.900 191.758,197.645 190.659 C 197.290 190.349,196.550 189.960,196.000 189.795 C 195.450 189.630,194.522 189.159,193.938 188.748 C 193.354 188.336,192.704 188.000,192.494 188.000 C 192.284 188.000,191.416 187.528,190.566 186.951 C 189.716 186.374,187.756 185.231,186.210 184.412 C 183.020 182.720,180.137 181.124,177.800 179.755 C 176.920 179.240,175.390 178.390,174.400 177.866 C 173.410 177.342,172.060 176.619,171.400 176.259 C 170.740 175.899,169.907 175.604,169.549 175.602 C 169.191 175.601,168.672 175.328,168.396 174.995 C 168.120 174.663,167.153 174.025,166.247 173.579 C 165.341 173.133,163.700 172.252,162.600 171.621 C 161.500 170.990,159.880 170.092,159.000 169.625 C 158.120 169.157,156.680 168.334,155.800 167.796 C 154.920 167.257,153.570 166.521,152.800 166.159 C 152.030 165.798,150.950 165.245,150.400 164.932 C 149.850 164.619,148.680 164.008,147.800 163.575 C 146.920 163.142,145.300 162.266,144.200 161.629 C 140.445 159.454,135.508 156.700,133.400 155.604 C 132.520 155.147,130.900 154.238,129.800 153.586 C 128.700 152.933,127.350 152.222,126.800 152.006 C 126.250 151.790,125.350 151.352,124.800 151.033 C 124.250 150.715,123.080 150.081,122.200 149.626 C 121.320 149.170,119.880 148.354,119.000 147.812 C 118.120 147.270,116.545 146.437,115.500 145.960 C 114.455 145.483,113.600 144.951,113.600 144.778 C 113.600 144.604,112.925 144.246,112.100 143.982 C 111.275 143.718,110.240 143.184,109.800 142.797 C 109.360 142.409,108.550 141.960,108.000 141.799 C 107.450 141.637,106.730 141.270,106.400 140.981 C 106.070 140.693,104.990 140.082,104.000 139.622 C 103.010 139.163,101.300 138.266,100.200 137.629 C 99.100 136.991,97.660 136.186,97.000 135.838 C 96.340 135.491,94.900 134.663,93.800 133.998 C 92.700 133.334,90.900 132.342,89.800 131.795 C 88.700 131.249,87.530 130.630,87.200 130.421 C 86.870 130.212,86.130 129.807,85.555 129.521 C 84.980 129.234,83.410 128.415,82.066 127.700 C 79.328 126.243,78.871 126.149,78.554 126.977 M79.400 270.194 C 80.060 270.761,81.320 271.575,82.200 272.003 C 83.863 272.811,84.626 273.254,86.531 274.519 C 87.154 274.932,87.771 275.163,87.902 275.031 C 88.245 274.688,86.788 273.681,85.533 273.394 C 84.947 273.261,84.371 272.902,84.255 272.598 C 84.138 272.294,83.313 271.826,82.421 271.559 C 81.530 271.292,80.800 270.926,80.800 270.747 C 80.800 270.567,80.215 270.138,79.500 269.792 L 78.200 269.163 79.400 270.194 M89.600 276.028 C 90.370 276.517,92.338 277.624,93.973 278.487 C 95.608 279.351,97.388 280.404,97.927 280.829 C 98.467 281.253,99.219 281.600,99.600 281.600 C 99.981 281.600,100.724 281.940,101.253 282.356 C 101.781 282.771,102.840 283.414,103.607 283.783 C 106.647 285.249,108.482 286.285,108.735 286.679 C 108.881 286.906,109.450 287.223,110.000 287.383 L 111.000 287.674 110.038 286.971 C 108.823 286.083,106.283 284.629,104.153 283.603 C 103.247 283.166,102.289 282.549,102.025 282.230 C 101.761 281.912,100.979 281.527,100.288 281.375 C 99.597 281.224,98.574 280.790,98.016 280.412 C 95.053 278.408,93.718 277.600,93.371 277.600 C 93.159 277.600,92.359 277.175,91.593 276.656 C 90.827 276.138,89.750 275.584,89.200 275.426 C 88.415 275.200,88.501 275.329,89.600 276.028 M112.400 288.600 C 113.145 289.150,113.966 289.600,114.224 289.600 C 114.481 289.600,115.166 289.973,115.746 290.429 C 116.326 290.885,116.800 291.087,116.800 290.878 C 116.800 290.337,116.004 289.785,114.488 289.275 C 113.767 289.032,112.899 288.556,112.560 288.217 C 112.220 287.877,111.741 287.600,111.494 287.600 C 111.247 287.600,111.655 288.050,112.400 288.600 M117.992 291.646 C 118.537 291.864,119.266 292.298,119.612 292.611 C 119.957 292.923,121.033 293.459,122.004 293.801 C 122.974 294.144,123.865 294.573,123.984 294.755 C 124.103 294.937,125.010 295.478,126.000 295.956 C 128.023 296.933,130.619 298.366,133.000 299.819 C 133.880 300.356,135.455 301.181,136.500 301.651 C 137.545 302.122,138.400 302.649,138.400 302.822 C 138.400 302.996,139.032 303.346,139.804 303.601 C 140.576 303.856,141.431 304.280,141.704 304.543 C 142.516 305.326,146.443 307.131,146.282 306.647 C 146.201 306.401,145.402 305.929,144.507 305.598 C 143.612 305.267,142.547 304.703,142.140 304.346 C 141.733 303.988,140.950 303.563,140.400 303.401 C 139.850 303.240,139.040 302.782,138.600 302.384 C 138.160 301.985,137.318 301.540,136.729 301.394 C 136.141 301.248,135.348 300.784,134.967 300.364 C 134.587 299.944,133.970 299.600,133.596 299.600 C 133.223 299.600,132.449 299.166,131.876 298.636 C 131.304 298.105,130.303 297.554,129.651 297.411 C 129.000 297.268,128.374 296.910,128.261 296.616 C 128.148 296.321,127.368 295.860,126.528 295.591 C 125.688 295.322,124.640 294.787,124.200 294.403 C 123.760 294.019,122.910 293.589,122.310 293.447 C 121.711 293.306,120.561 292.742,119.755 292.195 C 118.948 291.648,117.998 291.211,117.644 291.225 C 117.257 291.241,117.395 291.408,117.992 291.646 M149.200 308.600 C 149.945 309.150,150.735 309.600,150.955 309.600 C 151.175 309.600,150.745 309.150,150.000 308.600 C 149.255 308.050,148.465 307.600,148.245 307.600 C 148.025 307.600,148.455 308.050,149.200 308.600 M152.800 310.600 C 153.545 311.150,154.335 311.600,154.555 311.600 C 154.775 311.600,154.345 311.150,153.600 310.600 C 152.855 310.050,152.065 309.600,151.845 309.600 C 151.625 309.600,152.055 310.050,152.800 310.600 M156.033 312.433 C 156.492 312.892,156.950 313.183,157.052 313.081 C 157.294 312.839,156.055 311.600,155.571 311.600 C 155.367 311.600,155.575 311.975,156.033 312.433 M158.627 313.804 C 159.302 314.101,160.089 314.626,160.376 314.972 C 160.663 315.317,161.191 315.589,161.549 315.575 C 161.990 315.557,161.909 315.432,161.300 315.188 C 160.805 314.989,160.400 314.658,160.400 314.452 C 160.400 314.246,159.833 313.881,159.140 313.639 C 157.429 313.043,157.120 313.142,158.627 313.804 M163.256 316.366 C 163.775 316.787,164.290 317.042,164.399 316.933 C 164.634 316.700,163.215 315.600,162.679 315.600 C 162.477 315.600,162.736 315.945,163.256 316.366 M165.800 317.682 C 166.460 317.913,167.360 318.418,167.800 318.805 C 168.240 319.192,169.050 319.640,169.600 319.801 C 170.150 319.963,170.941 320.388,171.358 320.747 C 171.983 321.285,172.083 321.295,171.927 320.805 C 171.822 320.477,171.031 319.945,170.168 319.621 C 169.306 319.298,168.420 318.809,168.200 318.535 C 167.762 317.988,165.826 317.181,165.074 317.232 C 164.813 317.249,165.140 317.452,165.800 317.682 M173.600 321.891 C 173.930 322.017,174.629 322.453,175.154 322.860 C 175.679 323.267,176.299 323.600,176.532 323.600 C 176.765 323.600,176.345 323.150,175.600 322.600 C 174.855 322.050,173.965 321.614,173.622 321.632 C 173.083 321.659,173.080 321.694,173.600 321.891 " stroke="none" fill="#05d2bb" fill-rule="evenodd"></path><path id="path1" d="M78.657 128.300 C 78.520 129.125,78.407 161.160,78.404 199.490 L 78.400 269.179 79.600 269.800 C 80.260 270.141,80.800 270.567,80.800 270.747 C 80.800 270.926,81.530 271.292,82.421 271.559 C 83.313 271.826,84.138 272.294,84.255 272.598 C 84.371 272.902,84.967 273.261,85.579 273.395 C 86.191 273.530,87.045 273.969,87.477 274.371 C 87.908 274.773,88.698 275.240,89.231 275.408 C 89.764 275.576,90.827 276.138,91.593 276.656 C 92.359 277.175,93.159 277.600,93.371 277.600 C 93.718 277.600,95.053 278.408,98.016 280.412 C 98.574 280.790,99.597 281.224,100.288 281.375 C 100.979 281.527,101.761 281.912,102.025 282.230 C 102.289 282.549,103.247 283.165,104.153 283.599 C 105.059 284.034,106.700 284.936,107.800 285.604 C 108.900 286.272,110.475 287.111,111.300 287.470 C 112.125 287.828,112.800 288.267,112.800 288.445 C 112.800 288.622,113.540 288.990,114.444 289.261 C 115.349 289.532,116.292 290.079,116.541 290.477 C 116.789 290.874,117.284 291.200,117.640 291.200 C 117.997 291.200,118.948 291.648,119.755 292.195 C 120.561 292.742,121.711 293.306,122.310 293.447 C 122.910 293.589,123.760 294.019,124.200 294.403 C 124.640 294.787,125.688 295.322,126.528 295.591 C 127.368 295.860,128.148 296.321,128.261 296.616 C 128.374 296.910,129.000 297.268,129.651 297.411 C 130.303 297.554,131.304 298.105,131.876 298.636 C 132.449 299.166,133.223 299.600,133.596 299.600 C 133.970 299.600,134.587 299.944,134.967 300.364 C 135.348 300.784,136.141 301.248,136.729 301.394 C 137.318 301.540,138.160 301.985,138.600 302.384 C 139.040 302.782,139.850 303.239,140.400 303.400 C 140.950 303.561,141.760 304.009,142.200 304.397 C 142.640 304.784,143.688 305.322,144.528 305.591 C 145.368 305.860,146.146 306.316,146.257 306.604 C 146.367 306.892,146.940 307.245,147.529 307.389 C 148.118 307.533,149.230 308.048,150.000 308.534 C 152.007 309.802,153.599 310.692,155.186 311.434 C 155.949 311.791,156.759 312.314,156.986 312.597 C 157.214 312.880,158.059 313.320,158.865 313.575 C 159.670 313.830,160.423 314.283,160.538 314.582 C 160.652 314.880,161.316 315.250,162.014 315.403 C 162.711 315.556,163.582 315.982,163.950 316.350 C 164.318 316.718,165.389 317.250,166.331 317.532 C 167.272 317.814,168.138 318.294,168.255 318.598 C 168.371 318.902,169.000 319.268,169.651 319.411 C 170.303 319.554,171.304 320.105,171.876 320.636 C 172.449 321.166,173.216 321.600,173.581 321.600 C 173.946 321.600,174.855 322.050,175.600 322.600 C 176.345 323.150,177.183 323.600,177.462 323.600 C 177.741 323.600,178.291 323.936,178.684 324.347 C 179.078 324.758,180.059 325.306,180.865 325.566 C 181.670 325.826,182.421 326.277,182.533 326.569 C 182.645 326.860,183.349 327.214,184.099 327.355 C 184.848 327.495,185.807 327.878,186.231 328.205 C 186.654 328.533,187.720 329.161,188.600 329.602 C 189.480 330.043,191.100 330.916,192.200 331.544 C 196.206 333.828,199.262 335.271,199.528 335.005 C 199.678 334.856,199.800 302.768,199.800 263.699 L 199.800 192.665 198.600 191.955 C 197.940 191.564,195.780 190.409,193.800 189.389 C 191.820 188.368,189.916 187.278,189.569 186.967 C 189.221 186.655,188.802 186.400,188.638 186.400 C 188.473 186.400,184.306 184.154,179.379 181.410 C 174.451 178.665,169.972 176.308,169.426 176.171 C 168.880 176.034,168.222 175.667,167.964 175.356 C 167.705 175.045,166.753 174.437,165.847 174.005 C 164.941 173.573,163.930 173.045,163.600 172.831 C 163.270 172.617,160.930 171.323,158.400 169.956 C 155.870 168.589,153.530 167.251,153.200 166.983 C 152.870 166.714,152.156 166.359,151.613 166.193 C 151.069 166.026,145.219 162.897,138.613 159.238 C 132.006 155.579,125.894 152.229,125.032 151.793 C 123.264 150.899,121.053 149.682,118.400 148.141 C 117.410 147.565,115.790 146.663,114.800 146.135 C 113.810 145.607,112.100 144.653,111.000 144.015 C 109.900 143.378,108.550 142.663,108.000 142.428 C 107.450 142.193,106.730 141.820,106.400 141.600 C 106.070 141.379,104.878 140.769,103.751 140.244 C 102.624 139.719,101.587 139.103,101.447 138.875 C 101.306 138.648,100.665 138.346,100.023 138.205 C 99.381 138.064,98.620 137.666,98.333 137.320 C 98.046 136.974,97.089 136.350,96.206 135.934 C 95.323 135.518,92.980 134.276,91.000 133.175 C 89.020 132.073,86.500 130.725,85.400 130.179 C 84.300 129.632,82.414 128.649,81.208 127.993 C 80.002 127.337,78.991 126.800,78.960 126.800 C 78.930 126.800,78.793 127.475,78.657 128.300 " stroke="none" fill="#83ebdb" fill-rule="evenodd"></path><path id="path2" d="M197.600 60.760 C 196.830 61.177,195.480 61.897,194.600 62.361 C 193.720 62.824,192.100 63.731,191.000 64.377 C 189.900 65.023,188.280 65.931,187.400 66.396 C 186.520 66.861,184.900 67.758,183.800 68.390 C 182.700 69.021,181.177 69.829,180.415 70.184 C 179.653 70.540,178.753 71.071,178.415 71.365 C 178.077 71.658,177.104 72.122,176.254 72.396 C 175.403 72.669,174.387 73.213,173.994 73.606 C 173.602 73.998,172.723 74.441,172.041 74.591 C 171.358 74.741,170.800 75.007,170.800 75.183 C 170.800 75.358,169.945 75.900,168.900 76.388 C 166.199 77.648,164.713 78.496,163.419 79.513 C 162.799 80.001,161.963 80.400,161.562 80.400 C 161.160 80.400,160.509 80.745,160.116 81.168 C 159.722 81.590,158.860 82.067,158.200 82.228 C 157.540 82.390,156.491 82.944,155.869 83.461 C 155.247 83.977,154.517 84.400,154.247 84.400 C 153.977 84.400,153.158 84.841,152.428 85.379 C 151.699 85.918,150.599 86.469,149.984 86.603 C 149.370 86.738,148.774 87.090,148.661 87.384 C 148.548 87.679,147.768 88.146,146.928 88.423 C 146.088 88.700,144.950 89.230,144.400 89.601 C 141.164 91.783,140.092 92.400,139.540 92.400 C 139.201 92.400,138.607 92.750,138.221 93.177 C 137.834 93.605,137.004 94.067,136.377 94.205 C 135.750 94.343,134.790 94.808,134.242 95.238 C 133.695 95.669,132.651 96.300,131.923 96.642 C 131.196 96.983,129.700 97.779,128.600 98.410 C 127.500 99.042,125.880 99.937,125.000 100.400 C 124.120 100.863,122.500 101.763,121.400 102.400 C 120.300 103.037,118.655 103.913,117.744 104.346 C 116.833 104.779,115.976 105.315,115.839 105.536 C 115.703 105.757,115.008 106.066,114.295 106.221 C 113.583 106.376,112.491 106.930,111.869 107.452 C 111.247 107.973,110.517 108.400,110.247 108.400 C 109.977 108.400,109.158 108.841,108.428 109.379 C 107.699 109.918,106.584 110.472,105.951 110.611 C 105.318 110.750,104.800 111.036,104.800 111.246 C 104.800 111.456,104.035 111.979,103.100 112.408 C 101.499 113.142,99.071 114.474,95.400 116.633 C 94.520 117.151,93.170 117.855,92.400 118.197 C 91.630 118.539,90.730 118.997,90.400 119.215 C 90.070 119.432,89.080 119.971,88.200 120.411 C 87.320 120.852,85.700 121.740,84.600 122.386 C 83.500 123.031,81.767 123.943,80.749 124.412 C 77.789 125.777,78.000 120.096,78.000 198.349 L 78.000 269.461 78.900 270.271 C 79.395 270.716,80.070 271.213,80.400 271.374 C 80.730 271.535,80.413 271.157,79.696 270.534 L 78.393 269.400 78.396 198.087 C 78.399 137.436,78.483 126.743,78.958 126.561 C 79.265 126.443,80.640 126.943,82.013 127.673 C 83.386 128.403,84.980 129.234,85.555 129.521 C 86.130 129.807,86.870 130.212,87.200 130.421 C 87.530 130.630,88.700 131.249,89.800 131.795 C 90.900 132.342,92.700 133.334,93.800 133.998 C 94.900 134.663,96.340 135.491,97.000 135.838 C 97.660 136.186,99.100 136.991,100.200 137.629 C 101.300 138.266,103.010 139.163,104.000 139.622 C 104.990 140.082,106.070 140.693,106.400 140.981 C 106.730 141.270,107.450 141.637,108.000 141.799 C 108.550 141.960,109.360 142.409,109.800 142.797 C 110.240 143.184,111.275 143.718,112.100 143.982 C 112.925 144.246,113.600 144.604,113.600 144.778 C 113.600 144.951,114.455 145.483,115.500 145.960 C 116.545 146.437,118.120 147.270,119.000 147.812 C 119.880 148.354,121.320 149.170,122.200 149.626 C 123.080 150.081,124.250 150.715,124.800 151.033 C 125.350 151.352,126.250 151.790,126.800 152.006 C 127.350 152.222,128.700 152.933,129.800 153.586 C 130.900 154.238,132.520 155.147,133.400 155.604 C 135.508 156.700,140.445 159.454,144.200 161.629 C 145.300 162.266,146.920 163.142,147.800 163.575 C 148.680 164.008,149.850 164.619,150.400 164.932 C 150.950 165.245,152.030 165.798,152.800 166.159 C 153.570 166.521,154.920 167.257,155.800 167.796 C 156.680 168.334,158.120 169.157,159.000 169.625 C 159.880 170.092,161.500 170.990,162.600 171.621 C 163.700 172.252,165.341 173.133,166.247 173.579 C 167.153 174.025,168.120 174.663,168.396 174.995 C 168.672 175.328,169.191 175.601,169.549 175.602 C 169.907 175.604,170.740 175.899,171.400 176.259 C 172.060 176.619,173.410 177.342,174.400 177.866 C 175.390 178.390,176.920 179.240,177.800 179.755 C 180.137 181.124,183.020 182.720,186.210 184.412 C 187.756 185.231,189.716 186.374,190.566 186.951 C 191.416 187.528,192.284 188.000,192.494 188.000 C 192.704 188.000,193.354 188.336,193.938 188.748 C 194.522 189.159,195.450 189.630,196.000 189.795 C 196.550 189.960,197.290 190.349,197.645 190.659 C 198.900 191.758,200.860 192.053,201.978 191.312 C 202.540 190.940,205.227 189.498,207.949 188.108 C 210.671 186.718,213.351 185.225,213.903 184.790 C 214.456 184.356,215.062 184.000,215.251 184.000 C 215.439 184.000,218.828 182.200,222.780 180.000 C 226.733 177.800,230.147 176.000,230.366 176.000 C 230.585 176.000,231.428 175.550,232.238 175.000 C 233.049 174.450,233.943 174.000,234.225 174.000 C 234.508 174.000,235.247 173.575,235.869 173.055 C 236.491 172.535,237.450 171.974,238.000 171.807 C 238.550 171.641,239.277 171.264,239.615 170.968 C 239.953 170.672,240.853 170.140,241.615 169.784 C 242.377 169.429,243.853 168.657,244.895 168.069 C 245.938 167.481,248.548 166.084,250.695 164.965 C 257.490 161.424,260.981 159.510,261.600 158.987 C 261.930 158.708,262.830 158.197,263.600 157.852 C 264.370 157.507,266.620 156.313,268.600 155.198 C 270.580 154.084,273.010 152.792,274.000 152.329 C 274.990 151.865,276.229 151.151,276.754 150.743 C 277.279 150.334,277.982 150.000,278.316 150.000 C 278.651 150.000,279.514 149.550,280.236 149.000 C 280.957 148.450,281.804 148.000,282.119 148.000 C 282.434 148.000,283.153 147.637,283.717 147.194 C 284.280 146.751,285.789 145.832,287.071 145.153 C 288.352 144.474,291.470 142.820,294.000 141.479 C 296.530 140.137,299.410 138.610,300.400 138.085 C 301.390 137.560,303.100 136.616,304.200 135.986 C 305.300 135.356,306.920 134.464,307.800 134.003 C 308.680 133.542,310.300 132.663,311.400 132.050 C 319.154 127.730,321.129 126.842,321.467 127.526 C 321.650 127.897,321.893 137.200,322.007 148.200 L 322.215 168.200 322.307 147.662 C 322.411 124.773,322.510 125.655,319.672 124.294 C 318.863 123.906,317.300 123.049,316.200 122.390 C 315.100 121.730,313.480 120.835,312.600 120.401 C 311.720 119.966,310.730 119.439,310.400 119.230 C 310.070 119.022,309.170 118.541,308.400 118.162 C 304.125 116.060,303.200 115.536,303.200 115.216 C 303.200 115.022,302.668 114.747,302.019 114.604 C 301.369 114.461,300.421 114.017,299.912 113.617 C 299.403 113.216,298.360 112.591,297.593 112.227 C 296.827 111.862,295.300 111.042,294.200 110.403 C 293.100 109.764,291.480 108.868,290.600 108.411 C 289.720 107.954,288.550 107.333,288.000 107.031 C 287.450 106.729,286.370 106.189,285.600 105.832 C 284.830 105.475,283.480 104.743,282.600 104.205 C 281.720 103.667,280.145 102.837,279.100 102.360 C 278.055 101.883,277.200 101.337,277.200 101.147 C 277.200 100.956,277.003 100.800,276.762 100.800 C 276.520 100.800,274.792 99.945,272.921 98.900 C 267.232 95.723,262.690 93.279,260.900 92.432 C 259.965 91.990,259.200 91.462,259.200 91.258 C 259.200 91.054,258.705 90.766,258.100 90.618 C 257.495 90.470,256.370 89.952,255.600 89.466 C 253.505 88.143,251.997 87.312,250.008 86.385 C 249.022 85.925,248.122 85.401,248.008 85.220 C 247.894 85.038,247.170 84.603,246.400 84.253 C 245.630 83.903,244.730 83.440,244.400 83.226 C 244.070 83.011,242.990 82.471,242.000 82.025 C 239.763 81.017,235.460 78.656,233.600 77.414 C 232.830 76.900,231.750 76.350,231.200 76.190 C 230.650 76.031,229.878 75.563,229.484 75.150 C 229.091 74.738,228.425 74.400,228.005 74.400 C 227.585 74.400,226.756 73.950,226.162 73.400 C 225.569 72.850,224.832 72.400,224.524 72.400 C 224.217 72.400,222.758 71.735,221.283 70.922 C 219.807 70.109,217.790 69.012,216.800 68.483 C 215.810 67.955,214.100 67.003,213.000 66.368 C 211.900 65.732,210.280 64.840,209.400 64.385 C 208.520 63.931,206.900 63.036,205.800 62.397 C 201.194 59.722,199.967 59.477,197.600 60.760 M321.794 220.400 C 321.794 247.130,321.842 258.065,321.900 244.700 C 321.958 231.335,321.958 209.465,321.900 196.100 C 321.842 182.735,321.794 193.670,321.794 220.400 M320.400 270.020 C 319.850 270.461,318.804 271.082,318.077 271.400 C 316.610 272.041,314.478 273.600,315.068 273.600 C 315.275 273.600,316.055 273.150,316.800 272.600 C 317.545 272.050,318.345 271.595,318.578 271.589 C 318.810 271.583,319.630 271.048,320.400 270.400 C 321.964 269.084,321.964 268.766,320.400 270.020 M81.233 271.731 C 81.994 272.326,84.400 273.615,84.400 273.427 C 84.400 273.126,81.926 271.604,81.433 271.601 C 81.232 271.601,81.142 271.659,81.233 271.731 M85.800 274.414 C 86.460 274.858,87.720 275.574,88.600 276.004 C 90.984 277.169,95.199 279.518,96.891 280.625 C 97.712 281.161,98.501 281.600,98.645 281.600 C 99.524 281.600,93.615 278.065,88.600 275.590 C 87.720 275.156,86.651 274.530,86.224 274.200 C 85.796 273.870,85.256 273.601,85.024 273.603 C 84.791 273.604,85.140 273.969,85.800 274.414 M312.744 274.387 C 311.502 275.422,312.176 275.434,313.491 274.400 C 314.050 273.960,314.324 273.600,314.098 273.600 C 313.873 273.600,313.264 273.954,312.744 274.387 M309.144 276.387 C 307.902 277.422,308.576 277.434,309.891 276.400 C 310.450 275.960,310.724 275.600,310.498 275.600 C 310.273 275.600,309.664 275.954,309.144 276.387 M305.554 278.327 C 305.029 278.727,304.021 279.286,303.313 279.570 C 302.606 279.854,301.814 280.342,301.555 280.654 C 301.296 280.966,302.055 280.730,303.242 280.128 C 305.611 278.928,307.536 277.600,306.908 277.600 C 306.688 277.600,306.079 277.927,305.554 278.327 M100.400 282.362 C 104.235 284.447,105.793 285.152,104.856 284.379 C 104.336 283.951,103.696 283.600,103.433 283.600 C 103.171 283.600,102.345 283.150,101.600 282.600 C 100.855 282.050,99.965 281.600,99.622 281.601 C 99.280 281.601,99.630 281.944,100.400 282.362 M297.954 282.345 C 297.429 282.755,296.628 283.207,296.172 283.349 C 295.320 283.616,292.440 285.600,292.905 285.600 C 293.047 285.600,293.828 285.150,294.638 284.600 C 295.449 284.050,296.344 283.600,296.627 283.600 C 296.911 283.600,297.381 283.363,297.671 283.074 C 297.962 282.785,298.560 282.340,299.000 282.086 C 299.440 281.832,299.599 281.619,299.354 281.612 C 299.109 281.605,298.479 281.935,297.954 282.345 M107.656 286.366 C 108.175 286.787,108.690 287.042,108.799 286.933 C 109.034 286.700,107.615 285.600,107.079 285.600 C 106.877 285.600,107.136 285.945,107.656 286.366 M290.411 286.620 C 289.647 287.159,289.208 287.600,289.434 287.600 C 289.660 287.600,290.455 287.150,291.200 286.600 C 292.948 285.310,292.241 285.328,290.411 286.620 M110.600 288.019 C 111.480 288.470,113.100 289.363,114.200 290.002 C 115.300 290.641,116.740 291.435,117.400 291.765 C 118.060 292.095,119.140 292.732,119.800 293.180 C 120.460 293.628,121.270 293.989,121.600 293.982 C 121.930 293.975,121.660 293.698,121.000 293.366 C 120.340 293.035,118.900 292.240,117.800 291.599 C 116.700 290.959,115.191 290.145,114.446 289.790 C 113.701 289.435,112.621 288.812,112.046 288.406 C 111.471 288.000,110.550 287.562,110.000 287.433 C 109.377 287.287,109.603 287.508,110.600 288.019 M287.529 288.126 C 287.238 288.415,286.640 288.860,286.200 289.114 C 285.760 289.368,285.590 289.581,285.822 289.588 C 286.055 289.595,286.855 289.150,287.600 288.600 C 288.345 288.050,288.753 287.600,288.506 287.600 C 288.259 287.600,287.819 287.837,287.529 288.126 M283.650 290.350 C 283.238 290.762,282.653 291.198,282.350 291.318 C 281.895 291.499,281.894 291.542,282.342 291.568 C 282.640 291.586,283.419 291.150,284.073 290.600 C 284.727 290.050,285.068 289.600,284.831 289.600 C 284.594 289.600,284.063 289.938,283.650 290.350 M280.177 292.167 C 279.750 292.479,279.491 292.824,279.601 292.933 C 279.710 293.042,280.225 292.787,280.744 292.366 C 281.831 291.485,281.343 291.315,280.177 292.167 M275.954 294.345 C 275.429 294.755,274.628 295.207,274.172 295.349 C 273.117 295.679,270.494 297.600,271.099 297.600 C 271.348 297.600,271.677 297.400,271.828 297.155 C 271.979 296.910,272.845 296.351,273.752 295.914 C 276.875 294.406,278.198 293.601,277.554 293.601 C 277.199 293.600,276.479 293.935,275.954 294.345 M123.246 294.717 C 124.626 295.755,128.483 297.658,128.166 297.145 C 128.018 296.905,127.072 296.344,126.064 295.898 C 125.055 295.452,123.986 294.843,123.687 294.544 C 123.388 294.245,122.951 294.000,122.717 294.000 C 122.484 294.000,122.721 294.323,123.246 294.717 M128.833 297.731 C 129.594 298.326,132.000 299.615,132.000 299.427 C 132.000 299.126,129.526 297.604,129.033 297.601 C 128.832 297.601,128.742 297.659,128.833 297.731 M268.400 298.600 C 267.655 299.150,267.179 299.600,267.344 299.600 C 267.508 299.600,268.305 299.150,269.114 298.600 C 269.923 298.050,270.399 297.600,270.171 297.600 C 269.942 297.600,269.145 298.050,268.400 298.600 M265.144 300.424 L 264.200 301.247 265.400 300.545 C 266.979 299.620,267.003 299.600,266.511 299.600 C 266.279 299.600,265.664 299.971,265.144 300.424 M134.109 300.800 C 134.669 301.240,135.257 301.600,135.417 301.600 C 135.577 301.600,135.250 301.240,134.691 300.800 C 134.131 300.360,133.543 300.000,133.383 300.000 C 133.223 300.000,133.550 300.360,134.109 300.800 M137.362 302.600 C 138.172 303.150,138.930 303.600,139.046 303.600 C 139.408 303.600,138.226 302.549,137.318 302.063 C 135.808 301.255,135.833 301.563,137.362 302.600 M261.544 302.424 L 260.600 303.247 261.800 302.545 C 263.379 301.620,263.403 301.600,262.911 301.600 C 262.679 301.600,262.064 301.971,261.544 302.424 M258.317 304.146 C 257.551 304.666,256.671 305.192,256.362 305.315 C 255.903 305.496,255.910 305.541,256.400 305.561 C 256.730 305.575,257.792 305.049,258.760 304.393 C 259.728 303.737,260.338 303.200,260.116 303.200 C 259.894 303.200,259.084 303.626,258.317 304.146 M139.633 303.721 C 140.774 304.549,142.000 305.146,142.000 304.873 C 142.000 304.684,141.542 304.320,140.981 304.064 C 140.047 303.638,139.235 303.432,139.633 303.721 M254.177 306.167 C 253.750 306.479,253.491 306.824,253.601 306.933 C 253.710 307.042,254.225 306.787,254.744 306.366 C 255.831 305.485,255.343 305.315,254.177 306.167 M144.619 306.430 C 144.854 306.811,145.920 307.414,150.200 309.587 C 151.080 310.034,152.149 310.670,152.576 311.000 C 153.004 311.330,153.523 311.600,153.730 311.600 C 154.303 311.600,152.370 310.175,150.793 309.434 C 150.027 309.075,148.267 308.159,146.882 307.399 C 145.497 306.639,144.478 306.203,144.619 306.430 M250.000 308.600 C 249.255 309.150,248.825 309.600,249.045 309.600 C 249.265 309.600,250.055 309.150,250.800 308.600 C 251.545 308.050,251.975 307.600,251.755 307.600 C 251.535 307.600,250.745 308.050,250.000 308.600 M247.029 310.209 C 246.605 310.529,246.335 310.868,246.429 310.961 C 246.523 311.055,247.025 310.787,247.544 310.366 C 248.638 309.479,248.179 309.339,247.029 310.209 M244.586 311.581 C 244.138 311.762,243.508 312.246,243.186 312.655 C 242.637 313.353,242.648 313.362,243.358 312.800 C 243.775 312.470,244.585 311.990,245.158 311.732 C 246.336 311.204,245.840 311.072,244.586 311.581 M155.000 312.078 C 155.440 312.327,155.932 312.727,156.094 312.966 C 156.296 313.265,156.390 313.249,156.394 312.914 C 156.397 312.647,156.052 312.242,155.626 312.014 C 154.574 311.451,153.997 311.509,155.000 312.078 M239.777 314.167 C 239.350 314.479,239.091 314.824,239.201 314.933 C 239.310 315.042,239.825 314.787,240.344 314.366 C 241.431 313.485,240.943 313.315,239.777 314.167 M158.800 314.154 C 158.800 314.239,159.295 314.627,159.900 315.016 L 161.000 315.724 160.238 314.862 C 159.564 314.099,158.800 313.723,158.800 314.154 M161.600 315.889 C 161.930 316.013,162.678 316.448,163.262 316.857 C 164.861 317.976,165.158 317.750,163.600 316.600 C 162.855 316.050,161.965 315.614,161.622 315.632 C 161.084 315.659,161.081 315.693,161.600 315.889 M236.177 316.167 C 235.750 316.479,235.491 316.824,235.601 316.933 C 235.710 317.042,236.225 316.787,236.744 316.366 C 237.831 315.485,237.343 315.315,236.177 316.167 M231.762 318.600 C 231.169 319.150,230.867 319.600,231.093 319.600 C 231.318 319.600,231.743 319.310,232.037 318.955 C 232.331 318.601,232.938 318.162,233.386 317.981 C 234.037 317.717,234.064 317.646,233.521 317.625 C 233.147 317.611,232.356 318.050,231.762 318.600 M166.599 318.398 C 166.734 318.617,167.240 319.003,167.722 319.256 C 168.594 319.713,168.595 319.710,167.838 318.858 C 167.075 317.998,166.136 317.650,166.599 318.398 M228.577 320.167 C 228.150 320.479,227.891 320.824,228.001 320.933 C 228.110 321.042,228.625 320.787,229.144 320.366 C 230.231 319.485,229.743 319.315,228.577 320.167 M170.000 320.206 C 170.000 320.479,172.502 321.997,172.956 321.999 C 173.152 321.999,172.649 321.550,171.838 321.000 C 170.342 319.984,170.000 319.837,170.000 320.206 M224.962 322.500 C 224.206 323.392,224.207 323.394,225.000 322.752 C 225.440 322.396,226.070 322.005,226.400 321.884 C 226.909 321.697,226.904 321.658,226.362 321.632 C 226.011 321.614,225.381 322.005,224.962 322.500 M173.983 322.579 C 174.247 322.897,175.259 323.462,176.232 323.833 C 177.204 324.205,178.000 324.645,178.000 324.812 C 178.000 324.978,178.295 325.228,178.657 325.366 C 180.134 325.933,178.185 324.279,176.550 323.578 C 175.636 323.187,174.768 322.671,174.620 322.433 C 174.473 322.195,174.161 322.000,173.927 322.000 C 173.652 322.000,173.672 322.205,173.983 322.579 M222.586 323.581 C 222.138 323.762,221.508 324.246,221.186 324.655 C 220.637 325.353,220.648 325.362,221.358 324.800 C 221.775 324.470,222.585 323.990,223.158 323.732 C 224.336 323.204,223.840 323.072,222.586 323.581 M217.707 326.400 C 217.330 326.840,216.747 327.214,216.411 327.232 C 215.997 327.253,215.962 327.328,216.302 327.466 C 216.578 327.577,217.357 327.203,218.033 326.634 C 218.708 326.065,219.066 325.600,218.827 325.600 C 218.588 325.600,218.084 325.960,217.707 326.400 M180.800 326.154 C 180.800 326.239,181.295 326.627,181.900 327.016 L 183.000 327.724 182.238 326.862 C 181.564 326.099,180.800 325.723,180.800 326.154 M186.000 329.093 C 189.008 330.686,194.475 333.730,195.600 334.438 C 198.396 336.199,200.379 336.393,202.400 335.104 C 204.057 334.047,206.457 332.717,208.393 331.783 C 209.991 331.013,211.892 329.600,211.330 329.600 C 211.123 329.600,210.604 329.870,210.176 330.200 C 209.749 330.530,208.680 331.167,207.800 331.614 C 204.037 333.529,202.947 334.142,202.046 334.850 C 200.955 335.708,199.008 335.818,197.721 335.094 C 197.237 334.822,195.355 333.819,193.539 332.865 C 191.722 331.910,189.799 330.785,189.264 330.365 C 188.730 329.944,188.071 329.600,187.800 329.600 C 187.529 329.600,186.864 329.251,186.322 328.825 C 185.780 328.398,184.811 327.927,184.168 327.777 C 183.526 327.627,184.350 328.219,186.000 329.093 M213.900 328.032 C 213.515 328.256,213.200 328.639,213.200 328.882 C 213.200 329.141,213.490 329.071,213.900 328.714 C 214.285 328.379,214.870 328.005,215.200 327.884 C 215.733 327.688,215.733 327.661,215.200 327.644 C 214.870 327.633,214.285 327.808,213.900 328.032 " stroke="none" fill="#0483c2" fill-rule="evenodd"></path><path id="path3" d="M197.200 30.184 C 197.200 31.136,197.075 31.200,195.200 31.200 C 193.333 31.200,193.200 31.267,193.200 32.200 C 193.200 33.146,193.081 33.200,190.981 33.200 C 189.128 33.200,188.609 33.365,187.835 34.200 C 187.325 34.750,186.595 35.200,186.212 35.200 C 185.829 35.200,185.161 35.650,184.729 36.200 C 184.163 36.919,183.557 37.200,182.571 37.200 C 181.375 37.200,181.200 37.328,181.200 38.200 C 181.200 39.133,181.067 39.200,179.200 39.200 C 177.346 39.200,177.200 39.271,177.200 40.177 C 177.200 41.040,177.002 41.168,175.500 41.277 C 174.187 41.372,173.710 41.605,173.405 42.300 C 173.160 42.859,172.661 43.200,172.087 43.200 C 171.579 43.200,170.714 43.650,170.164 44.200 C 169.614 44.750,168.722 45.200,168.182 45.200 C 167.401 45.200,167.200 45.405,167.200 46.200 C 167.200 47.133,167.067 47.200,165.200 47.200 C 163.333 47.200,163.200 47.267,163.200 48.200 C 163.200 49.133,163.067 49.200,161.200 49.200 C 159.345 49.200,159.200 49.271,159.200 50.178 C 159.200 51.061,159.015 51.168,157.300 51.278 C 155.679 51.382,155.381 51.532,155.272 52.300 C 155.169 53.029,154.890 53.200,153.801 53.200 C 152.523 53.200,151.200 54.028,151.200 54.829 C 151.200 55.033,150.742 55.200,150.182 55.200 C 149.622 55.200,148.714 55.650,148.164 56.200 C 147.614 56.750,146.722 57.200,146.182 57.200 C 145.401 57.200,145.200 57.405,145.200 58.200 C 145.200 59.133,145.067 59.200,143.200 59.200 C 141.333 59.200,141.200 59.267,141.200 60.200 C 141.200 61.133,141.067 61.200,139.200 61.200 C 137.345 61.200,137.200 61.271,137.200 62.178 C 137.200 63.061,137.015 63.168,135.300 63.278 C 133.694 63.381,133.381 63.536,133.275 64.278 C 133.173 64.999,132.849 65.178,131.475 65.278 C 130.188 65.372,129.709 65.608,129.405 66.300 C 129.160 66.859,128.661 67.200,128.087 67.200 C 127.579 67.200,126.714 67.650,126.164 68.200 C 125.614 68.750,124.722 69.200,124.182 69.200 C 123.401 69.200,123.200 69.405,123.200 70.200 C 123.200 71.133,123.067 71.200,121.200 71.200 C 119.345 71.200,119.200 71.271,119.200 72.178 C 119.200 73.061,119.015 73.168,117.300 73.278 C 115.679 73.382,115.381 73.532,115.272 74.300 C 115.179 74.957,114.876 75.200,114.154 75.200 C 113.609 75.200,112.714 75.650,112.164 76.200 C 111.614 76.750,110.722 77.200,110.182 77.200 C 109.401 77.200,109.200 77.405,109.200 78.200 C 109.200 79.133,109.067 79.200,107.200 79.200 C 105.333 79.200,105.200 79.267,105.200 80.200 C 105.200 81.133,105.067 81.200,103.200 81.200 C 101.333 81.200,101.200 81.267,101.200 82.200 C 101.200 83.133,101.067 83.200,99.200 83.200 C 97.345 83.200,97.200 83.271,97.200 84.178 C 97.200 85.061,97.015 85.168,95.300 85.278 C 93.679 85.382,93.381 85.532,93.272 86.300 C 93.172 87.003,92.884 87.200,91.953 87.200 C 91.196 87.200,90.424 87.565,89.835 88.200 C 89.325 88.750,88.524 89.200,88.054 89.200 C 87.410 89.200,87.200 89.446,87.200 90.200 C 87.200 91.133,87.067 91.200,85.200 91.200 C 83.343 91.200,83.200 91.270,83.200 92.182 C 83.200 93.115,83.068 93.169,80.500 93.282 C 78.143 93.385,77.750 93.514,77.405 94.300 C 77.130 94.926,76.668 95.200,75.886 95.200 C 75.201 95.200,74.400 95.590,73.835 96.200 C 73.325 96.750,72.595 97.200,72.212 97.200 C 71.829 97.200,71.161 97.650,70.729 98.200 C 70.163 98.919,69.557 99.200,68.571 99.200 C 67.375 99.200,67.200 99.328,67.200 100.200 C 67.200 101.133,67.067 101.200,65.200 101.200 C 63.345 101.200,63.200 101.271,63.200 102.178 C 63.200 103.061,63.015 103.168,61.300 103.278 C 59.679 103.382,59.381 103.532,59.272 104.300 C 59.187 104.897,58.870 105.200,58.330 105.200 C 57.882 105.200,57.161 105.650,56.729 106.200 C 56.163 106.919,55.557 107.200,54.571 107.200 C 53.375 107.200,53.200 107.328,53.200 108.200 C 53.200 109.000,53.000 109.200,52.200 109.200 L 51.200 109.200 51.200 198.000 L 51.200 286.800 52.200 286.800 C 53.000 286.800,53.200 287.000,53.200 287.800 C 53.200 288.733,53.333 288.800,55.200 288.800 C 57.067 288.800,57.200 288.867,57.200 289.800 C 57.200 290.554,57.410 290.800,58.054 290.800 C 58.524 290.800,59.325 291.250,59.835 291.800 C 60.400 292.410,61.201 292.800,61.886 292.800 C 62.668 292.800,63.130 293.074,63.405 293.700 C 63.709 294.392,64.188 294.628,65.475 294.722 C 66.849 294.822,67.173 295.001,67.275 295.722 C 67.381 296.464,67.694 296.619,69.300 296.722 C 71.015 296.832,71.200 296.939,71.200 297.822 C 71.200 298.729,71.345 298.800,73.200 298.800 C 75.067 298.800,75.200 298.867,75.200 299.800 C 75.200 300.672,75.375 300.800,76.571 300.800 C 77.557 300.800,78.163 301.081,78.729 301.800 C 79.161 302.350,79.829 302.800,80.212 302.800 C 80.595 302.800,81.325 303.250,81.835 303.800 C 82.424 304.435,83.196 304.800,83.953 304.800 C 84.884 304.800,85.172 304.997,85.272 305.700 C 85.389 306.526,85.639 306.610,88.300 306.718 C 91.081 306.830,91.200 306.875,91.200 307.818 C 91.200 308.670,91.382 308.800,92.571 308.800 C 93.557 308.800,94.163 309.081,94.729 309.800 C 95.161 310.350,95.852 310.800,96.263 310.800 C 96.674 310.800,97.188 311.205,97.405 311.700 C 97.710 312.395,98.187 312.628,99.500 312.723 C 101.002 312.832,101.200 312.960,101.200 313.823 C 101.200 314.729,101.346 314.800,103.200 314.800 C 105.067 314.800,105.200 314.867,105.200 315.800 C 105.200 316.733,105.333 316.800,107.200 316.800 C 109.067 316.800,109.200 316.867,109.200 317.800 C 109.200 318.733,109.333 318.800,111.200 318.800 C 113.067 318.800,113.200 318.867,113.200 319.800 C 113.200 320.672,113.375 320.800,114.571 320.800 C 115.557 320.800,116.163 321.081,116.729 321.800 C 117.161 322.350,117.894 322.800,118.358 322.800 C 118.989 322.800,119.200 323.050,119.200 323.800 C 119.200 324.733,119.333 324.800,121.200 324.800 C 123.067 324.800,123.200 324.867,123.200 325.800 C 123.200 326.733,123.333 326.800,125.200 326.800 C 127.067 326.800,127.200 326.867,127.200 327.800 C 127.200 328.595,127.401 328.800,128.182 328.800 C 128.722 328.800,129.614 329.250,130.164 329.800 C 130.714 330.350,131.622 330.800,132.182 330.800 C 132.742 330.800,133.200 330.967,133.200 331.171 C 133.200 331.972,134.523 332.800,135.801 332.800 C 136.890 332.800,137.169 332.971,137.272 333.700 C 137.381 334.468,137.679 334.618,139.300 334.722 C 141.015 334.832,141.200 334.939,141.200 335.822 C 141.200 336.729,141.345 336.800,143.200 336.800 C 145.067 336.800,145.200 336.867,145.200 337.800 C 145.200 338.733,145.333 338.800,147.200 338.800 C 149.067 338.800,149.200 338.867,149.200 339.800 C 149.200 340.554,149.410 340.800,150.054 340.800 C 150.524 340.800,151.325 341.250,151.835 341.800 C 152.433 342.445,153.194 342.800,153.981 342.800 C 154.651 342.800,155.200 342.967,155.200 343.171 C 155.200 343.972,156.523 344.800,157.801 344.800 C 158.890 344.800,159.169 344.971,159.272 345.700 C 159.381 346.468,159.679 346.618,161.300 346.722 C 163.015 346.832,163.200 346.939,163.200 347.822 C 163.200 348.729,163.345 348.800,165.200 348.800 C 167.067 348.800,167.200 348.867,167.200 349.800 C 167.200 350.733,167.333 350.800,169.200 350.800 C 171.067 350.800,171.200 350.867,171.200 351.800 C 171.200 352.595,171.401 352.800,172.182 352.800 C 172.722 352.800,173.614 353.250,174.164 353.800 C 174.714 354.350,175.609 354.800,176.154 354.800 C 176.876 354.800,177.179 355.043,177.272 355.700 C 177.381 356.468,177.679 356.618,179.300 356.722 C 181.015 356.832,181.200 356.939,181.200 357.822 C 181.200 358.669,181.383 358.800,182.571 358.800 C 183.557 358.800,184.163 359.081,184.729 359.800 C 185.161 360.350,185.886 360.800,186.339 360.800 C 186.793 360.800,187.614 361.250,188.164 361.800 C 188.714 362.350,189.622 362.800,190.182 362.800 C 190.742 362.800,191.200 362.967,191.200 363.171 C 191.200 363.972,192.523 364.800,193.801 364.800 C 194.890 364.800,195.169 364.971,195.272 365.700 C 195.396 366.571,195.542 366.600,199.800 366.600 C 203.979 366.600,204.220 366.555,204.595 365.700 C 204.870 365.074,205.332 364.800,206.114 364.800 C 206.799 364.800,207.600 364.410,208.165 363.800 C 208.675 363.250,209.484 362.800,209.964 362.800 C 210.444 362.800,211.286 362.350,211.836 361.800 C 212.386 361.250,213.278 360.800,213.818 360.800 C 214.593 360.800,214.800 360.594,214.800 359.822 C 214.800 358.939,214.985 358.832,216.700 358.722 C 218.306 358.619,218.619 358.464,218.725 357.722 C 218.827 357.001,219.151 356.822,220.525 356.722 C 221.812 356.628,222.291 356.392,222.595 355.700 C 222.812 355.205,223.326 354.800,223.737 354.800 C 224.148 354.800,224.839 354.350,225.271 353.800 C 225.837 353.081,226.443 352.800,227.429 352.800 C 228.625 352.800,228.800 352.672,228.800 351.800 C 228.800 350.867,228.933 350.800,230.800 350.800 C 232.655 350.800,232.800 350.729,232.800 349.822 C 232.800 348.939,232.985 348.832,234.700 348.722 C 236.306 348.619,236.619 348.464,236.725 347.722 C 236.827 347.001,237.151 346.822,238.525 346.722 C 239.812 346.628,240.291 346.392,240.595 345.700 C 240.870 345.074,241.332 344.800,242.114 344.800 C 242.799 344.800,243.600 344.410,244.165 343.800 C 244.675 343.250,245.484 342.800,245.964 342.800 C 246.444 342.800,247.286 342.350,247.836 341.800 C 248.386 341.250,249.278 340.800,249.818 340.800 C 250.599 340.800,250.800 340.595,250.800 339.800 C 250.800 338.867,250.933 338.800,252.800 338.800 C 254.667 338.800,254.800 338.733,254.800 337.800 C 254.800 336.867,254.933 336.800,256.800 336.800 C 258.654 336.800,258.800 336.729,258.800 335.823 C 258.800 334.960,258.998 334.832,260.500 334.723 C 261.813 334.628,262.290 334.395,262.595 333.700 C 262.870 333.074,263.332 332.800,264.114 332.800 C 264.799 332.800,265.600 332.410,266.165 331.800 C 266.675 331.250,267.405 330.800,267.788 330.800 C 268.171 330.800,268.839 330.350,269.271 329.800 C 269.837 329.081,270.443 328.800,271.429 328.800 C 272.617 328.800,272.800 328.669,272.800 327.822 C 272.800 326.939,272.985 326.832,274.700 326.722 C 276.321 326.618,276.619 326.468,276.728 325.700 C 276.828 324.997,277.116 324.800,278.047 324.800 C 278.804 324.800,279.576 324.435,280.165 323.800 C 280.675 323.250,281.476 322.800,281.946 322.800 C 282.590 322.800,282.800 322.554,282.800 321.800 C 282.800 320.867,282.933 320.800,284.800 320.800 C 286.667 320.800,286.800 320.733,286.800 319.800 C 286.800 318.867,286.933 318.800,288.800 318.800 C 290.667 318.800,290.800 318.733,290.800 317.800 C 290.800 316.867,290.933 316.800,292.800 316.800 C 294.655 316.800,294.800 316.729,294.800 315.822 C 294.800 314.939,294.985 314.832,296.700 314.722 C 298.321 314.618,298.619 314.468,298.728 313.700 C 298.828 312.997,299.116 312.800,300.047 312.800 C 300.804 312.800,301.576 312.435,302.165 311.800 C 302.675 311.250,303.476 310.800,303.946 310.800 C 304.590 310.800,304.800 310.554,304.800 309.800 C 304.800 308.867,304.933 308.800,306.800 308.800 C 308.657 308.800,308.800 308.730,308.800 307.818 C 308.800 306.885,308.932 306.831,311.500 306.718 C 313.857 306.615,314.250 306.486,314.595 305.700 C 314.840 305.141,315.339 304.800,315.913 304.800 C 316.421 304.800,317.286 304.350,317.836 303.800 C 318.386 303.250,319.207 302.800,319.661 302.800 C 320.114 302.800,320.839 302.350,321.271 301.800 C 321.837 301.081,322.443 300.800,323.429 300.800 C 324.617 300.800,324.800 300.669,324.800 299.822 C 324.800 298.939,324.985 298.832,326.700 298.722 C 328.307 298.619,328.619 298.464,328.725 297.721 C 328.831 296.979,329.144 296.823,330.725 296.721 C 332.321 296.618,332.619 296.466,332.728 295.700 C 332.820 295.049,333.124 294.800,333.828 294.800 C 334.598 294.800,334.800 294.592,334.800 293.800 C 334.800 292.867,334.933 292.800,336.800 292.800 C 338.667 292.800,338.800 292.733,338.800 291.800 C 338.800 290.867,338.933 290.800,340.800 290.800 C 342.655 290.800,342.800 290.729,342.800 289.822 C 342.800 288.939,342.985 288.832,344.700 288.722 C 346.321 288.618,346.619 288.468,346.728 287.700 C 346.820 287.049,347.124 286.800,347.828 286.800 L 348.800 286.800 348.800 197.480 C 348.800 128.542,348.690 108.050,348.320 107.680 C 348.056 107.416,347.169 107.200,346.348 107.200 C 345.105 107.200,344.834 107.050,344.728 106.300 C 344.619 105.532,344.321 105.382,342.700 105.278 C 340.985 105.168,340.800 105.061,340.800 104.178 C 340.800 103.271,340.655 103.200,338.800 103.200 C 336.933 103.200,336.800 103.133,336.800 102.200 C 336.800 101.328,336.625 101.200,335.429 101.200 C 334.443 101.200,333.837 100.919,333.271 100.200 C 332.839 99.650,332.118 99.200,331.670 99.200 C 331.130 99.200,330.813 98.897,330.728 98.300 C 330.619 97.532,330.321 97.382,328.700 97.278 C 326.985 97.168,326.800 97.061,326.800 96.178 C 326.800 95.271,326.655 95.200,324.800 95.200 C 322.933 95.200,322.800 95.133,322.800 94.200 C 322.800 93.273,322.660 93.200,320.895 93.200 C 319.303 93.200,318.925 93.052,318.595 92.300 C 318.291 91.608,317.812 91.372,316.525 91.278 C 315.151 91.178,314.827 90.999,314.725 90.278 C 314.619 89.536,314.306 89.381,312.700 89.278 C 310.985 89.168,310.800 89.061,310.800 88.178 C 310.800 87.271,310.655 87.200,308.800 87.200 C 306.933 87.200,306.800 87.133,306.800 86.200 C 306.800 85.267,306.667 85.200,304.800 85.200 C 302.933 85.200,302.800 85.133,302.800 84.200 C 302.800 83.405,302.599 83.200,301.818 83.200 C 301.278 83.200,300.386 82.750,299.836 82.200 C 299.286 81.650,298.421 81.200,297.913 81.200 C 297.339 81.200,296.840 80.859,296.595 80.300 C 296.291 79.608,295.812 79.372,294.525 79.278 C 293.151 79.178,292.827 78.999,292.725 78.278 C 292.619 77.536,292.306 77.381,290.700 77.278 C 288.985 77.168,288.800 77.061,288.800 76.178 C 288.800 75.271,288.655 75.200,286.800 75.200 C 284.933 75.200,284.800 75.133,284.800 74.200 C 284.800 73.267,284.667 73.200,282.800 73.200 C 280.933 73.200,280.800 73.133,280.800 72.200 C 280.800 71.328,280.625 71.200,279.429 71.200 C 278.443 71.200,277.837 70.919,277.271 70.200 C 276.839 69.650,276.148 69.200,275.737 69.200 C 275.326 69.200,274.812 68.795,274.595 68.300 C 274.290 67.605,273.813 67.372,272.500 67.277 C 270.998 67.168,270.800 67.040,270.800 66.177 C 270.800 65.271,270.654 65.200,268.800 65.200 C 266.933 65.200,266.800 65.133,266.800 64.200 C 266.800 63.405,266.599 63.200,265.818 63.200 C 265.278 63.200,264.386 62.750,263.836 62.200 C 263.286 61.650,262.378 61.200,261.818 61.200 C 261.258 61.200,260.800 61.033,260.800 60.829 C 260.800 60.028,259.477 59.200,258.199 59.200 C 257.110 59.200,256.831 59.029,256.728 58.300 C 256.619 57.534,256.321 57.382,254.725 57.279 C 253.144 57.177,252.831 57.021,252.725 56.279 C 252.619 55.536,252.307 55.381,250.700 55.278 C 248.985 55.168,248.800 55.061,248.800 54.178 C 248.800 53.271,248.655 53.200,246.800 53.200 C 244.933 53.200,244.800 53.133,244.800 52.200 C 244.800 51.328,244.625 51.200,243.429 51.200 C 242.443 51.200,241.837 50.919,241.271 50.200 C 240.839 49.650,240.106 49.200,239.642 49.200 C 239.179 49.200,238.800 49.033,238.800 48.829 C 238.800 48.028,237.477 47.200,236.199 47.200 C 235.110 47.200,234.831 47.029,234.728 46.300 C 234.619 45.534,234.321 45.382,232.725 45.279 C 231.144 45.177,230.831 45.021,230.725 44.279 C 230.619 43.536,230.307 43.381,228.700 43.278 C 226.985 43.168,226.800 43.061,226.800 42.178 C 226.800 41.271,226.655 41.200,224.800 41.200 C 222.933 41.200,222.800 41.133,222.800 40.200 C 222.800 39.328,222.625 39.200,221.429 39.200 C 220.443 39.200,219.837 38.919,219.271 38.200 C 218.839 37.650,218.106 37.200,217.642 37.200 C 217.179 37.200,216.800 37.033,216.800 36.829 C 216.800 36.022,215.473 35.200,214.171 35.200 C 212.975 35.200,212.800 35.072,212.800 34.200 C 212.800 33.268,212.665 33.200,210.818 33.200 C 209.238 33.200,208.634 32.998,207.836 32.200 C 207.286 31.650,206.421 31.200,205.913 31.200 C 205.339 31.200,204.840 30.859,204.595 30.300 C 204.235 29.480,203.890 29.390,200.700 29.284 L 197.200 29.169 197.200 30.184 M202.200 58.800 C 202.598 59.240,203.232 59.600,203.608 59.600 C 203.984 59.600,204.724 59.940,205.253 60.356 C 205.781 60.771,206.840 61.409,207.607 61.773 C 208.373 62.138,209.900 62.960,211.000 63.602 C 212.100 64.243,213.720 65.152,214.600 65.621 C 215.480 66.090,217.100 66.988,218.200 67.617 C 219.300 68.245,220.976 69.126,221.925 69.576 C 222.874 70.025,223.922 70.665,224.254 70.997 C 224.586 71.328,225.176 71.600,225.567 71.600 C 225.957 71.600,226.587 71.944,226.967 72.364 C 227.348 72.784,228.141 73.248,228.729 73.394 C 229.318 73.540,230.160 73.984,230.600 74.380 C 231.040 74.777,232.088 75.322,232.928 75.591 C 233.768 75.860,234.543 76.307,234.649 76.583 C 234.755 76.860,235.571 77.327,236.463 77.621 C 237.355 77.915,238.171 78.380,238.276 78.654 C 238.381 78.927,238.970 79.262,239.584 79.397 C 240.199 79.531,241.299 80.082,242.028 80.621 C 242.758 81.159,243.656 81.600,244.024 81.600 C 244.391 81.600,245.124 81.940,245.653 82.356 C 246.181 82.771,247.240 83.409,248.007 83.773 C 248.773 84.138,250.300 84.958,251.400 85.597 C 252.500 86.236,254.120 87.137,255.000 87.600 C 255.880 88.063,257.500 88.963,258.600 89.600 C 259.700 90.237,261.345 91.113,262.256 91.546 C 263.167 91.979,264.029 92.524,264.173 92.756 C 264.316 92.988,265.138 93.368,265.999 93.600 C 266.860 93.831,267.797 94.245,268.082 94.518 C 268.367 94.791,269.365 95.353,270.300 95.768 C 271.235 96.182,272.000 96.647,272.000 96.800 C 272.000 96.953,272.675 97.381,273.500 97.750 C 275.757 98.759,278.127 100.023,278.800 100.576 C 279.130 100.847,280.030 101.306,280.800 101.596 C 281.570 101.886,282.380 102.329,282.600 102.580 C 282.820 102.832,283.600 103.282,284.334 103.581 C 285.068 103.880,285.878 104.329,286.134 104.578 C 286.390 104.827,287.455 105.353,288.500 105.748 C 289.545 106.143,290.400 106.617,290.400 106.802 C 290.400 106.987,291.075 107.352,291.900 107.613 C 292.725 107.874,293.591 108.326,293.824 108.617 C 294.058 108.908,295.003 109.448,295.924 109.816 C 296.846 110.185,297.600 110.628,297.600 110.800 C 297.600 110.972,298.095 111.236,298.700 111.386 C 299.305 111.536,300.160 111.984,300.600 112.380 C 301.040 112.777,302.074 113.317,302.897 113.581 C 303.720 113.844,304.530 114.291,304.697 114.573 C 304.864 114.856,305.674 115.306,306.497 115.573 C 307.320 115.841,308.130 116.291,308.297 116.573 C 308.464 116.856,309.320 117.315,310.200 117.594 C 311.080 117.873,312.070 118.330,312.400 118.611 C 312.730 118.891,313.630 119.416,314.400 119.778 C 315.170 120.140,316.638 120.923,317.662 121.518 C 318.686 122.113,320.126 122.937,320.862 123.348 C 322.660 124.353,323.630 125.237,323.994 126.200 C 324.390 127.249,323.764 224.024,323.193 249.953 C 322.702 272.249,322.799 271.549,320.067 272.436 C 319.260 272.699,318.464 273.144,318.297 273.427 C 318.130 273.709,317.320 274.159,316.497 274.427 C 315.674 274.694,314.864 275.144,314.697 275.427 C 314.530 275.709,313.720 276.156,312.897 276.421 C 312.074 276.685,311.097 277.165,310.728 277.488 C 309.962 278.155,308.157 279.190,305.744 280.342 C 304.833 280.778,303.968 281.329,303.820 281.567 C 303.673 281.805,302.753 282.202,301.776 282.448 C 300.799 282.694,300.000 283.030,300.000 283.194 C 300.000 283.359,299.145 283.889,298.100 284.372 C 295.395 285.624,292.809 287.068,292.051 287.751 C 291.693 288.074,290.860 288.471,290.200 288.633 C 289.540 288.796,288.765 289.260,288.477 289.665 C 288.190 290.069,287.640 290.400,287.255 290.400 C 286.870 290.400,285.945 290.850,285.200 291.400 C 284.455 291.950,283.622 292.400,283.351 292.400 C 283.079 292.400,282.619 292.634,282.329 292.920 C 282.038 293.206,280.180 294.241,278.200 295.220 C 276.220 296.199,274.373 297.214,274.096 297.476 C 273.818 297.737,272.963 298.178,272.196 298.456 C 271.428 298.734,270.800 299.107,270.800 299.285 C 270.800 299.464,269.855 300.061,268.700 300.612 C 265.427 302.175,260.706 304.762,260.021 305.370 C 259.679 305.673,258.736 306.101,257.925 306.321 C 257.114 306.541,256.045 307.099,255.550 307.561 C 255.055 308.022,254.347 308.400,253.979 308.400 C 253.610 308.400,252.842 308.766,252.273 309.214 C 251.703 309.662,250.644 310.233,249.919 310.483 C 249.193 310.733,248.375 311.252,248.100 311.637 C 247.824 312.022,247.078 312.451,246.441 312.591 C 245.804 312.731,244.966 313.195,244.579 313.623 C 244.193 314.050,243.568 314.400,243.192 314.400 C 242.816 314.400,242.076 314.740,241.547 315.156 C 241.019 315.571,239.960 316.204,239.193 316.563 C 238.427 316.921,237.350 317.465,236.800 317.772 C 236.250 318.079,235.350 318.536,234.800 318.788 C 234.250 319.040,232.900 319.766,231.800 320.402 C 230.700 321.038,229.077 321.903,228.194 322.325 C 227.311 322.746,226.354 323.374,226.067 323.720 C 225.780 324.066,224.972 324.474,224.272 324.628 C 223.573 324.782,222.765 325.243,222.477 325.654 C 222.190 326.064,221.629 326.400,221.231 326.400 C 220.833 326.400,220.076 326.740,219.547 327.156 C 219.019 327.571,217.960 328.198,217.193 328.548 C 216.427 328.899,214.900 329.724,213.800 330.382 C 212.700 331.040,211.173 331.873,210.407 332.233 C 209.640 332.594,208.597 333.216,208.088 333.617 C 207.579 334.017,206.631 334.461,205.981 334.604 C 205.332 334.747,204.800 335.024,204.800 335.220 C 204.800 335.675,200.757 337.600,199.800 337.600 C 199.067 337.600,196.628 336.454,193.000 334.404 C 191.900 333.783,190.235 332.908,189.300 332.460 C 188.365 332.012,187.600 331.469,187.600 331.254 C 187.600 331.039,187.068 330.747,186.419 330.604 C 185.769 330.461,184.824 330.023,184.319 329.631 C 183.813 329.238,182.712 328.692,181.872 328.418 C 181.032 328.144,180.252 327.679,180.139 327.384 C 180.026 327.090,179.427 326.738,178.808 326.602 C 178.189 326.466,177.376 326.015,177.000 325.600 C 176.624 325.185,175.796 324.731,175.159 324.591 C 174.522 324.451,173.776 324.020,173.500 323.633 C 173.225 323.246,172.460 322.797,171.800 322.635 C 171.140 322.473,170.240 322.016,169.800 321.620 C 169.360 321.223,168.341 320.688,167.535 320.430 C 166.730 320.172,165.977 319.717,165.862 319.418 C 165.748 319.120,165.057 318.745,164.327 318.586 C 163.597 318.427,162.491 317.870,161.869 317.348 C 161.247 316.827,160.402 316.400,159.990 316.400 C 159.578 316.400,158.756 315.950,158.162 315.400 C 157.569 314.850,156.777 314.400,156.404 314.400 C 156.030 314.400,155.407 314.050,155.021 313.623 C 154.634 313.195,153.796 312.731,153.159 312.591 C 152.522 312.451,151.776 312.020,151.500 311.633 C 151.225 311.246,150.460 310.797,149.800 310.635 C 149.140 310.473,148.240 310.016,147.800 309.620 C 147.360 309.223,146.312 308.678,145.472 308.409 C 144.632 308.140,143.855 307.688,143.746 307.405 C 143.638 307.121,142.745 306.665,141.763 306.390 C 140.782 306.115,139.848 305.670,139.689 305.402 C 139.530 305.133,138.728 304.695,137.906 304.427 C 137.084 304.160,136.307 303.773,136.180 303.568 C 136.053 303.362,135.286 302.856,134.475 302.444 C 131.350 300.854,129.881 300.017,129.252 299.469 C 128.894 299.157,127.912 298.680,127.072 298.410 C 126.232 298.140,125.447 297.668,125.329 297.360 C 125.211 297.052,124.799 296.800,124.413 296.800 C 124.027 296.800,123.081 296.372,122.310 295.849 C 121.539 295.326,120.254 294.682,119.454 294.418 C 118.654 294.154,118.000 293.774,118.000 293.574 C 118.000 293.374,117.332 292.931,116.515 292.590 C 115.698 292.249,114.753 291.728,114.415 291.432 C 114.077 291.136,113.350 290.763,112.800 290.601 C 112.250 290.440,111.440 289.982,111.000 289.584 C 110.560 289.185,109.701 288.735,109.091 288.584 C 108.481 288.433,107.761 287.993,107.491 287.608 C 107.221 287.223,106.434 286.783,105.741 286.631 C 105.049 286.479,104.166 286.005,103.779 285.577 C 103.393 285.150,102.859 284.800,102.594 284.800 C 102.329 284.800,101.460 284.358,100.664 283.818 C 99.868 283.277,98.483 282.638,97.588 282.397 C 96.692 282.155,95.863 281.709,95.746 281.403 C 95.629 281.098,95.000 280.732,94.349 280.589 C 93.697 280.446,92.696 279.895,92.124 279.364 C 91.551 278.834,90.822 278.400,90.503 278.400 C 90.184 278.400,89.446 278.061,88.862 277.646 C 88.278 277.231,87.170 276.591,86.400 276.224 C 84.269 275.209,82.419 274.138,81.672 273.489 C 81.303 273.168,80.471 272.735,79.824 272.527 C 79.178 272.319,78.278 271.653,77.824 271.045 L 77.000 269.941 77.000 198.071 C 77.000 118.849,76.776 125.085,79.680 123.501 C 80.589 123.006,82.158 122.116,83.167 121.524 C 84.175 120.933,85.720 120.080,86.600 119.630 C 87.480 119.179,88.470 118.640,88.800 118.433 C 89.130 118.226,90.788 117.396,92.484 116.588 C 94.180 115.781,95.770 114.878,96.016 114.581 C 96.262 114.284,97.125 113.826,97.932 113.564 C 98.739 113.302,99.536 112.856,99.703 112.573 C 99.870 112.291,100.680 111.844,101.503 111.581 C 102.326 111.317,103.360 110.784,103.800 110.397 C 104.240 110.009,105.050 109.560,105.600 109.399 C 106.150 109.237,106.894 108.848,107.252 108.534 C 107.611 108.220,108.511 107.647,109.252 107.262 C 109.994 106.877,110.960 106.364,111.400 106.124 C 111.840 105.883,112.650 105.488,113.200 105.246 C 113.750 105.003,115.100 104.268,116.200 103.612 C 117.300 102.955,118.920 102.038,119.800 101.572 C 120.680 101.106,122.300 100.218,123.400 99.597 C 126.042 98.107,128.618 96.714,130.675 95.662 C 131.596 95.191,132.453 94.638,132.579 94.434 C 132.706 94.229,133.325 93.948,133.955 93.810 C 134.586 93.671,135.699 93.118,136.428 92.579 C 137.158 92.041,138.054 91.600,138.419 91.600 C 138.784 91.600,139.551 91.166,140.124 90.636 C 140.696 90.105,141.697 89.554,142.349 89.411 C 143.000 89.268,143.626 88.910,143.739 88.616 C 143.852 88.321,144.632 87.857,145.472 87.584 C 146.312 87.310,147.136 86.856,147.303 86.573 C 147.470 86.291,148.280 85.844,149.103 85.579 C 149.926 85.315,150.882 84.854,151.226 84.554 C 151.570 84.255,152.425 83.810,153.126 83.566 C 153.827 83.322,154.400 82.974,154.400 82.794 C 154.400 82.614,155.255 82.142,156.300 81.746 C 157.345 81.350,158.549 80.705,158.975 80.313 C 159.402 79.921,160.049 79.600,160.414 79.600 C 160.779 79.600,161.484 79.248,161.980 78.817 C 162.476 78.387,163.478 77.838,164.206 77.598 C 164.934 77.358,165.626 76.910,165.743 76.603 C 165.861 76.296,166.706 75.821,167.620 75.547 C 168.535 75.273,169.370 74.821,169.477 74.544 C 169.584 74.266,170.330 73.827,171.135 73.569 C 171.941 73.310,172.870 72.870,173.200 72.589 C 173.530 72.309,174.430 71.784,175.200 71.422 C 175.970 71.060,177.500 70.242,178.600 69.603 C 179.700 68.964,181.320 68.063,182.200 67.600 C 183.080 67.137,184.700 66.245,185.800 65.617 C 186.900 64.988,188.520 64.090,189.400 63.621 C 190.280 63.152,191.900 62.244,193.000 61.605 C 194.100 60.965,195.745 60.087,196.656 59.654 C 197.567 59.221,198.432 58.671,198.580 58.433 C 199.038 57.692,201.415 57.933,202.200 58.800 " stroke="none" fill="#040404" fill-rule="evenodd"></path><path id="path4" d="M198.580 58.433 C 198.432 58.671,197.567 59.221,196.656 59.654 C 195.745 60.087,194.100 60.965,193.000 61.605 C 191.900 62.244,190.280 63.152,189.400 63.621 C 188.520 64.090,186.900 64.988,185.800 65.617 C 184.700 66.245,183.080 67.137,182.200 67.600 C 181.320 68.063,179.700 68.964,178.600 69.603 C 177.500 70.242,175.970 71.060,175.200 71.422 C 174.430 71.784,173.530 72.309,173.200 72.589 C 172.870 72.870,171.941 73.310,171.135 73.569 C 170.330 73.827,169.584 74.266,169.477 74.544 C 169.370 74.821,168.535 75.273,167.620 75.547 C 166.706 75.821,165.861 76.296,165.743 76.603 C 165.626 76.910,164.934 77.358,164.206 77.598 C 163.478 77.838,162.476 78.387,161.980 78.817 C 161.484 79.248,160.779 79.600,160.414 79.600 C 160.049 79.600,159.402 79.921,158.975 80.313 C 158.549 80.705,157.345 81.350,156.300 81.746 C 155.255 82.142,154.400 82.614,154.400 82.794 C 154.400 82.974,153.827 83.322,153.126 83.566 C 152.425 83.810,151.570 84.255,151.226 84.554 C 150.882 84.854,149.926 85.315,149.103 85.579 C 148.280 85.844,147.470 86.291,147.303 86.573 C 147.136 86.856,146.312 87.310,145.472 87.584 C 144.632 87.857,143.852 88.321,143.739 88.616 C 143.626 88.910,143.000 89.268,142.349 89.411 C 141.697 89.554,140.696 90.105,140.124 90.636 C 139.551 91.166,138.784 91.600,138.419 91.600 C 138.054 91.600,137.158 92.041,136.428 92.579 C 135.699 93.118,134.586 93.671,133.955 93.810 C 133.325 93.948,132.706 94.229,132.579 94.434 C 132.453 94.638,131.596 95.191,130.675 95.662 C 128.618 96.714,126.042 98.107,123.400 99.597 C 122.300 100.218,120.680 101.106,119.800 101.572 C 118.920 102.038,117.300 102.955,116.200 103.612 C 115.100 104.268,113.750 105.003,113.200 105.246 C 112.650 105.488,111.840 105.883,111.400 106.124 C 110.960 106.364,109.994 106.877,109.252 107.262 C 108.511 107.647,107.611 108.220,107.252 108.534 C 106.894 108.848,106.150 109.237,105.600 109.399 C 105.050 109.560,104.240 110.009,103.800 110.397 C 103.360 110.784,102.326 111.317,101.503 111.581 C 100.680 111.844,99.870 112.291,99.703 112.573 C 99.536 112.856,98.739 113.302,97.932 113.564 C 97.125 113.826,96.262 114.284,96.016 114.581 C 95.770 114.878,94.180 115.781,92.484 116.588 C 90.788 117.396,89.130 118.226,88.800 118.433 C 88.470 118.640,87.480 119.179,86.600 119.630 C 85.720 120.080,84.175 120.933,83.167 121.524 C 82.158 122.116,80.589 123.006,79.680 123.501 C 76.776 125.085,77.000 118.849,77.000 198.071 L 77.000 269.941 77.824 271.045 C 78.278 271.653,79.178 272.319,79.824 272.527 C 80.471 272.735,81.303 273.168,81.672 273.489 C 82.419 274.138,84.269 275.209,86.400 276.224 C 87.170 276.591,88.278 277.231,88.862 277.646 C 89.446 278.061,90.184 278.400,90.503 278.400 C 90.822 278.400,91.551 278.834,92.124 279.364 C 92.696 279.895,93.697 280.446,94.349 280.589 C 95.000 280.732,95.629 281.098,95.746 281.403 C 95.863 281.709,96.692 282.155,97.588 282.397 C 98.483 282.638,99.868 283.277,100.664 283.818 C 101.460 284.358,102.329 284.800,102.594 284.800 C 102.859 284.800,103.393 285.150,103.779 285.577 C 104.166 286.005,105.049 286.479,105.741 286.631 C 106.434 286.783,107.221 287.223,107.491 287.608 C 107.761 287.993,108.481 288.433,109.091 288.584 C 109.701 288.735,110.560 289.185,111.000 289.584 C 111.440 289.982,112.250 290.440,112.800 290.601 C 113.350 290.763,114.077 291.136,114.415 291.432 C 114.753 291.728,115.698 292.249,116.515 292.590 C 117.332 292.931,118.000 293.374,118.000 293.574 C 118.000 293.774,118.654 294.154,119.454 294.418 C 120.254 294.682,121.539 295.326,122.310 295.849 C 123.081 296.372,124.027 296.800,124.413 296.800 C 124.799 296.800,125.211 297.052,125.329 297.360 C 125.447 297.668,126.232 298.140,127.072 298.410 C 127.912 298.680,128.894 299.157,129.252 299.469 C 129.881 300.017,131.350 300.854,134.475 302.444 C 135.286 302.856,136.053 303.362,136.180 303.568 C 136.307 303.773,137.084 304.160,137.906 304.427 C 138.728 304.695,139.530 305.133,139.689 305.402 C 139.848 305.670,140.782 306.115,141.763 306.390 C 142.745 306.665,143.638 307.121,143.746 307.405 C 143.855 307.688,144.632 308.140,145.472 308.409 C 146.312 308.678,147.360 309.223,147.800 309.620 C 148.240 310.016,149.140 310.473,149.800 310.635 C 150.460 310.797,151.225 311.246,151.500 311.633 C 151.776 312.020,152.522 312.451,153.159 312.591 C 153.796 312.731,154.634 313.195,155.021 313.623 C 155.407 314.050,156.030 314.400,156.404 314.400 C 156.777 314.400,157.569 314.850,158.162 315.400 C 158.756 315.950,159.578 316.400,159.990 316.400 C 160.402 316.400,161.247 316.827,161.869 317.348 C 162.491 317.870,163.597 318.427,164.327 318.586 C 165.057 318.745,165.748 319.120,165.862 319.418 C 165.977 319.717,166.730 320.172,167.535 320.430 C 168.341 320.688,169.360 321.223,169.800 321.620 C 170.240 322.016,171.140 322.473,171.800 322.635 C 172.460 322.797,173.225 323.246,173.500 323.633 C 173.776 324.020,174.522 324.451,175.159 324.591 C 175.796 324.731,176.624 325.185,177.000 325.600 C 177.376 326.015,178.189 326.466,178.808 326.602 C 179.427 326.738,180.026 327.090,180.139 327.384 C 180.252 327.679,181.032 328.144,181.872 328.418 C 182.712 328.692,183.813 329.238,184.319 329.631 C 184.824 330.023,185.769 330.461,186.419 330.604 C 187.068 330.747,187.600 331.039,187.600 331.254 C 187.600 331.469,188.365 332.012,189.300 332.460 C 190.235 332.908,191.900 333.783,193.000 334.404 C 196.628 336.454,199.067 337.600,199.800 337.600 C 200.757 337.600,204.800 335.675,204.800 335.220 C 204.800 335.024,205.332 334.747,205.981 334.604 C 206.631 334.461,207.579 334.017,208.088 333.617 C 208.597 333.216,209.640 332.594,210.407 332.233 C 211.173 331.873,212.700 331.040,213.800 330.382 C 214.900 329.724,216.427 328.899,217.193 328.548 C 217.960 328.198,219.019 327.571,219.547 327.156 C 220.076 326.740,220.833 326.400,221.231 326.400 C 221.629 326.400,222.190 326.064,222.477 325.654 C 222.765 325.243,223.573 324.782,224.272 324.628 C 224.972 324.474,225.780 324.066,226.067 323.720 C 226.354 323.374,227.311 322.746,228.194 322.325 C 229.077 321.903,230.700 321.038,231.800 320.402 C 232.900 319.766,234.250 319.040,234.800 318.788 C 235.350 318.536,236.250 318.079,236.800 317.772 C 237.350 317.465,238.427 316.921,239.193 316.563 C 239.960 316.204,241.019 315.571,241.547 315.156 C 242.076 314.740,242.816 314.400,243.192 314.400 C 243.568 314.400,244.193 314.050,244.579 313.623 C 244.966 313.195,245.804 312.731,246.441 312.591 C 247.078 312.451,247.824 312.022,248.100 311.637 C 248.375 311.252,249.193 310.733,249.919 310.483 C 250.644 310.233,251.703 309.662,252.273 309.214 C 252.842 308.766,253.610 308.400,253.979 308.400 C 254.347 308.400,255.055 308.022,255.550 307.561 C 256.045 307.099,257.114 306.541,257.925 306.321 C 258.736 306.101,259.679 305.673,260.021 305.370 C 260.706 304.762,265.427 302.175,268.700 300.612 C 269.855 300.061,270.800 299.464,270.800 299.285 C 270.800 299.107,271.428 298.734,272.196 298.456 C 272.963 298.178,273.818 297.737,274.096 297.476 C 274.373 297.214,276.220 296.199,278.200 295.220 C 280.180 294.241,282.038 293.206,282.329 292.920 C 282.619 292.634,283.079 292.400,283.351 292.400 C 283.622 292.400,284.455 291.950,285.200 291.400 C 285.945 290.850,286.870 290.400,287.255 290.400 C 287.640 290.400,288.190 290.069,288.477 289.665 C 288.765 289.260,289.540 288.796,290.200 288.633 C 290.860 288.471,291.693 288.074,292.051 287.751 C 292.809 287.068,295.395 285.624,298.100 284.372 C 299.145 283.889,300.000 283.359,300.000 283.194 C 300.000 283.030,300.799 282.694,301.776 282.448 C 302.753 282.202,303.673 281.805,303.820 281.567 C 303.968 281.329,304.833 280.778,305.744 280.342 C 308.157 279.190,309.962 278.155,310.728 277.488 C 311.097 277.165,312.074 276.685,312.897 276.421 C 313.720 276.156,314.530 275.709,314.697 275.427 C 314.864 275.144,315.674 274.694,316.497 274.427 C 317.320 274.159,318.130 273.709,318.297 273.427 C 318.464 273.144,319.260 272.699,320.067 272.436 C 322.799 271.549,322.702 272.249,323.193 249.953 C 323.764 224.024,324.390 127.249,323.994 126.200 C 323.630 125.237,322.660 124.353,320.862 123.348 C 320.126 122.937,318.686 122.113,317.662 121.518 C 316.638 120.923,315.170 120.140,314.400 119.778 C 313.630 119.416,312.730 118.891,312.400 118.611 C 312.070 118.330,311.080 117.873,310.200 117.594 C 309.320 117.315,308.464 116.856,308.297 116.573 C 308.130 116.291,307.320 115.841,306.497 115.573 C 305.674 115.306,304.864 114.856,304.697 114.573 C 304.530 114.291,303.720 113.844,302.897 113.581 C 302.074 113.317,301.040 112.777,300.600 112.380 C 300.160 111.984,299.305 111.536,298.700 111.386 C 298.095 111.236,297.600 110.972,297.600 110.800 C 297.600 110.628,296.846 110.185,295.924 109.816 C 295.003 109.448,294.058 108.908,293.824 108.617 C 293.591 108.326,292.725 107.874,291.900 107.613 C 291.075 107.352,290.400 106.987,290.400 106.802 C 290.400 106.617,289.545 106.143,288.500 105.748 C 287.455 105.353,286.390 104.827,286.134 104.578 C 285.878 104.329,285.068 103.880,284.334 103.581 C 283.600 103.282,282.820 102.832,282.600 102.580 C 282.380 102.329,281.570 101.886,280.800 101.596 C 280.030 101.306,279.130 100.847,278.800 100.576 C 278.127 100.023,275.757 98.759,273.500 97.750 C 272.675 97.381,272.000 96.953,272.000 96.800 C 272.000 96.647,271.235 96.182,270.300 95.768 C 269.365 95.353,268.367 94.791,268.082 94.518 C 267.797 94.245,266.860 93.831,265.999 93.600 C 265.138 93.368,264.316 92.988,264.173 92.756 C 264.029 92.524,263.167 91.979,262.256 91.546 C 261.345 91.113,259.700 90.237,258.600 89.600 C 257.500 88.963,255.880 88.063,255.000 87.600 C 254.120 87.137,252.500 86.236,251.400 85.597 C 250.300 84.958,248.773 84.138,248.007 83.773 C 247.240 83.409,246.181 82.771,245.653 82.356 C 245.124 81.940,244.391 81.600,244.024 81.600 C 243.656 81.600,242.758 81.159,242.028 80.621 C 241.299 80.082,240.199 79.531,239.584 79.397 C 238.970 79.262,238.381 78.927,238.276 78.654 C 238.171 78.380,237.355 77.915,236.463 77.621 C 235.571 77.327,234.755 76.860,234.649 76.583 C 234.543 76.307,233.768 75.860,232.928 75.591 C 232.088 75.322,231.040 74.777,230.600 74.380 C 230.160 73.984,229.318 73.540,228.729 73.394 C 228.141 73.248,227.348 72.784,226.967 72.364 C 226.587 71.944,225.957 71.600,225.567 71.600 C 225.176 71.600,224.586 71.328,224.254 70.997 C 223.922 70.665,222.874 70.025,221.925 69.576 C 220.976 69.126,219.300 68.245,218.200 67.617 C 217.100 66.988,215.480 66.090,214.600 65.621 C 213.720 65.152,212.100 64.243,211.000 63.602 C 209.900 62.960,208.373 62.138,207.607 61.773 C 206.840 61.409,205.781 60.771,205.253 60.356 C 204.724 59.940,203.984 59.600,203.608 59.600 C 203.232 59.600,202.598 59.240,202.200 58.800 C 201.415 57.933,199.038 57.692,198.580 58.433 M202.513 60.618 C 203.221 60.958,204.700 61.758,205.800 62.397 C 206.900 63.036,208.520 63.931,209.400 64.385 C 210.280 64.840,211.900 65.732,213.000 66.368 C 214.100 67.003,215.810 67.955,216.800 68.483 C 217.790 69.012,219.807 70.109,221.283 70.922 C 222.758 71.735,224.217 72.400,224.524 72.400 C 224.832 72.400,225.569 72.850,226.162 73.400 C 226.756 73.950,227.585 74.400,228.005 74.400 C 228.425 74.400,229.091 74.738,229.484 75.150 C 229.878 75.563,230.650 76.031,231.200 76.190 C 231.750 76.350,232.830 76.900,233.600 77.414 C 235.460 78.656,239.763 81.017,242.000 82.025 C 242.990 82.471,244.070 83.011,244.400 83.226 C 244.730 83.440,245.630 83.903,246.400 84.253 C 247.170 84.603,247.894 85.038,248.008 85.220 C 248.122 85.401,249.022 85.925,250.008 86.385 C 251.997 87.312,253.505 88.143,255.600 89.466 C 256.370 89.952,257.495 90.470,258.100 90.618 C 258.705 90.766,259.200 91.054,259.200 91.258 C 259.200 91.462,259.965 91.990,260.900 92.432 C 262.690 93.279,267.232 95.723,272.921 98.900 C 274.792 99.945,276.520 100.800,276.762 100.800 C 277.003 100.800,277.200 100.956,277.200 101.147 C 277.200 101.337,278.055 101.883,279.100 102.360 C 280.145 102.837,281.720 103.667,282.600 104.205 C 283.480 104.743,284.830 105.475,285.600 105.832 C 286.370 106.189,287.450 106.729,288.000 107.031 C 288.550 107.333,289.720 107.954,290.600 108.411 C 291.480 108.868,293.100 109.764,294.200 110.403 C 295.300 111.042,296.827 111.862,297.593 112.227 C 298.360 112.591,299.403 113.216,299.912 113.617 C 300.421 114.017,301.369 114.461,302.019 114.604 C 302.668 114.747,303.200 115.022,303.200 115.216 C 303.200 115.536,304.125 116.060,308.400 118.162 C 309.170 118.541,310.070 119.022,310.400 119.230 C 310.730 119.439,311.720 119.966,312.600 120.401 C 313.480 120.835,315.100 121.730,316.200 122.390 C 317.300 123.049,318.863 123.906,319.672 124.294 C 322.604 125.700,322.389 119.198,322.116 198.029 L 321.870 269.000 320.669 270.122 C 320.008 270.740,318.912 271.513,318.234 271.840 C 317.555 272.168,316.100 272.951,315.000 273.581 C 313.900 274.210,312.280 275.103,311.400 275.564 C 310.520 276.026,308.900 276.926,307.800 277.564 C 306.700 278.203,304.090 279.581,302.000 280.626 C 299.910 281.671,298.110 282.652,298.000 282.806 C 297.890 282.960,296.990 283.472,296.000 283.944 C 295.010 284.416,293.480 285.244,292.600 285.784 C 291.086 286.713,290.043 287.286,286.140 289.330 C 285.227 289.809,284.133 290.515,283.709 290.900 C 283.284 291.285,282.660 291.600,282.322 291.600 C 281.984 291.600,281.238 291.969,280.665 292.421 C 280.091 292.872,278.807 293.519,277.811 293.858 C 276.816 294.197,275.903 294.633,275.784 294.826 C 275.665 295.019,274.809 295.542,273.883 295.987 C 272.958 296.432,271.480 297.216,270.600 297.729 C 269.720 298.242,267.441 299.499,265.535 300.522 C 263.630 301.545,261.200 302.923,260.135 303.585 C 259.071 304.247,257.795 304.971,257.300 305.194 C 255.265 306.111,254.507 306.500,252.600 307.602 C 251.500 308.238,249.880 309.139,249.000 309.604 C 248.120 310.069,246.500 310.975,245.400 311.618 C 244.300 312.261,242.680 313.155,241.800 313.604 C 239.780 314.634,238.181 315.541,236.400 316.666 C 235.630 317.152,234.518 317.667,233.929 317.811 C 233.341 317.954,232.548 318.416,232.167 318.836 C 231.787 319.256,231.168 319.600,230.792 319.600 C 230.416 319.600,229.644 319.965,229.077 320.411 C 228.511 320.856,227.451 321.502,226.723 321.845 C 225.996 322.189,224.500 322.991,223.400 323.629 C 222.300 324.266,220.677 325.126,219.794 325.539 C 218.911 325.953,217.944 326.585,217.645 326.945 C 217.347 327.305,216.809 327.603,216.451 327.606 C 216.093 327.609,215.350 327.873,214.800 328.192 C 214.250 328.512,213.080 329.148,212.200 329.607 C 211.320 330.066,209.700 330.964,208.600 331.603 C 207.500 332.242,206.027 333.040,205.326 333.377 C 204.625 333.714,203.385 334.442,202.570 334.995 C 200.489 336.407,198.470 336.245,195.600 334.438 C 193.439 333.078,184.598 328.297,179.800 325.896 C 178.920 325.455,178.110 324.964,178.000 324.804 C 177.890 324.644,176.990 324.127,176.000 323.655 C 175.010 323.183,173.300 322.276,172.200 321.639 C 171.100 321.003,169.480 320.108,168.600 319.651 C 167.720 319.194,166.730 318.647,166.400 318.435 C 166.070 318.224,165.260 317.797,164.600 317.487 C 163.940 317.177,162.500 316.421,161.400 315.808 C 160.300 315.194,158.680 314.333,157.800 313.894 C 156.920 313.454,156.106 312.950,155.992 312.773 C 155.878 312.595,154.978 312.076,153.992 311.619 C 153.006 311.162,151.300 310.269,150.200 309.635 C 149.100 309.001,147.480 308.104,146.600 307.641 C 145.720 307.179,143.380 305.904,141.400 304.809 C 139.420 303.713,137.051 302.408,136.135 301.908 C 135.219 301.409,132.703 300.010,130.544 298.800 C 125.740 296.107,123.705 295.008,122.400 294.399 C 120.605 293.562,117.739 292.020,114.200 289.989 C 113.100 289.358,111.480 288.498,110.600 288.077 C 109.720 287.657,108.306 286.842,107.457 286.265 C 106.608 285.689,104.954 284.763,103.780 284.208 C 102.607 283.653,101.543 283.032,101.418 282.828 C 101.292 282.625,100.516 282.237,99.694 281.967 C 98.872 281.696,97.570 281.064,96.800 280.562 C 95.458 279.687,92.236 277.883,88.400 275.857 C 84.552 273.825,79.541 270.871,78.789 270.190 C 77.844 269.335,77.511 128.311,78.449 126.252 C 78.704 125.692,79.699 124.897,80.749 124.412 C 81.767 123.943,83.500 123.031,84.600 122.386 C 85.700 121.740,87.320 120.852,88.200 120.411 C 89.080 119.971,90.070 119.432,90.400 119.215 C 90.730 118.997,91.630 118.539,92.400 118.197 C 93.170 117.855,94.520 117.151,95.400 116.633 C 99.071 114.474,101.499 113.142,103.100 112.408 C 104.035 111.979,104.800 111.456,104.800 111.246 C 104.800 111.036,105.318 110.750,105.951 110.611 C 106.584 110.472,107.699 109.918,108.428 109.379 C 109.158 108.841,109.977 108.400,110.247 108.400 C 110.517 108.400,111.247 107.973,111.869 107.452 C 112.491 106.930,113.583 106.376,114.295 106.221 C 115.008 106.066,115.703 105.757,115.839 105.536 C 115.976 105.315,116.833 104.779,117.744 104.346 C 118.655 103.913,120.300 103.037,121.400 102.400 C 122.500 101.763,124.120 100.863,125.000 100.400 C 125.880 99.937,127.500 99.042,128.600 98.410 C 129.700 97.779,131.196 96.983,131.923 96.642 C 132.651 96.300,133.695 95.669,134.242 95.238 C 134.790 94.808,135.750 94.343,136.377 94.205 C 137.004 94.067,137.834 93.605,138.221 93.177 C 138.607 92.750,139.201 92.400,139.540 92.400 C 140.092 92.400,141.164 91.783,144.400 89.601 C 144.950 89.230,146.088 88.700,146.928 88.423 C 147.768 88.146,148.548 87.679,148.661 87.384 C 148.774 87.090,149.370 86.738,149.984 86.603 C 150.599 86.469,151.699 85.918,152.428 85.379 C 153.158 84.841,153.977 84.400,154.247 84.400 C 154.517 84.400,155.247 83.977,155.869 83.461 C 156.491 82.944,157.540 82.390,158.200 82.228 C 158.860 82.067,159.722 81.590,160.116 81.168 C 160.509 80.745,161.160 80.400,161.562 80.400 C 161.963 80.400,162.799 80.001,163.419 79.513 C 164.713 78.496,166.199 77.648,168.900 76.388 C 169.945 75.900,170.800 75.358,170.800 75.183 C 170.800 75.007,171.358 74.741,172.041 74.591 C 172.723 74.441,173.602 73.998,173.994 73.606 C 174.387 73.213,175.403 72.669,176.254 72.396 C 177.104 72.122,178.077 71.658,178.415 71.365 C 178.753 71.071,179.653 70.540,180.415 70.184 C 181.177 69.829,182.700 69.021,183.800 68.390 C 184.900 67.758,186.520 66.861,187.400 66.396 C 188.280 65.931,189.900 65.023,191.000 64.377 C 192.100 63.731,193.720 62.824,194.600 62.361 C 195.480 61.897,196.830 61.177,197.600 60.760 C 199.299 59.839,200.801 59.796,202.513 60.618 " stroke="none" fill="#10544c" fill-rule="evenodd"></path></g></svg>