<svg xmlns="http://www.w3.org/2000/svg" xml:space="preserve" viewBox="0 0 4.233 4.233">
    <path fill="#8443ec" d="m1.831.997-.17-.142a.27.27 0 0 0-.17-.061H.53a.265.265 0 0 0-.264.264v2.117a.265.265 0 0 0 .264.265h3.175a.265.265 0 0 0 .265-.265V1.323a.265.265 0 0 0-.265-.265H2.001a.27.27 0 0 1-.17-.061"/>
    <svg x="1.2" y="1.2" width="3.701" height="2.646" viewBox="0 0 1200 1200">
        <defs>
            <clipPath clipPathUnits="userSpaceOnUse" id="cp1">
                <path d="m926.58 202.79h-653.94v795.07h653.94z"/>
            </clipPath>
        </defs>
        <style>
            .s0 { fill: #ffffff } 
            .s1 { fill: #000000 } 
        </style>
        <g clip-path="url(#cp1)">
            <g>
                <path class="s0" d="m398.55 818.91c-82.24 182.12 92.93 227.83 222.12 121.25 38.02 119.5 180.38 30.31 231.56-62.37 112.56-204.22 67.09-412.43 55.41-455.42-80-292.93-480.02-293.42-548.84 1.5-16.15 51.67-16.4 110.31-25.34 171.18-4.47 30.81-7.95 50.44-19.63 82.74-6.96 18.63-16.15 35.03-31.06 62.86-22.85 43.23-13.17 126.46 105.1 83.23l11.18-4.97z"/>
                <path class="s1" d="m636.12 549.35c-32.79 0-37.76-39.25-37.76-62.61 0-21.12 3.73-37.76 10.93-48.45 6.21-9.44 15.41-14.16 26.83-14.16 11.43 0 21.37 4.72 28.33 14.41 7.95 10.93 12.17 27.58 12.17 48.2 0 39.26-15.15 62.61-40.25 62.61z"/>
                <path class="s1" d="m771.24 549.35c-32.79 0-37.76-39.25-37.76-62.61 0-21.12 3.72-37.76 10.93-48.45 6.21-9.44 15.4-14.16 26.83-14.16 11.43 0 21.37 4.72 28.32 14.41 7.96 10.93 12.18 27.58 12.18 48.2 0 39.26-15.15 62.61-40.25 62.61z"/>
            </g>
        </g>
    </svg>
</svg>