<svg width="16" height="16" viewBox="0 0 16 16" fill="none" xmlns="http://www.w3.org/2000/svg">
    <path opacity="0.8" d="M9 5H11C12.4 5 13.1 5.00007 13.6348 5.27246C14.1052 5.51214 14.4879 5.89483 14.7275 6.36523C14.9442 6.79052 14.987 7.32035 14.9961 8.22363C14.5386 7.73972 13.996 7.33683 13.3896 7.04395C13.3178 6.90372 13.2142 6.78323 13.0879 6.69141L12.9541 6.60938C12.9334 6.59883 12.8436 6.55578 12.5195 6.5293C12.1779 6.50141 11.7246 6.5 11 6.5H8.37891L6.37891 4.5H4.2002C3.61556 4.5 3.26702 4.50138 3.00879 4.52246C2.88835 4.5323 2.82096 4.54407 2.78809 4.55176L2.77344 4.55469C2.70286 4.59065 2.64185 4.64258 2.5957 4.70605L2.55469 4.77344C2.57139 4.74065 2.54213 4.76805 2.52246 5.00879C2.50138 5.26702 2.5 5.61556 2.5 6.2002V11C2.5 11.72461 2.50141 12.1779 2.5293 12.5195C2.55578 12.8437 2.59883 12.9334 2.60938 12.9541L2.69141 13.0879C2.78366 13.2148 2.90484 13.3187 3.0459 13.3906L3.14941 13.4248C3.21485 13.4402 3.31847 13.4575 3.48047 13.4707C3.82206 13.4986 4.27539 13.5 5 13.5H5.70801C5.8603 14.0383 6.0931 14.5424 6.3916 15H5C3.77477 15 3.08563 15 2.57422 14.8174L2.36523 14.7275C1.95378 14.5179 1.60933 14.199 1.36914 13.8076L1.27246 13.6348C1.00007 13.1 1 12.4 1 11V6.2002C1 5.22019 1.00049 4.66887 1.14648 4.25977L1.21777 4.0918C1.38555 3.76256 1.64085 3.48707 1.9541 3.29492L2.0918 3.21777C2.41263 3.0543 2.80803 3.01315 3.45801 3.00293L4.2002 3H7L9 5Z" fill="#8443ec"/>
    
    <svg x="0.5" y="3.5" width="19" height="14" viewBox="0 0 1200 1200">
        <defs>
            <clipPath clipPathUnits="userSpaceOnUse" id="cp1">
                <path d="m926.58 202.79h-653.94v795.07h653.94z"/>
            </clipPath>
        </defs>
        <style>
            .s0 { fill: #ffffff }
            .s1 { fill: #000000 }
        </style>
        <g clip-path="url(#cp1)">
            <g>
                <path class="s0" d="m398.55 818.91c-82.24 182.12 92.93 227.83 222.12 121.25 38.02 119.5 180.38 30.31 231.56-62.37 112.56-204.22 67.09-412.43 55.41-455.42-80-292.93-480.02-293.42-548.84 1.5-16.15 51.67-16.4 110.31-25.34 171.18-4.47 30.81-7.95 50.44-19.63 82.74-6.96 18.63-16.15 35.03-31.06 62.86-22.85 43.23-13.17 126.46 105.1 83.23l11.18-4.97z"/>
                <path class="s1" d="m636.12 549.35c-32.79 0-37.76-39.25-37.76-62.61 0-21.12 3.73-37.76 10.93-48.45 6.21-9.44 15.41-14.16 26.83-14.16 11.43 0 21.37 4.72 28.33 14.41 7.95 10.93 12.17 27.58 12.17 48.2 0 39.26-15.15 62.61-40.25 62.61z"/>
                <path class="s1" d="m771.24 549.35c-32.79 0-37.76-39.25-37.76-62.61 0-21.12 3.72-37.76 10.93-48.45 6.21-9.44 15.4-14.16 26.83-14.16 11.43 0 21.37 4.72 28.32 14.41 7.96 10.93 12.18 27.58 12.18 48.2 0 39.26-15.15 62.61-40.25 62.61z"/>
            </g>
        </g>
    </svg>
</svg>