<svg xmlns="http://www.w3.org/2000/svg" viewBox="0 0 32 32">   
  <g transform="translate(2.5, 2) scale(1.0)">     
    <path fill-rule="evenodd" clip-rule="evenodd"            
          d="M7.56542 6.19594L3.90642 8.7164C3.50877 8.99031 3.23346 9.40191 3.13675 9.86708L2.77902 11.5878C2.76005 11.679 2.71799 11.7642 2.65665 11.8355L0.996306 14.0121C0.772761 14.2722 0.778152 14.9632 1.39044 15.4057C1.62523 15.6103 1.93915 16.0691 2.29622 16.591C3.05224 17.6959 4.00169 19.0836 4.80312 18.9394C5.9372 18.541 7.32544 18.4135 8.39128 18.9394C10.4632 20.7282 9.95449 22.3775 9.22514 24.7421C8.93165 25.6936 8.60243 26.7609 8.39128 27.9997C9.38643 24.3777 11.6242 20.1711 15.6592 18.7437C14.9322 18.1498 13.4486 17.5981 12.1357 17.4653C12.1357 17.4653 16.1691 14.0121 21.1439 12.4254C17.671 4.16205 11.9386 0.213095 11.9386 0.213095C11.6465 -0.148197 11.0566 -0.0296711 10.9349 0.414774C10.8371 1.72112 10.675 2.60942 10.4074 3.44676L8.39128 1.12029C8.18068 0.866399 7.75965 1.013 7.76176 1.33949C8.10312 3.23719 8.05521 4.30239 7.56542 6.19594ZM8.9846 6.02248L8.99663 6.02171C9.02298 6.02002 9.0489 6.01659 9.07424 6.01153L8.9846 6.02248ZM11.7123 1.7617C13.094 4.1491 13.7199 5.5054 13.9322 8.03659C12.4625 7.2017 11.8221 6.98923 10.7413 6.99451C11.3718 5.0773 11.5644 3.92284 11.7123 1.7617Z"            
          fill="black" />
    
    <defs>
      <mask id="circleMask">
        <rect width="100%" height="100%" fill="white"/>
        <circle cx="20.5" cy="19.5" r="3" fill="black"/>
      </mask>
    </defs>
    
    <path d="M20.5926 19.4929C14.9649 20.7806 11.7681 22.7198 9.32324 28.0001C13.712 20.6367 26.9976 21.9536 26.9976 21.9536C26.7494 20.7508 24.1079 18.4571 22.3706 17.0503C22.3706 17.0503 23.7722 15.3272 26.8706 14.455C26.8706 14.455 20.9135 14.8002 17.4455 16.6727C18.569 17.2656 20.0081 18.2663 20.5926 19.4929Z"            
          fill="black" mask="url(#circleMask)"/>   
  </g>      
  
  <g transform="translate(23.5, 22) scale(0.85) translate(-22, -24)">     
    <path d="M25.684,27.193l.456-.447c2.112.068,2.144,0,2.237-.219l.58-1.393L29,25l-.047-.115c-.025-.061-.1-.243-1.42-1.483v-.652c1.521-1.445,1.489-1.519,1.4-1.73l-.577-1.407c-.087-.211-.12-.294-2.216-.237l-.457-.465a10,10,0,0,0-.071-2.053l-.059-.132-1.508-.65c-.222-.1-.3-.136-1.724,1.393l-.64-.009c-1.466-1.543-1.535-1.515-1.755-1.428l-1.4.559c-.219.088-.3.119-.212,2.219l-.453.445c-2.11-.068-2.142.006-2.234.219l-.581,1.393L15,21l.048.116c.025.06.1.24,1.419,1.481v.650c-1.521,1.445-1.488,1.519-1.4,1.731l.577,1.409c.089.215.12.292,2.216.238l.456.467a9.967,9.967,0,0,0,.07,2.05l.058.133,1.518.654c.221.091.3.124,1.717-1.4l.64.008c1.468,1.545,1.543,1.515,1.757,1.43l1.4-.558C25.7,29.324,25.773,29.294,25.684,27.193Zm-6.013-3.262a2.467,2.467,0,0,1,.623-2.691,2.451,2.451,0,0,1,.826-.509,2.526,2.526,0,0,1,3.246,1.429,2.466,2.466,0,0,1-1.405,3.184,2.553,2.553,0,0,1-3.29-1.413Z"            
          fill="#99b8c4"/>   
  </g> 
</svg>