<svg version="1.2" xmlns="http://www.w3.org/2000/svg" viewBox="0 0 16 16" width="16" height="16">
	<style>
		.s0 { fill: #e0e0e0 } 
	</style>
	<path class="s0" d="m7.65 6.44c0.11-0.17 0.23-0.18 0.33-0.18 0.09 0 0.25 0.02 0.36 0.18 0.85 1.16 2.26 3.47 3.3 5.18q0.15 0.26 0.31 0.53 0.16 0.26 0.32 0.52 0.16 0.26 0.33 0.51 0.17 0.26 0.34 0.51c0.4 0.41 0.95 0.16 1.26-0.3 0.32-0.46 0.41-0.78 0.41-1.13 0-0.23-4.54-8.61-5.01-9.32-0.44-0.66-0.58-0.84-1.34-0.84h-0.56c-0.75 0-0.86 0.17-1.3 0.84-0.46 0.71-5.01 9.09-5.01 9.32 0 0.35 0.08 0.66 0.41 1.13 0.31 0.46 0.86 0.71 1.26 0.3 0.11-0.11 0.63-0.96 1.31-2.07 1.03-1.72 2.43-4.03 3.28-5.19"/>
</svg>