<svg version="1.2" xmlns="http://www.w3.org/2000/svg" viewBox="0 0 16 16" width="16" height="16">
	<style>
		.s0 { fill: #e0e0e0 } 
	</style>
	<path class="s0" d="m7.66 6.47c0.1-0.16 0.23-0.18 0.32-0.18 0.08 0 0.25 0.02 0.35 0.18 0.84 1.13 2.22 3.4 3.24 5.08q0.15 0.26 0.31 0.52 0.15 0.26 0.31 0.51 0.16 0.26 0.32 0.51 0.17 0.25 0.34 0.5c0.39 0.4 0.93 0.15 1.24-0.3 0.31-0.45 0.39-0.77 0.39-1.11 0-0.22-4.45-8.45-4.91-9.14-0.44-0.66-0.56-0.83-1.31-0.83h-0.55c-0.74 0-0.84 0.16-1.28 0.83-0.45 0.69-4.91 8.92-4.91 9.14 0 0.34 0.08 0.65 0.39 1.11 0.31 0.45 0.85 0.7 1.24 0.3 0.11-0.11 0.62-0.95 1.28-2.04 1.02-1.69 2.39-3.96 3.23-5.09"/>
</svg>