<svg id="svg" version="1.1" xmlns="http://www.w3.org/2000/svg" xmlns:xlink="http://www.w3.org/1999/xlink" width="400" height="240.62499999999997" viewBox="0, 0, 400,240.62499999999997"><g id="svgg"><path id="path0" d="M17.870 0.177 C 16.968 0.241,16.606 0.366,16.606 0.614 C 16.606 0.825,16.370 0.963,16.005 0.963 C 15.674 0.963,15.403 1.071,15.403 1.203 C 15.403 1.336,15.021 1.444,14.553 1.444 C 14.020 1.444,13.652 1.578,13.565 1.805 C 13.489 2.004,13.167 2.166,12.850 2.166 C 12.499 2.166,12.274 2.307,12.274 2.527 C 12.274 2.726,12.112 2.888,11.913 2.888 C 11.715 2.888,11.552 2.996,11.552 3.129 C 11.552 3.261,11.282 3.369,10.951 3.369 C 10.576 3.369,10.349 3.506,10.349 3.730 C 10.349 3.929,10.187 4.091,9.988 4.091 C 9.789 4.091,9.627 4.200,9.627 4.332 C 9.627 4.465,9.407 4.573,9.138 4.573 C 8.869 4.573,8.587 4.735,8.511 4.934 C 8.434 5.132,8.221 5.295,8.037 5.295 C 7.852 5.295,7.702 5.411,7.702 5.553 C 7.702 5.886,7.089 6.498,6.756 6.498 C 6.614 6.498,6.498 6.615,6.498 6.758 C 6.498 6.900,6.065 7.421,5.535 7.915 C 5.006 8.409,4.573 8.996,4.573 9.220 C 4.573 9.444,4.465 9.627,4.332 9.627 C 4.200 9.627,4.091 9.789,4.091 9.988 C 4.091 10.187,3.929 10.349,3.730 10.349 C 3.506 10.349,3.369 10.576,3.369 10.951 C 3.369 11.282,3.261 11.552,3.129 11.552 C 2.996 11.552,2.888 11.715,2.888 11.913 C 2.888 12.112,2.726 12.274,2.527 12.274 C 2.307 12.274,2.166 12.499,2.166 12.850 C 2.166 13.167,2.004 13.489,1.805 13.565 C 1.578 13.652,1.444 14.020,1.444 14.553 C 1.444 15.021,1.336 15.403,1.203 15.403 C 1.071 15.403,0.963 15.674,0.963 16.005 C 0.963 16.350,0.824 16.606,0.637 16.606 C 0.023 16.606,-0.000 20.271,-0.000 120.337 C 0.000 220.403,0.023 224.067,0.637 224.067 C 0.824 224.067,0.963 224.324,0.963 224.669 C 0.963 225.000,1.071 225.271,1.203 225.271 C 1.336 225.271,1.444 225.653,1.444 226.121 C 1.444 226.654,1.578 227.022,1.805 227.109 C 2.004 227.185,2.166 227.507,2.166 227.824 C 2.166 228.175,2.307 228.400,2.527 228.400 C 2.726 228.400,2.888 228.562,2.888 228.761 C 2.888 228.959,2.996 229.122,3.129 229.122 C 3.261 229.122,3.369 229.392,3.369 229.723 C 3.369 230.098,3.506 230.325,3.730 230.325 C 3.929 230.325,4.091 230.487,4.091 230.686 C 4.091 230.884,4.200 231.047,4.332 231.047 C 4.465 231.047,4.573 231.230,4.573 231.454 C 4.573 231.678,5.006 232.265,5.535 232.759 C 6.065 233.253,6.498 233.773,6.498 233.916 C 6.498 234.059,6.614 234.176,6.756 234.176 C 7.089 234.176,7.702 234.788,7.702 235.121 C 7.702 235.263,7.852 235.379,8.037 235.379 C 8.221 235.379,8.434 235.542,8.511 235.740 C 8.587 235.939,8.869 236.101,9.138 236.101 C 9.407 236.101,9.627 236.209,9.627 236.342 C 9.627 236.474,9.789 236.582,9.988 236.582 C 10.187 236.582,10.349 236.745,10.349 236.943 C 10.349 237.168,10.576 237.304,10.951 237.304 C 11.282 237.304,11.552 237.413,11.552 237.545 C 11.552 237.677,11.715 237.786,11.913 237.786 C 12.112 237.786,12.274 237.948,12.274 238.147 C 12.274 238.367,12.499 238.508,12.850 238.508 C 13.167 238.508,13.489 238.670,13.565 238.869 C 13.652 239.095,14.020 239.230,14.553 239.230 C 15.021 239.230,15.403 239.338,15.403 239.471 C 15.403 239.603,15.674 239.711,16.005 239.711 C 16.350 239.711,16.606 239.850,16.606 240.037 C 16.606 240.659,20.981 240.674,200.000 240.674 C 379.019 240.674,383.394 240.659,383.394 240.037 C 383.394 239.850,383.650 239.711,383.995 239.711 C 384.326 239.711,384.597 239.603,384.597 239.471 C 384.597 239.338,384.914 239.230,385.302 239.230 C 385.689 239.230,386.169 239.067,386.368 238.869 C 386.566 238.670,386.953 238.508,387.227 238.508 C 387.510 238.508,387.726 238.352,387.726 238.147 C 387.726 237.948,387.888 237.786,388.087 237.786 C 388.285 237.786,388.448 237.677,388.448 237.545 C 388.448 237.413,388.718 237.304,389.049 237.304 C 389.424 237.304,389.651 237.168,389.651 236.943 C 389.651 236.745,389.767 236.582,389.909 236.582 C 390.051 236.582,390.330 236.419,390.530 236.219 C 390.730 236.019,390.994 235.918,391.116 235.994 C 391.239 236.070,391.404 235.962,391.484 235.755 C 391.563 235.548,391.779 235.379,391.963 235.379 C 392.148 235.379,392.298 235.263,392.298 235.121 C 392.298 234.788,392.911 234.176,393.244 234.176 C 393.386 234.176,393.502 234.013,393.502 233.815 C 393.502 233.616,393.610 233.454,393.742 233.454 C 393.875 233.454,393.983 233.291,393.983 233.093 C 393.983 232.894,394.099 232.732,394.241 232.732 C 394.604 232.732,395.278 232.016,395.345 231.559 C 395.376 231.348,395.515 231.138,395.655 231.091 C 395.794 231.045,395.909 230.853,395.909 230.666 C 395.909 230.478,396.071 230.325,396.270 230.325 C 396.494 230.325,396.631 230.098,396.631 229.723 C 396.631 229.392,396.739 229.122,396.871 229.122 C 397.004 229.122,397.112 228.959,397.112 228.761 C 397.112 228.562,397.274 228.400,397.473 228.400 C 397.678 228.400,397.834 228.184,397.834 227.901 C 397.834 227.627,397.996 227.240,398.195 227.041 C 398.394 226.843,398.556 226.363,398.556 225.976 C 398.556 225.588,398.664 225.271,398.797 225.271 C 398.929 225.271,399.037 225.000,399.037 224.669 C 399.037 224.324,399.176 224.067,399.363 224.067 C 399.977 224.067,400.000 220.403,400.000 120.337 C 400.000 20.271,399.977 16.606,399.363 16.606 C 399.176 16.606,399.037 16.350,399.037 16.005 C 399.037 15.674,398.929 15.403,398.797 15.403 C 398.664 15.403,398.556 15.086,398.556 14.698 C 398.556 14.311,398.394 13.831,398.195 13.632 C 397.996 13.434,397.834 13.047,397.834 12.773 C 397.834 12.490,397.678 12.274,397.473 12.274 C 397.274 12.274,397.112 12.112,397.112 11.913 C 397.112 11.715,397.004 11.552,396.871 11.552 C 396.739 11.552,396.631 11.282,396.631 10.951 C 396.631 10.576,396.494 10.349,396.270 10.349 C 396.071 10.349,395.909 10.196,395.909 10.008 C 395.909 9.820,395.794 9.629,395.655 9.582 C 395.515 9.536,395.376 9.326,395.345 9.115 C 395.278 8.658,394.604 7.942,394.241 7.942 C 394.099 7.942,393.983 7.780,393.983 7.581 C 393.983 7.383,393.875 7.220,393.742 7.220 C 393.610 7.220,393.502 7.058,393.502 6.859 C 393.502 6.661,393.386 6.498,393.244 6.498 C 392.911 6.498,392.298 5.886,392.298 5.553 C 392.298 5.411,392.148 5.295,391.963 5.295 C 391.779 5.295,391.563 5.126,391.484 4.919 C 391.404 4.712,391.239 4.604,391.116 4.680 C 390.994 4.756,390.730 4.654,390.530 4.455 C 390.330 4.255,390.051 4.091,389.909 4.091 C 389.767 4.091,389.651 3.929,389.651 3.730 C 389.651 3.506,389.424 3.369,389.049 3.369 C 388.718 3.369,388.448 3.261,388.448 3.129 C 388.448 2.996,388.285 2.888,388.087 2.888 C 387.888 2.888,387.726 2.726,387.726 2.527 C 387.726 2.307,387.501 2.166,387.150 2.166 C 386.833 2.166,386.511 2.004,386.435 1.805 C 386.348 1.578,385.980 1.444,385.447 1.444 C 384.979 1.444,384.597 1.336,384.597 1.203 C 384.597 1.071,384.326 0.963,383.995 0.963 C 383.650 0.963,383.394 0.824,383.394 0.637 C 383.394 0.405,382.863 0.266,381.552 0.156 C 379.666 -0.004,20.153 0.018,17.870 0.177 M378.099 120.337 L 378.099 218.773 200.000 218.773 L 21.901 218.773 21.901 120.337 L 21.901 21.901 200.000 21.901 L 378.099 21.901 378.099 120.337 M57.294 51.818 C 55.935 52.143,54.087 53.875,53.649 55.235 C 53.427 55.921,53.312 58.648,53.247 64.741 C 53.082 80.102,52.891 79.902,67.750 79.892 C 82.682 79.882,82.310 80.247,82.310 65.601 C 82.310 53.846,82.059 53.039,78.003 51.762 C 76.908 51.417,58.764 51.466,57.294 51.818 M54.152 173.478 C 54.152 183.976,54.222 187.460,54.440 187.677 C 54.860 188.097,107.114 188.097,107.533 187.677 C 107.751 187.460,107.822 183.976,107.822 173.478 L 107.822 159.567 80.987 159.567 L 54.152 159.567 54.152 173.478 M298.596 159.727 C 298.321 160.003,298.407 186.982,298.685 187.501 C 298.993 188.077,351.484 188.251,352.058 187.677 C 352.276 187.460,352.347 183.976,352.347 173.478 L 352.347 159.567 325.552 159.567 C 310.814 159.567,298.684 159.639,298.596 159.727 " stroke="none" fill="#e0641e" fill-rule="evenodd"></path><path id="path1" d="M108.303 65.824 L 108.303 79.908 122.202 79.846 L 136.101 79.783 136.101 65.824 L 136.101 51.865 122.202 51.803 L 108.303 51.741 108.303 65.824 M162.084 52.046 C 162.021 52.211,161.997 58.520,162.031 66.065 L 162.094 79.783 176.173 79.783 L 190.253 79.783 190.315 66.092 C 190.360 56.180,190.302 52.310,190.105 52.073 C 189.720 51.609,162.261 51.582,162.084 52.046 M216.236 52.044 C 216.173 52.210,216.149 58.520,216.183 66.065 L 216.245 79.783 230.267 79.846 L 244.288 79.908 244.226 65.886 L 244.164 51.865 230.258 51.803 C 219.261 51.754,216.328 51.804,216.236 52.044 M270.147 52.046 C 270.083 52.211,270.060 58.520,270.094 66.065 L 270.156 79.783 284.116 79.783 L 298.075 79.783 298.141 66.306 C 298.178 58.893,298.149 52.584,298.076 52.286 L 297.945 51.745 284.103 51.745 C 273.252 51.745,270.237 51.810,270.147 52.046 M323.947 65.824 L 323.947 79.908 337.966 79.846 L 351.986 79.783 351.986 65.824 L 351.986 51.865 337.966 51.803 L 323.947 51.741 323.947 65.824 M323.852 87.264 C 323.772 87.473,323.706 92.239,323.706 97.854 L 323.706 108.063 311.452 108.063 C 304.712 108.063,299.026 108.128,298.816 108.209 C 298.235 108.432,298.235 133.686,298.816 133.909 C 299.312 134.099,351.095 134.094,351.805 133.904 L 352.347 133.759 352.347 110.467 C 352.347 89.450,352.309 87.161,351.966 87.029 C 350.976 86.650,324.002 86.875,323.852 87.264 M351.960 87.745 C 352.040 87.955,352.106 98.352,352.106 110.850 L 352.106 133.574 325.511 133.574 L 298.917 133.574 298.917 120.941 L 298.917 108.308 311.372 108.245 L 323.827 108.183 323.889 97.774 L 323.952 87.365 337.883 87.365 C 350.364 87.365,351.829 87.404,351.960 87.745 M54.503 105.957 C 54.439 106.122,54.416 112.431,54.450 119.976 L 54.513 133.694 80.385 133.763 C 94.615 133.800,106.610 133.768,107.040 133.692 L 107.822 133.552 107.822 119.750 C 107.822 107.386,107.782 105.933,107.441 105.802 C 106.622 105.487,54.624 105.639,54.503 105.957 M137.055 105.955 C 136.991 106.121,136.967 112.431,137.001 119.976 L 137.064 133.694 150.903 133.694 L 164.741 133.694 164.741 119.735 L 164.741 105.776 150.956 105.714 C 140.056 105.665,137.146 105.715,137.055 105.955 M190.854 119.735 L 190.854 133.819 204.753 133.756 L 218.652 133.694 218.652 119.735 L 218.652 105.776 204.753 105.714 L 190.854 105.652 190.854 119.735 M244.826 105.815 C 244.590 105.910,244.525 108.920,244.525 119.727 L 244.525 133.518 245.066 133.663 C 245.773 133.852,271.676 133.852,272.383 133.663 L 272.924 133.518 272.924 119.733 C 272.924 107.385,272.885 105.933,272.543 105.802 C 272.089 105.627,245.259 105.640,244.826 105.815 M136.763 159.486 C 136.446 159.614,136.296 186.772,136.608 187.586 C 136.741 187.932,142.974 187.966,204.811 187.966 L 272.868 187.966 273.013 187.425 C 273.390 186.018,273.174 159.622,272.784 159.472 C 272.329 159.297,137.196 159.311,136.763 159.486 M272.625 173.466 L 272.563 187.365 204.753 187.425 L 136.943 187.486 136.943 173.526 L 136.943 159.567 204.815 159.567 L 272.687 159.567 272.625 173.466 " stroke="none" fill="#747474" fill-rule="evenodd"></path><path id="path2" d="M323.889 97.774 L 323.827 108.183 311.372 108.245 L 298.917 108.308 298.917 120.941 L 298.917 133.574 325.511 133.574 L 352.106 133.574 352.106 110.850 C 352.106 98.352,352.040 87.955,351.960 87.745 C 351.829 87.404,350.364 87.365,337.883 87.365 L 323.952 87.365 323.889 97.774 M136.943 173.526 L 136.943 187.486 204.753 187.425 L 272.563 187.365 272.625 173.466 L 272.687 159.567 204.815 159.567 L 136.943 159.567 136.943 173.526 " stroke="none" fill="#2d2d2d" fill-rule="evenodd"></path><path id="path3" d="M22.013 22.202 C 21.950 22.368,21.926 66.637,21.960 120.578 L 22.022 218.652 93.983 218.728 C 133.562 218.769,213.625 218.728,271.901 218.637 L 377.858 218.472 377.858 120.347 L 377.858 22.222 306.338 22.062 C 180.012 21.778,22.144 21.857,22.013 22.202 M78.471 51.651 C 80.067 52.173,81.765 53.687,81.968 54.769 C 82.054 55.227,82.220 55.660,82.338 55.733 C 82.688 55.949,82.607 74.669,82.250 75.876 C 81.871 77.161,79.903 79.188,78.580 79.655 C 76.964 80.227,60.139 80.307,57.790 79.754 C 55.680 79.257,54.013 77.840,53.490 76.099 C 52.941 74.274,53.072 56.150,53.642 54.818 C 54.159 53.614,56.131 51.747,56.893 51.741 C 57.172 51.739,57.563 51.633,57.762 51.504 C 58.439 51.066,77.087 51.198,78.471 51.651 M136.582 65.704 L 136.582 80.024 122.262 80.024 L 107.942 80.024 107.880 65.945 C 107.845 58.201,107.869 51.729,107.933 51.562 C 108.025 51.323,111.030 51.273,122.316 51.322 L 136.582 51.384 136.582 65.704 M190.614 65.706 L 190.614 80.148 176.233 80.086 L 161.853 80.024 161.791 65.945 C 161.756 58.201,161.780 51.730,161.843 51.564 C 161.934 51.328,165.046 51.264,176.286 51.264 L 190.614 51.264 190.614 65.706 M244.404 65.704 L 244.404 80.024 230.084 80.024 L 215.764 80.024 215.702 65.945 C 215.667 58.201,215.691 51.729,215.755 51.562 C 215.847 51.323,218.852 51.273,230.138 51.322 L 244.404 51.384 244.404 65.704 M298.408 51.591 C 298.605 51.829,298.663 55.793,298.618 65.972 L 298.556 80.024 284.176 80.086 L 269.795 80.148 269.795 65.866 C 269.795 58.011,269.868 51.512,269.956 51.424 C 270.302 51.078,298.118 51.242,298.408 51.591 M352.467 65.704 L 352.467 80.024 338.087 80.086 L 323.706 80.148 323.706 65.704 L 323.706 51.260 338.087 51.322 L 352.467 51.384 352.467 65.704 M352.528 110.415 L 352.590 134.066 351.971 134.302 C 350.968 134.683,299.435 134.609,298.676 134.225 L 298.075 133.921 298.012 121.107 L 297.950 108.293 298.570 108.057 C 298.944 107.915,303.995 107.822,311.327 107.822 L 323.466 107.822 323.466 97.521 C 323.466 89.793,323.538 87.148,323.756 86.930 C 323.978 86.708,327.405 86.653,338.257 86.701 L 352.467 86.763 352.528 110.415 M107.925 105.553 C 108.368 105.996,108.505 133.123,108.068 133.815 C 107.790 134.254,55.434 134.497,54.296 134.064 L 53.670 133.827 53.670 119.753 C 53.670 106.604,53.698 105.664,54.091 105.434 C 54.876 104.977,107.465 105.093,107.925 105.553 M164.982 119.735 L 164.982 134.176 151.071 134.238 C 141.755 134.279,137.005 134.217,136.691 134.049 C 135.996 133.677,135.950 105.839,136.643 105.433 C 136.920 105.271,141.838 105.205,151.023 105.241 L 164.982 105.295 164.982 119.735 M218.788 105.424 C 219.240 105.666,219.254 106.078,219.254 119.735 C 219.254 133.392,219.240 133.805,218.788 134.047 C 218.079 134.426,191.043 134.388,190.662 134.007 C 190.245 133.590,190.245 105.880,190.662 105.463 C 191.043 105.082,218.079 105.044,218.788 105.424 M272.784 105.321 C 273.439 105.572,273.356 133.696,272.699 134.047 C 271.990 134.426,244.954 134.388,244.573 134.007 C 244.258 133.693,244.133 105.647,244.444 105.335 C 244.645 105.134,272.263 105.120,272.784 105.321 M273.004 159.387 C 273.455 159.717,273.533 187.678,273.085 188.127 C 272.790 188.421,137.615 188.508,136.843 188.215 L 136.221 187.978 136.221 173.670 C 136.221 160.245,136.247 159.355,136.643 159.251 C 137.764 158.958,272.602 159.093,273.004 159.387 M108.004 173.591 L 108.066 187.736 107.447 187.972 C 106.570 188.305,55.000 188.292,54.376 187.958 C 53.903 187.705,53.607 159.951,54.072 159.486 C 54.161 159.397,66.318 159.352,81.088 159.385 L 107.942 159.446 108.004 173.591 M352.467 173.767 L 352.467 188.087 325.872 188.153 C 311.245 188.189,299.034 188.160,298.736 188.088 L 298.195 187.957 298.195 173.802 C 298.195 166.017,298.268 159.574,298.356 159.486 C 298.445 159.397,310.656 159.352,325.492 159.385 L 352.467 159.446 352.467 173.767 " stroke="none" fill="#fcf4e4" fill-rule="evenodd"></path><path id="path4" d="M330.144 22.082 L 377.858 22.143 377.858 120.337 L 377.858 218.531 324.850 218.592 L 271.841 218.653 324.970 218.713 L 378.099 218.773 378.099 120.337 L 378.099 21.901 330.265 21.961 L 282.431 22.020 330.144 22.082 M57.844 51.448 C 57.691 51.545,61.915 51.592,67.231 51.552 C 82.843 51.435,82.310 50.938,82.310 65.601 C 82.310 76.513,82.186 77.142,79.682 78.843 C 79.213 79.162,78.970 79.422,79.142 79.422 C 79.752 79.422,81.940 76.927,82.250 75.876 C 82.607 74.669,82.688 55.949,82.338 55.733 C 82.220 55.660,82.054 55.227,81.968 54.769 C 81.765 53.687,80.067 52.173,78.471 51.651 C 77.209 51.238,58.465 51.054,57.844 51.448 M107.933 51.562 C 107.869 51.729,107.845 58.201,107.880 65.945 L 107.942 80.024 122.262 80.024 L 136.582 80.024 136.582 65.704 L 136.582 51.384 122.316 51.322 C 111.030 51.273,108.025 51.323,107.933 51.562 M161.843 51.564 C 161.780 51.730,161.756 58.201,161.791 65.945 L 161.853 80.024 176.233 80.086 L 190.614 80.148 190.614 65.706 L 190.614 51.264 176.286 51.264 C 165.046 51.264,161.934 51.328,161.843 51.564 M215.755 51.562 C 215.691 51.729,215.667 58.201,215.702 65.945 L 215.764 80.024 230.084 80.024 L 244.404 80.024 244.404 65.704 L 244.404 51.384 230.138 51.322 C 218.852 51.273,215.847 51.323,215.755 51.562 M269.956 51.424 C 269.868 51.512,269.795 58.011,269.795 65.866 L 269.795 80.148 284.176 80.086 L 298.556 80.024 298.618 65.972 C 298.663 55.793,298.605 51.829,298.408 51.591 C 298.118 51.242,270.302 51.078,269.956 51.424 M323.706 65.704 L 323.706 80.148 338.087 80.086 L 352.467 80.024 352.467 65.704 L 352.467 51.384 338.087 51.322 L 323.706 51.260 323.706 65.704 M54.989 53.022 C 54.264 53.724,53.671 54.456,53.671 54.647 C 53.672 54.838,53.880 54.653,54.134 54.237 C 54.672 53.355,56.077 52.174,56.857 51.949 L 57.401 51.793 56.854 51.769 C 56.500 51.753,55.843 52.195,54.989 53.022 M136.101 65.824 L 136.101 79.783 122.202 79.846 L 108.303 79.908 108.303 65.824 L 108.303 51.741 122.202 51.803 L 136.101 51.865 136.101 65.824 M190.105 52.073 C 190.302 52.310,190.360 56.180,190.315 66.092 L 190.253 79.783 176.173 79.783 L 162.094 79.783 162.031 66.065 C 161.997 58.520,162.021 52.211,162.084 52.046 C 162.261 51.582,189.720 51.609,190.105 52.073 M244.226 65.886 L 244.288 79.908 230.267 79.846 L 216.245 79.783 216.183 66.065 C 216.149 58.520,216.173 52.210,216.236 52.044 C 216.328 51.804,219.261 51.754,230.258 51.803 L 244.164 51.865 244.226 65.886 M298.076 52.286 C 298.149 52.584,298.178 58.893,298.141 66.306 L 298.075 79.783 284.116 79.783 L 270.156 79.783 270.094 66.065 C 270.060 58.520,270.083 52.211,270.147 52.046 C 270.237 51.810,273.252 51.745,284.103 51.745 L 297.945 51.745 298.076 52.286 M351.986 65.824 L 351.986 79.783 337.966 79.846 L 323.947 79.908 323.947 65.824 L 323.947 51.741 337.966 51.803 L 351.986 51.865 351.986 65.824 M53.339 55.485 C 53.256 55.700,53.200 56.165,53.213 56.518 C 53.233 57.034,53.280 56.976,53.458 56.221 C 53.684 55.258,53.607 54.785,53.339 55.485 M53.193 74.749 C 53.195 75.135,53.307 75.614,53.442 75.812 C 53.618 76.071,53.642 75.900,53.527 75.211 C 53.327 74.017,53.188 73.825,53.193 74.749 M53.674 76.583 C 53.669 77.114,55.975 79.423,56.510 79.421 C 56.765 79.421,56.612 79.233,56.102 78.922 C 55.111 78.318,54.892 78.097,54.210 77.016 C 53.875 76.484,53.677 76.325,53.674 76.583 M57.401 79.663 C 57.665 79.777,58.099 79.867,58.363 79.863 C 58.750 79.857,58.727 79.818,58.243 79.663 C 57.420 79.400,56.787 79.400,57.401 79.663 M77.638 79.603 C 77.539 79.702,73.270 79.844,68.151 79.918 L 58.845 80.054 68.231 80.035 C 74.861 80.022,77.794 79.934,78.219 79.735 C 78.766 79.478,78.775 79.452,78.319 79.438 C 78.044 79.429,77.737 79.504,77.638 79.603 M323.756 86.930 C 323.538 87.148,323.466 89.793,323.466 97.521 L 323.466 107.822 311.327 107.822 C 303.995 107.822,298.944 107.915,298.570 108.057 L 297.950 108.293 298.012 121.107 L 298.075 133.921 298.676 134.225 C 299.435 134.609,350.968 134.683,351.971 134.302 L 352.590 134.066 352.528 110.415 L 352.467 86.763 338.257 86.701 C 327.405 86.653,323.978 86.708,323.756 86.930 M351.966 87.029 C 352.309 87.161,352.347 89.450,352.347 110.467 L 352.347 133.759 351.805 133.904 C 351.095 134.094,299.312 134.099,298.816 133.909 C 298.235 133.686,298.235 108.432,298.816 108.209 C 299.026 108.128,304.712 108.063,311.452 108.063 L 323.706 108.063 323.706 97.854 C 323.706 92.239,323.772 87.473,323.852 87.264 C 324.002 86.875,350.976 86.650,351.966 87.029 M54.091 105.434 C 53.698 105.664,53.670 106.604,53.670 119.753 L 53.670 133.827 54.296 134.064 C 55.434 134.497,107.790 134.254,108.068 133.815 C 108.505 133.123,108.368 105.996,107.925 105.553 C 107.465 105.093,54.876 104.977,54.091 105.434 M136.643 105.433 C 135.950 105.839,135.996 133.677,136.691 134.049 C 137.005 134.217,141.755 134.279,151.071 134.238 L 164.982 134.176 164.982 119.735 L 164.982 105.295 151.023 105.241 C 141.838 105.205,136.920 105.271,136.643 105.433 M190.662 105.463 C 190.245 105.880,190.245 133.590,190.662 134.007 C 191.043 134.388,218.079 134.426,218.788 134.047 C 219.518 133.657,219.518 105.814,218.788 105.424 C 218.079 105.044,191.043 105.082,190.662 105.463 M244.444 105.335 C 244.133 105.647,244.258 133.693,244.573 134.007 C 244.954 134.388,271.990 134.426,272.699 134.047 C 273.356 133.696,273.439 105.572,272.784 105.321 C 272.263 105.120,244.645 105.134,244.444 105.335 M107.441 105.802 C 107.782 105.933,107.822 107.386,107.822 119.750 L 107.822 133.552 107.040 133.692 C 106.610 133.768,94.615 133.800,80.385 133.763 L 54.513 133.694 54.450 119.976 C 54.416 112.431,54.439 106.122,54.503 105.957 C 54.624 105.639,106.622 105.487,107.441 105.802 M164.741 119.735 L 164.741 133.694 150.903 133.694 L 137.064 133.694 137.001 119.976 C 136.967 112.431,136.991 106.121,137.055 105.955 C 137.146 105.715,140.056 105.665,150.956 105.714 L 164.741 105.776 164.741 119.735 M218.652 119.735 L 218.652 133.694 204.753 133.756 L 190.854 133.819 190.854 119.735 L 190.854 105.652 204.753 105.714 L 218.652 105.776 218.652 119.735 M272.543 105.802 C 272.885 105.933,272.924 107.385,272.924 119.733 L 272.924 133.518 272.383 133.663 C 271.676 133.852,245.773 133.852,245.066 133.663 L 244.525 133.518 244.525 119.727 C 244.525 108.920,244.590 105.910,244.826 105.815 C 245.259 105.640,272.089 105.627,272.543 105.802 M136.643 159.251 C 136.247 159.355,136.221 160.245,136.221 173.670 L 136.221 187.978 136.843 188.215 C 137.615 188.508,272.790 188.421,273.085 188.127 C 273.533 187.678,273.455 159.717,273.004 159.387 C 272.602 159.093,137.764 158.958,136.643 159.251 M54.072 159.486 C 53.605 159.953,53.904 187.705,54.378 187.959 C 54.696 188.129,63.254 188.189,81.033 188.147 L 107.220 188.084 80.975 188.025 C 60.949 187.980,54.661 187.898,54.440 187.677 C 54.222 187.460,54.152 183.976,54.152 173.478 L 54.152 159.567 80.987 159.567 L 107.822 159.567 107.822 173.478 C 107.822 184.276,107.755 187.460,107.521 187.708 C 107.278 187.965,107.290 188.005,107.581 187.916 C 107.897 187.820,107.942 186.021,107.942 173.626 L 107.942 159.446 81.088 159.385 C 66.318 159.352,54.161 159.397,54.072 159.486 M272.784 159.472 C 273.174 159.622,273.390 186.018,273.013 187.425 L 272.868 187.966 204.811 187.966 C 142.974 187.966,136.741 187.932,136.608 187.586 C 136.296 186.772,136.446 159.614,136.763 159.486 C 137.196 159.311,272.329 159.297,272.784 159.472 M298.356 159.486 C 298.268 159.574,298.195 166.017,298.195 173.802 L 298.195 187.957 298.736 188.088 C 299.034 188.160,311.245 188.189,325.872 188.153 L 352.467 188.087 352.467 173.767 L 352.467 159.446 325.492 159.385 C 310.656 159.352,298.445 159.397,298.356 159.486 M352.347 173.478 C 352.347 183.976,352.276 187.460,352.058 187.677 C 351.484 188.251,298.993 188.077,298.685 187.501 C 298.407 186.982,298.321 160.003,298.596 159.727 C 298.684 159.639,310.814 159.567,325.552 159.567 L 352.347 159.567 352.347 173.478 " stroke="none" fill="#bababa" fill-rule="evenodd"></path></g></svg>