<svg viewBox="0 0 16 16" xmlns="http://www.w3.org/2000/svg">
  <defs>
    <linearGradient id="folderGradient" x1="100%" y1="0%" x2="0%" y2="0%">
      <stop offset="0%" style="stop-color:#A2B1B9;stop-opacity:1" />
      <stop offset="100%" style="stop-color:#455A64;stop-opacity:1" />
    </linearGradient>
  </defs>
  <path d="M14.483 6H4.721a1 1 0 0 0-.949.684L2 12V5h12a1 1 0 0 0-1-1H7.562a1 1 0 0 1-.64-.232l-.644-.536A1 1 0 0 0 5.638 3H2a1 1 0 0 0-1 1v8a1 1 0 0 0 1 1h11l2.403-5.606A1 1 0 0 0 14.483 6" fill="url(#folderGradient)" />
</svg>