<svg viewBox="0 0 16 16" xmlns="http://www.w3.org/2000/svg">
    <path d="M14.483 6H4.721a1 1 0 0 0-.949.684L2 12V5h12a1 1 0 0 0-1-1H7.562a1 1 0 0 1-.64-.232l-.644-.536A1 1 0 0 0 5.638 3H2a1 1 0 0 0-1 1v8a1 1 0 0 0 1 1h11l2.403-5.606A1 1 0 0 0 14.483 6" fill="#66808dff" />
    <path d="M8.3 9.5c0-1.8 1.6-3.2 3.2-3.2s3.2 1.4 3.2 3.2v3c0 .6.4 1 1 1v.8h-8.4v-.8c.6 0 1-.4 1-1v-3z" fill="#FFD700" stroke="#FFB000" stroke-width="0.3"/>
    <path d="M10.6 14.3h2c0 .6-.4 1-1 1s-1-.4-1-1z" fill="#FFB000"/>
</svg>