<svg id="svg" version="1.1" xmlns="http://www.w3.org/2000/svg" xmlns:xlink="http://www.w3.org/1999/xlink" width="400" height="400" viewBox="0, 0, 400,400"><g id="svgg"><path id="path0" d="M242.593 208.333 L 242.593 211.852 248.519 211.852 L 254.444 211.852 254.444 255.556 L 254.444 299.259 248.519 299.259 L 242.593 299.259 242.593 302.778 L 242.593 306.296 252.963 306.296 L 263.333 306.296 263.333 255.556 L 263.333 204.815 252.963 204.815 L 242.593 204.815 242.593 208.333 M338.889 207.778 C 338.889 210.165,338.781 210.741,338.333 210.741 C 337.842 210.741,337.778 216.296,337.778 258.519 L 337.778 306.296 348.704 306.296 L 359.630 306.296 359.630 302.778 L 359.630 299.259 353.704 299.259 L 347.778 299.259 347.778 255.556 L 347.778 211.852 353.704 211.852 L 359.630 211.852 359.630 208.333 L 359.630 204.815 349.259 204.815 L 338.889 204.815 338.889 207.778 M274.444 229.259 C 274.444 230.074,274.611 230.741,274.815 230.741 C 275.019 230.741,275.185 231.157,275.185 231.667 C 275.185 232.243,275.395 232.593,275.741 232.593 C 276.142 232.593,276.296 233.004,276.296 234.074 C 276.296 235.144,276.451 235.556,276.852 235.556 C 277.222 235.556,277.407 235.926,277.407 236.667 C 277.407 237.278,277.574 237.778,277.778 237.778 C 277.981 237.778,278.148 238.444,278.148 239.259 C 278.148 240.329,278.302 240.741,278.704 240.741 C 279.049 240.741,279.259 241.091,279.259 241.667 C 279.259 242.243,279.469 242.593,279.815 242.593 C 280.216 242.593,280.370 243.004,280.370 244.074 C 280.370 244.889,280.537 245.556,280.741 245.556 C 280.944 245.556,281.111 245.972,281.111 246.481 C 281.111 247.058,281.321 247.407,281.667 247.407 C 282.068 247.407,282.222 247.819,282.222 248.889 C 282.222 249.959,282.377 250.370,282.778 250.370 C 283.189 250.370,283.333 250.802,283.333 252.037 C 283.333 252.954,283.500 253.704,283.704 253.704 C 283.907 253.704,284.074 254.120,284.074 254.630 C 284.074 255.206,284.284 255.556,284.630 255.556 C 285.031 255.556,285.185 255.967,285.185 257.037 C 285.185 258.107,285.340 258.519,285.741 258.519 C 286.086 258.519,286.296 258.868,286.296 259.444 C 286.296 259.954,286.463 260.370,286.667 260.370 C 286.870 260.370,287.037 261.037,287.037 261.852 C 287.037 262.922,287.191 263.333,287.593 263.333 C 287.963 263.333,288.148 263.704,288.148 264.444 C 288.148 265.185,288.333 265.556,288.704 265.556 C 289.105 265.556,289.259 265.967,289.259 267.037 C 289.259 268.107,289.414 268.519,289.815 268.519 C 290.160 268.519,290.370 268.868,290.370 269.444 C 290.370 269.954,290.537 270.370,290.741 270.370 C 290.944 270.370,291.111 271.037,291.111 271.852 C 291.111 272.922,291.265 273.333,291.667 273.333 C 292.068 273.333,292.222 273.745,292.222 274.815 C 292.222 275.885,292.377 276.296,292.778 276.296 C 293.148 276.296,293.333 276.667,293.333 277.407 C 293.333 278.019,293.500 278.519,293.704 278.519 C 293.907 278.519,294.074 279.185,294.074 280.000 C 294.074 281.070,294.228 281.481,294.630 281.481 C 294.975 281.481,295.185 281.831,295.185 282.407 C 295.185 282.984,295.395 283.333,295.741 283.333 C 296.046 283.333,296.296 283.583,296.296 283.889 C 296.296 284.357,297.140 284.444,301.667 284.444 L 307.037 284.444 307.037 283.333 C 307.037 282.593,307.222 282.222,307.593 282.222 C 307.938 282.222,308.148 281.872,308.148 281.296 C 308.148 280.787,308.315 280.370,308.519 280.370 C 308.722 280.370,308.889 279.704,308.889 278.889 C 308.889 277.819,309.043 277.407,309.444 277.407 C 309.846 277.407,310.000 276.996,310.000 275.926 C 310.000 274.856,310.154 274.444,310.556 274.444 C 310.901 274.444,311.111 274.095,311.111 273.519 C 311.111 272.942,311.321 272.593,311.667 272.593 C 312.078 272.593,312.222 272.160,312.222 270.926 C 312.222 270.009,312.389 269.259,312.593 269.259 C 312.796 269.259,312.963 268.843,312.963 268.333 C 312.963 267.757,313.173 267.407,313.519 267.407 C 313.920 267.407,314.074 266.996,314.074 265.926 C 314.074 264.856,314.228 264.444,314.630 264.444 C 315.031 264.444,315.185 264.033,315.185 262.963 C 315.185 262.148,315.352 261.481,315.556 261.481 C 315.759 261.481,315.926 261.065,315.926 260.556 C 315.926 259.979,316.136 259.630,316.481 259.630 C 316.883 259.630,317.037 259.218,317.037 258.148 C 317.037 257.078,317.191 256.667,317.593 256.667 C 317.963 256.667,318.148 256.296,318.148 255.556 C 318.148 254.944,318.315 254.444,318.519 254.444 C 318.722 254.444,318.889 253.778,318.889 252.963 C 318.889 251.893,319.043 251.481,319.444 251.481 C 319.846 251.481,320.000 251.070,320.000 250.000 C 320.000 248.930,320.154 248.519,320.556 248.519 C 320.901 248.519,321.111 248.169,321.111 247.593 C 321.111 247.083,321.278 246.667,321.481 246.667 C 321.685 246.667,321.852 246.000,321.852 245.185 C 321.852 244.115,322.006 243.704,322.407 243.704 C 322.778 243.704,322.963 243.333,322.963 242.593 C 322.963 241.852,323.148 241.481,323.519 241.481 C 323.920 241.481,324.074 241.070,324.074 240.000 C 324.074 239.185,324.241 238.519,324.444 238.519 C 324.648 238.519,324.815 237.852,324.815 237.037 C 324.815 235.967,324.969 235.556,325.370 235.556 C 325.716 235.556,325.926 235.206,325.926 234.630 C 325.926 234.053,326.136 233.704,326.481 233.704 C 326.883 233.704,327.037 233.292,327.037 232.222 C 327.037 231.407,327.204 230.741,327.407 230.741 C 327.611 230.741,327.778 230.074,327.778 229.259 L 327.778 227.778 322.963 227.778 L 318.148 227.778 318.148 228.704 C 318.148 229.280,317.938 229.630,317.593 229.630 C 317.191 229.630,317.037 230.041,317.037 231.111 C 317.037 232.181,316.883 232.593,316.481 232.593 C 316.080 232.593,315.926 233.004,315.926 234.074 C 315.926 234.889,315.759 235.556,315.556 235.556 C 315.352 235.556,315.185 236.222,315.185 237.037 C 315.185 238.107,315.031 238.519,314.630 238.519 C 314.228 238.519,314.074 238.930,314.074 240.000 C 314.074 241.070,313.920 241.481,313.519 241.481 C 313.148 241.481,312.963 241.852,312.963 242.593 C 312.963 243.204,312.796 243.704,312.593 243.704 C 312.389 243.704,312.222 244.370,312.222 245.185 C 312.222 246.255,312.068 246.667,311.667 246.667 C 311.265 246.667,311.111 247.078,311.111 248.148 C 311.111 249.218,310.957 249.630,310.556 249.630 C 310.154 249.630,310.000 250.041,310.000 251.111 C 310.000 252.181,309.846 252.593,309.444 252.593 C 309.043 252.593,308.889 253.004,308.889 254.074 C 308.889 254.889,308.722 255.556,308.519 255.556 C 308.315 255.556,308.148 256.222,308.148 257.037 C 308.148 258.107,307.994 258.519,307.593 258.519 C 307.191 258.519,307.037 258.930,307.037 260.000 C 307.037 261.070,306.883 261.481,306.481 261.481 C 306.080 261.481,305.926 261.893,305.926 262.963 C 305.926 263.778,305.759 264.444,305.556 264.444 C 305.352 264.444,305.185 265.111,305.185 265.926 C 305.185 266.996,305.031 267.407,304.630 267.407 C 304.228 267.407,304.074 267.819,304.074 268.889 C 304.074 269.959,303.920 270.370,303.519 270.370 C 303.117 270.370,302.963 270.782,302.963 271.852 C 302.963 272.667,302.796 273.333,302.593 273.333 C 302.389 273.333,302.222 273.833,302.222 274.444 C 302.222 275.185,302.037 275.556,301.667 275.556 C 301.296 275.556,301.111 275.185,301.111 274.444 C 301.111 273.704,300.926 273.333,300.556 273.333 C 300.154 273.333,300.000 272.922,300.000 271.852 C 300.000 271.037,299.833 270.370,299.630 270.370 C 299.426 270.370,299.259 269.704,299.259 268.889 C 299.259 267.819,299.105 267.407,298.704 267.407 C 298.302 267.407,298.148 266.996,298.148 265.926 C 298.148 264.856,297.994 264.444,297.593 264.444 C 297.191 264.444,297.037 264.033,297.037 262.963 C 297.037 262.148,296.870 261.481,296.667 261.481 C 296.463 261.481,296.296 261.065,296.296 260.556 C 296.296 259.979,296.086 259.630,295.741 259.630 C 295.340 259.630,295.185 259.218,295.185 258.148 C 295.185 257.078,295.031 256.667,294.630 256.667 C 294.228 256.667,294.074 256.255,294.074 255.185 C 294.074 254.370,293.907 253.704,293.704 253.704 C 293.500 253.704,293.333 252.954,293.333 252.037 C 293.333 250.802,293.189 250.370,292.778 250.370 C 292.377 250.370,292.222 249.959,292.222 248.889 C 292.222 247.819,292.068 247.407,291.667 247.407 C 291.321 247.407,291.111 247.058,291.111 246.481 C 291.111 245.972,290.944 245.556,290.741 245.556 C 290.537 245.556,290.370 244.889,290.370 244.074 C 290.370 243.004,290.216 242.593,289.815 242.593 C 289.414 242.593,289.259 242.181,289.259 241.111 C 289.259 240.041,289.105 239.630,288.704 239.630 C 288.302 239.630,288.148 239.218,288.148 238.148 C 288.148 237.078,287.994 236.667,287.593 236.667 C 287.191 236.667,287.037 236.255,287.037 235.185 C 287.037 234.370,286.870 233.704,286.667 233.704 C 286.463 233.704,286.296 233.037,286.296 232.222 C 286.296 231.152,286.142 230.741,285.741 230.741 C 285.370 230.741,285.185 230.370,285.185 229.630 C 285.185 228.889,285.000 228.519,284.630 228.519 C 284.324 228.519,284.074 228.352,284.074 228.148 C 284.074 227.920,282.222 227.778,279.259 227.778 L 274.444 227.778 274.444 229.259 " stroke="none" fill="#f8fafb" fill-rule="evenodd"></path><path id="path1" d="M218.519 161.667 C 218.519 162.068,218.107 162.222,217.037 162.222 C 216.222 162.222,215.556 162.389,215.556 162.593 C 215.556 162.796,215.139 162.963,214.630 162.963 C 214.053 162.963,213.704 163.173,213.704 163.519 C 213.704 163.824,213.454 164.074,213.148 164.074 C 212.843 164.074,212.593 164.324,212.593 164.630 C 212.593 164.975,212.243 165.185,211.667 165.185 C 210.926 165.185,210.741 165.370,210.741 166.111 C 210.741 166.687,210.531 167.037,210.185 167.037 C 209.880 167.037,209.630 167.287,209.630 167.593 C 209.630 167.898,209.463 168.148,209.259 168.148 C 209.056 168.148,208.889 168.565,208.889 169.074 C 208.889 169.650,208.679 170.000,208.333 170.000 C 207.932 170.000,207.778 170.412,207.778 171.481 C 207.778 172.551,207.623 172.963,207.222 172.963 C 206.730 172.963,206.667 182.490,206.667 256.481 C 206.667 330.473,206.730 340.000,207.222 340.000 C 207.623 340.000,207.778 340.412,207.778 341.481 C 207.778 342.551,207.932 342.963,208.333 342.963 C 208.639 342.963,208.889 343.142,208.889 343.360 C 208.889 343.873,209.831 344.815,210.344 344.815 C 210.562 344.815,210.741 345.065,210.741 345.370 C 210.741 345.676,210.991 345.926,211.296 345.926 C 211.602 345.926,211.852 346.104,211.852 346.323 C 211.852 346.836,212.794 347.778,213.307 347.778 C 213.525 347.778,213.704 348.028,213.704 348.333 C 213.704 348.735,214.115 348.889,215.185 348.889 C 216.255 348.889,216.667 349.043,216.667 349.444 C 216.667 349.936,222.922 350.000,270.741 350.000 L 324.815 350.000 324.815 347.963 C 324.815 346.843,324.648 345.926,324.444 345.926 C 324.241 345.926,324.074 345.009,324.074 343.889 C 324.074 342.325,323.945 341.852,323.519 341.852 C 323.099 341.852,322.963 341.399,322.963 340.000 C 322.963 338.601,322.827 338.148,322.407 338.148 C 322.006 338.148,321.852 337.737,321.852 336.667 C 321.852 335.852,321.685 335.185,321.481 335.185 C 321.278 335.185,321.111 334.269,321.111 333.148 C 321.111 331.584,320.982 331.111,320.556 331.111 C 320.129 331.111,320.000 330.638,320.000 329.074 C 320.000 327.510,319.871 327.037,319.444 327.037 C 319.043 327.037,318.889 326.626,318.889 325.556 C 318.889 324.741,318.722 324.074,318.519 324.074 C 318.315 324.074,318.148 323.157,318.148 322.037 C 318.148 320.473,318.019 320.000,317.593 320.000 C 317.173 320.000,317.037 319.547,317.037 318.148 C 317.037 316.749,316.901 316.296,316.481 316.296 C 316.055 316.296,315.926 315.823,315.926 314.259 C 315.926 313.139,315.759 312.222,315.556 312.222 C 315.352 312.222,315.185 311.556,315.185 310.741 C 315.185 309.671,315.031 309.259,314.630 309.259 C 314.203 309.259,314.074 308.786,314.074 307.222 C 314.074 305.658,313.945 305.185,313.519 305.185 C 313.092 305.185,312.963 304.712,312.963 303.148 C 312.963 302.028,312.796 301.111,312.593 301.111 C 312.389 301.111,312.222 300.278,312.222 299.259 C 312.222 297.860,312.086 297.407,311.667 297.407 C 311.265 297.407,311.111 296.996,311.111 295.926 C 311.111 294.856,310.957 294.444,310.556 294.444 C 310.129 294.444,310.000 293.971,310.000 292.407 C 310.000 290.844,309.871 290.370,309.444 290.370 C 309.018 290.370,308.889 289.897,308.889 288.333 C 308.889 287.213,308.722 286.296,308.519 286.296 C 308.315 286.296,308.148 285.630,308.148 284.815 C 308.148 283.745,307.994 283.333,307.593 283.333 C 307.247 283.333,307.037 283.683,307.037 284.259 L 307.037 285.185 301.667 285.185 C 298.333 285.185,296.296 285.045,296.296 284.815 C 296.296 284.611,296.046 284.444,295.741 284.444 C 295.370 284.444,295.185 284.074,295.185 283.333 C 295.185 282.593,295.000 282.222,294.630 282.222 C 294.228 282.222,294.074 281.811,294.074 280.741 C 294.074 279.926,293.907 279.259,293.704 279.259 C 293.500 279.259,293.333 278.843,293.333 278.333 C 293.333 277.757,293.123 277.407,292.778 277.407 C 292.377 277.407,292.222 276.996,292.222 275.926 C 292.222 274.856,292.068 274.444,291.667 274.444 C 291.265 274.444,291.111 274.033,291.111 272.963 C 291.111 272.148,290.944 271.481,290.741 271.481 C 290.537 271.481,290.370 270.981,290.370 270.370 C 290.370 269.630,290.185 269.259,289.815 269.259 C 289.414 269.259,289.259 268.848,289.259 267.778 C 289.259 266.708,289.105 266.296,288.704 266.296 C 288.358 266.296,288.148 265.947,288.148 265.370 C 288.148 264.794,287.938 264.444,287.593 264.444 C 287.191 264.444,287.037 264.033,287.037 262.963 C 287.037 262.148,286.870 261.481,286.667 261.481 C 286.463 261.481,286.296 261.065,286.296 260.556 C 286.296 259.979,286.086 259.630,285.741 259.630 C 285.340 259.630,285.185 259.218,285.185 258.148 C 285.185 257.078,285.031 256.667,284.630 256.667 C 284.259 256.667,284.074 256.296,284.074 255.556 C 284.074 254.944,283.907 254.444,283.704 254.444 C 283.500 254.444,283.333 253.778,283.333 252.963 C 283.333 251.893,283.179 251.481,282.778 251.481 C 282.377 251.481,282.222 251.070,282.222 250.000 C 282.222 248.930,282.068 248.519,281.667 248.519 C 281.321 248.519,281.111 248.169,281.111 247.593 C 281.111 247.083,280.944 246.667,280.741 246.667 C 280.537 246.667,280.370 246.000,280.370 245.185 C 280.370 244.115,280.216 243.704,279.815 243.704 C 279.444 243.704,279.259 243.333,279.259 242.593 C 279.259 241.852,279.074 241.481,278.704 241.481 C 278.302 241.481,278.148 241.070,278.148 240.000 C 278.148 239.185,277.981 238.519,277.778 238.519 C 277.574 238.519,277.407 238.102,277.407 237.593 C 277.407 237.016,277.198 236.667,276.852 236.667 C 276.451 236.667,276.296 236.255,276.296 235.185 C 276.296 234.115,276.142 233.704,275.741 233.704 C 275.395 233.704,275.185 233.354,275.185 232.778 C 275.185 232.269,275.019 231.852,274.815 231.852 C 274.611 231.852,274.444 230.935,274.444 229.815 L 274.444 227.778 279.815 227.778 L 285.185 227.778 285.185 228.704 C 285.185 229.280,285.395 229.630,285.741 229.630 C 286.142 229.630,286.296 230.041,286.296 231.111 C 286.296 231.926,286.463 232.593,286.667 232.593 C 286.870 232.593,287.037 233.259,287.037 234.074 C 287.037 235.144,287.191 235.556,287.593 235.556 C 287.994 235.556,288.148 235.967,288.148 237.037 C 288.148 238.107,288.302 238.519,288.704 238.519 C 289.105 238.519,289.259 238.930,289.259 240.000 C 289.259 241.070,289.414 241.481,289.815 241.481 C 290.185 241.481,290.370 241.852,290.370 242.593 C 290.370 243.204,290.537 243.704,290.741 243.704 C 290.944 243.704,291.111 244.370,291.111 245.185 C 291.111 246.255,291.265 246.667,291.667 246.667 C 292.068 246.667,292.222 247.078,292.222 248.148 C 292.222 249.218,292.377 249.630,292.778 249.630 C 293.179 249.630,293.333 250.041,293.333 251.111 C 293.333 251.926,293.500 252.593,293.704 252.593 C 293.907 252.593,294.074 253.259,294.074 254.074 C 294.074 255.144,294.228 255.556,294.630 255.556 C 295.031 255.556,295.185 255.967,295.185 257.037 C 295.185 258.107,295.340 258.519,295.741 258.519 C 296.086 258.519,296.296 258.868,296.296 259.444 C 296.296 259.954,296.463 260.370,296.667 260.370 C 296.870 260.370,297.037 261.037,297.037 261.852 C 297.037 262.922,297.191 263.333,297.593 263.333 C 297.994 263.333,298.148 263.745,298.148 264.815 C 298.148 265.885,298.302 266.296,298.704 266.296 C 299.105 266.296,299.259 266.708,299.259 267.778 C 299.259 268.593,299.426 269.259,299.630 269.259 C 299.833 269.259,300.000 270.009,300.000 270.926 C 300.000 272.160,300.144 272.593,300.556 272.593 C 300.901 272.593,301.111 272.942,301.111 273.519 C 301.111 274.095,301.321 274.444,301.667 274.444 C 302.012 274.444,302.222 274.095,302.222 273.519 C 302.222 273.009,302.389 272.593,302.593 272.593 C 302.796 272.593,302.963 271.843,302.963 270.926 C 302.963 269.691,303.107 269.259,303.519 269.259 C 303.824 269.259,304.074 269.093,304.074 268.889 C 304.074 268.685,303.824 268.519,303.519 268.519 C 303.092 268.519,302.963 268.045,302.963 266.481 C 302.963 265.361,302.796 264.444,302.593 264.444 C 302.389 264.444,302.222 263.528,302.222 262.407 C 302.222 260.844,302.093 260.370,301.667 260.370 C 301.247 260.370,301.111 259.918,301.111 258.519 C 301.111 257.119,300.975 256.667,300.556 256.667 C 300.154 256.667,300.000 256.255,300.000 255.185 C 300.000 254.370,299.833 253.704,299.630 253.704 C 299.426 253.704,299.259 252.787,299.259 251.667 C 299.259 250.103,299.130 249.630,298.704 249.630 C 298.277 249.630,298.148 249.156,298.148 247.593 C 298.148 246.029,298.019 245.556,297.593 245.556 C 297.166 245.556,297.037 245.082,297.037 243.519 C 297.037 242.398,296.870 241.481,296.667 241.481 C 296.463 241.481,296.296 240.815,296.296 240.000 C 296.296 238.930,296.142 238.519,295.741 238.519 C 295.321 238.519,295.185 238.066,295.185 236.667 C 295.185 235.267,295.049 234.815,294.630 234.815 C 294.203 234.815,294.074 234.342,294.074 232.778 C 294.074 231.657,293.907 230.741,293.704 230.741 C 293.500 230.741,293.333 229.824,293.333 228.704 C 293.333 227.140,293.204 226.667,292.778 226.667 C 292.377 226.667,292.222 226.255,292.222 225.185 C 292.222 224.115,292.068 223.704,291.667 223.704 C 291.240 223.704,291.111 223.230,291.111 221.667 C 291.111 220.546,290.944 219.630,290.741 219.630 C 290.537 219.630,290.370 218.796,290.370 217.778 C 290.370 216.379,290.235 215.926,289.815 215.926 C 289.388 215.926,289.259 215.453,289.259 213.889 C 289.259 212.325,289.130 211.852,288.704 211.852 C 288.302 211.852,288.148 211.440,288.148 210.370 C 288.148 209.300,287.994 208.889,287.593 208.889 C 287.166 208.889,287.037 208.416,287.037 206.852 C 287.037 205.731,286.870 204.815,286.667 204.815 C 286.463 204.815,286.296 203.898,286.296 202.778 C 286.296 201.214,286.167 200.741,285.741 200.741 C 285.321 200.741,285.185 200.288,285.185 198.889 C 285.185 197.490,285.049 197.037,284.630 197.037 C 284.228 197.037,284.074 196.626,284.074 195.556 C 284.074 194.741,283.907 194.074,283.704 194.074 C 283.500 194.074,283.333 193.157,283.333 192.037 C 283.333 190.473,283.204 190.000,282.778 190.000 C 282.351 190.000,282.222 189.527,282.222 187.963 C 282.222 186.399,282.093 185.926,281.667 185.926 C 281.265 185.926,281.111 185.514,281.111 184.444 C 281.111 183.630,280.944 182.963,280.741 182.963 C 280.537 182.963,280.370 182.046,280.370 180.926 C 280.370 179.362,280.241 178.889,279.815 178.889 C 279.395 178.889,279.259 178.436,279.259 177.037 C 279.259 175.638,279.123 175.185,278.704 175.185 C 278.277 175.185,278.148 174.712,278.148 173.148 C 278.148 172.028,277.981 171.111,277.778 171.111 C 277.574 171.111,277.407 170.444,277.407 169.630 C 277.407 168.560,277.253 168.148,276.852 168.148 C 276.425 168.148,276.296 167.675,276.296 166.111 C 276.296 164.547,276.167 164.074,275.741 164.074 C 275.340 164.074,275.185 163.663,275.185 162.593 L 275.185 161.111 246.852 161.111 C 221.914 161.111,218.519 161.178,218.519 161.667 M263.333 204.259 C 263.333 204.565,263.583 204.815,263.889 204.815 C 264.380 204.815,264.444 210.700,264.444 255.556 C 264.444 300.412,264.380 306.296,263.889 306.296 C 263.583 306.296,263.333 306.463,263.333 306.667 C 263.333 306.905,259.630 307.037,252.963 307.037 C 246.296 307.037,242.593 306.905,242.593 306.667 C 242.593 306.463,242.343 306.296,242.037 306.296 C 241.582 306.296,241.481 305.658,241.481 302.778 L 241.481 299.259 247.963 299.259 L 254.444 299.259 254.444 255.556 L 254.444 211.852 247.963 211.852 L 241.481 211.852 241.481 208.333 C 241.481 205.453,241.582 204.815,242.037 204.815 C 242.343 204.815,242.593 204.565,242.593 204.259 C 242.593 203.779,243.992 203.704,252.963 203.704 C 261.934 203.704,263.333 203.779,263.333 204.259 " stroke="none" fill="#04549c" fill-rule="evenodd"></path><path id="path2" d="M69.486 51.890 C 51.921 54.454,35.286 66.432,30.232 80.156 C 27.510 87.549,27.670 81.499,27.513 182.778 C 27.354 284.990,27.340 284.245,29.572 292.963 C 33.983 310.190,40.002 317.698,55.245 324.982 C 66.482 330.353,66.789 330.370,148.190 330.370 L 206.667 330.370 206.667 251.667 C 206.667 181.955,206.730 172.963,207.222 172.963 C 207.623 172.963,207.778 172.551,207.778 171.481 C 207.778 170.412,207.932 170.000,208.333 170.000 C 208.679 170.000,208.889 169.650,208.889 169.074 C 208.889 168.565,209.056 168.148,209.259 168.148 C 209.463 168.148,209.630 167.898,209.630 167.593 C 209.630 167.287,209.880 167.037,210.185 167.037 C 210.531 167.037,210.741 166.687,210.741 166.111 C 210.741 165.370,210.926 165.185,211.667 165.185 C 212.243 165.185,212.593 164.975,212.593 164.630 C 212.593 164.324,212.843 164.074,213.148 164.074 C 213.454 164.074,213.704 163.824,213.704 163.519 C 213.704 163.173,214.053 162.963,214.630 162.963 C 215.139 162.963,215.556 162.796,215.556 162.593 C 215.556 162.389,216.222 162.222,217.037 162.222 C 218.107 162.222,218.519 162.068,218.519 161.667 C 218.519 161.175,227.387 161.111,296.111 161.111 L 373.704 161.111 373.695 148.426 C 373.669 112.029,372.964 107.540,366.205 100.690 C 359.202 93.593,350.959 89.167,341.879 87.629 C 337.757 86.930,238.102 86.728,228.388 87.399 C 208.157 88.795,199.487 88.640,195.866 86.816 C 194.161 85.957,186.395 79.154,184.828 77.146 C 184.383 76.577,182.566 74.611,180.789 72.778 C 179.012 70.944,174.849 66.488,171.536 62.874 C 165.111 55.866,163.451 54.580,158.085 52.458 L 155.614 51.481 113.641 51.527 C 90.555 51.551,70.685 51.715,69.486 51.890 M280.370 182.407 C 280.370 182.713,280.537 182.963,280.741 182.963 C 280.944 182.963,281.111 182.713,281.111 182.407 C 281.111 182.102,280.944 181.852,280.741 181.852 C 280.537 181.852,280.370 182.102,280.370 182.407 M242.593 204.259 C 242.593 204.565,242.343 204.815,242.037 204.815 C 241.582 204.815,241.481 205.453,241.481 208.333 C 241.481 211.214,241.582 211.852,242.037 211.852 C 242.492 211.852,242.593 211.214,242.593 208.333 L 242.593 204.815 252.963 204.815 C 261.934 204.815,263.333 204.740,263.333 204.259 C 263.333 203.779,261.934 203.704,252.963 203.704 C 243.992 203.704,242.593 203.779,242.593 204.259 M284.074 228.148 C 284.074 228.352,284.324 228.519,284.630 228.519 C 284.935 228.519,285.185 228.352,285.185 228.148 C 285.185 227.944,284.935 227.778,284.630 227.778 C 284.324 227.778,284.074 227.944,284.074 228.148 M285.185 230.185 C 285.185 230.491,285.435 230.741,285.741 230.741 C 286.046 230.741,286.296 230.491,286.296 230.185 C 286.296 229.880,286.046 229.630,285.741 229.630 C 285.435 229.630,285.185 229.880,285.185 230.185 M274.444 231.296 C 274.444 231.602,274.611 231.852,274.815 231.852 C 275.019 231.852,275.185 231.602,275.185 231.296 C 275.185 230.991,275.019 230.741,274.815 230.741 C 274.611 230.741,274.444 230.991,274.444 231.296 M286.296 233.148 C 286.296 233.454,286.463 233.704,286.667 233.704 C 286.870 233.704,287.037 233.454,287.037 233.148 C 287.037 232.843,286.870 232.593,286.667 232.593 C 286.463 232.593,286.296 232.843,286.296 233.148 M276.296 236.111 C 276.296 236.417,276.546 236.667,276.852 236.667 C 277.157 236.667,277.407 236.417,277.407 236.111 C 277.407 235.806,277.157 235.556,276.852 235.556 C 276.546 235.556,276.296 235.806,276.296 236.111 M295.185 238.148 C 295.185 238.352,295.435 238.519,295.741 238.519 C 296.046 238.519,296.296 238.352,296.296 238.148 C 296.296 237.944,296.046 237.778,295.741 237.778 C 295.435 237.778,295.185 237.944,295.185 238.148 M278.148 241.111 C 278.148 241.315,278.398 241.481,278.704 241.481 C 279.009 241.481,279.259 241.315,279.259 241.111 C 279.259 240.907,279.009 240.741,278.704 240.741 C 278.398 240.741,278.148 240.907,278.148 241.111 M280.370 246.111 C 280.370 246.417,280.537 246.667,280.741 246.667 C 280.944 246.667,281.111 246.417,281.111 246.111 C 281.111 245.806,280.944 245.556,280.741 245.556 C 280.537 245.556,280.370 245.806,280.370 246.111 M291.111 247.037 C 291.111 247.241,291.361 247.407,291.667 247.407 C 291.972 247.407,292.222 247.241,292.222 247.037 C 292.222 246.833,291.972 246.667,291.667 246.667 C 291.361 246.667,291.111 246.833,291.111 247.037 M292.222 250.000 C 292.222 250.204,292.472 250.370,292.778 250.370 C 293.083 250.370,293.333 250.204,293.333 250.000 C 293.333 249.796,293.083 249.630,292.778 249.630 C 292.472 249.630,292.222 249.796,292.222 250.000 M285.185 259.074 C 285.185 259.380,285.435 259.630,285.741 259.630 C 286.046 259.630,286.296 259.380,286.296 259.074 C 286.296 258.769,286.046 258.519,285.741 258.519 C 285.435 258.519,285.185 258.769,285.185 259.074 M296.296 260.926 C 296.296 261.231,296.463 261.481,296.667 261.481 C 296.870 261.481,297.037 261.231,297.037 260.926 C 297.037 260.620,296.870 260.370,296.667 260.370 C 296.463 260.370,296.296 260.620,296.296 260.926 M287.037 263.889 C 287.037 264.194,287.287 264.444,287.593 264.444 C 287.898 264.444,288.148 264.194,288.148 263.889 C 288.148 263.583,287.898 263.333,287.593 263.333 C 287.287 263.333,287.037 263.583,287.037 263.889 M297.037 263.889 C 297.037 264.194,297.287 264.444,297.593 264.444 C 297.898 264.444,298.148 264.194,298.148 263.889 C 298.148 263.583,297.898 263.333,297.593 263.333 C 297.287 263.333,297.037 263.583,297.037 263.889 M298.148 266.852 C 298.148 267.157,298.398 267.407,298.704 267.407 C 299.009 267.407,299.259 267.157,299.259 266.852 C 299.259 266.546,299.009 266.296,298.704 266.296 C 298.398 266.296,298.148 266.546,298.148 266.852 M302.963 267.963 C 302.963 268.269,303.213 268.519,303.519 268.519 C 303.824 268.519,304.074 268.269,304.074 267.963 C 304.074 267.657,303.824 267.407,303.519 267.407 C 303.213 267.407,302.963 267.657,302.963 267.963 M289.259 268.889 C 289.259 269.093,289.509 269.259,289.815 269.259 C 290.120 269.259,290.370 269.093,290.370 268.889 C 290.370 268.685,290.120 268.519,289.815 268.519 C 289.509 268.519,289.259 268.685,289.259 268.889 M302.963 269.815 C 302.963 270.120,303.213 270.370,303.519 270.370 C 303.824 270.370,304.074 270.120,304.074 269.815 C 304.074 269.509,303.824 269.259,303.519 269.259 C 303.213 269.259,302.963 269.509,302.963 269.815 M291.111 273.889 C 291.111 274.194,291.361 274.444,291.667 274.444 C 291.972 274.444,292.222 274.194,292.222 273.889 C 292.222 273.583,291.972 273.333,291.667 273.333 C 291.361 273.333,291.111 273.583,291.111 273.889 M301.111 275.000 C 301.111 275.306,301.361 275.556,301.667 275.556 C 301.972 275.556,302.222 275.306,302.222 275.000 C 302.222 274.694,301.972 274.444,301.667 274.444 C 301.361 274.444,301.111 274.694,301.111 275.000 M292.222 276.852 C 292.222 277.157,292.472 277.407,292.778 277.407 C 293.083 277.407,293.333 277.157,293.333 276.852 C 293.333 276.546,293.083 276.296,292.778 276.296 C 292.472 276.296,292.222 276.546,292.222 276.852 M294.074 281.852 C 294.074 282.056,294.324 282.222,294.630 282.222 C 294.935 282.222,295.185 282.056,295.185 281.852 C 295.185 281.648,294.935 281.481,294.630 281.481 C 294.324 281.481,294.074 281.648,294.074 281.852 M305.926 284.815 C 305.926 285.019,306.176 285.185,306.481 285.185 C 306.787 285.185,307.037 285.019,307.037 284.815 C 307.037 284.611,306.787 284.444,306.481 284.444 C 306.176 284.444,305.926 284.611,305.926 284.815 M241.481 302.778 C 241.481 305.658,241.582 306.296,242.037 306.296 C 242.343 306.296,242.593 306.463,242.593 306.667 C 242.593 306.905,246.296 307.037,252.963 307.037 C 259.630 307.037,263.333 306.905,263.333 306.667 C 263.333 306.429,259.630 306.296,252.963 306.296 L 242.593 306.296 242.593 302.778 C 242.593 299.897,242.492 299.259,242.037 299.259 C 241.582 299.259,241.481 299.897,241.481 302.778 M314.074 308.704 C 314.074 309.009,314.324 309.259,314.630 309.259 C 314.935 309.259,315.185 309.009,315.185 308.704 C 315.185 308.398,314.935 308.148,314.630 308.148 C 314.324 308.148,314.074 308.398,314.074 308.704 M318.148 323.519 C 318.148 323.824,318.315 324.074,318.519 324.074 C 318.722 324.074,318.889 323.824,318.889 323.519 C 318.889 323.213,318.722 322.963,318.519 322.963 C 318.315 322.963,318.148 323.213,318.148 323.519 " stroke="none" fill="#0cc4dc" fill-rule="evenodd"></path><path id="path3" d="M275.185 162.593 C 275.185 163.663,275.340 164.074,275.741 164.074 C 276.167 164.074,276.296 164.547,276.296 166.111 C 276.296 167.675,276.425 168.148,276.852 168.148 C 277.253 168.148,277.407 168.560,277.407 169.630 C 277.407 170.444,277.574 171.111,277.778 171.111 C 277.981 171.111,278.148 172.028,278.148 173.148 C 278.148 174.712,278.277 175.185,278.704 175.185 C 279.123 175.185,279.259 175.638,279.259 177.037 C 279.259 178.436,279.395 178.889,279.815 178.889 C 280.216 178.889,280.370 179.300,280.370 180.370 C 280.370 181.185,280.537 181.852,280.741 181.852 C 280.944 181.852,281.111 182.769,281.111 183.889 C 281.111 185.453,281.240 185.926,281.667 185.926 C 282.093 185.926,282.222 186.399,282.222 187.963 C 282.222 189.527,282.351 190.000,282.778 190.000 C 283.204 190.000,283.333 190.473,283.333 192.037 C 283.333 193.157,283.500 194.074,283.704 194.074 C 283.907 194.074,284.074 194.741,284.074 195.556 C 284.074 196.626,284.228 197.037,284.630 197.037 C 285.049 197.037,285.185 197.490,285.185 198.889 C 285.185 200.288,285.321 200.741,285.741 200.741 C 286.167 200.741,286.296 201.214,286.296 202.778 C 286.296 203.898,286.463 204.815,286.667 204.815 C 286.870 204.815,287.037 205.731,287.037 206.852 C 287.037 208.416,287.166 208.889,287.593 208.889 C 287.994 208.889,288.148 209.300,288.148 210.370 C 288.148 211.440,288.302 211.852,288.704 211.852 C 289.130 211.852,289.259 212.325,289.259 213.889 C 289.259 215.453,289.388 215.926,289.815 215.926 C 290.235 215.926,290.370 216.379,290.370 217.778 C 290.370 218.796,290.537 219.630,290.741 219.630 C 290.944 219.630,291.111 220.546,291.111 221.667 C 291.111 223.230,291.240 223.704,291.667 223.704 C 292.068 223.704,292.222 224.115,292.222 225.185 C 292.222 226.255,292.377 226.667,292.778 226.667 C 293.204 226.667,293.333 227.140,293.333 228.704 C 293.333 229.824,293.500 230.741,293.704 230.741 C 293.907 230.741,294.074 231.657,294.074 232.778 C 294.074 234.342,294.203 234.815,294.630 234.815 C 295.031 234.815,295.185 235.226,295.185 236.296 C 295.185 237.366,295.340 237.778,295.741 237.778 C 296.160 237.778,296.296 238.230,296.296 239.630 C 296.296 240.648,296.463 241.481,296.667 241.481 C 296.870 241.481,297.037 242.398,297.037 243.519 C 297.037 245.082,297.166 245.556,297.593 245.556 C 298.019 245.556,298.148 246.029,298.148 247.593 C 298.148 249.519,298.199 249.630,299.074 249.630 C 299.650 249.630,300.000 249.420,300.000 249.074 C 300.000 248.769,300.250 248.519,300.556 248.519 C 300.861 248.519,301.111 248.269,301.111 247.963 C 301.111 247.657,301.290 247.407,301.508 247.407 C 302.021 247.407,302.963 246.465,302.963 245.952 C 302.963 245.734,303.213 245.556,303.519 245.556 C 303.824 245.556,304.074 245.306,304.074 245.000 C 304.074 244.694,304.253 244.444,304.471 244.444 C 304.984 244.444,305.926 243.502,305.926 242.989 C 305.926 242.771,306.176 242.593,306.481 242.593 C 306.787 242.593,307.037 242.343,307.037 242.037 C 307.037 241.731,307.216 241.481,307.434 241.481 C 307.947 241.481,308.889 240.539,308.889 240.026 C 308.889 239.808,309.139 239.630,309.444 239.630 C 309.750 239.630,310.000 239.380,310.000 239.074 C 310.000 238.769,310.250 238.519,310.556 238.519 C 310.861 238.519,311.111 238.352,311.111 238.148 C 311.111 237.944,311.361 237.778,311.667 237.778 C 311.972 237.778,312.222 237.528,312.222 237.222 C 312.222 236.917,312.389 236.667,312.593 236.667 C 312.796 236.667,312.963 236.417,312.963 236.111 C 312.963 235.806,313.213 235.556,313.519 235.556 C 313.824 235.556,314.074 235.389,314.074 235.185 C 314.074 234.981,314.324 234.815,314.630 234.815 C 314.935 234.815,315.185 234.565,315.185 234.259 C 315.185 233.954,315.352 233.704,315.556 233.704 C 315.759 233.704,315.926 233.287,315.926 232.778 C 315.926 232.202,316.136 231.852,316.481 231.852 C 316.893 231.852,317.037 231.420,317.037 230.185 C 317.037 228.951,317.181 228.519,317.593 228.519 C 317.898 228.519,318.148 228.352,318.148 228.148 C 318.148 227.944,318.981 227.778,320.000 227.778 C 321.399 227.778,321.852 227.642,321.852 227.222 C 321.852 226.917,322.102 226.667,322.407 226.667 C 322.713 226.667,322.963 226.417,322.963 226.111 C 322.963 225.806,323.142 225.556,323.360 225.556 C 323.873 225.556,324.815 224.613,324.815 224.101 C 324.815 223.882,325.065 223.704,325.370 223.704 C 325.676 223.704,325.926 223.454,325.926 223.148 C 325.926 222.843,326.104 222.593,326.323 222.593 C 326.836 222.593,327.778 221.650,327.778 221.138 C 327.778 220.919,328.028 220.741,328.333 220.741 C 328.639 220.741,328.889 220.491,328.889 220.185 C 328.889 219.880,329.139 219.630,329.444 219.630 C 329.750 219.630,330.000 219.463,330.000 219.259 C 330.000 219.056,330.250 218.889,330.556 218.889 C 330.861 218.889,331.111 218.639,331.111 218.333 C 331.111 218.028,331.278 217.778,331.481 217.778 C 331.685 217.778,331.852 217.528,331.852 217.222 C 331.852 216.917,332.102 216.667,332.407 216.667 C 332.713 216.667,332.963 216.500,332.963 216.296 C 332.963 216.093,333.213 215.926,333.519 215.926 C 333.824 215.926,334.074 215.676,334.074 215.370 C 334.074 215.065,334.241 214.815,334.444 214.815 C 334.648 214.815,334.815 214.565,334.815 214.259 C 334.815 213.954,335.065 213.704,335.370 213.704 C 335.676 213.704,335.926 213.537,335.926 213.333 C 335.926 213.130,336.176 212.963,336.481 212.963 C 336.787 212.963,337.037 212.713,337.037 212.407 C 337.037 212.102,337.204 211.852,337.407 211.852 C 337.632 211.852,337.778 210.247,337.778 207.778 L 337.778 203.704 341.693 203.704 C 345.575 203.704,346.667 203.384,346.667 202.249 C 346.667 202.030,346.917 201.852,347.222 201.852 C 347.528 201.852,347.778 201.602,347.778 201.296 C 347.778 200.991,347.956 200.741,348.175 200.741 C 348.687 200.741,349.630 199.798,349.630 199.286 C 349.630 199.067,349.880 198.889,350.185 198.889 C 350.491 198.889,350.741 198.639,350.741 198.333 C 350.741 198.028,350.991 197.778,351.296 197.778 C 351.602 197.778,351.852 197.611,351.852 197.407 C 351.852 197.204,352.102 197.037,352.407 197.037 C 352.713 197.037,352.963 196.787,352.963 196.481 C 352.963 196.176,353.130 195.926,353.333 195.926 C 353.537 195.926,353.704 195.676,353.704 195.370 C 353.704 195.065,353.954 194.815,354.259 194.815 C 354.565 194.815,354.815 194.648,354.815 194.444 C 354.815 194.241,355.065 194.074,355.370 194.074 C 355.676 194.074,355.926 193.824,355.926 193.519 C 355.926 193.213,356.093 192.963,356.296 192.963 C 356.500 192.963,356.667 192.713,356.667 192.407 C 356.667 192.102,356.917 191.852,357.222 191.852 C 357.528 191.852,357.778 191.685,357.778 191.481 C 357.778 191.278,358.028 191.111,358.333 191.111 C 358.639 191.111,358.889 190.861,358.889 190.556 C 358.889 190.250,359.056 190.000,359.259 190.000 C 359.463 190.000,359.630 189.750,359.630 189.444 C 359.630 189.139,359.880 188.889,360.185 188.889 C 360.491 188.889,360.741 188.639,360.741 188.333 C 360.741 188.028,360.919 187.778,361.138 187.778 C 361.650 187.778,362.593 186.836,362.593 186.323 C 362.593 186.104,362.843 185.926,363.148 185.926 C 363.454 185.926,363.704 185.676,363.704 185.370 C 363.704 185.065,363.882 184.815,364.101 184.815 C 364.613 184.815,365.556 183.873,365.556 183.360 C 365.556 183.142,365.806 182.963,366.111 182.963 C 366.417 182.963,366.667 182.713,366.667 182.407 C 366.667 182.102,366.845 181.852,367.063 181.852 C 367.576 181.852,368.519 180.910,368.519 180.397 C 368.519 180.179,368.769 180.000,369.074 180.000 C 369.380 180.000,369.630 179.750,369.630 179.444 C 369.630 179.139,369.808 178.889,370.026 178.889 C 370.539 178.889,371.481 177.947,371.481 177.434 C 371.481 177.216,371.731 177.037,372.037 177.037 C 372.343 177.037,372.593 176.787,372.593 176.481 C 372.593 176.176,372.843 175.926,373.148 175.926 C 373.454 175.926,373.704 175.759,373.704 175.556 C 373.704 175.352,373.954 175.185,374.259 175.185 C 374.565 175.185,374.815 174.935,374.815 174.630 C 374.815 174.324,374.981 174.074,375.185 174.074 C 375.389 174.074,375.556 173.824,375.556 173.519 C 375.556 173.213,375.806 172.963,376.111 172.963 C 376.417 172.963,376.667 172.796,376.667 172.593 C 376.667 172.389,376.917 172.222,377.222 172.222 C 377.528 172.222,377.778 171.972,377.778 171.667 C 377.778 171.361,377.944 171.111,378.148 171.111 C 378.352 171.111,378.519 170.861,378.519 170.556 C 378.519 170.250,378.769 170.000,379.074 170.000 C 379.380 170.000,379.630 169.833,379.630 169.630 C 379.630 169.426,379.880 169.259,380.185 169.259 C 380.491 169.259,380.741 169.009,380.741 168.704 C 380.741 168.398,380.907 168.148,381.111 168.148 C 381.315 168.148,381.481 167.898,381.481 167.593 C 381.481 167.287,381.731 167.037,382.037 167.037 C 382.343 167.037,382.593 166.787,382.593 166.481 C 382.593 166.176,382.771 165.926,382.989 165.926 C 383.502 165.926,384.444 164.984,384.444 164.471 C 384.444 164.253,384.694 164.074,385.000 164.074 C 385.306 164.074,385.556 163.824,385.556 163.519 C 385.556 163.213,385.806 162.963,386.111 162.963 C 386.417 162.963,386.667 162.796,386.667 162.593 C 386.667 162.389,386.417 162.222,386.111 162.222 C 385.806 162.222,385.556 161.972,385.556 161.667 C 385.556 161.175,379.177 161.111,330.370 161.111 L 275.185 161.111 275.185 162.593 M263.333 255.556 C 263.333 300.412,263.398 306.296,263.889 306.296 C 264.380 306.296,264.444 300.412,264.444 255.556 C 264.444 210.700,264.380 204.815,263.889 204.815 C 263.398 204.815,263.333 210.700,263.333 255.556 M275.185 233.148 C 275.185 233.454,275.435 233.704,275.741 233.704 C 276.046 233.704,276.296 233.454,276.296 233.148 C 276.296 232.843,276.046 232.593,275.741 232.593 C 275.435 232.593,275.185 232.843,275.185 233.148 M287.037 236.111 C 287.037 236.417,287.287 236.667,287.593 236.667 C 287.898 236.667,288.148 236.417,288.148 236.111 C 288.148 235.806,287.898 235.556,287.593 235.556 C 287.287 235.556,287.037 235.806,287.037 236.111 M288.148 239.074 C 288.148 239.380,288.398 239.630,288.704 239.630 C 289.009 239.630,289.259 239.380,289.259 239.074 C 289.259 238.769,289.009 238.519,288.704 238.519 C 288.398 238.519,288.148 238.769,288.148 239.074 M282.222 250.926 C 282.222 251.231,282.472 251.481,282.778 251.481 C 283.083 251.481,283.333 251.231,283.333 250.926 C 283.333 250.620,283.083 250.370,282.778 250.370 C 282.472 250.370,282.222 250.620,282.222 250.926 M299.259 252.593 C 299.259 253.204,299.426 253.704,299.630 253.704 C 299.833 253.704,300.000 253.204,300.000 252.593 C 300.000 251.981,299.833 251.481,299.630 251.481 C 299.426 251.481,299.259 251.981,299.259 252.593 M293.333 253.148 C 293.333 253.454,293.500 253.704,293.704 253.704 C 293.907 253.704,294.074 253.454,294.074 253.148 C 294.074 252.843,293.907 252.593,293.704 252.593 C 293.500 252.593,293.333 252.843,293.333 253.148 M300.000 255.556 C 300.000 256.296,300.185 256.667,300.556 256.667 C 300.926 256.667,301.111 256.296,301.111 255.556 C 301.111 254.815,300.926 254.444,300.556 254.444 C 300.185 254.444,300.000 254.815,300.000 255.556 M284.074 256.111 C 284.074 256.417,284.324 256.667,284.630 256.667 C 284.935 256.667,285.185 256.417,285.185 256.111 C 285.185 255.806,284.935 255.556,284.630 255.556 C 284.324 255.556,284.074 255.806,284.074 256.111 M301.111 259.444 C 301.111 260.021,301.321 260.370,301.667 260.370 C 302.012 260.370,302.222 260.021,302.222 259.444 C 302.222 258.868,302.012 258.519,301.667 258.519 C 301.321 258.519,301.111 258.868,301.111 259.444 M302.222 263.519 C 302.222 264.028,302.389 264.444,302.593 264.444 C 302.796 264.444,302.963 264.028,302.963 263.519 C 302.963 263.009,302.796 262.593,302.593 262.593 C 302.389 262.593,302.222 263.009,302.222 263.519 M302.963 266.852 C 302.963 267.157,303.213 267.407,303.519 267.407 C 303.824 267.407,304.074 267.157,304.074 266.852 C 304.074 266.546,303.824 266.296,303.519 266.296 C 303.213 266.296,302.963 266.546,302.963 266.852 M299.259 269.815 C 299.259 270.120,299.426 270.370,299.630 270.370 C 299.833 270.370,300.000 270.120,300.000 269.815 C 300.000 269.509,299.833 269.259,299.630 269.259 C 299.426 269.259,299.259 269.509,299.259 269.815 M307.037 282.778 C 307.037 283.083,307.287 283.333,307.593 283.333 C 307.898 283.333,308.148 283.083,308.148 282.778 C 308.148 282.472,307.898 282.222,307.593 282.222 C 307.287 282.222,307.037 282.472,307.037 282.778 M308.148 285.370 C 308.148 285.880,308.315 286.296,308.519 286.296 C 308.722 286.296,308.889 285.880,308.889 285.370 C 308.889 284.861,308.722 284.444,308.519 284.444 C 308.315 284.444,308.148 284.861,308.148 285.370 M308.889 289.259 C 308.889 290.000,309.074 290.370,309.444 290.370 C 309.815 290.370,310.000 290.000,310.000 289.259 C 310.000 288.519,309.815 288.148,309.444 288.148 C 309.074 288.148,308.889 288.519,308.889 289.259 M310.000 293.333 C 310.000 294.074,310.185 294.444,310.556 294.444 C 310.926 294.444,311.111 294.074,311.111 293.333 C 311.111 292.593,310.926 292.222,310.556 292.222 C 310.185 292.222,310.000 292.593,310.000 293.333 M311.111 296.852 C 311.111 297.157,311.361 297.407,311.667 297.407 C 311.972 297.407,312.222 297.157,312.222 296.852 C 312.222 296.546,311.972 296.296,311.667 296.296 C 311.361 296.296,311.111 296.546,311.111 296.852 M312.222 300.185 C 312.222 300.694,312.389 301.111,312.593 301.111 C 312.796 301.111,312.963 300.694,312.963 300.185 C 312.963 299.676,312.796 299.259,312.593 299.259 C 312.389 299.259,312.222 299.676,312.222 300.185 M312.963 304.259 C 312.963 304.835,313.173 305.185,313.519 305.185 C 313.864 305.185,314.074 304.835,314.074 304.259 C 314.074 303.683,313.864 303.333,313.519 303.333 C 313.173 303.333,312.963 303.683,312.963 304.259 M314.074 307.593 C 314.074 307.898,314.324 308.148,314.630 308.148 C 314.935 308.148,315.185 307.898,315.185 307.593 C 315.185 307.287,314.935 307.037,314.630 307.037 C 314.324 307.037,314.074 307.287,314.074 307.593 M315.185 311.111 C 315.185 311.722,315.352 312.222,315.556 312.222 C 315.759 312.222,315.926 311.722,315.926 311.111 C 315.926 310.500,315.759 310.000,315.556 310.000 C 315.352 310.000,315.185 310.500,315.185 311.111 M315.926 315.185 C 315.926 315.926,316.111 316.296,316.481 316.296 C 316.852 316.296,317.037 315.926,317.037 315.185 C 317.037 314.444,316.852 314.074,316.481 314.074 C 316.111 314.074,315.926 314.444,315.926 315.185 M317.037 319.074 C 317.037 319.650,317.247 320.000,317.593 320.000 C 317.938 320.000,318.148 319.650,318.148 319.074 C 318.148 318.498,317.938 318.148,317.593 318.148 C 317.247 318.148,317.037 318.498,317.037 319.074 M318.889 326.111 C 318.889 326.687,319.099 327.037,319.444 327.037 C 319.790 327.037,320.000 326.687,320.000 326.111 C 320.000 325.535,319.790 325.185,319.444 325.185 C 319.099 325.185,318.889 325.535,318.889 326.111 M320.000 330.000 C 320.000 330.741,320.185 331.111,320.556 331.111 C 320.926 331.111,321.111 330.741,321.111 330.000 C 321.111 329.259,320.926 328.889,320.556 328.889 C 320.185 328.889,320.000 329.259,320.000 330.000 M321.111 334.074 C 321.111 334.685,321.278 335.185,321.481 335.185 C 321.685 335.185,321.852 334.685,321.852 334.074 C 321.852 333.463,321.685 332.963,321.481 332.963 C 321.278 332.963,321.111 333.463,321.111 334.074 M321.852 337.593 C 321.852 337.898,322.102 338.148,322.407 338.148 C 322.713 338.148,322.963 337.898,322.963 337.593 C 322.963 337.287,322.713 337.037,322.407 337.037 C 322.102 337.037,321.852 337.287,321.852 337.593 M322.963 340.926 C 322.963 341.502,323.173 341.852,323.519 341.852 C 323.864 341.852,324.074 341.502,324.074 340.926 C 324.074 340.350,323.864 340.000,323.519 340.000 C 323.173 340.000,322.963 340.350,322.963 340.926 M324.074 345.000 C 324.074 345.509,324.241 345.926,324.444 345.926 C 324.648 345.926,324.815 345.509,324.815 345.000 C 324.815 344.491,324.648 344.074,324.444 344.074 C 324.241 344.074,324.074 344.491,324.074 345.000 M324.815 348.889 C 324.815 349.630,325.000 350.000,325.370 350.000 C 325.741 350.000,325.926 349.630,325.926 348.889 C 325.926 348.148,325.741 347.778,325.370 347.778 C 325.000 347.778,324.815 348.148,324.815 348.889 " stroke="none" fill="#2bb3f3" fill-rule="evenodd"></path><path id="path4" d="M169.167 33.965 C 169.625 34.053,170.375 34.053,170.833 33.965 C 171.292 33.877,170.917 33.805,170.000 33.805 C 169.083 33.805,168.708 33.877,169.167 33.965 M186.852 79.259 C 187.647 80.074,188.382 80.741,188.484 80.741 C 188.586 80.741,188.018 80.074,187.222 79.259 C 186.427 78.444,185.692 77.778,185.590 77.778 C 185.489 77.778,186.056 78.444,186.852 79.259 M386.667 162.593 C 386.667 162.796,386.417 162.963,386.111 162.963 C 385.806 162.963,385.556 163.213,385.556 163.519 C 385.556 163.824,385.306 164.074,385.000 164.074 C 384.694 164.074,384.444 164.253,384.444 164.471 C 384.444 164.984,383.502 165.926,382.989 165.926 C 382.771 165.926,382.593 166.176,382.593 166.481 C 382.593 166.787,382.343 167.037,382.037 167.037 C 381.731 167.037,381.481 167.287,381.481 167.593 C 381.481 167.898,381.315 168.148,381.111 168.148 C 380.907 168.148,380.741 168.398,380.741 168.704 C 380.741 169.009,380.491 169.259,380.185 169.259 C 379.880 169.259,379.630 169.426,379.630 169.630 C 379.630 169.833,379.380 170.000,379.074 170.000 C 378.769 170.000,378.519 170.250,378.519 170.556 C 378.519 170.861,378.352 171.111,378.148 171.111 C 377.944 171.111,377.778 171.361,377.778 171.667 C 377.778 171.972,377.528 172.222,377.222 172.222 C 376.917 172.222,376.667 172.389,376.667 172.593 C 376.667 172.796,376.417 172.963,376.111 172.963 C 375.806 172.963,375.556 173.213,375.556 173.519 C 375.556 173.824,375.389 174.074,375.185 174.074 C 374.981 174.074,374.815 174.324,374.815 174.630 C 374.815 174.935,374.565 175.185,374.259 175.185 C 373.954 175.185,373.704 175.352,373.704 175.556 C 373.704 175.759,373.454 175.926,373.148 175.926 C 372.843 175.926,372.593 176.176,372.593 176.481 C 372.593 176.787,372.343 177.037,372.037 177.037 C 371.731 177.037,371.481 177.216,371.481 177.434 C 371.481 177.652,371.243 178.069,370.952 178.360 C 370.661 178.651,370.245 178.889,370.026 178.889 C 369.808 178.889,369.630 179.139,369.630 179.444 C 369.630 179.750,369.380 180.000,369.074 180.000 C 368.769 180.000,368.519 180.179,368.519 180.397 C 368.519 180.615,368.280 181.032,367.989 181.323 C 367.698 181.614,367.282 181.852,367.063 181.852 C 366.845 181.852,366.667 182.102,366.667 182.407 C 366.667 182.713,366.417 182.963,366.111 182.963 C 365.806 182.963,365.556 183.142,365.556 183.360 C 365.556 183.578,365.317 183.995,365.026 184.286 C 364.735 184.577,364.319 184.815,364.101 184.815 C 363.882 184.815,363.704 185.065,363.704 185.370 C 363.704 185.676,363.454 185.926,363.148 185.926 C 362.843 185.926,362.593 186.104,362.593 186.323 C 362.593 186.541,362.354 186.958,362.063 187.249 C 361.772 187.540,361.356 187.778,361.138 187.778 C 360.919 187.778,360.741 188.028,360.741 188.333 C 360.741 188.639,360.491 188.889,360.185 188.889 C 359.880 188.889,359.630 189.139,359.630 189.444 C 359.630 189.750,359.463 190.000,359.259 190.000 C 359.056 190.000,358.889 190.250,358.889 190.556 C 358.889 190.861,358.639 191.111,358.333 191.111 C 358.028 191.111,357.778 191.278,357.778 191.481 C 357.778 191.685,357.528 191.852,357.222 191.852 C 356.917 191.852,356.667 192.102,356.667 192.407 C 356.667 192.713,356.500 192.963,356.296 192.963 C 356.093 192.963,355.926 193.213,355.926 193.519 C 355.926 193.824,355.676 194.074,355.370 194.074 C 355.065 194.074,354.815 194.241,354.815 194.444 C 354.815 194.648,354.565 194.815,354.259 194.815 C 353.954 194.815,353.704 195.065,353.704 195.370 C 353.704 195.676,353.537 195.926,353.333 195.926 C 353.130 195.926,352.963 196.176,352.963 196.481 C 352.963 196.787,352.713 197.037,352.407 197.037 C 352.102 197.037,351.852 197.204,351.852 197.407 C 351.852 197.611,351.602 197.778,351.296 197.778 C 350.991 197.778,350.741 198.028,350.741 198.333 C 350.741 198.639,350.491 198.889,350.185 198.889 C 349.880 198.889,349.630 199.067,349.630 199.286 C 349.630 199.504,349.392 199.921,349.101 200.212 C 348.810 200.503,348.393 200.741,348.175 200.741 C 347.956 200.741,347.778 200.991,347.778 201.296 C 347.778 201.602,347.528 201.852,347.222 201.852 C 346.917 201.852,346.667 202.030,346.667 202.249 C 346.667 203.384,345.575 203.704,341.693 203.704 L 337.778 203.704 337.778 207.222 C 337.778 210.103,337.878 210.741,338.333 210.741 C 338.781 210.741,338.889 210.165,338.889 207.778 L 338.889 204.815 349.259 204.815 L 359.630 204.815 359.630 208.333 L 359.630 211.852 353.704 211.852 L 347.778 211.852 347.778 255.556 L 347.778 299.259 353.704 299.259 L 359.630 299.259 359.630 302.778 L 359.630 306.296 348.704 306.296 L 337.778 306.296 337.778 259.074 C 337.778 227.840,337.652 211.852,337.407 211.852 C 337.204 211.852,337.037 212.102,337.037 212.407 C 337.037 212.713,336.787 212.963,336.481 212.963 C 336.176 212.963,335.926 213.130,335.926 213.333 C 335.926 213.537,335.676 213.704,335.370 213.704 C 335.065 213.704,334.815 213.954,334.815 214.259 C 334.815 214.565,334.648 214.815,334.444 214.815 C 334.241 214.815,334.074 215.065,334.074 215.370 C 334.074 215.676,333.824 215.926,333.519 215.926 C 333.213 215.926,332.963 216.093,332.963 216.296 C 332.963 216.500,332.713 216.667,332.407 216.667 C 332.102 216.667,331.852 216.917,331.852 217.222 C 331.852 217.528,331.685 217.778,331.481 217.778 C 331.278 217.778,331.111 218.028,331.111 218.333 C 331.111 218.639,330.861 218.889,330.556 218.889 C 330.250 218.889,330.000 219.056,330.000 219.259 C 330.000 219.463,329.750 219.630,329.444 219.630 C 329.139 219.630,328.889 219.880,328.889 220.185 C 328.889 220.491,328.639 220.741,328.333 220.741 C 328.028 220.741,327.778 220.919,327.778 221.138 C 327.778 221.356,327.540 221.772,327.249 222.063 C 326.958 222.354,326.541 222.593,326.323 222.593 C 326.104 222.593,325.926 222.843,325.926 223.148 C 325.926 223.454,325.676 223.704,325.370 223.704 C 325.065 223.704,324.815 223.882,324.815 224.101 C 324.815 224.319,324.577 224.735,324.286 225.026 C 323.995 225.317,323.578 225.556,323.360 225.556 C 323.142 225.556,322.963 225.806,322.963 226.111 C 322.963 226.417,322.713 226.667,322.407 226.667 C 322.102 226.667,321.852 226.917,321.852 227.222 C 321.852 227.670,322.428 227.778,324.815 227.778 L 327.778 227.778 327.778 229.259 C 327.778 230.074,327.611 230.741,327.407 230.741 C 327.204 230.741,327.037 231.407,327.037 232.222 C 327.037 233.292,326.883 233.704,326.481 233.704 C 326.136 233.704,325.926 234.053,325.926 234.630 C 325.926 235.206,325.716 235.556,325.370 235.556 C 324.969 235.556,324.815 235.967,324.815 237.037 C 324.815 237.852,324.648 238.519,324.444 238.519 C 324.241 238.519,324.074 239.185,324.074 240.000 C 324.074 241.070,323.920 241.481,323.519 241.481 C 323.148 241.481,322.963 241.852,322.963 242.593 C 322.963 243.333,322.778 243.704,322.407 243.704 C 322.006 243.704,321.852 244.115,321.852 245.185 C 321.852 246.000,321.685 246.667,321.481 246.667 C 321.278 246.667,321.111 247.083,321.111 247.593 C 321.111 248.169,320.901 248.519,320.556 248.519 C 320.154 248.519,320.000 248.930,320.000 250.000 C 320.000 251.070,319.846 251.481,319.444 251.481 C 319.043 251.481,318.889 251.893,318.889 252.963 C 318.889 253.778,318.722 254.444,318.519 254.444 C 318.315 254.444,318.148 254.944,318.148 255.556 C 318.148 256.296,317.963 256.667,317.593 256.667 C 317.191 256.667,317.037 257.078,317.037 258.148 C 317.037 259.218,316.883 259.630,316.481 259.630 C 316.136 259.630,315.926 259.979,315.926 260.556 C 315.926 261.065,315.759 261.481,315.556 261.481 C 315.352 261.481,315.185 262.148,315.185 262.963 C 315.185 264.033,315.031 264.444,314.630 264.444 C 314.228 264.444,314.074 264.856,314.074 265.926 C 314.074 266.996,313.920 267.407,313.519 267.407 C 313.173 267.407,312.963 267.757,312.963 268.333 C 312.963 268.843,312.796 269.259,312.593 269.259 C 312.389 269.259,312.222 270.009,312.222 270.926 C 312.222 272.160,312.078 272.593,311.667 272.593 C 311.321 272.593,311.111 272.942,311.111 273.519 C 311.111 274.095,310.901 274.444,310.556 274.444 C 310.154 274.444,310.000 274.856,310.000 275.926 C 310.000 276.996,309.846 277.407,309.444 277.407 C 309.043 277.407,308.889 277.819,308.889 278.889 C 308.889 279.704,308.722 280.370,308.519 280.370 C 308.315 280.370,308.148 281.287,308.148 282.407 C 308.148 283.528,308.315 284.444,308.519 284.444 C 308.722 284.444,308.889 285.278,308.889 286.296 C 308.889 287.695,309.025 288.148,309.444 288.148 C 309.871 288.148,310.000 288.621,310.000 290.185 C 310.000 291.749,310.129 292.222,310.556 292.222 C 310.982 292.222,311.111 292.695,311.111 294.259 C 311.111 295.823,311.240 296.296,311.667 296.296 C 312.068 296.296,312.222 296.708,312.222 297.778 C 312.222 298.593,312.389 299.259,312.593 299.259 C 312.796 299.259,312.963 300.176,312.963 301.296 C 312.963 302.860,313.092 303.333,313.519 303.333 C 313.938 303.333,314.074 303.786,314.074 305.185 C 314.074 306.584,314.210 307.037,314.630 307.037 C 315.031 307.037,315.185 307.449,315.185 308.519 C 315.185 309.333,315.352 310.000,315.556 310.000 C 315.759 310.000,315.926 310.917,315.926 312.037 C 315.926 313.601,316.055 314.074,316.481 314.074 C 316.908 314.074,317.037 314.547,317.037 316.111 C 317.037 317.675,317.166 318.148,317.593 318.148 C 318.019 318.148,318.148 318.621,318.148 320.185 C 318.148 321.306,318.315 322.222,318.519 322.222 C 318.722 322.222,318.889 322.889,318.889 323.704 C 318.889 324.774,319.043 325.185,319.444 325.185 C 319.864 325.185,320.000 325.638,320.000 327.037 C 320.000 328.436,320.136 328.889,320.556 328.889 C 320.982 328.889,321.111 329.362,321.111 330.926 C 321.111 332.046,321.278 332.963,321.481 332.963 C 321.685 332.963,321.852 333.880,321.852 335.000 C 321.852 336.564,321.981 337.037,322.407 337.037 C 322.809 337.037,322.963 337.449,322.963 338.519 C 322.963 339.588,323.117 340.000,323.519 340.000 C 323.945 340.000,324.074 340.473,324.074 342.037 C 324.074 343.157,324.241 344.074,324.444 344.074 C 324.648 344.074,324.815 344.907,324.815 345.926 C 324.815 347.325,324.951 347.778,325.370 347.778 C 325.741 347.778,325.926 348.148,325.926 348.889 L 325.926 350.000 355.741 350.000 C 381.996 350.000,385.556 349.934,385.556 349.444 C 385.556 349.043,385.967 348.889,387.037 348.889 C 388.107 348.889,388.519 348.735,388.519 348.333 C 388.519 348.028,388.697 347.778,388.915 347.778 C 389.428 347.778,390.370 346.836,390.370 346.323 C 390.370 346.104,390.620 345.926,390.926 345.926 C 391.231 345.926,391.481 345.676,391.481 345.370 C 391.481 345.065,391.731 344.815,392.037 344.815 C 392.343 344.815,392.593 344.648,392.593 344.444 C 392.593 344.241,392.843 344.074,393.148 344.074 C 393.454 344.074,393.704 343.824,393.704 343.519 C 393.704 343.213,393.870 342.963,394.074 342.963 C 394.278 342.963,394.444 342.296,394.444 341.481 C 394.444 340.412,394.599 340.000,395.000 340.000 C 395.492 340.000,395.556 330.370,395.556 255.556 C 395.556 180.741,395.492 171.111,395.000 171.111 C 394.599 171.111,394.444 170.700,394.444 169.630 C 394.444 168.815,394.278 168.148,394.074 168.148 C 393.870 168.148,393.704 167.898,393.704 167.593 C 393.704 167.287,393.454 167.037,393.148 167.037 C 392.843 167.037,392.593 166.787,392.593 166.481 C 392.593 166.176,392.343 165.926,392.037 165.926 C 391.731 165.926,391.481 165.759,391.481 165.556 C 391.481 165.352,391.231 165.185,390.926 165.185 C 390.620 165.185,390.370 164.935,390.370 164.630 C 390.370 164.324,390.204 164.074,390.000 164.074 C 389.796 164.074,389.630 163.824,389.630 163.519 C 389.630 163.213,389.380 162.963,389.074 162.963 C 388.769 162.963,388.519 162.796,388.519 162.593 C 388.519 162.389,388.102 162.222,387.593 162.222 C 387.083 162.222,386.667 162.389,386.667 162.593 M317.037 229.074 C 317.037 229.380,317.287 229.630,317.593 229.630 C 317.898 229.630,318.148 229.380,318.148 229.074 C 318.148 228.769,317.898 228.519,317.593 228.519 C 317.287 228.519,317.037 228.769,317.037 229.074 M315.926 232.222 C 315.926 232.426,316.176 232.593,316.481 232.593 C 316.787 232.593,317.037 232.426,317.037 232.222 C 317.037 232.019,316.787 231.852,316.481 231.852 C 316.176 231.852,315.926 232.019,315.926 232.222 M315.185 234.259 C 315.185 234.565,314.935 234.815,314.630 234.815 C 314.324 234.815,314.074 234.981,314.074 235.185 C 314.074 235.389,313.824 235.556,313.519 235.556 C 313.213 235.556,312.963 235.806,312.963 236.111 C 312.963 236.417,312.796 236.667,312.593 236.667 C 312.389 236.667,312.222 236.917,312.222 237.222 C 312.222 237.528,311.972 237.778,311.667 237.778 C 311.361 237.778,311.111 237.944,311.111 238.148 C 311.111 238.352,310.861 238.519,310.556 238.519 C 310.250 238.519,310.000 238.769,310.000 239.074 C 310.000 239.380,309.750 239.630,309.444 239.630 C 309.139 239.630,308.889 239.808,308.889 240.026 C 308.889 240.245,308.651 240.661,308.360 240.952 C 308.069 241.243,307.652 241.481,307.434 241.481 C 307.216 241.481,307.037 241.731,307.037 242.037 C 307.037 242.343,306.787 242.593,306.481 242.593 C 306.176 242.593,305.926 242.771,305.926 242.989 C 305.926 243.208,305.688 243.624,305.397 243.915 C 305.106 244.206,304.689 244.444,304.471 244.444 C 304.253 244.444,304.074 244.694,304.074 245.000 C 304.074 245.306,303.824 245.556,303.519 245.556 C 303.213 245.556,302.963 245.734,302.963 245.952 C 302.963 246.171,302.725 246.587,302.434 246.878 C 302.143 247.169,301.726 247.407,301.508 247.407 C 301.290 247.407,301.111 247.657,301.111 247.963 C 301.111 248.269,300.861 248.519,300.556 248.519 C 300.250 248.519,300.000 248.769,300.000 249.074 C 300.000 249.380,299.833 249.630,299.630 249.630 C 299.426 249.630,299.259 250.046,299.259 250.556 C 299.259 251.065,299.426 251.481,299.630 251.481 C 299.833 251.481,300.000 252.148,300.000 252.963 C 300.000 254.033,300.154 254.444,300.556 254.444 C 300.982 254.444,301.111 254.918,301.111 256.481 C 301.111 258.045,301.240 258.519,301.667 258.519 C 302.093 258.519,302.222 258.992,302.222 260.556 C 302.222 261.676,302.389 262.593,302.593 262.593 C 302.796 262.593,302.963 263.426,302.963 264.444 C 302.963 265.844,303.099 266.296,303.519 266.296 C 303.824 266.296,304.074 266.546,304.074 266.852 C 304.074 267.157,304.324 267.407,304.630 267.407 C 305.031 267.407,305.185 266.996,305.185 265.926 C 305.185 265.111,305.352 264.444,305.556 264.444 C 305.759 264.444,305.926 263.778,305.926 262.963 C 305.926 261.893,306.080 261.481,306.481 261.481 C 306.883 261.481,307.037 261.070,307.037 260.000 C 307.037 258.930,307.191 258.519,307.593 258.519 C 307.994 258.519,308.148 258.107,308.148 257.037 C 308.148 256.222,308.315 255.556,308.519 255.556 C 308.722 255.556,308.889 254.889,308.889 254.074 C 308.889 253.004,309.043 252.593,309.444 252.593 C 309.846 252.593,310.000 252.181,310.000 251.111 C 310.000 250.041,310.154 249.630,310.556 249.630 C 310.957 249.630,311.111 249.218,311.111 248.148 C 311.111 247.078,311.265 246.667,311.667 246.667 C 312.068 246.667,312.222 246.255,312.222 245.185 C 312.222 244.370,312.389 243.704,312.593 243.704 C 312.796 243.704,312.963 243.204,312.963 242.593 C 312.963 241.852,313.148 241.481,313.519 241.481 C 313.920 241.481,314.074 241.070,314.074 240.000 C 314.074 238.930,314.228 238.519,314.630 238.519 C 315.031 238.519,315.185 238.107,315.185 237.037 C 315.185 236.222,315.352 235.556,315.556 235.556 C 315.759 235.556,315.926 235.139,315.926 234.630 C 315.926 234.120,315.759 233.704,315.556 233.704 C 315.352 233.704,315.185 233.954,315.185 234.259 M289.259 242.037 C 289.259 242.343,289.509 242.593,289.815 242.593 C 290.120 242.593,290.370 242.343,290.370 242.037 C 290.370 241.731,290.120 241.481,289.815 241.481 C 289.509 241.481,289.259 241.731,289.259 242.037 M279.259 243.148 C 279.259 243.454,279.509 243.704,279.815 243.704 C 280.120 243.704,280.370 243.454,280.370 243.148 C 280.370 242.843,280.120 242.593,279.815 242.593 C 279.509 242.593,279.259 242.843,279.259 243.148 M290.370 245.000 C 290.370 245.306,290.537 245.556,290.741 245.556 C 290.944 245.556,291.111 245.306,291.111 245.000 C 291.111 244.694,290.944 244.444,290.741 244.444 C 290.537 244.444,290.370 244.694,290.370 245.000 M281.111 247.963 C 281.111 248.269,281.361 248.519,281.667 248.519 C 281.972 248.519,282.222 248.269,282.222 247.963 C 282.222 247.657,281.972 247.407,281.667 247.407 C 281.361 247.407,281.111 247.657,281.111 247.963 M294.074 256.111 C 294.074 256.417,294.324 256.667,294.630 256.667 C 294.935 256.667,295.185 256.417,295.185 256.111 C 295.185 255.806,294.935 255.556,294.630 255.556 C 294.324 255.556,294.074 255.806,294.074 256.111 M295.185 259.074 C 295.185 259.380,295.435 259.630,295.741 259.630 C 296.046 259.630,296.296 259.380,296.296 259.074 C 296.296 258.769,296.046 258.519,295.741 258.519 C 295.435 258.519,295.185 258.769,295.185 259.074 M286.296 260.926 C 286.296 261.231,286.463 261.481,286.667 261.481 C 286.870 261.481,287.037 261.231,287.037 260.926 C 287.037 260.620,286.870 260.370,286.667 260.370 C 286.463 260.370,286.296 260.620,286.296 260.926 M288.148 265.926 C 288.148 266.130,288.398 266.296,288.704 266.296 C 289.009 266.296,289.259 266.130,289.259 265.926 C 289.259 265.722,289.009 265.556,288.704 265.556 C 288.398 265.556,288.148 265.722,288.148 265.926 M290.370 270.926 C 290.370 271.231,290.537 271.481,290.741 271.481 C 290.944 271.481,291.111 271.231,291.111 270.926 C 291.111 270.620,290.944 270.370,290.741 270.370 C 290.537 270.370,290.370 270.620,290.370 270.926 M300.000 272.963 C 300.000 273.167,300.250 273.333,300.556 273.333 C 300.861 273.333,301.111 273.167,301.111 272.963 C 301.111 272.759,300.861 272.593,300.556 272.593 C 300.250 272.593,300.000 272.759,300.000 272.963 M295.185 283.889 C 295.185 284.194,295.435 284.444,295.741 284.444 C 296.046 284.444,296.296 284.611,296.296 284.815 C 296.296 285.043,298.148 285.185,301.111 285.185 C 304.074 285.185,305.926 285.043,305.926 284.815 C 305.926 284.587,304.074 284.444,301.111 284.444 C 297.078 284.444,296.296 284.354,296.296 283.889 C 296.296 283.583,296.046 283.333,295.741 283.333 C 295.435 283.333,295.185 283.583,295.185 283.889 " stroke="none" fill="#43c4fc" fill-rule="evenodd"></path></g></svg>