<svg id="svg" version="1.1" xmlns="http://www.w3.org/2000/svg" xmlns:xlink="http://www.w3.org/1999/xlink" width="400" height="400" viewBox="0, 0, 400,400"><g id="svgg"><path id="path0" d="M169.167 33.965 C 169.625 34.053,170.375 34.053,170.833 33.965 C 171.292 33.877,170.917 33.805,170.000 33.805 C 169.083 33.805,168.708 33.877,169.167 33.965 M237.037 112.260 C 185.288 116.764,142.236 156.762,134.082 207.913 C 132.331 218.896,131.835 250.111,133.335 254.868 C 135.943 263.135,143.740 266.329,153.618 263.176 C 165.819 259.281,174.823 257.186,195.926 253.333 C 262.075 241.256,292.593 232.165,292.593 224.536 C 292.593 222.428,291.458 221.211,286.369 217.865 C 261.052 201.218,279.385 189.970,345.926 181.328 C 356.825 179.912,369.749 178.528,372.674 178.462 C 374.141 178.429,374.431 178.313,374.282 177.822 C 374.182 177.492,374.062 176.524,374.016 175.670 C 373.970 174.817,373.815 174.191,373.671 174.279 C 372.509 174.998,371.978 129.010,373.135 127.852 C 373.244 127.743,373.350 127.890,373.371 128.179 C 373.473 129.590,374.196 125.804,374.225 123.704 C 374.303 118.179,373.614 113.333,372.751 113.333 C 372.475 113.333,372.070 113.000,371.852 112.593 C 371.428 111.800,245.884 111.490,237.037 112.260 " stroke="none" fill="#44d4fb" fill-rule="evenodd"></path><path id="path1" d="M375.000 192.751 C 373.574 193.221,370.324 194.231,367.778 194.996 C 341.299 202.954,334.252 211.671,345.184 222.941 C 356.537 234.645,354.751 242.663,339.074 250.375 C 329.333 255.167,317.630 258.538,290.290 264.428 C 232.524 276.874,209.730 307.960,238.240 335.413 C 251.145 347.839,279.081 362.755,290.370 363.246 C 307.289 363.983,345.473 343.557,355.775 328.259 C 356.571 327.078,357.317 326.028,357.432 325.926 C 357.548 325.824,358.298 324.657,359.098 323.333 C 359.899 322.009,360.763 320.706,361.018 320.437 C 361.273 320.167,361.481 319.729,361.481 319.462 C 361.481 319.195,363.152 315.916,365.194 312.174 C 367.318 308.280,369.868 302.915,371.155 299.630 C 372.393 296.472,373.537 293.722,373.698 293.519 C 375.488 291.250,380.121 270.037,381.666 257.037 C 381.750 256.324,381.904 255.157,382.008 254.444 C 382.111 253.731,382.281 252.398,382.385 251.481 C 382.489 250.565,382.819 247.815,383.119 245.370 C 384.732 232.197,384.676 217.395,382.961 203.704 C 382.245 197.986,381.810 196.313,380.767 195.253 C 380.229 194.707,379.408 193.718,378.943 193.056 C 377.955 191.649,378.275 191.674,375.000 192.751 " stroke="none" fill="#09538f" fill-rule="evenodd"></path><path id="path2" d="M67.222 52.381 C 45.452 56.931,30.065 71.256,28.043 88.855 C 27.617 92.561,27.331 271.850,27.735 281.852 C 28.085 290.525,32.363 304.446,36.557 310.556 C 43.067 320.040,58.697 328.573,71.176 329.455 C 72.872 329.575,74.843 329.773,75.556 329.895 C 77.126 330.164,233.333 330.488,233.333 330.223 C 233.333 330.120,232.593 328.976,231.688 327.681 C 213.866 302.188,238.514 275.584,290.290 264.428 C 317.630 258.538,329.333 255.167,339.074 250.375 C 354.751 242.663,356.537 234.645,345.184 222.941 C 339.994 217.591,338.909 214.380,340.875 210.185 C 343.575 204.424,355.711 198.030,372.130 193.718 L 373.704 193.305 373.704 185.893 L 373.704 178.482 371.574 178.697 C 317.584 184.155,288.019 190.681,278.859 199.161 C 272.859 204.716,275.058 210.088,286.396 217.576 C 290.852 220.518,292.425 221.981,292.818 223.547 C 294.898 231.835,264.775 241.088,193.500 254.053 C 175.320 257.360,165.105 259.759,153.704 263.402 C 143.086 266.794,134.627 262.781,132.639 253.408 C 132.105 250.890,132.082 225.458,132.608 218.333 C 136.657 163.443,177.587 120.299,233.148 112.352 C 239.986 111.373,370.837 111.118,371.901 112.081 C 372.777 112.875,372.774 112.836,371.680 109.371 C 368.621 99.692,355.111 89.837,341.831 87.599 C 337.368 86.847,235.659 86.957,220.556 87.731 C 215.667 87.981,208.833 88.219,205.370 88.260 L 199.074 88.333 196.643 87.181 C 192.907 85.411,181.786 74.563,170.486 61.667 C 165.769 56.284,163.165 54.352,158.009 52.411 L 155.539 51.481 113.417 51.506 L 71.296 51.530 67.222 52.381 M372.843 130.556 C 372.533 132.753,373.114 170.274,373.463 170.624 C 373.796 170.957,373.713 132.431,373.376 130.370 L 373.104 128.704 372.843 130.556 M371.190 299.537 C 369.856 302.949,367.367 308.195,365.195 312.174 C 363.153 315.916,361.481 319.078,361.481 319.201 C 361.481 320.462,368.670 311.880,370.274 308.704 C 372.320 304.652,374.779 293.704,373.642 293.704 C 373.548 293.704,372.444 296.329,371.190 299.537 " stroke="none" fill="#93a4ac" fill-rule="evenodd"></path><path id="path3" d="M372.347 138.148 C 372.347 139.676,372.412 140.301,372.492 139.537 C 372.572 138.773,372.572 137.523,372.492 136.759 C 372.412 135.995,372.347 136.620,372.347 138.148 M165.915 145.463 L 163.519 147.963 166.019 145.566 C 167.394 144.248,168.519 143.123,168.519 143.066 C 168.519 142.794,168.141 143.141,165.915 145.463 M372.756 155.926 C 372.756 161.731,372.807 164.106,372.870 161.204 C 372.932 158.301,372.932 153.551,372.870 150.648 C 372.807 147.745,372.756 150.120,372.756 155.926 M373.064 170.370 C 373.064 171.287,373.136 171.662,373.224 171.204 C 373.313 170.745,373.313 169.995,373.224 169.537 C 373.136 169.079,373.064 169.454,373.064 170.370 M373.333 173.497 C 373.333 173.994,373.470 174.485,373.637 174.588 C 373.804 174.691,373.868 174.284,373.780 173.684 C 373.586 172.360,373.333 172.255,373.333 173.497 M146.024 264.710 C 146.587 264.795,147.420 264.793,147.875 264.705 C 148.331 264.617,147.870 264.548,146.852 264.550 C 145.833 264.553,145.461 264.625,146.024 264.710 " stroke="none" fill="#5cc1e4" fill-rule="evenodd"></path><path id="path4" d="M274.566 111.759 C 292.457 111.812,321.624 111.812,339.381 111.759 C 357.138 111.706,342.500 111.663,306.852 111.663 C 271.204 111.663,256.675 111.706,274.566 111.759 M372.308 134.444 C 372.308 135.157,372.384 135.449,372.478 135.093 C 372.571 134.736,372.571 134.153,372.478 133.796 C 372.384 133.440,372.308 133.731,372.308 134.444 M169.421 141.944 L 168.333 143.148 169.537 142.060 C 170.199 141.462,170.741 140.920,170.741 140.857 C 170.741 140.570,170.435 140.822,169.421 141.944 M372.711 143.333 C 372.711 144.657,372.778 145.199,372.861 144.537 C 372.943 143.875,372.943 142.792,372.861 142.130 C 372.778 141.468,372.711 142.009,372.711 143.333 M162.384 148.981 L 161.296 150.185 162.500 149.097 C 163.162 148.499,163.704 147.957,163.704 147.894 C 163.704 147.608,163.398 147.859,162.384 148.981 M373.056 167.593 C 373.060 168.407,373.136 168.697,373.225 168.236 C 373.314 167.776,373.310 167.109,373.217 166.755 C 373.125 166.401,373.052 166.778,373.056 167.593 M278.128 199.537 L 276.852 200.926 278.241 199.650 C 279.533 198.462,279.800 198.148,279.517 198.148 C 279.455 198.148,278.830 198.773,278.128 199.537 M279.244 212.315 C 280.152 213.282,280.944 214.074,281.003 214.074 C 281.281 214.074,280.987 213.742,279.352 212.207 L 277.593 210.556 279.244 212.315 M132.392 236.852 C 132.392 245.407,132.440 248.855,132.500 244.512 C 132.559 240.170,132.559 233.170,132.500 228.957 C 132.440 224.743,132.392 228.296,132.392 236.852 " stroke="none" fill="#6bbcd4" fill-rule="evenodd"></path></g></svg>