<svg version="1.2" xmlns="http://www.w3.org/2000/svg" viewBox="0 0 400 407" width="400" height="407">
	<style>
		.s0 { fill: #e60433 } 
		.s1 { fill: #fbf9fa } 
		.s2 { fill: #c8596e } 
		.s3 { fill: #ca1239 } 
		.s4 { fill: #b61e3e } 
	</style>
	<g id="svgg">
		<path id="path0" fill-rule="evenodd" class="s0" d="m83.68 40.85c-2.29 0.54-7.41 4.4-7.41 5.58 0 0.12-0.32 0.59-0.71 1.05-1.1 1.31-4.65 8.67-4.87 10.09-0.03 0.21-0.13 0.52-0.23 0.68-0.21 0.37-0.8 2.19-0.95 2.94-0.06 0.32-0.37 1.47-0.69 2.56-0.55 1.87-0.68 2.49-1.04 5.01-0.08 0.56-0.22 1.4-0.31 1.87-0.51 2.85-0.64 3.95-0.69 5.68-0.03 1.07-0.11 2.23-0.17 2.58-0.74 3.85-0.31 18.06 0.77 25.3 0.32 2.14 0.58 4.08 0.58 4.32 0 0.24 0.14 1.15 0.31 2.02 0.18 0.87 0.35 1.76 0.39 1.97 0.15 0.82 0.41 0.67 0.44-0.27 0.03-0.92 0.06-0.89 0.4 0.46 0.5 1.93 0.49 2.88 0 1.58-0.34-0.88-0.62-0.97-0.44-0.14 0.03 0.16 0.17 0.93 0.31 1.73 0.38 2.18 0.56 3.07 0.85 4.17 0.14 0.56 0.33 1.47 0.42 2.02 0.26 1.63 0.79 3.87 0.99 4.18 0.11 0.16 0.23 0.67 0.27 1.15 0.07 0.72 0.38 2.06 0.81 3.46 0.04 0.15 0.28 1.13 0.53 2.16 0.24 1.03 0.5 2.11 0.57 2.41 0.08 0.31 0.28 0.98 0.45 1.51 0.68 2.07 0.96 7.46 0.51 10.05-0.33 1.9-2.81 6.86-6.82 13.62-0.5 0.84-1.34 2.33-1.88 3.32-0.53 0.98-1.5 2.71-2.15 3.85-0.65 1.13-1.21 2.23-1.26 2.44-0.04 0.21-0.16 0.45-0.26 0.53-0.39 0.31-6.3 11.79-6.3 12.24 0 0.1-0.53 1.31-1.18 2.68-1.85 3.92-5.61 13.6-5.27 13.6 0.07 0-0.06 0.37-0.3 0.83-0.23 0.45-0.69 1.78-1.02 2.95-1.23 4.43-2.55 9.65-2.7 10.76-0.09 0.64-0.3 1.61-0.47 2.16-0.26 0.88-0.92 5.29-1.31 8.79-0.07 0.63-0.2 1.6-0.29 2.16-0.8 5.01-0.71 19.51 0.13 20.57 0.13 0.17 0.4 0.81 0.59 1.42 0.64 1.97 6.53 6.79 7.94 6.5 0.18-0.04 1.79 0.54 2.45 0.87 0.23 0.13 1.21 0.46 2.16 0.75 2.09 0.64 1.92 0.58 2.44 0.77 0.24 0.09 1.99 0.64 3.89 1.23 1.9 0.59 3.71 1.18 4.03 1.31 0.32 0.13 1.08 0.39 1.69 0.58 0.6 0.19 1.45 0.52 1.87 0.74 0.42 0.22 0.88 0.4 1.02 0.4 0.28 0 5.48 2 7.66 2.94 0.72 0.31 1.5 0.61 1.75 0.66 1.01 0.21 13.5 6.35 14.96 7.36 0.4 0.27 2.28 1.42 4.18 2.56 3 1.8 5.24 3.25 7.9 5.14 2.23 1.59 9.51 7.59 11.26 9.3 0.57 0.54 1.8 1.7 2.74 2.56 0.94 0.86 1.91 1.85 2.15 2.2 0.24 0.34 1.27 1.52 2.3 2.63 1.03 1.1 2.39 2.62 3.03 3.37 0.63 0.75 1.63 1.9 2.22 2.57 0.59 0.66 1.08 1.36 1.08 1.57 0.01 0.2 0.21 0.44 0.44 0.53 0.24 0.09 0.43 0.32 0.43 0.5 0 0.18 0.3 0.65 0.65 1.05 0.36 0.39 0.83 1.07 1.06 1.5 0.22 0.44 0.61 1.02 0.86 1.3 0.25 0.28 1.09 1.48 1.87 2.67 0.78 1.19 1.52 2.2 1.66 2.26 0.13 0.05 0.24 0.22 0.24 0.39 0 0.16 0.33 0.68 0.72 1.15 0.4 0.47 0.72 1.02 0.72 1.22 0 0.2 0.26 0.6 0.58 0.88 0.31 0.29 0.57 0.63 0.57 0.75 0 0.13 0.81 1.47 1.8 2.98 0.99 1.5 2.19 3.39 2.67 4.19 3.28 5.52 8.41 12.9 10.28 14.8 0.21 0.21 0.83 0.95 1.38 1.65 1.25 1.57 8.33 8.69 10.09 10.14 0.71 0.59 1.49 1.24 1.72 1.46 0.24 0.21 0.83 0.63 1.3 0.93 0.48 0.29 0.93 0.62 1.01 0.73 0.7 0.95 8.72 5.61 10 5.81 0.28 0.04 0.67 0.18 0.87 0.3 0.2 0.12 0.36 0.11 0.36-0.03 0-0.14-0.79-0.63-1.75-1.09-1.81-0.86-2.64-1.52-1.22-0.96 4.32 1.68 7.52 2.89 7.89 2.98 1.22 0.28 2.85 0.83 2.76 0.93-0.13 0.13-4.38-0.9-5.46-1.32-1-0.39-1.35-0.4-1.35-0.04 0 0.15 0.48 0.36 1.08 0.47 0.59 0.1 1.22 0.3 1.39 0.44 0.17 0.13 0.56 0.28 0.86 0.33 0.31 0.04 0.68 0.16 0.84 0.25 0.16 0.1 0.94 0.28 1.73 0.4 0.79 0.13 1.57 0.27 1.73 0.31 2.33 0.67 10.05 0.86 12.96 0.31 1.9-0.36 4.72-1.07 5.93-1.51 0.7-0.26 1.4-0.49 1.56-0.52 0.16-0.03 0.45-0.16 0.65-0.28 0.2-0.12 0.36-0.14 0.36-0.05 0 0.1 0.49-0.07 1.08-0.38 0.59-0.3 2.09-1.06 3.32-1.67 3.6-1.79 4.24-2.15 4.24-2.44 0-0.14 0.26-0.26 0.58-0.26 0.31 0 0.57-0.12 0.57-0.27 0-0.15 0.25-0.34 0.55-0.44 0.3-0.09 0.88-0.49 1.29-0.87 0.42-0.38 0.76-0.63 0.76-0.56 0 0.08 0.16 0.02 0.36-0.14 0.19-0.17 1.19-0.97 2.2-1.79 1.88-1.53 9.53-9 9.53-9.31 0-0.1 0.36-0.54 0.8-0.99 1.09-1.12 2.69-2.99 3.38-3.94 0.32-0.44 0.74-0.96 0.94-1.16 0.19-0.2 0.36-0.47 0.36-0.6 0-0.13 0.31-0.53 0.69-0.88 0.81-0.77 4.2-5.67 4.2-6.07 0-0.15 0.22-0.45 0.48-0.67 0.27-0.22 0.72-0.94 1.02-1.61 0.29-0.66 0.69-1.37 0.89-1.58 0.52-0.55 1.93-2.68 1.93-2.91 0-0.11 0.21-0.43 0.47-0.7 0.63-0.68 4.43-6.64 4.43-6.94 0-0.14 0.26-0.48 0.58-0.77 0.31-0.28 0.57-0.64 0.57-0.78 0-0.15 0.33-0.69 0.72-1.21 0.4-0.52 0.72-1.06 0.72-1.2 0-0.15 0.39-0.72 0.87-1.27 0.47-0.56 0.86-1.17 0.86-1.37 0-0.2 0.12-0.36 0.27-0.36 0.15 0 0.44-0.31 0.65-0.68 0.46-0.84 2.78-3.96 4.05-5.47 0.51-0.61 1.05-1.33 1.19-1.59 0.14-0.26 0.48-0.67 0.75-0.9 0.27-0.24 1.76-1.83 3.31-3.54 3.1-3.43 7.48-7.84 9.41-9.47 0.69-0.59 1.51-1.3 1.83-1.6 0.32-0.29 0.85-0.73 1.18-0.96 0.6-0.42 2.95-2.35 3.84-3.16 0.27-0.23 1.25-0.95 2.2-1.58 0.94-0.63 1.96-1.38 2.27-1.66 0.31-0.27 0.65-0.5 0.77-0.5 0.12 0 0.97-0.5 1.89-1.11 4.27-2.82 9.27-5.68 13.78-7.88 1.58-0.77 3.07-1.53 3.31-1.68 0.89-0.58 3.66-1.75 7.77-3.29 1.98-0.74 3.99-1.52 4.47-1.74 0.47-0.21 1.19-0.48 1.58-0.59 0.4-0.1 1.11-0.37 1.59-0.58 0.92-0.4 8.69-2.95 13.6-4.45 1.63-0.5 3.03-1.02 3.12-1.17 0.09-0.15 0.37-0.27 0.63-0.27 0.26 0 1-0.24 1.64-0.54 0.64-0.3 1.66-0.77 2.25-1.05 5.33-2.43 7.14-8.16 6.28-19.82-0.19-2.56-0.4-5.86-0.47-7.34-0.06-1.48-0.18-2.8-0.26-2.93-0.08-0.13-0.21-0.73-0.29-1.34-0.08-0.61-0.21-1.43-0.29-1.83-0.08-0.4-0.28-1.82-0.45-3.16-0.16-1.34-0.44-2.6-0.61-2.81-0.17-0.2-0.24-0.37-0.16-0.37 0.08 0 0.03-0.48-0.12-1.08-0.14-0.59-0.33-1.53-0.41-2.07-0.14-0.97-0.43-2.08-2.04-7.65-0.71-2.47-0.91-3.05-1.52-4.53-0.14-0.36-0.34-1.03-0.45-1.5-0.1-0.46-0.43-1.36-0.74-2-0.31-0.63-0.56-1.36-0.56-1.61 0-0.26-0.1-0.59-0.23-0.74-0.12-0.15-0.47-0.99-0.76-1.86-0.3-0.87-1.08-2.75-1.74-4.18-0.66-1.42-1.57-3.43-2.02-4.46-0.44-1.02-0.99-2.04-1.2-2.25-0.21-0.21-0.47-0.73-0.58-1.16-0.2-0.83-3.23-6.84-4.51-8.98-0.43-0.71-0.92-1.65-1.09-2.09-0.17-0.43-0.43-0.79-0.57-0.79-0.14 0-0.26-0.15-0.26-0.34 0-0.38-3.92-7.42-5.18-9.31-0.43-0.63-0.96-1.57-1.18-2.09-0.22-0.51-0.49-0.93-0.59-0.93-0.1 0-0.27-0.33-0.37-0.72-0.1-0.4-0.31-0.72-0.46-0.72-0.16 0-0.28-0.16-0.28-0.35 0-0.54-1.85-4.82-2.09-4.83-0.12 0-0.23 0.22-0.24 0.5-0.02 0.43-0.06 0.42-0.27-0.08-0.38-0.88-0.36-1.56 0.02-1 0.22 0.31 0.24 0.06 0.09-0.87-0.27-1.62-0.26-6.27 0.02-7.38q0.2-0.81-0.08-0.54c-0.23 0.24-0.66 2.72-0.71 4.11 0 0.19-0.13 0.36-0.29 0.36-0.17 0-0.19-0.54-0.06-1.37 0.11-0.76 0.24-1.56 0.27-1.8 0.3-1.94 0.58-3.1 0.92-3.86l0.4-0.9-0.18 1.13q-0.19 1.12 0.11 0.93c0.25-0.15 0.63-1.62 0.71-2.7 0.01-0.12 0.25-0.89 0.53-1.72 0.29-0.82 0.6-1.99 0.69-2.59 0.09-0.6 0.24-1.31 0.32-1.58 0.08-0.26 0.2-0.71 0.27-1 0.06-0.29 0.31-1.24 0.53-2.11 0.68-2.6 0.86-3.95 0.48-3.57-0.19 0.18-0.41 0.86-0.5 1.51-0.08 0.66-0.27 1.19-0.41 1.19-0.36 0-0.32-0.26 0.5-3.68 0.84-3.5 1.04-3.96 0.79-1.83-0.12 1.02-0.07 1.48 0.15 1.48 0.18 0 0.31-0.1 0.28-0.22-0.03-0.12 0.04-0.67 0.14-1.22 0.1-0.56 0.24-1.4 0.31-1.87 0.07-0.48 0.33-1.73 0.58-2.79 0.26-1.05 0.53-2.61 0.62-3.45 0.18-1.71 0.28-2.35 0.53-3.41 0.09-0.4 0.24-1.31 0.34-2.02 0.09-0.71 0.2-1.49 0.24-1.73 0.05-0.24 0.18-1.47 0.29-2.74 0.12-1.26 0.27-2.81 0.34-3.44 0.08-0.69 0.02-1.03-0.13-0.87-0.15 0.16-0.34 1.12-0.44 2.15q-0.25 2.64-0.93 8.01c-0.11 0.83-0.32 1.59-0.46 1.68-0.16 0.1-0.21-0.23-0.12-0.8 0.08-0.53 0.3-2.2 0.47-3.7 0.18-1.51 0.38-3.05 0.44-3.43 0.82-4.99 0.82-22.08 0-26.91-0.5-2.93-0.82-6.99-0.46-5.9 0.13 0.42 0.34 1.55 0.45 2.52 0.11 0.96 0.32 1.75 0.46 1.75 0.3 0 0.09-2.09-0.47-4.54-0.23-0.99-0.48-2.22-0.57-2.74-0.21-1.22-0.41-1.96-0.72-2.66-0.14-0.32-0.4-1.32-0.58-2.23-0.18-0.91-0.44-1.66-0.59-1.66-0.15 0-0.27-0.25-0.27-0.57 0-1.64-3.38-8.98-4.96-10.78-0.28-0.31-0.51-0.69-0.51-0.85 0-0.64-4.19-4.32-5.71-5.02-2.95-1.35-7.08-0.97-10.85 1.01-0.48 0.25-1.25 0.65-1.73 0.89-0.86 0.44-4.35 2.58-4.9 3-0.16 0.12-1 0.7-1.87 1.28-0.87 0.58-1.65 1.13-1.73 1.23-0.08 0.09-0.53 0.42-1.01 0.72-0.83 0.53-6.47 4.99-6.76 5.35-0.08 0.1-1.06 0.87-2.16 1.72-2.11 1.6-4.1 3.24-6.05 5-1.49 1.33-1.69 1.5-3.9 3.33-1.03 0.85-2.06 1.71-2.3 1.92-0.23 0.21-1 0.87-1.71 1.48-0.7 0.6-1.67 1.49-2.16 1.99-0.48 0.49-1.09 1.01-1.35 1.15-0.26 0.14-1.29 1-2.3 1.91-1.01 0.91-3.07 2.71-4.58 4.01-1.5 1.29-2.94 2.55-3.19 2.81-0.26 0.25-1.03 0.91-1.71 1.46-0.68 0.56-2.1 1.77-3.14 2.71-1.04 0.93-2.57 2.22-3.41 2.87-0.83 0.65-1.51 1.28-1.51 1.4 0 0.13-0.19 0.23-0.43 0.23-0.24 0-0.43 0.15-0.43 0.33 0 0.19-0.08 0.26-0.18 0.16-0.1-0.1-0.46-0.03-0.8 0.15-0.33 0.19-0.7 0.36-0.82 0.39-0.12 0.02-0.25 0.07-0.29 0.1-0.58 0.47-5.66 0.39-7.85-0.13-1.1-0.26-2.34-0.52-2.73-0.57-0.4-0.06-1.83-0.38-3.17-0.73-4.98-1.27-6.81-1.7-8.5-1.98-3.06-0.53-3.45-0.6-4.18-0.76-0.39-0.08-1.11-0.21-1.58-0.28-0.48-0.06-1.45-0.2-2.16-0.3-0.72-0.1-1.62-0.24-2.02-0.32-0.39-0.07-1.37-0.19-2.16-0.27-0.79-0.07-2.22-0.23-3.17-0.34-2.25-0.27-14.89-0.26-17.86 0.02-1.26 0.11-3.01 0.28-3.89 0.36-0.87 0.08-1.77 0.22-2.01 0.31-0.24 0.09-1.08 0.23-1.87 0.31-1.23 0.13-3.56 0.57-5.76 1.1-0.32 0.08-1.16 0.22-1.88 0.32-0.71 0.09-2.27 0.42-3.45 0.73-1.19 0.3-2.62 0.62-3.17 0.7-0.56 0.08-1.2 0.23-1.44 0.32-0.69 0.28-0.95 0.34-2.02 0.52-0.55 0.09-1.33 0.24-1.73 0.34-0.39 0.1-0.85 0.21-1 0.24-7.66 1.69-9.85 1.15-15.65-3.84-0.68-0.58-1.58-1.36-2.01-1.73-0.43-0.36-1.26-1.11-1.84-1.65-1.01-0.94-1.7-1.26-1.66-0.78 0.07 0.76 9.38 8.07 11.11 8.73 0.42 0.16 0.69 0.36 0.61 0.44-0.23 0.23-3.36-1.43-4.51-2.38-0.54-0.44-1.71-1.46-2.59-2.26-0.89-0.79-2.45-2.15-3.48-3.02-1.03-0.87-2.13-1.8-2.43-2.08-0.31-0.28-0.65-0.51-0.77-0.51-0.11 0-0.27-0.19-0.36-0.43-0.25-0.63-0.05-0.54 1.11 0.47 0.56 0.5 1.11 0.82 1.21 0.72 0.09-0.1-0.14-0.45-0.52-0.78-0.38-0.33-1.73-1.55-3-2.7-1.26-1.16-2.88-2.58-3.6-3.16-1.56-1.27-3.52-2.93-4.6-3.91-1.69-1.54-3.44-3.07-4.6-4.03-0.67-0.56-1.52-1.27-1.9-1.59-0.38-0.32-1.16-0.96-1.74-1.44-0.57-0.47-1.8-1.51-2.72-2.3-0.93-0.8-2.15-1.83-2.72-2.31-0.57-0.47-1.34-1.12-1.72-1.44-0.38-0.31-1.09-0.9-1.58-1.29-0.49-0.4-1.11-0.95-1.39-1.23-0.27-0.28-0.65-0.5-0.85-0.5-0.2 0-0.53-0.26-0.73-0.58-0.2-0.32-0.52-0.57-0.72-0.57-0.2 0-0.36-0.14-0.36-0.3 0-0.16-0.33-0.42-0.72-0.57-0.4-0.15-0.72-0.38-0.72-0.52 0-0.29-4.2-3.51-4.58-3.51-0.14 0-0.42-0.21-0.64-0.47-0.72-0.86-5.57-3.87-8.75-5.42-4.09-1.99-6.7-2.51-9.44-1.86zm6.12 0.98c1.32 0.51 0.57 0.51-1.44 0.01-1.37-0.34-1.45-0.39-0.57-0.4 0.55 0 1.46 0.18 2.01 0.39zm227.72 0.31c2.2 1.17 5.89 4.87 5.89 5.9 0 0.21-0.42-0.2-0.94-0.9-3.74-5.09-8.44-6.68-13.9-4.71-0.31 0.12-0.48 0.11-0.38-0.01 1.11-1.23 7.2-1.41 9.33-0.28zm-234.77-0.05c-0.48 0.21-0.93 0.32-1 0.26-0.23-0.2 0.67-0.66 1.28-0.65 0.44 0.01 0.37 0.1-0.28 0.39zm12.04 2.09c2.34 1.33 6.7 4.22 7.26 4.8 0.15 0.16-0.04 0.1-0.44-0.14-0.39-0.25-1.37-0.85-2.16-1.33-0.79-0.49-2.34-1.48-3.44-2.2-1.1-0.73-2.14-1.32-2.3-1.33-0.36 0-1.85-1.13-1.52-1.14 0.13 0 1.3 0.6 2.6 1.34zm209.44 0.57c-1.73 1.04-3.57 2.16-4.08 2.47-0.52 0.31-0.94 0.49-0.94 0.39 0-0.39 7.2-4.73 7.9-4.76 0.15-0.01-1.14 0.85-2.88 1.9zm-223.93-1.53c0 0.05-0.72 0.81-1.59 1.69-0.87 0.88-1.58 1.5-1.58 1.39 0-0.12 0.67-0.88 1.48-1.69 1.37-1.38 1.69-1.63 1.69-1.39zm-4.29 5.02c-0.15 0.28-0.5 0.76-0.76 1.08-0.51 0.6-0.44 0.46 0.55-1.23 0.33-0.55 0.52-0.42 0.21 0.15zm222.72-0.02c-0.59 0.21-5.86 4.27-8.85 6.81-1.54 1.31-1.9 1.58-3.2 2.34-0.81 0.48-0.8 0.46 0.15-0.38 3.04-2.69 11.87-9.3 12.09-9.05 0.08 0.09 0 0.22-0.19 0.28zm-190.86 5.02c1.87 1.45 3.46 2.71 3.54 2.82 0.17 0.23 4.09 3.51 8.64 7.23 3.79 3.1 4.18 3.46 3.79 3.46-0.26 0-2.42-1.73-6.06-4.86-0.85-0.74-2.21-1.88-3.03-2.55-0.81-0.66-1.75-1.46-2.09-1.76-0.34-0.3-1.05-0.85-1.58-1.22-0.53-0.37-1.03-0.75-1.11-0.85-0.08-0.09-1.41-1.17-2.96-2.39-2.56-2.03-3.06-2.5-2.67-2.5 0.08 0 1.66 1.18 3.53 2.62zm217.98-0.85c0.4 0.82 0.67 1.55 0.6 1.61-0.13 0.14-0.5-0.51-1.12-2.02-0.66-1.59-0.31-1.31 0.52 0.41zm-252.17 0.03c-1.55 3.79-2.03 4.83-1.92 4.1 0.15-0.93 1.79-4.75 2.04-4.75 0.08 0 0.03 0.29-0.12 0.65zm254.48 5.58c0.49 1.19 0.57 1.95 0.11 1.16-0.36-0.62-0.84-2.21-0.67-2.21 0.07 0 0.32 0.47 0.56 1.05zm-43.28 0.9c-0.51 0.44-1.61 1.41-2.44 2.16-2.75 2.49-4.92 4.25-5.07 4.1-0.08-0.08-0.09-0.18-0.02-0.23 0.06-0.05 1.47-1.25 3.13-2.67 3.73-3.19 4.94-4.16 5.16-4.15 0.1 0.01-0.24 0.36-0.76 0.79zm45.04 4.99c0.27 1.77-0.13 1.25-0.61-0.79-0.21-0.93-0.46-1.94-0.56-2.26-0.09-0.32 0.09-0.05 0.4 0.6 0.32 0.64 0.66 1.74 0.77 2.45zm-260.19-0.1c-0.24 0.91-0.5 1.72-0.59 1.8-0.23 0.21 0.11-1.74 0.47-2.66 0.51-1.33 0.58-0.89 0.12 0.86zm57.92 5.97c3.61 3.08 6.59 5.82 5.94 5.47-0.56-0.3-2.94-2.27-6.05-5-3.37-2.95-3.62-3.2-3.34-3.2 0.13 0 1.69 1.23 3.45 2.73zm144.28 0.25c-0.77 0.72-1.79 1.61-2.25 1.97-0.47 0.36-0.92 0.72-1 0.81-0.08 0.09-1.05 0.93-2.16 1.88-1.11 0.95-2.11 1.85-2.22 2-0.11 0.16-0.26 0.22-0.34 0.15-0.11-0.12 5.16-4.91 8.32-7.57 1.41-1.18 1.16-0.65-0.35 0.76zm-203.57 0.35c-0.11 0.73-0.27 1.26-0.36 1.18-0.09-0.09-0.07-0.76 0.04-1.49 0.11-0.74 0.27-1.27 0.36-1.18 0.09 0.08 0.07 0.75-0.04 1.49zm263.56 4.7c0.1 1.33 0.29 2.69 0.44 3.03 0.16 0.39 0.19-0.28 0.08-1.84-0.1-1.35-0.3-2.71-0.43-3.02-0.16-0.36-0.19 0.35-0.09 1.83zm-264.67 10.69c-0.03 4.12-0.16 7.49-0.27 7.49-0.27 0.01-0.29-8.72-0.03-12.34 0.29-4.2 0.36-3.14 0.3 4.85zm191.82-4.45c-1.78 1.64-3.24 2.7-2.89 2.09 0.35-0.6 3.64-3.37 4-3.37 0.16 0-0.34 0.58-1.11 1.28zm-62.83 3.6c-0.95 0.12-3.16 0.3-4.9 0.4-1.74 0.09-3.95 0.3-4.9 0.46-0.95 0.15-2.05 0.27-2.45 0.26-3.1-0.11 7.97-1.35 11.96-1.35l2.02 0.01zm136.5 2.81c-0.01 1.69 0.08 2.81 0.2 2.5 0.29-0.74 0.33-5.25 0.04-5.42-0.11-0.07-0.22 1.24-0.24 2.92zm-120.29-2.42c3.23 0.38 4.51 0.75 2.63 0.75-0.54 0-1.96-0.13-3.15-0.29-1.18-0.16-3.06-0.41-4.17-0.54l-2.02-0.25 1.73-0.02c0.95-0.02 3.19 0.14 4.98 0.35zm10.89 1.87c2.2 0.46 4.78 1.03 5.73 1.26 0.95 0.24 2.48 0.6 3.4 0.8 0.92 0.21 1.73 0.47 1.8 0.59 0.13 0.21-5.68-0.97-7.23-1.47-0.48-0.16-1.91-0.48-3.17-0.71-3.66-0.66-6.09-1.25-5.29-1.28 0.41-0.01 2.55 0.36 4.76 0.81zm-44.15-0.25c-0.99 0.4-3.55 0.81-3.55 0.56 0-0.24 2.32-0.77 3.46-0.8 0.69-0.01 0.69-0.01 0.09 0.24zm-5.42 1.16c-0.95 0.31-2.44 0.62-3.32 0.7-1.46 0.13-1.39 0.09 1.01-0.55 3.13-0.84 4.75-0.94 2.31-0.15zm76.19 1c-0.2 0.23-0.54 0.43-0.76 0.43-0.22 0-0.4 0.11-0.4 0.25 0 0.28-2.24 1.19-2.89 1.18-0.39-0.01 3.61-2.19 4.15-2.26 0.14-0.02 0.09 0.16-0.1 0.4zm-10.3 1.74c0.5 0.09 0.99 0.24 1.07 0.33 0.21 0.23-2.77-0.16-4.17-0.55-1.93-0.54-1.76-0.77 0.27-0.34 1.05 0.22 2.32 0.47 2.83 0.56zm-76.26-0.47c-0.32 0.13-1.23 0.31-2.02 0.4l-1.44 0.17 1.3-0.39c1.47-0.44 3.17-0.58 2.16-0.18zm-96.11 4.56l-0.04 1.37-0.19-1.15c-0.18-1.1-0.13-1.59 0.15-1.59 0.07 0 0.11 0.62 0.08 1.37zm1.01 10.15c0.11 0.87 0.27 2.17 0.37 2.88 0.1 0.72 0.09 1.22-0.02 1.12-0.3-0.29-1.02-5.4-0.99-7.02l0.03-1.44 0.22 1.44c0.11 0.79 0.29 2.15 0.39 3.02zm261.3 10.16c-0.11 0.67-0.34 1.35-0.5 1.51q-0.31 0.3-0.13-0.2c0.09-0.26 0.25-0.94 0.36-1.51 0.27-1.45 0.51-1.28 0.27 0.2zm-258.87 3.96c-0.01 0.64-0.03 0.63-0.23-0.15-0.31-1.22-0.31-2.26 0-1.29 0.13 0.39 0.23 1.04 0.23 1.44zm1.93 7.49c0.47 1.54 1.09 5.2 0.91 5.37-0.11 0.12-0.33-0.72-0.95-3.64-0.27-1.28-0.22-1.11-0.62-2.45-0.19-0.64-0.33-1.48-0.31-1.88 0.02-0.59 0.07-0.55 0.3 0.29 0.15 0.56 0.45 1.59 0.67 2.31zm254.32 0.64c-0.23 1-0.54 2.13-0.7 2.53-0.4 1.05-0.19-0.81 0.33-2.81 0.55-2.14 0.87-1.89 0.37 0.28zm-1.41 5.69c-0.26 1.19-0.49 0.95-0.25-0.25 0.1-0.5 0.24-0.86 0.31-0.79 0.08 0.08 0.05 0.55-0.06 1.04zm-250.05 6.02c0.23 1.02 0.32 1.73 0.18 1.59-0.25-0.27-0.89-3.04-0.85-3.66 0.03-0.51 0.2 0.01 0.67 2.07zm0.38 5.87c-0.06 0.67-0.11 0.05-0.11-1.37 0-1.43 0.05-1.98 0.11-1.22 0.06 0.76 0.06 1.93 0 2.59zm247.85 0.37c0.07 0.57 0.02 1.09-0.11 1.17-0.13 0.08-0.23-0.38-0.23-1.02 0-1.45 0.18-1.52 0.34-0.15zm-248.64 3.84c0 0.3-0.25 0.85-0.57 1.23l-0.57 0.68 0.47-1.23c0.52-1.34 0.67-1.5 0.67-0.68zm253.88 8.53c0.57 0.95 1.03 1.92 1.02 2.16q-0.02 0.41-0.25-0.15c-0.13-0.33-0.64-1.23-1.14-2.01-0.49-0.77-0.89-1.53-0.89-1.69 0-0.39 0.09-0.27 1.26 1.69zm-259.62 2.4c-0.68 1.34-1.33 1.91-0.8 0.71 0.46-1.03 1.16-2.1 1.29-1.97 0.06 0.06-0.16 0.62-0.49 1.26zm272.45 21.37c0 0.32-0.1 0.29-0.42-0.13-0.23-0.31-0.42-0.75-0.42-0.99 0-0.33 0.1-0.3 0.42 0.12 0.23 0.31 0.42 0.76 0.42 1zm1.17 2.41c0 0.14-0.25-0.07-0.57-0.48-0.32-0.4-0.58-0.9-0.58-1.12 0.01-0.21 0.26 0.01 0.58 0.48 0.31 0.48 0.57 0.98 0.57 1.12zm-204.36 5.38c4.59 0.54 8.53 1.63 11.59 3.2 2.97 1.53 6.41 3.83 6.41 4.29 0 0.15 0.18 0.27 0.39 0.27 0.42 0 2.32 2.06 4.11 4.46 0.58 0.78 1.8 2.89 2.7 4.68 0.89 1.79 1.74 3.15 1.87 3.03q0.2-0.17 0.05 0.12c-0.11 0.18 0.26 1.98 0.82 4.01 0.55 2.02 1 3.78 1 3.9 0 0.36-3.58 1.31-5.76 1.53-0.24 0.03-0.6 0.14-0.79 0.26-0.2 0.12-0.51 0.13-0.69 0.02q-0.31-0.19-0.13 0.13c0.12 0.18 0.07 0.33-0.1 0.33-0.17 0-0.3-0.15-0.3-0.33q-0.01-0.31-0.49 0.08c-0.42 0.33-0.45 0.33-0.24-0.01q0.28-0.45-0.16-0.16c-0.49 0.31-5.7 0.2-7.32-0.15-0.64-0.13-2-0.33-3.03-0.44-5.56-0.57-12.07-3.79-16.06-7.92-1.23-1.27-4.93-6.18-5.16-6.84-0.1-0.28-0.48-1.19-0.85-2.03-0.78-1.74-1.83-4.76-2.03-5.82-0.07-0.39-0.23-0.78-0.35-0.86-0.13-0.08-0.25-0.67-0.27-1.3-0.02-0.64-0.11-1.49-0.2-1.91-0.21-0.94 0.41-1.61 1.67-1.83 0.51-0.08 1.97-0.33 3.23-0.55 2.87-0.5 6.69-0.56 10.09-0.16zm133.18 0.38c1.33 0.28 2.6 0.43 2.82 0.34 0.23-0.08 0.34-0.04 0.26 0.1-0.09 0.14 0.05 0.34 0.31 0.44 1.53 0.58-2.32 12.49-5.19 16.04-0.34 0.42-0.87 1.13-1.19 1.58-4.92 7.02-14.77 11.24-25.92 11.11-3.16-0.04-10.28-1.15-10.82-1.69-0.75-0.74 1.34-7.73 3.58-12.05 1.62-3.1 2.04-3.78 3.17-5.1 0.58-0.68 1.21-1.44 1.41-1.69 3.41-4.44 12.11-8.38 21.09-9.58 1.99-0.27 8.22 0.03 10.48 0.5zm-227.25 57.85c0.18 0.52 0.2 0.81 0.06 0.65-0.31-0.33-0.72-1.58-0.52-1.58 0.07 0 0.28 0.42 0.46 0.93zm309.64 1.87c-0.37 0.6-0.84 1.26-1.04 1.47-0.63 0.65-0.41-0.07 0.34-1.08 0.39-0.53 0.65-1.07 0.57-1.19-0.13-0.21 0.49-0.56 0.7-0.39 0.05 0.05-0.2 0.58-0.57 1.19zm-298.39 6.45q-0.01 0.45-0.98 0.08c-0.73-0.27-0.53-0.62 0.26-0.47 0.4 0.08 0.72 0.26 0.72 0.39zm16.1 5.32c0.22 0.08 0.34 0.2 0.27 0.28-0.17 0.16-3.44-0.94-3.78-1.28-0.2-0.2 1.16 0.19 3.51 1zm244.58 4.73c-0.23 0.16-0.62 0.28-0.86 0.28-0.38 0-0.38-0.03 0-0.28 0.24-0.15 0.63-0.28 0.86-0.28 0.39 0 0.39 0.04 0 0.28zm-2.3 0.92c0 0.13-0.05 0.24-0.12 0.24-0.07 0-0.33 0.08-0.58 0.17q-0.47 0.19-0.3-0.24c0.17-0.44 1-0.58 1-0.17zm-24.07 14.04c-0.62 0.46-1.19 0.78-1.27 0.7-0.07-0.07 0.06-0.25 0.29-0.4 0.23-0.15 0.29-0.28 0.13-0.29-0.31-0.02 1.28-0.79 1.71-0.83 0.15-0.01-0.24 0.36-0.86 0.82zm-168.06 10.3c1.23 1 4.27 4.41 3.93 4.41-0.16 0-4.13-3.98-5.02-5.03q-0.79-0.92 1.09 0.62zm85.77 4.11c12.87 1.95 18.65 6.91 17.78 15.28-1.68 16.07-17.68 28.47-31.64 24.53-13.76-3.88-24.27-21.48-19-31.82 2.08-4.08 9.75-7.53 18.1-8.14 1.42-0.11 2.64-0.24 2.71-0.3 0.39-0.36 8.76-0.04 12.05 0.45zm61.8 4.9c-0.08 0.31-0.46 0.76-0.84 1.01-0.83 0.55-0.89 0.34-0.12-0.48 0.31-0.33 0.5-0.72 0.41-0.85-0.08-0.14 0.04-0.25 0.27-0.25q0.42 0.01 0.28 0.57zm-136.18 3.92c2.11 2.78 3.39 4.74 3.09 4.72-0.12-0.01-0.93-1.04-1.8-2.31-1.51-2.17-1.85-2.63-3.39-4.45-0.76-0.9-0.88-1.53-0.14-0.77 0.28 0.28 1.28 1.55 2.24 2.81zm133.35-0.33c-0.27 0.41-0.61 0.74-0.76 0.74-0.31 0-0.09-0.46 0.57-1.22 0.63-0.74 0.76-0.4 0.19 0.48zm-128.61 7.15c0.01 0.47-0.29 0.17-0.73-0.72l-0.45-0.94 0.58 0.72c0.33 0.4 0.59 0.82 0.6 0.94zm122.22 1.68c-0.63 1.07-1.51 1.91-1.04 0.98 0.17-0.31 0.24-0.75 0.16-0.97-0.08-0.22-0.01-0.32 0.15-0.22 0.16 0.1 0.45-0.01 0.65-0.25 0.59-0.71 0.64-0.48 0.08 0.46zm-119.59 1.89c0.5 0.74 1.15 1.57 1.43 1.85 0.51 0.52 2.34 4.05 2.18 4.21-0.05 0.05-0.51-0.49-1.02-1.2-0.51-0.72-1.05-1.3-1.2-1.3-0.15 0-0.27-0.24-0.27-0.54 0-0.3-0.2-0.7-0.43-0.9-0.24-0.2-0.44-0.52-0.44-0.72 0-0.2-0.18-0.51-0.41-0.7-0.38-0.32-1.13-2.04-0.88-2.04 0.06 0 0.53 0.61 1.04 1.34zm117.22 1.81c-1.16 1.7-1.8 2.34-1.17 1.17 0.65-1.21 2.08-3.19 2.22-3.06 0.07 0.08-0.4 0.93-1.05 1.89zm-4.34 6.57c-1.32 2.43-4.61 7.37-4.61 6.92 0-0.26 0.14-0.56 0.31-0.66 0.17-0.11 0.43-0.53 0.59-0.95 0.29-0.76 3.98-6.39 4.19-6.39 0.06 0-0.16 0.49-0.48 1.08zm-106.24 2.09c0.54 0.72 1.29 1.82 1.66 2.45 1.31 2.21 2.72 4.32 2.95 4.42 0.13 0.05 0.24 0.21 0.24 0.35 0 0.13 0.39 0.93 0.87 1.77 1.03 1.8 0.03 0.81-1.37-1.35-0.41-0.64-1.41-2.19-2.23-3.46-0.83-1.27-1.68-2.65-1.91-3.06-0.22-0.42-0.65-1.19-0.94-1.73-0.65-1.17-0.54-1.08 0.73 0.61zm99.9 7.88c0 0.1-1.28 1.81-1.97 2.66-0.15 0.17-0.59 0.82-1 1.44-1.07 1.66-2.14 2.88-2.33 2.69-0.09-0.09 0.45-0.95 1.2-1.91 0.75-0.95 1.93-2.47 2.61-3.36 1.11-1.45 1.49-1.84 1.49-1.52zm-92.43 3.7q0.34 0.62 0 0.4c-0.17-0.11-0.46-0.47-0.63-0.79q-0.34-0.63-0.01-0.4c0.18 0.1 0.46 0.46 0.64 0.79zm4.2 5.06c3.3 3.86 6.56 7.24 9.13 9.45 1.08 0.94 2.12 1.84 2.3 2 0.75 0.68 5.66 4.15 7.65 5.41 2.45 1.55 2.41 1.79-0.05 0.39-5.88-3.31-14.61-11.1-20.33-18.12-2.72-3.35-1.73-2.68 1.3 0.87zm81.65-0.29c-0.15 0.28-0.64 0.83-1.08 1.22-0.66 0.6-0.63 0.52 0.19-0.5 1.07-1.31 1.31-1.51 0.89-0.72zm-2.94 3.44c-0.39 0.43-0.83 0.94-0.99 1.13-0.94 1.15-3.76 3.85-4.01 3.85-0.17 0 0.99-1.29 2.57-2.88 2.73-2.74 3.93-3.78 2.43-2.1zm-6.16 6.28c-1.45 1.3-1.71 1.3-0.45 0 0.54-0.55 1.12-1.01 1.28-1.01 0.17 0-0.2 0.46-0.83 1.01zm-3.9 3.33c-2.83 2.42-10.2 6.9-11.36 6.9-0.44 0 0.86-0.85 2.68-1.75 0.89-0.44 3.37-1.97 5.51-3.4 4.17-2.79 4.75-3.11 3.17-1.75zm-12.25 7.25c-1.52 0.9-9.36 3.13-10.76 3.07-0.59-0.03-0.63-0.06-0.18-0.16 3.76-0.85 6.77-1.67 8.65-2.36q3.69-1.36 2.29-0.55zm-20.74 2.8l1.16 0.24h-1.01c-0.56 0-1.33-0.1-1.73-0.22-1.01-0.33 0.05-0.34 1.58-0.02z"/>
		<path id="path1" fill-rule="evenodd" class="s1" d="m130.13 189.62c-0.4 0.07-1.93 0.34-3.42 0.59l-2.69 0.46 0.19 1.48c2.46 19.07 18.59 29.3 40.25 25.53 2.65-0.47 2.68-0.5 2.25-2.34-3.83-16.31-14.74-25.34-31.11-25.73-2.61-0.07-5.07-0.06-5.47 0.01zm128.7 0.26c-13.82 2.25-24.34 12.58-26.3 25.84l-0.2 1.35 1.11 0.29c13.64 3.55 28.29-0.51 35.14-9.74 3.44-4.64 6.73-12.71 6.73-16.53 0-1.17-11.52-2.02-16.48-1.21zm-65.91 105.59c-13.89 1.7-19.77 6.63-18.68 15.67 1.83 15.25 17.69 27.09 31.15 23.26 14.99-4.27 25.46-25.51 16.47-33.42-4.97-4.38-17.96-6.85-28.94-5.51z"/>
		<path id="path2" fill-rule="evenodd" class="s2" d="m134.59 189.27c1.43 0 2.05 0.04 1.38 0.11-0.67 0.06-1.83 0.06-2.59 0-0.76-0.06-0.21-0.11 1.21-0.11zm130.49 0c1.58 0 2.27 0.05 1.52 0.11-0.75 0.06-2.04 0.06-2.88 0-0.84-0.06-0.22-0.11 1.36-0.11zm-4.75 0.25c0.55 0 0.78 0.06 0.5 0.13-0.28 0.07-0.73 0.07-1.01 0-0.27-0.07-0.05-0.13 0.51-0.13zm-16.71 6.64c0 0.04-0.87 0.92-1.94 1.94l-1.95 1.87 1.87-1.95c1.73-1.8 2.02-2.07 2.02-1.86zm-86.96 0.78c0.08 0 0.59 0.46 1.12 1.01 0.54 0.56 0.91 1.01 0.84 1.01-0.08 0-0.59-0.45-1.13-1.01-0.53-0.55-0.91-1.01-0.83-1.01zm78.53 10.2c0.07 0.07-0.08 0.49-0.32 0.94-0.52 0.96-0.62 0.74-0.13-0.32 0.18-0.41 0.39-0.68 0.45-0.62zm28.56 5.37c0.28-0.03-0.71 0.92-1.24 1.18-0.36 0.18-0.25 0 0.27-0.44 0.47-0.4 0.91-0.74 0.97-0.74zm-24.16 5.81c0.55 0 0.78 0.06 0.5 0.14-0.28 0.07-0.73 0.07-1.01 0-0.27-0.08-0.05-0.14 0.51-0.14zm8.06 0c0.56 0 0.78 0.06 0.51 0.14-0.28 0.07-0.73 0.07-1.01 0-0.28-0.08-0.05-0.14 0.5-0.14zm-47.38 76.67c1.9 0 2.72 0.04 1.81 0.1-0.9 0.06-2.46 0.06-3.46 0-0.99-0.05-0.25-0.1 1.65-0.1zm-6.19 0.24c0.55 0 0.78 0.06 0.5 0.13-0.28 0.08-0.73 0.08-1.01 0-0.27-0.07-0.05-0.13 0.51-0.13zm-15.87 4.83c0.08 0-0.43 0.59-1.13 1.3-0.7 0.71-1.34 1.3-1.41 1.3-0.08 0 0.42-0.59 1.12-1.3 0.7-0.71 1.34-1.3 1.42-1.3zm-4.1 9.87c0.07 0.28 0.07 0.73 0 1.01-0.07 0.27-0.13 0.05-0.13-0.51 0-0.55 0.06-0.78 0.13-0.5zm6.73 15.77c0.08 0 0.92 0.78 1.86 1.73 0.94 0.95 1.64 1.73 1.56 1.73-0.07 0-0.91-0.78-1.85-1.73-0.94-0.95-1.65-1.73-1.57-1.73zm36.48 1.15c0.22 0 0.01 0.25-0.99 1.17l-1.08 0.99 0.99-1.08c0.55-0.59 1.03-1.08 1.08-1.08z"/>
		<path id="path3" fill-rule="evenodd" class="s3" d="m88.36 41.84c2.01 0.5 2.76 0.5 1.44-0.01-0.55-0.21-1.46-0.39-2.01-0.39-0.88 0.01-0.8 0.06 0.57 0.4zm221.13-0.02c-0.61 0.21-1.19 0.49-1.3 0.6-0.1 0.12 0.07 0.13 0.38 0.01 5.46-1.97 10.16-0.38 13.9 4.71 0.52 0.7 0.94 1.11 0.94 0.9 0-1.03-3.69-4.73-5.89-5.9-1.63-0.87-6.01-1.04-8.03-0.32zm-227.46 0.14c-0.7 0.45-0.21 0.53 0.72 0.13 0.65-0.29 0.72-0.38 0.28-0.39-0.31 0-0.76 0.11-1 0.26zm10.65 1.45c0.4 0.31 0.86 0.57 1.03 0.57 0.16 0.01 1.2 0.6 2.3 1.33 1.1 0.72 2.65 1.71 3.44 2.2 0.79 0.48 1.77 1.08 2.16 1.33 1.44 0.88 0.09-0.2-2.16-1.74-3.75-2.56-8.96-5.4-6.77-3.69zm212.44 0.39c-2.21 1.2-5.91 3.58-5.91 3.81 0 0.1 0.42-0.08 0.94-0.39 0.51-0.31 2.35-1.43 4.08-2.47 3.32-2.02 3.8-2.53 0.89-0.95zm-226.51 0.81c-0.81 0.81-1.48 1.57-1.48 1.69 0 0.11 0.71-0.51 1.58-1.39 0.87-0.88 1.59-1.64 1.59-1.69 0-0.24-0.32 0.01-1.69 1.39zm-2.81 3.48c-0.99 1.69-1.06 1.83-0.55 1.23 0.58-0.7 1.09-1.59 0.9-1.59-0.08 0-0.23 0.17-0.35 0.36zm220.1 1.8c-5.37 3.95-11.09 8.59-9.22 7.48 1.3-0.76 1.66-1.03 3.2-2.34 2.99-2.54 8.26-6.6 8.85-6.81 0.19-0.06 0.27-0.19 0.19-0.28-0.08-0.09-1.44 0.79-3.02 1.95zm-191.69 0.86c0 0.08 1.26 1.14 2.8 2.37 1.55 1.22 2.88 2.3 2.96 2.39 0.08 0.1 0.58 0.48 1.11 0.85 0.53 0.37 1.24 0.92 1.58 1.22 0.34 0.3 1.28 1.1 2.09 1.76 0.82 0.67 2.18 1.81 3.03 2.55 3.69 3.17 5.8 4.86 6.08 4.86 0.16 0-0.24-0.47-0.89-1.04-0.65-0.58-1.12-1.15-1.04-1.28 0.08-0.13-0.01-0.33-0.19-0.45q-0.34-0.2-0.11 0.17c0.48 0.77-0.52 0.04-5.04-3.71-5.48-4.55-5.53-4.6-5.29-5q0.17-0.28-0.15-0.09c-0.38 0.24-1.26-0.35-1.04-0.7 0.08-0.12-0.09-0.4-0.36-0.62-0.46-0.35-0.47-0.34-0.11 0.11 0.61 0.78 0.1 0.6-1.15-0.38-0.61-0.49-1.05-1-0.97-1.13 0.08-0.14 0-0.34-0.19-0.46q-0.32-0.19-0.13 0.13c0.38 0.61-0.19 0.34-1.43-0.68-1.17-0.96-1.56-1.18-1.56-0.87zm221.12 1.23c0.62 1.51 0.99 2.16 1.12 2.02 0.14-0.13-1.24-3.1-1.44-3.1-0.07 0 0.07 0.49 0.32 1.08zm-252.55 1.73c-0.48 1.07-0.94 2.33-1.02 2.81-0.11 0.73 0.37-0.31 1.92-4.1 0.62-1.53-0.11-0.48-0.9 1.29zm254.94 4.09c0.43 1.49 0.76 1.91 0.95 1.2 0.09-0.33 0.05-0.54-0.08-0.46-0.12 0.07-0.36-0.25-0.53-0.72-0.39-1.12-0.65-1.13-0.34-0.02zm-43.24 1.1c-0.55 0.43-2.35 1.95-4 3.36-1.66 1.42-3.07 2.62-3.13 2.67-0.07 0.05-0.06 0.15 0.02 0.23 0.15 0.15 2.32-1.61 5.07-4.1 0.83-0.75 1.93-1.72 2.44-2.16 1.23-1.02 0.88-1.03-0.4 0zm44.27 1.94c0.1 0.32 0.35 1.33 0.56 2.26q0.78 3.29 0.65 0.55c-0.04-0.8-0.12-1.41-0.19-1.34-0.07 0.06-0.36-0.37-0.65-0.97-0.3-0.59-0.46-0.82-0.37-0.5zm-259.14 2.09c-0.36 0.92-0.7 2.87-0.47 2.66 0.21-0.19 1.06-3.45 0.9-3.45-0.07 0-0.26 0.35-0.43 0.79zm54.91 4.63c1.23 1.14 5.55 4.89 7.05 6.13 2.27 1.87 2.71 2.02 0.86 0.29-2.44-2.3-7.96-6.95-8.23-6.95-0.14 0 0.01 0.24 0.32 0.53zm206.26 2.07c0.09 1.18 0.34 3.21 0.56 4.51 0.82 4.83 0.82 21.92 0 26.91-0.06 0.38-0.26 1.92-0.44 3.43-0.17 1.5-0.38 3.14-0.46 3.62q-0.14 0.9 0.23 0.89c0.24 0 0.38-0.41 0.38-1.17 0.01-0.65 0.18-2.48 0.38-4.06 0.2-1.58 0.43-3.66 0.53-4.61 0.09-0.95 0.31-1.91 0.48-2.13 0.5-0.61 0.44-17.06-0.06-18.79-0.21-0.73-0.4-2.32-0.43-3.52-0.02-1.21-0.13-2.2-0.23-2.2-0.1 0-0.28-0.79-0.39-1.75-0.33-2.79-0.73-3.63-0.55-1.13zm-59.13 0.17c-0.82 0.7-1.66 1.25-1.87 1.2-0.21-0.04-0.35 0.08-0.31 0.27 0.03 0.19-1.22 1.48-2.79 2.88-1.57 1.39-2.79 2.59-2.72 2.67 0.08 0.07 0.23 0.01 0.34-0.15 0.11-0.15 1.11-1.05 2.22-2 1.11-0.95 2.08-1.79 2.16-1.88 0.08-0.09 0.53-0.45 1-0.81 1.21-0.94 3.66-3.26 3.55-3.37-0.05-0.05-0.76 0.48-1.58 1.19zm-203.61 0.25c-0.11 0.73-0.13 1.4-0.04 1.49 0.09 0.08 0.25-0.45 0.36-1.18 0.11-0.74 0.13-1.41 0.04-1.49-0.09-0.09-0.25 0.44-0.36 1.18zm-1.09 10.85c-0.26 3.62-0.24 12.35 0.03 12.34 0.11 0 0.24-3.37 0.27-7.49 0.06-7.99-0.01-9.05-0.3-4.85zm72.01-0.76c0.09 0.24 0.25 0.43 0.36 0.43 0.12 0 0.46 0.23 0.77 0.51 0.3 0.28 1.4 1.21 2.43 2.08 1.03 0.87 2.59 2.23 3.48 3.02 0.88 0.8 2.05 1.82 2.59 2.26 1.15 0.95 4.28 2.61 4.51 2.38 0.08-0.08-0.19-0.28-0.61-0.44-2.14-0.81-11.2-8.16-10.97-8.89 0.07-0.2-0.01-0.29-0.17-0.19-0.16 0.1-0.75-0.22-1.3-0.71-1.14-0.99-1.33-1.07-1.09-0.45zm119.21 1.34c-1.92 1.63-2.82 2.77-1.37 1.73 1.33-0.94 3.71-3.19 3.38-3.19-0.16 0-1.06 0.66-2.01 1.46zm-68.68 3.59c-4.28 0.39-7.19 0.89-5.5 0.95 0.4 0.01 1.5-0.11 2.45-0.26 0.95-0.16 3.16-0.37 4.9-0.46 1.74-0.1 3.95-0.28 4.9-0.4l1.73-0.22-2.02-0.01c-1.11 0-4.02 0.18-6.46 0.4zm18.27 0.14c1.11 0.14 2.99 0.38 4.17 0.54 2.44 0.34 4.22 0.39 3.95 0.11-0.28-0.28-6.44-0.95-8.41-0.92l-1.73 0.03zm11.96 1.58c1.03 0.23 2.9 0.61 4.16 0.84 1.26 0.23 2.68 0.55 3.17 0.7 1.55 0.51 7.36 1.69 7.22 1.47-0.07-0.11-0.88-0.38-1.79-0.58-0.92-0.21-2.45-0.57-3.4-0.8-3.41-0.84-9.76-2.09-10.49-2.07-0.41 0.01 0.1 0.21 1.13 0.44zm-42.71 0.18c-1.84 0.38-1.75 0.79 0.1 0.45 1.92-0.35 3.06-0.78 1.99-0.75-0.39 0.01-1.33 0.14-2.09 0.3zm-5.54 1.24c-2.41 0.64-2.48 0.68-1.01 0.56 1.7-0.15 5.54-1.26 4.32-1.26-0.4 0.01-1.89 0.32-3.31 0.7zm77.43 0.85c0.03 0.16-0.17 0.27-0.45 0.25-0.27-0.02-0.43 0.07-0.35 0.2 0.2 0.32-0.93 0.65-1.38 0.39q-0.31-0.17-0.13 0.04c0.12 0.13-0.08 0.41-0.44 0.61-0.95 0.53-0.04 0.48 1.42-0.09 0.68-0.25 1.24-0.58 1.24-0.72 0-0.13 0.18-0.24 0.4-0.24 0.21 0 0.54-0.19 0.73-0.41 0.27-0.32 0.2-0.39-0.38-0.36-0.38 0.03-0.68 0.17-0.66 0.33zm-13.73 0.99c0.38 0.33 2.37 0.83 4.13 1.05 1.67 0.21 1.94-0.02 0.36-0.3-0.5-0.08-1.77-0.34-2.82-0.56-1.05-0.22-1.8-0.3-1.67-0.19zm-73.93 0.47l-1.29 0.39 1.44-0.17c0.79-0.1 1.7-0.28 2.01-0.4 1.02-0.41-0.68-0.27-2.16 0.18zm-94.26 3.22c-0.05 0.12-0.01 0.74 0.09 1.37l0.19 1.15 0.04-1.36q0.05-1.92-0.32-1.16zm265.28 2.02c-0.07 0.44-0.12 0.08-0.12-0.79 0-0.87 0.05-1.23 0.12-0.79 0.07 0.43 0.07 1.14 0 1.58zm-264.43 7.56c0.1 1.51 0.19 3.28 0.21 3.94 0.01 0.65 0.11 1.14 0.21 1.07 0.11-0.07 0.27 0.11 0.35 0.39 0.24 0.77-0.28-4.06-0.71-6.69q-0.24-1.43-0.06 1.29zm1.21 9c-0.08 0.6-0.06 1.08 0.04 1.08 0.11 0 0.33 0.42 0.49 0.94 0.42 1.31 0.39 0.13-0.04-1.66l-0.35-1.44zm260.29 2.69c-0.1 0.56-0.27 1.24-0.36 1.51q-0.17 0.49 0.13 0.2c0.31-0.3 0.81-2.74 0.56-2.74-0.07 0-0.22 0.46-0.33 1.03zm-259.05 2.57c0.01 0.32 0.11 0.97 0.23 1.44 0.2 0.78 0.22 0.79 0.23 0.14 0-0.39-0.1-1.04-0.23-1.44-0.18-0.56-0.23-0.59-0.23-0.14zm257.64 3.61c-0.85 3.57-0.88 3.73-0.47 3.73 0.16 0 0.29-0.35 0.29-0.79 0-0.43 0.2-1.18 0.46-1.65 0.35-0.67 0.8-4.47 0.53-4.47-0.03 0-0.4 1.43-0.81 3.18zm-256.16 3.78c0.02 0.89 0.14 1.56 0.26 1.49 0.12-0.07 0.23 0.01 0.25 0.18 0.02 0.16 0.06 0.4 0.09 0.52 0.03 0.12 0.15 0.67 0.27 1.22 0.62 2.92 0.84 3.77 0.95 3.65 0.18-0.18-0.44-3.83-0.91-5.38-0.22-0.71-0.52-1.75-0.68-2.3-0.26-0.94-0.28-0.9-0.23 0.62zm254.86 2.04c-0.52 2-0.74 3.86-0.33 2.81 0.46-1.18 1.12-4.32 0.91-4.32-0.1 0-0.37 0.68-0.58 1.51zm-1.3 5.73c-0.24 1.2 0 1.43 0.25 0.25 0.11-0.5 0.14-0.97 0.07-1.04-0.07-0.07-0.22 0.28-0.32 0.79zm-0.96 3.78c-0.32 0.93-0.63 2.27-0.8 3.48-0.05 0.34-0.19 1.24-0.3 1.99-0.13 0.84-0.1 1.37 0.07 1.37 0.15 0 0.28-0.16 0.29-0.36 0.05-1.37 0.48-3.88 0.72-4.18 0.24-0.29 0.6-3.24 0.4-3.24-0.03 0-0.2 0.42-0.38 0.94zm-249.51 0.42c-0.04 0.62 0.61 3.39 0.86 3.65 0.13 0.15 0.05-0.57-0.18-1.58-0.48-2.07-0.64-2.58-0.68-2.07zm0.95 6.56c0 1.43 0.04 2.05 0.11 1.38 0.06-0.67 0.06-1.83 0-2.59-0.06-0.76-0.11-0.21-0.11 1.21zm247.61 1.89c0 0.65 0.11 1.11 0.24 1.03 0.22-0.14 0.11-2.2-0.12-2.2-0.07 0-0.12 0.53-0.12 1.17zm0.6 2.35c0.05 0.94 0.45 1.54 0.61 0.92 0.08-0.31-0.03-0.73-0.24-0.93-0.31-0.29-0.39-0.29-0.37 0.01zm-249.56 2.03l-0.47 1.22 0.57-0.68c0.48-0.57 0.8-1.77 0.47-1.77-0.06 0-0.31 0.56-0.57 1.23zm253.28 6.16c0 0.15 0.41 0.91 0.9 1.69 0.49 0.78 1 1.68 1.13 2q0.24 0.57 0.26 0.16c0.01-0.24-0.45-1.21-1.02-2.16-1.18-1.96-1.27-2.08-1.27-1.69zm-258.38 3.36c-0.63 0.96-1.16 2.26-0.84 2.06 0.33-0.2 1.51-2.44 1.36-2.59-0.06-0.06-0.29 0.18-0.52 0.53zm271.64 20.96c-0.01 0.88 0.74 1.61 0.93 0.89 0.09-0.34 0.05-0.55-0.08-0.47-0.13 0.08-0.38-0.08-0.54-0.36-0.24-0.42-0.3-0.43-0.31-0.06zm0.86 1.95c0 0.21 0.26 0.72 0.58 1.12 0.74 0.95 0.74 0.48 0-0.64-0.32-0.48-0.58-0.69-0.58-0.48zm-209.63 6.88c0.91 0.06 2.41 0.06 3.32 0 0.91-0.05 0.16-0.1-1.66-0.1-1.82 0-2.57 0.05-1.66 0.1zm131.36 0c0.92 0.06 2.35 0.06 3.17 0 0.83-0.05 0.08-0.1-1.66-0.1-1.75 0-2.42 0.05-1.51 0.1zm5.25 0.08c0.32 0.14 0.77 0.25 1.01 0.25q0.4-0.01-0.15-0.25c-0.31-0.14-0.77-0.25-1-0.25q-0.41 0.01 0.14 0.25zm-144.31 1.01l-0.87 0.41 0.87-0.18c0.47-0.1 1.19-0.28 1.58-0.4l0.72-0.22-0.72-0.01c-0.39 0-1.11 0.17-1.58 0.4zm149.64-0.15c-0.44 0.14-0.53 0.25-0.24 0.26 0.26 0.02 0.65 0.08 0.86 0.13q0.33 0.08 0.17-0.03c-0.12-0.06-0.15-0.24-0.06-0.38 0.09-0.15 0.13-0.25 0.08-0.24-0.05 0.02-0.42 0.14-0.81 0.26zm-19.88 0.29c-0.57 0.18-0.6 0.23-0.14 0.23 0.32 0 0.9-0.1 1.3-0.23 0.57-0.18 0.6-0.23 0.14-0.23-0.32 0-0.9 0.1-1.3 0.23zm-106.9 1.04c1.02 0.39 1.89 0.66 1.95 0.6 0.15-0.14-3-1.36-3.45-1.33-0.18 0.01 0.49 0.34 1.5 0.73zm104.46-0.19c-0.64 0.3-1.03 0.55-0.87 0.55 0.39 0 2.67-1.06 2.31-1.08-0.16-0.01-0.81 0.23-1.44 0.53zm-127.97 2.54c0 0.67 0.11 1.22 0.25 1.22 0.3 0 0.29-0.71-0.02-1.73-0.19-0.59-0.23-0.5-0.23 0.51zm27.87-0.38c0 0.08 0.39 0.35 0.86 0.59 0.48 0.25 0.87 0.38 0.87 0.31 0-0.08-0.39-0.35-0.87-0.6-0.47-0.24-0.86-0.38-0.86-0.3zm93.69 1.02c-0.52 0.32-0.94 0.63-0.94 0.71 0 0.08 0.45-0.13 1.01-0.46 0.55-0.32 1.01-0.64 1.01-0.71 0-0.18-0.1-0.14-1.08 0.46zm29.53 0.15c-0.1 0.47-0.26 1.12-0.35 1.44-0.1 0.32 0.03 0.14 0.28-0.4 0.25-0.53 0.41-1.18 0.35-1.44-0.06-0.27-0.18-0.1-0.28 0.4zm-33.37 2.95l-0.7 0.79 0.86-0.72c0.48-0.39 0.92-0.75 0.99-0.79q0.08-0.06-0.17-0.07c-0.16 0-0.6 0.36-0.98 0.79zm-83.68 0.5c0.53 0.56 1.04 1.01 1.14 1.01 0.11 0-0.22-0.45-0.73-1.01-0.5-0.55-1.01-1-1.14-1-0.12 0 0.21 0.45 0.73 1zm2.32 2.67c0.55 0.75 1.28 1.69 1.62 2.09l0.62 0.72-0.47-0.72c-1.47-2.23-2.36-3.45-2.56-3.45-0.11-0.01 0.24 0.61 0.79 1.36zm78.35 0c-0.88 1.1-1.64 2.38-1.42 2.38 0.07 0 0.43-0.49 0.81-1.08 0.38-0.6 0.98-1.38 1.31-1.73 0.35-0.36 0.52-0.65 0.4-0.65-0.13 0-0.62 0.48-1.1 1.08zm-111.46 2.38c0.23 0.86 0.99 2.11 1.17 1.93 0.07-0.07-0.21-0.69-0.62-1.39-0.45-0.77-0.67-0.99-0.55-0.54zm37.61 5.32c0.01 0.16 0.24 0.81 0.53 1.44l0.51 1.16-0.03-0.91c-0.02-0.5-0.09-0.86-0.16-0.79-0.07 0.07-0.29-0.16-0.49-0.53-0.2-0.36-0.36-0.52-0.36-0.37zm-32.99 1.36c1.21 1.32 1.36 1.46 2.15 2.09 0.39 0.31-0.06-0.24-1.01-1.22-1.77-1.84-2.66-2.52-1.14-0.87zm3.87 3.54c0.53 0.4 1.05 0.72 1.13 0.72 0.28 0-1.55-1.42-1.84-1.43-0.15 0 0.17 0.32 0.71 0.71zm31.13 1.3c-0.01 0.24 0.11 0.89 0.27 1.44 0.24 0.83 0.2 1.07-0.2 1.37-0.54 0.39-0.17 0.49 0.43 0.11 0.31-0.2 0.3-0.52-0.05-1.8-0.23-0.85-0.43-1.36-0.45-1.12zm93.16 0.87c-0.79 0.47-1.32 0.85-1.18 0.85 0.32 0.01 2.76-1.4 2.76-1.59 0-0.19 0.01-0.19-1.58 0.74zm-119.4 0.71c0.4 0.23 0.85 0.41 1.01 0.41 0.16 0-0.03-0.18-0.43-0.41-0.39-0.22-0.85-0.41-1.01-0.41-0.16 0 0.04 0.19 0.43 0.41zm91.35 0.78c-0.04 0.59 0.81 1.1 1.75 1.07 0.71-0.02 0.55-0.11-0.68-0.38-0.43-0.1-0.83-0.4-0.91-0.68-0.12-0.46-0.13-0.46-0.16-0.01zm-86.02 1.09c0.32 0.14 0.84 0.25 1.16 0.24 0.46 0 0.43-0.05-0.15-0.24-0.98-0.31-1.74-0.31-1.01 0zm106.72 0c-0.57 0.19-0.6 0.24-0.14 0.24 0.32 0.01 0.84-0.1 1.15-0.24 0.74-0.31-0.02-0.31-1.01 0zm-90.73 0.59c-0.31 0.22-0.2 0.24 0.43 0.1 1.06-0.23 1.29-0.4 0.55-0.39-0.3 0-0.74 0.13-0.98 0.29zm86.85-0.01l-1.44 0.2 1.29 0.01c0.72 0.01 1.62-0.08 2.02-0.21 0.9-0.29 0.22-0.29-1.87 0zm-89.24 0.18c-0.09 0.09-1.76 0.15-3.71 0.13-1.94-0.03-3.47 0.01-3.39 0.09 0.25 0.25 6.74 0.32 7.11 0.08 0.21-0.13 0.36-0.09 0.36 0.08 0 0.17 0.14 0.3 0.31 0.3 0.17 0 0.22-0.12 0.13-0.28-0.1-0.16 0.01-0.21 0.24-0.13 0.23 0.09 0.5 0.03 0.61-0.14 0.2-0.33-1.34-0.45-1.66-0.13zm78.22 0.02c0.28 0.07 0.73 0.07 1.01 0 0.27-0.07 0.05-0.13-0.51-0.13-0.55 0-0.78 0.06-0.5 0.13zm2.01 0.25c0.22 0.22 7.13 0.23 7.35 0.01 0.09-0.09-1.56-0.17-3.67-0.17-2.12 0-3.77 0.07-3.68 0.16zm-195.49 28.14c0.1 0.36 0.31 0.77 0.46 0.93 0.14 0.15 0.11-0.14-0.07-0.65-0.36-1.05-0.7-1.28-0.39-0.28zm310.14 1c-0.2 0.07-0.3 0.23-0.23 0.35 0.07 0.12-0.18 0.65-0.57 1.18-0.75 1.01-0.98 1.74-0.34 1.09 0.51-0.53 1.73-2.55 1.6-2.66-0.06-0.05-0.27-0.03-0.46 0.04zm-299.93 7.29c0 0.22 0.71 0.57 1.17 0.57 0.59 0 0.22-0.52-0.45-0.65-0.4-0.08-0.72-0.04-0.72 0.08zm14.03 4.63c0.34 0.34 3.6 1.44 3.77 1.27 0.15-0.15 0.16-0.14-2.34-0.96-0.92-0.3-1.56-0.44-1.43-0.31zm247.23 5.73c-0.39 0.25-0.39 0.28 0 0.28 0.23 0 0.62-0.13 0.86-0.28 0.39-0.25 0.39-0.28 0-0.28-0.24 0-0.63 0.13-0.86 0.28zm-2.44 1.09q-0.18 0.43 0.3 0.24c0.25-0.1 0.51-0.18 0.58-0.18 0.06 0 0.12-0.11 0.12-0.24 0-0.41-0.83-0.26-1 0.18zm-23.34 13.47c-0.48 0.21-0.74 0.4-0.58 0.41 0.16 0.01 0.1 0.14-0.13 0.28-0.24 0.15-0.37 0.34-0.29 0.41 0.07 0.08 0.65-0.24 1.27-0.7q1.81-1.36-0.27-0.4zm-168.8 10.19c0.32 0.38 1.13 1.21 1.8 1.83 1.13 1.05 1.68 1.96 0.89 1.48q-0.31-0.19-0.12 0.13c0.11 0.18 0.33 0.26 0.47 0.17 0.15-0.09 0.6 0.17 1.01 0.57 1.02 1.03 1.19 0.92 0.29-0.2-1.31-1.63-2.97-3.25-4.34-4.25l-0.57-0.42zm75.39 4.26c0.44 0.07 1.15 0.07 1.59 0 0.43-0.07 0.08-0.12-0.8-0.12-0.87 0-1.22 0.05-0.79 0.12zm4.27-0.1c0.07 0.06 1.49 0.17 3.15 0.26 1.97 0.1 2.62 0.07 1.87-0.09-1.13-0.24-5.25-0.38-5.02-0.17zm-7.29 0.39c0.36 0.06 0.88 0.06 1.15-0.01 0.28-0.07-0.01-0.13-0.65-0.13-0.63 0.01-0.86 0.07-0.5 0.14zm75.65 4.65c0.09 0.13-0.1 0.51-0.41 0.85-0.6 0.65-0.8 1.27-0.22 0.69 0.44-0.44 0.9-0.45 0.63-0.02q-0.19 0.32 0.15 0.12c0.19-0.12 0.29-0.28 0.21-0.36-0.08-0.08-0.03-0.46 0.11-0.84 0.21-0.54 0.17-0.69-0.17-0.69-0.25 0-0.38 0.11-0.3 0.25zm-92.44 1.26l-1.14 1.23 1.22-1.14c1.14-1.06 1.36-1.31 1.14-1.31-0.05 0-0.6 0.55-1.22 1.22zm-45.93-0.09c0 0.24 0.62 1.06 1.72 2.29 0.88 0.96 1.46 2.08 1.27 2.39q-0.17 0.3 0.11 0.13c0.19-0.11 0.78 0.47 1.42 1.39 1.28 1.85 1.9 2.16 0.74 0.37-1.8-2.79-5.26-7.11-5.26-6.57zm135.9 2.25c-0.66 0.77-0.87 1.23-0.57 1.23 0.31 0 1.31-1.43 1.12-1.61-0.06-0.07-0.31 0.1-0.55 0.38zm-92.85 3.75c-0.1 0.59-0.25 1.34-0.32 1.65q-0.16 0.66 0.13 0.15c0.3-0.48 0.71-2.88 0.5-2.88-0.07 0-0.21 0.48-0.31 1.08zm51.8 2.23c0 0.79 0.05 1.08 0.12 0.64 0.07-0.43 0.06-1.08-0.01-1.44-0.06-0.35-0.12 0.01-0.11 0.8zm-88.1 0.94c0.26 0.51 0.52 0.93 0.6 0.93 0.28 0 0.1-0.46-0.47-1.15l-0.58-0.72zm122.86 1.94c-0.19 0.24-0.49 0.35-0.65 0.25-0.16-0.1-0.23 0-0.15 0.22 0.08 0.22 0.01 0.66-0.15 0.97-0.48 0.93 0.41 0.09 1.04-0.98 0.55-0.94 0.51-1.17-0.09-0.46zm-86.39 1.04c0.01 0.38 0.13 0.95 0.28 1.27q0.27 0.61 0.08-0.58c-0.2-1.33-0.39-1.7-0.36-0.69zm-34.01 0.72c0.16 0.41 0.2 0.88 0.1 1.05q-0.15 0.27 0.11 0.12c0.38-0.23 0.96 0.45 1.01 1.21 0.03 0.32 0.18 0.55 0.34 0.53 0.16-0.03 0.34 0.24 0.39 0.59 0.06 0.36 0.21 0.65 0.35 0.65 0.14 0 0.67 0.58 1.18 1.3 0.51 0.71 0.97 1.25 1.02 1.2 0.17-0.16-1.66-3.69-2.18-4.21-0.28-0.28-0.92-1.11-1.43-1.85-1.04-1.51-1.3-1.68-0.89-0.59zm118.14 1.68c-1.06 1.58-1.56 2.47-1.36 2.47 0.24 0 2.53-3.49 2.38-3.64-0.08-0.08-0.54 0.45-1.02 1.17zm-34.28 1.88c-0.16 0.48-0.24 0.88-0.16 0.88 0.19 0 0.73-1.5 0.59-1.64-0.07-0.07-0.26 0.28-0.43 0.76zm28.39 7.14c-1.04 1.55-2.02 3.16-2.18 3.58-0.16 0.42-0.43 0.84-0.6 0.95-0.17 0.1-0.3 0.41-0.3 0.67 0 0.27 0.33-0.06 0.74-0.74 0.4-0.67 0.85-1.15 1-1.06 0.15 0.09 0.2-0.01 0.13-0.21-0.2-0.54 2.11-4.04 2.5-3.8q0.3 0.17 0.12-0.13c-0.11-0.17 0-0.71 0.25-1.19 0.8-1.55 0.28-0.94-1.66 1.93zm-105.45-0.25c0.3 0.54 0.72 1.31 0.95 1.73 0.22 0.41 1.08 1.79 1.9 3.06 0.82 1.27 1.83 2.82 2.23 3.46 1.4 2.16 2.4 3.15 1.37 1.35-0.48-0.84-0.87-1.64-0.87-1.77 0-0.14-0.1-0.3-0.23-0.35-0.23-0.1-1.65-2.21-2.96-4.42-0.6-1.01-2.37-3.49-2.78-3.89-0.08-0.08 0.09 0.3 0.39 0.83zm33.38 1.19c0.62 0.63 1.19 1.15 1.27 1.15 0.08 0-0.37-0.52-0.98-1.15-0.62-0.64-1.19-1.15-1.27-1.15-0.08 0 0.36 0.51 0.98 1.15zm35 4.08c-1.11 1.02-1.24 1.2-0.44 0.6 1.07-0.81 2.4-2.11 2.14-2.08-0.07 0.01-0.83 0.68-1.7 1.48zm30.76 4.74c-0.68 0.89-1.86 2.41-2.61 3.36-0.75 0.96-1.29 1.82-1.2 1.91 0.1 0.09 0.56-0.32 1.04-0.91 0.48-0.6 1-1 1.17-0.89q0.28 0.16 0.09-0.16c-0.18-0.3 0.26-1.23 1.04-2.19 0.72-0.87 1.97-2.55 1.97-2.64 0-0.32-0.39 0.07-1.5 1.52zm-91.57 1.79c0.18 0.32 0.46 0.68 0.63 0.79q0.34 0.22 0-0.4c-0.17-0.33-0.46-0.69-0.63-0.79q-0.34-0.23 0 0.4zm44.61-0.32c0.68 0.06 1.71 0.06 2.3 0 0.6-0.06 0.04-0.11-1.23-0.11-1.26 0-1.75 0.05-1.07 0.11zm-41.07 4.9c3.36 4.14 8.89 9.62 13.52 13.42 2.52 2.08 7.99 5.61 8.73 5.65 0.14 0.01-0.7-0.59-1.88-1.34-1.98-1.26-6.9-4.73-7.65-5.41-0.18-0.16-1.21-1.06-2.3-2-2.57-2.21-5.83-5.59-9.12-9.45-3.03-3.55-4.03-4.22-1.3-0.87zm82.06 1.3c-0.82 1.02-0.86 1.1-0.19 0.5 0.69-0.62 1.5-1.73 1.26-1.72-0.05 0-0.53 0.55-1.07 1.22zm-4.49 4.82c-1.58 1.59-2.73 2.88-2.57 2.88 0.17 0 0.68-0.38 1.13-0.86 0.89-0.93 1.63-1.2 0.98-0.36-0.32 0.41-0.27 0.4 0.25-0.04 0.66-0.57 0.87-0.93 0.36-0.61-0.6 0.37-0.25-0.32 0.65-1.31 3.28-3.59 2.96-3.46-0.8 0.3zm-4.17 4.18c-1.26 1.3-1.01 1.3 0.45 0 0.62-0.55 0.99-1.01 0.83-1.01-0.17 0-0.75 0.46-1.28 1.01zm-6.63 5.08c-2.14 1.43-4.62 2.96-5.51 3.4-0.88 0.44-1.92 1.01-2.29 1.27-1.32 0.93-0.05 0.46 2.96-1.09 1.67-0.87 3.12-1.52 3.22-1.44q0.15 0.1 0.05-0.06c-0.23-0.31 2.99-2.45 3.34-2.23q0.31 0.17 0.15-0.11c-0.11-0.17 0.36-0.77 1.03-1.33 1.84-1.54 1.32-1.26-2.95 1.59zm-43.96 3.94c0.08 0.12 0.79 0.53 1.59 0.9 0.8 0.38 1.37 0.81 1.27 0.97q-0.14 0.25 0.16 0.08c0.18-0.11 0.53 0 0.78 0.25 0.25 0.25 0.58 0.38 0.73 0.29 0.37-0.24 2.31 0.43 2.13 0.73-0.08 0.13 0.09 0.18 0.38 0.1 0.29-0.08 1.34 0.07 2.34 0.33 0.99 0.26 1.86 0.42 1.92 0.35 0.1-0.1-1.47-0.64-2.74-0.94-0.38-0.09-3.57-1.29-7.89-2.98-0.45-0.17-0.75-0.21-0.67-0.08zm32.6 2.1c-1.89 0.7-4.9 1.52-8.66 2.37-0.44 0.1-0.4 0.13 0.18 0.16 1.41 0.06 9.24-2.17 10.77-3.07q1.39-0.81-2.29 0.54zm-20.04 2.28c0.4 0.12 1.18 0.22 1.73 0.22h1.01l-1.15-0.24c-1.54-0.32-2.6-0.31-1.59 0.02z"/>
		<path id="path4" fill-rule="evenodd" class="s4" d="m332.14 94.97c0 0.88 0.05 1.23 0.12 0.8 0.06-0.44 0.06-1.15 0-1.59-0.07-0.43-0.12-0.08-0.12 0.79zm-201.5 94.4c0.36 0.07 0.87 0.07 1.15-0.01 0.27-0.07-0.02-0.13-0.65-0.12-0.64 0-0.86 0.06-0.5 0.13zm110.96 8.25c-0.88 0.8-1.86 1.92-1.69 1.92 0.08 0 0.71-0.59 1.41-1.3 1.33-1.37 1.51-1.74 0.28-0.62zm-82.38 2.06c0.37 0.4 0.73 0.72 0.79 0.72 0.24 0-0.95-1.42-1.2-1.43-0.14-0.01 0.04 0.31 0.41 0.71zm79.65 0.93c-0.65 0.86-1.23 1.82-0.83 1.37 0.14-0.16 0.64-0.71 1.1-1.22 0.46-0.52 0.72-0.93 0.57-0.93-0.14 0.01-0.53 0.36-0.84 0.78zm-109.38 5.98c0.17 0.32 0.78 1.1 1.36 1.73l1.06 1.15-1.09-1.44c-1.37-1.81-1.71-2.17-1.33-1.44zm103.33 6.2c-0.11 0.49-0.14 0.96-0.07 1.03 0.08 0.08 0.22-0.28 0.32-0.78 0.1-0.51 0.13-0.98 0.07-1.04-0.07-0.07-0.21 0.29-0.32 0.79zm26.35 2.73c-0.71 0.38-1.19 0.7-1.06 0.71 0.3 0.02 2.5-1.12 2.5-1.29 0-0.19 0.02-0.2-1.44 0.58zm-98.44 2.94c0.28 0.07 0.74 0.07 1.01 0 0.28-0.08 0.05-0.14-0.5-0.14-0.56 0-0.78 0.06-0.51 0.14zm76.62 0c0.28 0.07 0.74 0.07 1.01 0 0.28-0.08 0.05-0.14-0.5-0.14-0.55 0-0.78 0.06-0.51 0.14zm-83.53 0.3c1.07 0.05 2.82 0.05 3.89 0 1.07-0.06 0.19-0.1-1.94-0.1-2.14 0-3.02 0.04-1.95 0.1zm87.29 0c1.24 0.05 3.18 0.05 4.32 0 1.15-0.06 0.13-0.1-2.24-0.1-2.38 0-3.31 0.05-2.08 0.1zm-45.66 76.32c0.36 0.07 0.87 0.07 1.15 0 0.28-0.08-0.02-0.13-0.65-0.13-0.64 0-0.86 0.06-0.5 0.13zm-3.61 0.28c0.28 0.08 0.73 0.08 1.01 0 0.28-0.07 0.05-0.13-0.5-0.13-0.56 0-0.78 0.06-0.51 0.13zm-3.09 0.38c-0.77 0.2-0.79 0.22-0.15 0.22 0.4 0 1.11-0.1 1.59-0.22 0.77-0.19 0.78-0.22 0.14-0.22-0.39 0-1.11 0.1-1.58 0.22zm-3.46 0.87q-0.55 0.24-0.14 0.24c0.23 0 0.69-0.11 1.01-0.24q0.54-0.24 0.14-0.25c-0.24 0-0.69 0.11-1.01 0.25zm27.94 0c0.32 0.13 0.77 0.24 1.01 0.24q0.4 0-0.14-0.24c-0.32-0.14-0.78-0.25-1.01-0.25q-0.41 0.01 0.14 0.25zm6.04 2.38c0.94 0.51 2.36 1.58 3.16 2.37 1 0.99 1.24 1.15 0.8 0.52-0.79-1.11-2.38-2.4-4.01-3.22-1.9-0.96-1.86-0.7 0.05 0.33zm-42.28 1.98l-1.49 1.49 1.58-1.4c0.87-0.76 1.64-1.43 1.71-1.48q0.09-0.08-0.1-0.09c-0.11 0-0.88 0.67-1.7 1.48zm48.29 8.02c0 1.19 0.05 1.68 0.12 1.08 0.06-0.59 0.06-1.56 0-2.16-0.07-0.59-0.12-0.11-0.12 1.08zm-51.59 0.29c0 0.56 0.06 0.78 0.13 0.5 0.08-0.27 0.08-0.73 0-1-0.07-0.28-0.13-0.05-0.13 0.5zm1.96 8.79c-0.01 0.37 2.54 4.75 2.76 4.75 0.09 0-0.13-0.47-0.48-1.03-0.35-0.57-1.01-1.7-1.46-2.52-0.45-0.82-0.82-1.36-0.82-1.2zm47.01 1.36c-0.18 0.36-0.66 1.2-1.07 1.88-0.42 0.67-0.7 1.22-0.62 1.22 0.23 0 2.27-3.48 2.13-3.62-0.07-0.07-0.27 0.17-0.44 0.52zm-2.66 4.25c-0.34 0.48-0.55 0.87-0.47 0.87 0.08 0 0.42-0.39 0.76-0.87 0.34-0.47 0.55-0.86 0.47-0.86-0.08 0-0.42 0.39-0.76 0.86zm-40.95 0.22c0.31 0.43 0.86 1.05 1.22 1.37 0.37 0.31 0.16-0.04-0.46-0.79-1.24-1.51-1.65-1.82-0.76-0.58zm38.68 2.6c-0.8 0.91-2.2 2.27-3.12 3.02-2.88 2.33-3.14 2.58-1.81 1.71 1.72-1.13 4-3.19 5.48-4.96 1.67-1.99 1.22-1.8-0.55 0.23zm-35.19 1.29c1.2 1.27 1.45 1.5 1.45 1.28 0-0.04-0.61-0.66-1.36-1.37l-1.37-1.28zm2.17 1.93c0.74 0.84 3.31 2.6 5.25 3.57 2.34 1.19 2.2 0.88-0.18-0.38-1.17-0.62-2.92-1.74-3.89-2.49-0.96-0.74-1.5-1.06-1.18-0.7zm25.71 2.77c-1.08 0.58-1.01 0.83 0.07 0.27 0.48-0.25 0.86-0.51 0.86-0.59 0-0.18-0.03-0.17-0.93 0.32zm-5.26 2.14q-0.55 0.24-0.14 0.25c0.24 0 0.69-0.11 1.01-0.25q0.54-0.24 0.14-0.25c-0.24 0-0.69 0.11-1.01 0.25zm-5.33 0.58l-3.31 0.17 3.17 0.02c1.74 0.02 3.56-0.07 4.03-0.19 1.02-0.26 1.07-0.26-3.89 0z"/>
	</g>
</svg>