<svg id="svg" version="1.1" xmlns="http://www.w3.org/2000/svg" xmlns:xlink="http://www.w3.org/1999/xlink" width="400" height="400" viewBox="0, 0, 400,400"><g id="svgg"><path id="path0" d="M232.869 172.114 L 177.405 202.301 177.499 267.850 L 177.593 333.399 232.850 363.541 L 288.107 393.683 343.405 363.505 L 398.704 333.326 398.930 322.126 C 399.055 315.966,399.285 286.423,399.442 256.476 L 399.727 202.025 387.363 195.319 C 380.564 191.630,374.250 188.279,373.333 187.872 C 372.417 187.466,352.928 176.945,330.024 164.492 C 307.121 152.040,288.371 141.869,288.358 141.890 C 288.344 141.911,263.375 155.512,232.869 172.114 M335.850 188.521 L 381.145 213.114 380.895 253.501 C 380.758 275.714,380.542 300.279,380.416 308.090 L 380.185 322.290 334.107 347.423 C 299.731 366.173,287.880 372.471,287.440 372.224 C 287.117 372.042,266.435 360.736,241.481 347.100 L 196.111 322.307 196.017 267.700 L 195.923 213.093 242.128 187.878 L 288.333 162.663 289.444 163.295 C 290.056 163.643,310.938 174.995,335.850 188.521 " stroke="none" fill="#040404" fill-rule="evenodd"></path><path id="path1" d="M68.333 52.082 C 50.627 55.276,35.332 66.559,30.133 80.262 C 27.520 87.149,27.667 81.368,27.514 183.148 C 27.362 284.527,27.364 284.659,29.393 292.611 C 33.708 309.526,39.276 316.838,53.333 324.047 C 65.480 330.276,66.640 330.368,132.870 330.370 L 177.407 330.370 177.421 266.204 L 177.435 202.037 232.682 172.050 C 263.067 155.558,288.195 142.063,288.522 142.063 C 288.848 142.063,308.041 152.349,331.173 164.921 C 354.304 177.492,373.359 187.778,373.517 187.778 C 373.963 187.778,373.443 118.474,372.972 115.000 C 372.054 108.243,370.135 104.427,365.286 99.717 C 359.347 93.948,351.400 89.552,343.885 87.881 C 339.971 87.010,238.298 86.876,220.370 87.718 C 204.340 88.471,200.184 88.462,197.914 87.670 C 193.677 86.191,189.407 82.125,169.508 60.628 C 165.196 55.969,162.664 54.156,158.047 52.423 L 155.539 51.481 113.417 51.515 C 78.439 51.542,70.794 51.639,68.333 52.082 M334.526 238.440 L 288.158 263.519 288.153 317.897 L 288.148 372.275 292.161 370.119 C 294.369 368.933,315.118 357.630,338.270 345.000 L 380.365 322.037 380.409 301.852 C 380.434 290.750,380.563 266.333,380.697 247.593 C 380.830 228.852,380.929 213.483,380.916 213.440 C 380.903 213.397,360.028 224.647,334.526 238.440 " stroke="none" fill="#04d3bb" fill-rule="evenodd"></path><path id="path2" d="M169.167 33.965 C 169.625 34.053,170.375 34.053,170.833 33.965 C 171.292 33.877,170.917 33.805,170.000 33.805 C 169.083 33.805,168.708 33.877,169.167 33.965 M195.926 267.558 L 195.926 321.835 196.759 322.372 C 197.767 323.022,287.839 372.222,288.021 372.222 C 288.091 372.222,288.147 347.764,288.146 317.870 L 288.143 263.519 246.048 240.556 C 222.895 227.926,202.147 216.622,199.939 215.437 L 195.926 213.281 195.926 267.558 " stroke="none" fill="#83ebdb" fill-rule="evenodd"></path><path id="path3" d="M242.123 188.060 C 216.911 201.831,196.411 213.222,196.568 213.373 C 196.724 213.525,217.354 224.828,242.412 238.492 C 287.283 262.960,287.990 263.329,289.171 262.883 C 289.831 262.634,290.370 262.290,290.370 262.119 C 290.370 261.948,290.537 261.911,290.741 262.037 C 290.944 262.163,291.111 262.105,291.111 261.909 C 291.111 261.713,292.028 261.172,293.148 260.708 C 294.269 260.244,295.185 259.756,295.185 259.625 C 295.185 259.493,296.060 258.982,297.130 258.489 C 298.199 257.996,299.130 257.467,299.198 257.313 C 299.267 257.158,299.475 257.127,299.661 257.242 C 299.848 257.357,300.000 257.291,300.000 257.094 C 300.000 256.898,300.917 256.358,302.037 255.893 C 303.157 255.429,304.074 254.903,304.074 254.725 C 304.074 254.547,304.241 254.504,304.444 254.630 C 304.648 254.756,304.815 254.698,304.815 254.502 C 304.815 254.305,305.731 253.765,306.852 253.301 C 307.972 252.836,308.889 252.336,308.889 252.189 C 308.889 252.043,309.806 251.543,310.926 251.078 C 312.046 250.614,312.963 250.088,312.963 249.910 C 312.963 249.732,313.130 249.689,313.333 249.815 C 313.537 249.941,313.704 249.883,313.704 249.687 C 313.704 249.491,314.620 248.950,315.741 248.486 C 316.861 248.021,317.778 247.524,317.778 247.381 C 317.778 247.238,318.861 246.660,320.185 246.097 C 321.509 245.534,322.593 244.954,322.593 244.808 C 322.593 244.661,323.551 244.087,324.722 243.532 C 328.266 241.853,330.899 240.464,331.401 240.009 C 331.662 239.772,332.745 239.159,333.808 238.647 C 334.871 238.134,336.907 237.073,338.333 236.288 C 339.759 235.504,341.843 234.418,342.963 233.876 C 344.083 233.334,345.083 232.757,345.185 232.593 C 345.287 232.429,346.287 231.851,347.407 231.309 C 348.528 230.767,350.611 229.682,352.037 228.897 C 353.463 228.112,355.463 227.041,356.481 226.517 C 357.500 225.993,359.500 224.910,360.926 224.111 C 362.352 223.311,364.519 222.147,365.741 221.523 C 366.963 220.899,369.963 219.296,372.407 217.961 C 374.852 216.625,377.727 215.087,378.796 214.541 C 381.147 213.342,381.169 213.196,379.167 212.176 C 378.301 211.735,357.537 200.482,333.025 187.169 C 308.513 173.856,288.347 162.976,288.211 162.993 C 288.074 163.009,267.335 174.290,242.123 188.060 M380.842 218.148 C 380.842 219.065,380.914 219.440,381.002 218.981 C 381.090 218.523,381.090 217.773,381.002 217.315 C 380.914 216.856,380.842 217.231,380.842 218.148 M380.471 274.444 C 380.471 275.361,380.543 275.736,380.632 275.278 C 380.720 274.819,380.720 274.069,380.632 273.611 C 380.543 273.153,380.471 273.528,380.471 274.444 " stroke="none" fill="#0483c3" fill-rule="evenodd"></path><path id="path4" d="M380.907 231.852 C 380.907 238.676,380.957 241.468,381.018 238.056 C 381.079 234.644,381.079 229.060,381.018 225.648 C 380.957 222.236,380.907 225.028,380.907 231.852 M380.537 288.333 C 380.537 295.259,380.587 298.040,380.648 294.513 C 380.709 290.986,380.708 285.320,380.647 281.921 C 380.586 278.522,380.536 281.407,380.537 288.333 " stroke="none" fill="#045c84" fill-rule="evenodd"></path></g></svg>