<svg id="svg" version="1.1" xmlns="http://www.w3.org/2000/svg" xmlns:xlink="http://www.w3.org/1999/xlink" width="400" height="458.6666666666667" viewBox="0, 0, 400,458.6666666666667"><g id="svgg"><path id="path0" d="M196.800 39.355 C 195.590 40.061,193.250 41.372,191.600 42.269 C 188.735 43.825,187.062 44.741,182.600 47.198 C 181.500 47.803,179.160 49.069,177.400 50.011 C 175.640 50.952,172.969 52.415,171.464 53.261 C 169.959 54.108,168.671 54.800,168.600 54.800 C 168.529 54.800,167.241 55.491,165.736 56.335 C 164.231 57.179,161.650 58.596,160.000 59.484 C 157.096 61.047,155.201 62.082,151.000 64.400 C 148.441 65.812,145.336 67.498,141.800 69.395 C 137.530 71.685,134.105 73.555,130.800 75.402 C 129.150 76.324,126.360 77.849,124.600 78.792 C 119.234 81.667,115.690 83.592,110.600 86.400 C 107.286 88.228,104.729 89.626,102.200 90.993 C 94.789 94.998,93.030 95.956,88.600 98.400 C 85.300 100.220,82.740 101.620,80.100 103.048 C 71.556 107.669,68.111 109.551,65.064 111.263 C 63.559 112.108,62.271 112.800,62.200 112.800 C 62.129 112.800,60.841 113.491,59.336 114.335 C 57.831 115.179,55.250 116.596,53.600 117.484 C 50.618 119.089,48.425 120.288,44.600 122.403 C 43.500 123.011,41.160 124.270,39.400 125.201 C 37.640 126.132,35.621 127.243,34.914 127.670 L 33.629 128.447 37.514 130.471 C 39.651 131.583,41.580 132.627,41.800 132.790 C 42.020 132.952,44.000 134.037,46.200 135.200 C 48.400 136.363,50.380 137.445,50.600 137.604 C 51.075 137.948,53.921 139.498,59.400 142.398 C 61.600 143.562,63.580 144.642,63.800 144.798 C 64.020 144.954,65.820 145.946,67.800 147.002 C 69.780 148.059,72.930 149.768,74.800 150.800 C 76.670 151.832,79.820 153.541,81.800 154.598 C 83.780 155.654,85.580 156.645,85.800 156.800 C 86.020 156.955,87.820 157.946,89.800 159.002 C 91.780 160.059,94.930 161.768,96.800 162.800 C 98.670 163.832,101.820 165.541,103.800 166.598 C 105.780 167.654,107.580 168.646,107.800 168.802 C 108.020 168.958,110.000 170.039,112.200 171.205 C 114.400 172.370,117.550 174.080,119.200 175.004 C 120.850 175.928,123.820 177.546,125.800 178.601 C 127.780 179.656,129.580 180.646,129.800 180.802 C 130.020 180.958,132.000 182.035,134.200 183.196 C 136.400 184.356,138.740 185.618,139.400 185.999 C 140.060 186.381,141.770 187.325,143.200 188.098 C 144.630 188.872,146.610 189.952,147.600 190.499 C 148.590 191.046,157.590 195.952,167.600 201.402 C 190.317 213.771,188.056 212.537,194.283 215.959 L 199.566 218.862 202.283 217.359 C 203.777 216.532,206.080 215.284,207.400 214.584 C 211.466 212.430,216.104 209.917,218.200 208.735 C 219.300 208.114,221.010 207.200,222.000 206.703 C 222.990 206.207,223.890 205.701,224.000 205.578 C 224.110 205.456,225.010 204.966,226.000 204.489 C 227.750 203.647,231.325 201.718,235.400 199.416 C 236.500 198.795,239.290 197.298,241.600 196.090 C 243.910 194.882,245.980 193.763,246.200 193.604 C 246.420 193.445,248.400 192.362,250.600 191.198 C 252.800 190.034,255.410 188.634,256.400 188.087 C 258.830 186.745,261.498 185.301,265.800 183.002 C 267.780 181.944,270.210 180.631,271.200 180.085 C 274.586 178.219,277.401 176.701,281.000 174.800 C 282.980 173.755,285.320 172.494,286.200 171.998 C 288.293 170.819,293.276 168.146,295.800 166.848 C 296.900 166.282,297.890 165.725,298.000 165.610 C 298.110 165.494,298.920 165.018,299.800 164.552 C 302.379 163.185,307.211 160.596,309.800 159.194 C 311.120 158.479,313.280 157.317,314.600 156.612 C 317.004 155.327,320.822 153.254,324.632 151.166 C 325.750 150.553,328.000 149.345,329.632 148.481 C 331.264 147.617,333.410 146.462,334.400 145.913 C 336.061 144.993,340.333 142.698,344.200 140.648 C 345.080 140.182,345.890 139.710,346.000 139.600 C 346.110 139.490,347.010 139.002,348.000 138.516 C 348.990 138.030,351.150 136.891,352.800 135.986 C 354.450 135.081,356.880 133.773,358.200 133.080 C 359.520 132.386,360.690 131.724,360.800 131.607 C 360.910 131.491,362.246 130.779,363.768 130.025 C 366.955 128.448,367.045 128.659,362.029 125.978 C 359.139 124.434,352.924 121.063,351.000 119.996 C 347.775 118.208,345.052 116.735,341.400 114.802 C 339.200 113.638,337.220 112.558,337.000 112.402 C 336.780 112.246,334.980 111.259,333.000 110.208 C 325.723 106.344,323.373 105.081,322.200 104.402 C 321.540 104.020,319.779 103.047,318.288 102.240 C 316.796 101.433,314.906 100.396,314.088 99.936 C 313.269 99.476,311.160 98.337,309.400 97.405 C 307.640 96.473,305.390 95.262,304.400 94.715 C 301.376 93.043,296.882 90.611,289.600 86.706 C 287.950 85.821,286.060 84.784,285.400 84.402 C 283.929 83.550,278.342 80.525,271.000 76.604 C 269.020 75.546,267.220 74.554,267.000 74.398 C 266.780 74.242,264.800 73.162,262.600 71.998 C 260.400 70.834,257.790 69.437,256.800 68.893 C 255.810 68.349,253.830 67.269,252.400 66.492 C 250.970 65.716,248.990 64.636,248.000 64.092 C 247.010 63.549,245.075 62.496,243.700 61.752 C 242.325 61.008,240.075 59.792,238.700 59.048 C 235.914 57.541,233.196 56.054,230.200 54.397 C 229.100 53.789,226.760 52.526,225.000 51.590 C 219.786 48.819,216.676 47.137,215.400 46.398 C 214.740 46.016,212.760 44.937,211.000 44.001 C 209.240 43.065,206.900 41.803,205.800 41.198 C 198.898 37.399,199.827 37.589,196.800 39.355 M366.168 147.800 C 366.168 152.200,366.226 154.055,366.298 151.921 C 366.370 149.788,366.370 146.188,366.299 143.921 C 366.227 141.655,366.168 143.400,366.168 147.800 M365.768 223.800 C 365.768 228.200,365.826 230.055,365.898 227.921 C 365.970 225.788,365.970 222.188,365.899 219.921 C 365.827 217.655,365.768 219.400,365.768 223.800 M365.375 260.400 C 365.375 266.230,365.431 268.615,365.499 265.700 C 365.567 262.785,365.567 258.015,365.499 255.100 C 365.431 252.185,365.375 254.570,365.375 260.400 " stroke="none" fill="#0483c3" fill-rule="evenodd"></path><path id="path1" d="M33.600 226.376 L 33.600 323.952 36.843 325.776 C 38.627 326.779,40.232 327.600,40.410 327.600 C 40.588 327.600,40.793 327.735,40.867 327.900 C 40.940 328.065,41.900 328.664,43.000 329.232 C 45.293 330.414,49.371 332.636,53.336 334.863 C 54.841 335.708,56.151 336.400,56.248 336.400 C 56.345 336.400,57.724 337.142,59.312 338.050 C 60.901 338.957,63.460 340.372,65.000 341.194 C 66.540 342.017,68.700 343.186,69.800 343.793 C 70.900 344.400,72.700 345.393,73.800 346.000 C 78.539 348.616,82.484 350.763,87.000 353.187 C 89.535 354.547,90.594 355.132,95.200 357.718 C 95.970 358.150,97.950 359.226,99.600 360.110 C 101.250 360.994,103.320 362.111,104.200 362.592 C 105.080 363.073,107.060 364.151,108.600 364.987 C 111.485 366.553,114.896 368.427,117.000 369.600 C 119.449 370.966,122.674 372.733,125.200 374.093 C 126.630 374.862,129.060 376.170,130.600 377.000 C 133.306 378.456,136.509 380.210,139.000 381.600 C 141.470 382.978,144.684 384.738,147.300 386.147 C 148.785 386.946,151.215 388.254,152.700 389.053 C 155.316 390.462,158.530 392.222,161.000 393.600 C 163.470 394.978,166.684 396.738,169.300 398.147 C 170.785 398.946,173.215 400.254,174.700 401.053 C 178.038 402.850,182.198 405.140,186.688 407.652 C 192.680 411.004,198.400 414.000,198.810 414.000 C 199.062 414.000,199.200 379.539,199.200 316.437 L 199.200 218.874 193.900 215.982 C 190.985 214.392,187.430 212.457,186.000 211.682 C 184.570 210.908,182.050 209.519,180.400 208.595 C 178.750 207.672,175.780 206.056,173.800 205.003 C 171.820 203.951,169.660 202.778,169.000 202.397 C 168.340 202.016,166.360 200.933,164.600 199.991 C 162.840 199.049,160.050 197.522,158.400 196.597 C 156.750 195.673,153.780 194.053,151.800 192.997 C 149.820 191.942,147.390 190.634,146.400 190.091 C 145.410 189.548,143.430 188.467,142.000 187.689 C 140.570 186.910,138.169 185.582,136.664 184.737 C 135.159 183.892,133.871 183.200,133.800 183.200 C 133.729 183.200,132.441 182.509,130.936 181.665 C 129.431 180.821,126.850 179.403,125.200 178.513 C 120.589 176.026,117.656 174.418,114.664 172.737 C 113.159 171.892,111.871 171.200,111.800 171.200 C 111.729 171.200,110.441 170.509,108.936 169.665 C 107.431 168.821,104.850 167.404,103.200 166.516 C 100.296 164.953,98.401 163.918,94.200 161.600 C 93.100 160.992,91.120 159.911,89.800 159.196 C 85.476 156.854,82.633 155.308,80.600 154.194 C 79.500 153.592,77.250 152.374,75.600 151.489 C 73.950 150.603,72.420 149.751,72.200 149.594 C 71.980 149.437,69.820 148.268,67.400 146.995 C 64.980 145.722,62.820 144.543,62.600 144.376 C 62.380 144.208,61.030 143.458,59.600 142.708 C 56.659 141.165,52.691 138.998,48.664 136.737 C 47.159 135.892,45.849 135.200,45.752 135.200 C 45.655 135.200,44.276 134.458,42.688 133.550 C 39.187 131.551,34.030 128.800,33.781 128.800 C 33.681 128.800,33.600 172.709,33.600 226.376 " stroke="none" fill="#82eada" fill-rule="evenodd"></path><path id="path2" d="M363.580 130.114 C 362.161 130.821,360.910 131.494,360.800 131.610 C 360.690 131.725,359.520 132.386,358.200 133.080 C 356.880 133.773,354.450 135.081,352.800 135.986 C 351.150 136.891,348.990 138.030,348.000 138.516 C 347.010 139.002,346.110 139.490,346.000 139.600 C 345.890 139.710,345.080 140.182,344.200 140.648 C 340.333 142.698,336.061 144.993,334.400 145.913 C 333.410 146.462,331.340 147.578,329.800 148.393 C 327.008 149.871,323.361 151.844,319.211 154.122 C 318.007 154.782,315.937 155.901,314.611 156.609 C 313.285 157.316,311.120 158.479,309.800 159.194 C 307.211 160.596,302.379 163.185,299.800 164.552 C 298.920 165.018,298.110 165.494,298.000 165.610 C 297.890 165.725,296.900 166.282,295.800 166.848 C 293.276 168.146,288.293 170.819,286.200 171.998 C 285.320 172.494,282.980 173.755,281.000 174.800 C 277.401 176.701,274.586 178.219,271.200 180.085 C 270.210 180.631,267.780 181.944,265.800 183.002 C 261.498 185.301,258.830 186.745,256.400 188.087 C 255.410 188.634,252.800 190.034,250.600 191.198 C 248.400 192.362,246.420 193.445,246.200 193.604 C 245.980 193.763,243.910 194.882,241.600 196.090 C 239.290 197.298,236.500 198.795,235.400 199.416 C 231.325 201.718,227.750 203.647,226.000 204.489 C 225.010 204.966,224.110 205.456,224.000 205.578 C 223.890 205.701,222.990 206.207,222.000 206.703 C 221.010 207.200,219.300 208.114,218.200 208.735 C 216.104 209.917,211.466 212.430,207.400 214.584 C 206.080 215.284,203.784 216.529,202.298 217.351 C 200.813 218.173,199.463 218.762,199.298 218.661 C 199.134 218.559,199.046 262.413,199.102 316.114 C 199.183 394.043,199.102 413.815,198.702 414.069 C 197.630 414.750,199.602 414.385,200.888 413.665 C 203.118 412.417,206.482 410.571,209.200 409.104 C 210.630 408.332,212.880 407.114,214.200 406.396 C 215.520 405.678,217.731 404.479,219.112 403.732 C 220.494 402.984,222.204 402.048,222.912 401.652 C 225.237 400.350,228.554 398.532,231.300 397.053 C 232.785 396.254,235.215 394.946,236.700 394.147 C 239.316 392.738,242.530 390.978,245.000 389.600 C 248.391 387.709,250.939 386.324,254.200 384.601 C 256.180 383.555,258.340 382.385,259.000 382.003 C 259.660 381.620,261.421 380.647,262.912 379.840 C 264.404 379.033,266.204 378.048,266.912 377.652 C 270.110 375.862,272.865 374.363,276.200 372.601 C 278.180 371.555,280.340 370.385,281.000 370.003 C 281.660 369.620,283.421 368.647,284.912 367.840 C 286.404 367.033,288.204 366.048,288.912 365.652 C 292.110 363.862,294.865 362.363,298.200 360.601 C 300.180 359.555,302.340 358.385,303.000 358.003 C 303.660 357.620,305.421 356.647,306.912 355.840 C 308.404 355.033,310.243 354.025,311.000 353.600 C 312.765 352.608,316.543 350.563,320.600 348.401 C 322.360 347.464,324.340 346.384,325.000 346.002 C 325.660 345.620,327.421 344.647,328.912 343.840 C 330.404 343.033,332.243 342.025,333.000 341.600 C 334.765 340.608,338.543 338.563,342.600 336.401 C 344.360 335.464,346.340 334.384,347.000 334.001 C 347.660 333.619,349.190 332.772,350.400 332.118 C 352.857 330.792,356.632 328.727,361.349 326.132 C 363.080 325.180,364.628 324.400,364.788 324.400 C 364.948 324.400,365.204 302.575,365.356 275.900 C 365.508 249.225,365.776 205.260,365.952 178.200 C 366.128 151.140,366.247 128.961,366.216 128.914 C 366.185 128.866,364.999 129.406,363.580 130.114 " stroke="none" fill="#04d3bb" fill-rule="evenodd"></path><path id="path3" d="M197.900 0.255 C 197.515 0.367,197.200 0.603,197.200 0.779 C 197.200 0.956,196.657 1.209,195.992 1.342 C 195.328 1.474,194.387 1.954,193.900 2.407 C 193.414 2.860,192.607 3.334,192.108 3.459 C 191.609 3.584,191.200 3.847,191.200 4.043 C 191.200 4.240,190.840 4.400,190.400 4.400 C 189.960 4.400,189.600 4.566,189.600 4.768 C 189.600 4.971,189.060 5.255,188.400 5.400 C 187.740 5.545,187.200 5.829,187.200 6.032 C 187.200 6.234,186.952 6.400,186.649 6.400 C 186.346 6.400,185.874 6.670,185.600 7.000 C 185.326 7.330,184.779 7.600,184.384 7.600 C 183.990 7.600,183.607 7.735,183.533 7.900 C 183.323 8.373,180.944 9.600,180.238 9.600 C 179.887 9.600,179.600 9.759,179.600 9.953 C 179.600 10.148,179.285 10.412,178.900 10.542 C 178.200 10.777,176.777 11.613,176.400 12.011 C 176.290 12.127,175.390 12.572,174.400 13.000 C 173.410 13.428,172.510 13.873,172.400 13.989 C 172.023 14.387,170.600 15.223,169.900 15.458 C 169.515 15.588,169.200 15.852,169.200 16.047 C 169.200 16.241,168.913 16.400,168.562 16.400 C 167.856 16.400,165.477 17.627,165.267 18.100 C 165.193 18.265,164.872 18.400,164.553 18.400 C 164.040 18.400,162.145 19.421,161.600 19.991 C 161.164 20.446,158.702 21.600,158.168 21.600 C 157.855 21.600,157.598 21.735,157.595 21.900 C 157.593 22.065,156.873 22.544,155.995 22.964 C 155.118 23.385,154.400 23.880,154.400 24.064 C 154.400 24.249,154.202 24.400,153.960 24.400 C 153.480 24.400,150.722 25.623,150.400 25.979 C 150.290 26.101,149.525 26.512,148.700 26.894 C 147.875 27.275,147.200 27.770,147.200 27.994 C 147.200 28.217,146.913 28.400,146.562 28.400 C 145.856 28.400,143.477 29.627,143.267 30.100 C 143.193 30.265,142.881 30.400,142.573 30.400 C 142.264 30.400,141.134 30.940,140.062 31.600 C 138.989 32.260,137.906 32.800,137.656 32.800 C 137.405 32.800,137.200 32.980,137.200 33.200 C 137.200 33.420,136.840 33.600,136.400 33.600 C 135.960 33.600,135.598 33.735,135.596 33.900 C 135.594 34.065,134.784 34.555,133.796 34.990 C 132.808 35.424,132.000 35.884,132.000 36.013 C 132.000 36.141,131.235 36.580,130.300 36.987 C 129.365 37.395,128.510 37.835,128.400 37.964 C 128.290 38.094,126.940 38.830,125.400 39.600 C 123.860 40.370,122.540 41.135,122.467 41.300 C 122.393 41.465,122.078 41.600,121.767 41.600 C 121.455 41.600,121.200 41.780,121.200 42.000 C 121.200 42.220,120.913 42.400,120.562 42.400 C 119.868 42.400,117.737 43.499,116.879 44.300 C 116.584 44.575,116.086 44.800,115.771 44.800 C 115.457 44.800,115.200 44.980,115.200 45.200 C 115.200 45.420,114.855 45.600,114.433 45.600 C 114.012 45.600,113.607 45.735,113.533 45.900 C 113.460 46.065,112.140 46.830,110.600 47.600 C 109.060 48.370,107.740 49.135,107.667 49.300 C 107.593 49.465,107.278 49.600,106.967 49.600 C 106.655 49.600,106.400 49.780,106.400 50.000 C 106.400 50.220,106.202 50.400,105.960 50.400 C 105.425 50.400,102.678 51.654,102.400 52.025 C 102.290 52.172,101.795 52.419,101.300 52.573 C 100.805 52.728,100.400 53.022,100.400 53.227 C 100.400 53.432,100.130 53.600,99.800 53.600 C 99.470 53.600,99.200 53.780,99.200 54.000 C 99.200 54.220,98.913 54.400,98.562 54.400 C 97.945 54.400,95.608 55.544,95.200 56.046 C 95.090 56.181,94.595 56.419,94.100 56.573 C 93.605 56.728,93.200 57.022,93.200 57.227 C 93.200 57.432,92.840 57.600,92.400 57.600 C 91.960 57.600,91.600 57.766,91.600 57.968 C 91.600 58.171,91.060 58.455,90.400 58.600 C 89.740 58.745,89.200 59.029,89.200 59.232 C 89.200 59.434,88.840 59.600,88.400 59.600 C 87.960 59.600,87.600 59.760,87.600 59.957 C 87.600 60.153,87.150 60.426,86.600 60.564 C 86.050 60.702,85.600 60.992,85.600 61.208 C 85.600 61.423,85.330 61.600,85.000 61.600 C 84.670 61.600,84.400 61.780,84.400 62.000 C 84.400 62.220,84.202 62.400,83.960 62.400 C 83.480 62.400,80.722 63.623,80.400 63.979 C 80.290 64.101,79.525 64.543,78.700 64.963 C 77.875 65.383,77.200 65.858,77.200 66.018 C 77.200 66.179,76.570 66.429,75.800 66.574 C 75.030 66.718,74.400 67.008,74.400 67.218 C 74.400 67.428,74.130 67.600,73.800 67.600 C 73.470 67.600,73.200 67.780,73.200 68.000 C 73.200 68.220,72.924 68.400,72.586 68.400 C 71.989 68.400,70.007 69.500,69.596 70.059 C 69.484 70.212,68.899 70.460,68.296 70.612 C 67.693 70.763,67.200 71.047,67.200 71.243 C 67.200 71.440,66.840 71.600,66.400 71.600 C 65.960 71.600,65.600 71.760,65.600 71.957 C 65.600 72.153,65.191 72.416,64.692 72.541 C 64.193 72.666,63.386 73.140,62.900 73.593 C 62.413 74.046,61.472 74.526,60.808 74.658 C 60.143 74.791,59.600 75.058,59.600 75.250 C 59.600 75.442,59.330 75.600,59.000 75.600 C 58.670 75.600,58.400 75.780,58.400 76.000 C 58.400 76.220,58.155 76.400,57.856 76.400 C 57.557 76.400,56.652 76.848,55.845 77.395 C 55.039 77.942,53.934 78.502,53.390 78.638 C 52.845 78.775,52.400 79.047,52.400 79.243 C 52.400 79.440,52.130 79.600,51.800 79.600 C 51.470 79.600,51.200 79.780,51.200 80.000 C 51.200 80.220,50.885 80.401,50.500 80.402 C 50.115 80.403,48.990 80.942,48.000 81.600 C 47.010 82.258,45.975 82.797,45.700 82.798 C 45.425 82.799,45.200 82.980,45.200 83.200 C 45.200 83.420,44.855 83.600,44.433 83.600 C 44.012 83.600,43.607 83.735,43.533 83.900 C 43.460 84.065,42.549 84.616,41.509 85.124 C 40.469 85.631,39.513 86.216,39.385 86.424 C 39.257 86.631,38.803 86.800,38.376 86.800 C 37.949 86.800,37.600 86.980,37.600 87.200 C 37.600 87.420,37.330 87.600,37.000 87.600 C 36.670 87.600,36.400 87.780,36.400 88.000 C 36.400 88.220,36.202 88.400,35.960 88.400 C 35.330 88.400,32.695 89.677,32.071 90.285 C 31.781 90.568,31.286 90.800,30.971 90.800 C 30.657 90.800,30.400 90.980,30.400 91.200 C 30.400 91.420,30.130 91.600,29.800 91.600 C 29.470 91.600,29.200 91.760,29.200 91.955 C 29.200 92.151,28.570 92.429,27.800 92.574 C 27.030 92.718,26.400 93.008,26.400 93.218 C 26.400 93.428,26.130 93.600,25.800 93.600 C 25.470 93.600,25.200 93.777,25.200 93.992 C 25.200 94.208,24.750 94.498,24.200 94.636 C 23.650 94.774,23.200 95.047,23.200 95.243 C 23.200 95.440,22.840 95.600,22.400 95.600 C 21.960 95.600,21.600 95.766,21.600 95.968 C 21.600 96.171,21.060 96.455,20.400 96.600 C 19.740 96.745,19.200 96.989,19.200 97.142 C 19.200 97.295,18.392 97.776,17.404 98.210 C 16.416 98.645,15.606 99.135,15.604 99.300 C 15.602 99.465,15.330 99.600,15.000 99.600 C 14.670 99.600,14.400 99.780,14.400 100.000 C 14.400 100.220,14.202 100.400,13.960 100.400 C 13.425 100.400,10.678 101.654,10.400 102.025 C 10.290 102.172,9.795 102.419,9.300 102.573 C 8.805 102.728,8.400 103.022,8.400 103.227 C 8.400 103.432,8.130 103.600,7.800 103.600 C 7.470 103.600,7.200 103.760,7.200 103.955 C 7.200 104.151,6.570 104.429,5.800 104.574 C 5.030 104.718,4.400 105.008,4.400 105.218 C 4.400 105.428,4.130 105.600,3.800 105.600 C 3.470 105.600,3.200 105.760,3.200 105.957 C 3.200 106.153,2.750 106.426,2.200 106.564 C 1.650 106.702,1.200 106.992,1.200 107.208 C 1.200 107.423,0.930 107.600,0.600 107.600 C -0.014 107.600,-0.373 343.363,0.239 344.956 C 0.370 345.298,1.090 345.693,1.839 345.834 C 2.587 345.974,3.200 346.249,3.200 346.445 C 3.200 346.640,3.470 346.800,3.800 346.800 C 4.130 346.800,4.400 346.968,4.400 347.173 C 4.400 347.378,4.805 347.672,5.300 347.827 C 5.795 347.981,6.290 348.228,6.400 348.375 C 6.678 348.746,9.425 350.000,9.960 350.000 C 10.202 350.000,10.400 350.180,10.400 350.400 C 10.400 350.620,10.670 350.800,11.000 350.800 C 11.330 350.800,11.600 350.977,11.600 351.192 C 11.600 351.408,12.050 351.698,12.600 351.836 C 13.150 351.974,13.600 352.247,13.600 352.443 C 13.600 352.640,13.960 352.800,14.400 352.800 C 14.840 352.800,15.200 352.966,15.200 353.168 C 15.200 353.371,15.740 353.655,16.400 353.800 C 17.060 353.945,17.600 354.229,17.600 354.432 C 17.600 354.634,17.960 354.800,18.400 354.800 C 18.840 354.800,19.200 354.977,19.200 355.192 C 19.200 355.408,19.650 355.698,20.200 355.836 C 20.750 355.974,21.200 356.247,21.200 356.443 C 21.200 356.640,21.470 356.800,21.800 356.800 C 22.130 356.800,22.400 356.972,22.400 357.182 C 22.400 357.392,23.030 357.682,23.800 357.826 C 24.570 357.971,25.200 358.249,25.200 358.445 C 25.200 358.640,25.470 358.800,25.800 358.800 C 26.130 358.800,26.400 358.968,26.400 359.173 C 26.400 359.378,26.805 359.672,27.300 359.827 C 27.795 359.981,28.290 360.228,28.400 360.375 C 28.678 360.746,31.425 362.000,31.960 362.000 C 32.202 362.000,32.400 362.180,32.400 362.400 C 32.400 362.620,32.670 362.800,33.000 362.800 C 33.330 362.800,33.600 362.977,33.600 363.192 C 33.600 363.408,34.050 363.698,34.600 363.836 C 35.150 363.974,35.600 364.247,35.600 364.443 C 35.600 364.640,35.960 364.800,36.400 364.800 C 36.840 364.800,37.200 364.966,37.200 365.168 C 37.200 365.371,37.740 365.655,38.400 365.800 C 39.060 365.945,39.600 366.229,39.600 366.432 C 39.600 366.634,39.960 366.800,40.400 366.800 C 40.840 366.800,41.200 366.977,41.200 367.192 C 41.200 367.408,41.650 367.698,42.200 367.836 C 42.750 367.974,43.200 368.247,43.200 368.443 C 43.200 368.640,43.470 368.800,43.800 368.800 C 44.130 368.800,44.400 368.972,44.400 369.182 C 44.400 369.392,45.030 369.682,45.800 369.826 C 46.570 369.971,47.200 370.249,47.200 370.445 C 47.200 370.640,47.470 370.800,47.800 370.800 C 48.130 370.800,48.400 370.968,48.400 371.173 C 48.400 371.378,48.805 371.672,49.300 371.827 C 49.795 371.981,50.290 372.228,50.400 372.375 C 50.678 372.746,53.425 374.000,53.960 374.000 C 54.202 374.000,54.400 374.180,54.400 374.400 C 54.400 374.620,54.670 374.800,55.000 374.800 C 55.330 374.800,55.600 374.977,55.600 375.192 C 55.600 375.408,56.050 375.698,56.600 375.836 C 57.150 375.974,57.600 376.247,57.600 376.443 C 57.600 376.640,57.960 376.800,58.400 376.800 C 58.840 376.800,59.200 376.966,59.200 377.168 C 59.200 377.371,59.740 377.655,60.400 377.800 C 61.060 377.945,61.600 378.229,61.600 378.432 C 61.600 378.634,61.960 378.800,62.400 378.800 C 62.840 378.800,63.200 378.977,63.200 379.192 C 63.200 379.408,63.650 379.698,64.200 379.836 C 64.750 379.974,65.200 380.247,65.200 380.443 C 65.200 380.640,65.470 380.800,65.800 380.800 C 66.130 380.800,66.400 380.972,66.400 381.182 C 66.400 381.392,67.030 381.682,67.800 381.826 C 68.570 381.971,69.200 382.249,69.200 382.445 C 69.200 382.640,69.470 382.800,69.800 382.800 C 70.130 382.800,70.400 382.968,70.400 383.173 C 70.400 383.378,70.805 383.672,71.300 383.827 C 71.795 383.981,72.290 384.228,72.400 384.375 C 72.678 384.746,75.425 386.000,75.960 386.000 C 76.202 386.000,76.400 386.180,76.400 386.400 C 76.400 386.620,76.670 386.800,77.000 386.800 C 77.330 386.800,77.600 386.977,77.600 387.192 C 77.600 387.408,78.050 387.698,78.600 387.836 C 79.150 387.974,79.600 388.247,79.600 388.443 C 79.600 388.640,79.960 388.800,80.400 388.800 C 80.840 388.800,81.200 388.966,81.200 389.168 C 81.200 389.371,81.740 389.655,82.400 389.800 C 83.060 389.945,83.600 390.229,83.600 390.432 C 83.600 390.634,83.960 390.800,84.400 390.800 C 84.840 390.800,85.200 390.977,85.200 391.192 C 85.200 391.408,85.650 391.698,86.200 391.836 C 86.750 391.974,87.200 392.247,87.200 392.443 C 87.200 392.640,87.470 392.800,87.800 392.800 C 88.130 392.800,88.400 392.972,88.400 393.182 C 88.400 393.392,89.030 393.682,89.800 393.826 C 90.570 393.971,91.200 394.249,91.200 394.445 C 91.200 394.640,91.470 394.800,91.800 394.800 C 92.130 394.800,92.400 394.968,92.400 395.173 C 92.400 395.378,92.805 395.672,93.300 395.827 C 93.795 395.981,94.290 396.228,94.400 396.375 C 94.678 396.746,97.425 398.000,97.960 398.000 C 98.202 398.000,98.400 398.180,98.400 398.400 C 98.400 398.620,98.670 398.800,99.000 398.800 C 99.330 398.800,99.600 398.977,99.600 399.192 C 99.600 399.408,100.050 399.698,100.600 399.836 C 101.150 399.974,101.600 400.247,101.600 400.443 C 101.600 400.640,101.960 400.800,102.400 400.800 C 102.840 400.800,103.200 400.966,103.200 401.168 C 103.200 401.371,103.740 401.655,104.400 401.800 C 105.060 401.945,105.600 402.229,105.600 402.432 C 105.600 402.634,105.960 402.800,106.400 402.800 C 106.840 402.800,107.200 402.968,107.200 403.173 C 107.200 403.378,107.605 403.672,108.100 403.827 C 108.595 403.981,109.090 404.219,109.200 404.354 C 109.608 404.856,111.945 406.000,112.562 406.000 C 112.913 406.000,113.200 406.180,113.200 406.400 C 113.200 406.620,113.470 406.800,113.800 406.800 C 114.130 406.800,114.400 406.968,114.400 407.173 C 114.400 407.378,114.805 407.672,115.300 407.827 C 115.795 407.981,116.290 408.228,116.400 408.375 C 116.678 408.746,119.425 410.000,119.960 410.000 C 120.202 410.000,120.400 410.180,120.400 410.400 C 120.400 410.620,120.670 410.800,121.000 410.800 C 121.330 410.800,121.600 410.977,121.600 411.192 C 121.600 411.408,122.050 411.698,122.600 411.836 C 123.150 411.974,123.600 412.247,123.600 412.443 C 123.600 412.640,123.960 412.800,124.400 412.800 C 124.840 412.800,125.200 412.966,125.200 413.168 C 125.200 413.371,125.740 413.655,126.400 413.800 C 127.060 413.945,127.600 414.229,127.600 414.432 C 127.600 414.634,127.960 414.800,128.400 414.800 C 128.840 414.800,129.200 414.968,129.200 415.173 C 129.200 415.378,129.605 415.672,130.100 415.827 C 130.595 415.981,131.090 416.219,131.200 416.354 C 131.608 416.856,133.945 418.000,134.562 418.000 C 134.913 418.000,135.200 418.180,135.200 418.400 C 135.200 418.620,135.470 418.800,135.800 418.800 C 136.130 418.800,136.400 418.968,136.400 419.173 C 136.400 419.378,136.805 419.672,137.300 419.827 C 137.795 419.981,138.290 420.228,138.400 420.375 C 138.678 420.746,141.425 422.000,141.960 422.000 C 142.202 422.000,142.400 422.180,142.400 422.400 C 142.400 422.620,142.670 422.800,143.000 422.800 C 143.330 422.800,143.600 422.977,143.600 423.192 C 143.600 423.408,144.050 423.698,144.600 423.836 C 145.150 423.974,145.600 424.247,145.600 424.443 C 145.600 424.640,145.855 424.800,146.168 424.800 C 146.835 424.800,149.340 426.065,149.533 426.500 C 149.607 426.665,150.012 426.800,150.433 426.800 C 150.855 426.800,151.200 426.968,151.200 427.173 C 151.200 427.378,151.605 427.672,152.100 427.827 C 152.595 427.981,153.090 428.219,153.200 428.354 C 153.608 428.856,155.945 430.000,156.562 430.000 C 156.913 430.000,157.200 430.180,157.200 430.400 C 157.200 430.620,157.470 430.800,157.800 430.800 C 158.130 430.800,158.400 430.968,158.400 431.173 C 158.400 431.378,158.805 431.672,159.300 431.827 C 159.795 431.981,160.290 432.224,160.400 432.365 C 160.510 432.506,161.410 432.972,162.400 433.400 C 163.390 433.828,164.290 434.273,164.400 434.389 C 164.777 434.787,166.200 435.623,166.900 435.858 C 167.285 435.988,167.600 436.252,167.600 436.447 C 167.600 436.641,167.855 436.800,168.168 436.800 C 168.835 436.800,171.340 438.065,171.533 438.500 C 171.607 438.665,172.012 438.800,172.433 438.800 C 172.855 438.800,173.200 438.968,173.200 439.173 C 173.200 439.378,173.605 439.672,174.100 439.827 C 174.595 439.981,175.090 440.219,175.200 440.354 C 175.568 440.806,178.058 442.000,178.632 442.000 C 178.945 442.000,179.200 442.159,179.200 442.353 C 179.200 442.548,179.515 442.812,179.900 442.942 C 180.600 443.177,182.023 444.013,182.400 444.411 C 182.510 444.527,183.410 444.972,184.400 445.400 C 185.390 445.828,186.290 446.273,186.400 446.389 C 186.746 446.754,188.113 447.520,190.800 448.855 C 192.230 449.565,193.460 450.293,193.533 450.473 C 193.607 450.653,193.990 450.800,194.384 450.800 C 194.779 450.800,195.326 451.070,195.600 451.400 C 195.874 451.730,196.346 452.000,196.649 452.000 C 196.952 452.000,197.200 452.172,197.200 452.382 C 197.200 453.074,199.970 453.346,200.716 452.728 C 201.092 452.416,202.120 451.809,203.000 451.380 C 203.880 450.951,204.660 450.465,204.733 450.300 C 204.807 450.135,205.128 450.000,205.447 450.000 C 205.960 450.000,207.855 448.979,208.400 448.409 C 208.822 447.968,211.290 446.800,211.799 446.800 C 212.093 446.800,212.393 446.665,212.467 446.500 C 212.620 446.155,214.985 444.764,217.600 443.482 C 218.590 442.997,219.490 442.510,219.600 442.400 C 219.710 442.290,220.430 441.880,221.200 441.490 C 224.370 439.882,226.608 438.595,226.733 438.306 C 226.807 438.138,227.128 438.000,227.447 438.000 C 228.018 438.000,230.003 436.886,230.404 436.341 C 230.516 436.188,231.101 435.940,231.704 435.788 C 232.307 435.637,232.800 435.353,232.800 435.157 C 232.800 434.960,233.145 434.800,233.567 434.800 C 233.988 434.800,234.393 434.665,234.467 434.500 C 234.603 434.193,235.865 433.460,239.400 431.633 C 240.500 431.065,241.490 430.510,241.600 430.400 C 241.710 430.290,242.475 429.888,243.300 429.506 C 244.125 429.125,244.800 428.630,244.800 428.406 C 244.800 428.183,245.087 428.000,245.438 428.000 C 246.144 428.000,248.523 426.773,248.733 426.300 C 248.807 426.135,249.128 426.000,249.447 426.000 C 250.018 426.000,252.003 424.886,252.404 424.341 C 252.516 424.188,253.101 423.940,253.704 423.788 C 254.307 423.637,254.800 423.353,254.800 423.157 C 254.800 422.960,255.160 422.800,255.600 422.800 C 256.040 422.800,256.400 422.640,256.400 422.443 C 256.400 422.247,256.809 421.984,257.308 421.859 C 257.807 421.734,258.610 421.264,259.091 420.815 C 259.573 420.367,260.082 420.000,260.223 420.000 C 260.567 420.000,263.347 418.700,263.600 418.421 C 263.710 418.299,264.475 417.888,265.300 417.506 C 266.125 417.125,266.800 416.650,266.800 416.451 C 266.800 416.252,267.430 415.971,268.200 415.826 C 268.970 415.682,269.600 415.392,269.600 415.182 C 269.600 414.972,269.870 414.800,270.200 414.800 C 270.530 414.800,270.800 414.620,270.800 414.400 C 270.800 414.180,271.076 414.000,271.414 414.000 C 272.011 414.000,273.993 412.900,274.404 412.341 C 274.516 412.188,275.101 411.940,275.704 411.788 C 276.307 411.637,276.800 411.353,276.800 411.157 C 276.800 410.960,277.160 410.800,277.600 410.800 C 278.040 410.800,278.400 410.640,278.400 410.443 C 278.400 410.247,278.809 409.984,279.308 409.859 C 279.807 409.734,280.610 409.264,281.091 408.815 C 281.573 408.367,282.082 408.000,282.223 408.000 C 282.567 408.000,285.347 406.700,285.600 406.421 C 285.710 406.299,286.475 405.888,287.300 405.506 C 288.125 405.125,288.800 404.650,288.800 404.451 C 288.800 404.252,289.430 403.971,290.200 403.826 C 290.970 403.682,291.600 403.392,291.600 403.182 C 291.600 402.972,291.870 402.800,292.200 402.800 C 292.530 402.800,292.800 402.620,292.800 402.400 C 292.800 402.180,293.076 402.000,293.414 402.000 C 294.011 402.000,295.993 400.900,296.404 400.341 C 296.516 400.188,297.101 399.940,297.704 399.788 C 298.307 399.637,298.800 399.353,298.800 399.157 C 298.800 398.960,299.160 398.800,299.600 398.800 C 300.040 398.800,300.400 398.640,300.400 398.443 C 300.400 398.247,300.809 397.984,301.308 397.859 C 301.807 397.734,302.610 397.264,303.091 396.815 C 303.573 396.367,304.082 396.000,304.223 396.000 C 304.567 396.000,307.347 394.700,307.600 394.421 C 307.710 394.299,308.475 393.888,309.300 393.506 C 310.125 393.125,310.800 392.650,310.800 392.451 C 310.800 392.252,311.430 391.971,312.200 391.826 C 312.970 391.682,313.600 391.392,313.600 391.182 C 313.600 390.972,313.870 390.800,314.200 390.800 C 314.530 390.800,314.800 390.620,314.800 390.400 C 314.800 390.180,315.076 390.000,315.414 390.000 C 316.011 390.000,317.993 388.900,318.404 388.341 C 318.516 388.188,319.101 387.940,319.704 387.788 C 320.307 387.637,320.800 387.353,320.800 387.157 C 320.800 386.960,321.160 386.800,321.600 386.800 C 322.040 386.800,322.400 386.640,322.400 386.443 C 322.400 386.247,322.809 385.984,323.308 385.859 C 323.807 385.734,324.614 385.260,325.100 384.807 C 325.587 384.354,326.528 383.874,327.192 383.742 C 327.857 383.609,328.400 383.343,328.400 383.150 C 328.400 382.957,328.670 382.800,329.000 382.800 C 329.330 382.800,329.600 382.640,329.600 382.443 C 329.600 382.247,330.055 381.973,330.610 381.833 C 331.166 381.694,331.957 381.243,332.369 380.831 C 332.781 380.419,333.677 379.959,334.359 379.809 C 335.042 379.659,335.600 379.371,335.600 379.168 C 335.600 378.966,335.870 378.800,336.200 378.800 C 336.530 378.800,336.800 378.620,336.800 378.400 C 336.800 378.180,337.076 378.000,337.414 378.000 C 338.011 378.000,339.993 376.900,340.404 376.341 C 340.516 376.188,341.101 375.940,341.704 375.788 C 342.307 375.637,342.800 375.353,342.800 375.157 C 342.800 374.960,343.160 374.800,343.600 374.800 C 344.040 374.800,344.400 374.640,344.400 374.443 C 344.400 374.247,344.809 373.984,345.308 373.859 C 345.807 373.734,346.614 373.260,347.100 372.807 C 347.587 372.354,348.528 371.874,349.192 371.742 C 349.857 371.609,350.400 371.342,350.400 371.150 C 350.400 370.957,350.670 370.800,351.000 370.800 C 351.330 370.800,351.600 370.640,351.600 370.443 C 351.600 370.247,352.055 369.973,352.610 369.833 C 353.166 369.694,353.957 369.243,354.369 368.831 C 354.781 368.419,355.677 367.959,356.359 367.809 C 357.042 367.659,357.600 367.371,357.600 367.168 C 357.600 366.966,357.870 366.800,358.200 366.800 C 358.530 366.800,358.800 366.620,358.800 366.400 C 358.800 366.180,359.076 366.000,359.414 366.000 C 360.011 366.000,361.993 364.900,362.404 364.341 C 362.516 364.188,363.101 363.940,363.704 363.788 C 364.307 363.637,364.800 363.353,364.800 363.157 C 364.800 362.960,365.160 362.800,365.600 362.800 C 366.040 362.800,366.400 362.640,366.400 362.443 C 366.400 362.247,366.809 361.984,367.308 361.859 C 367.807 361.734,368.614 361.260,369.100 360.807 C 369.587 360.354,370.528 359.874,371.192 359.742 C 371.857 359.609,372.400 359.342,372.400 359.150 C 372.400 358.957,372.670 358.800,373.000 358.800 C 373.330 358.800,373.600 358.640,373.600 358.443 C 373.600 358.247,374.055 357.973,374.610 357.833 C 375.166 357.694,375.957 357.243,376.369 356.831 C 376.781 356.419,377.677 355.959,378.359 355.809 C 379.042 355.659,379.600 355.371,379.600 355.168 C 379.600 354.966,379.870 354.800,380.200 354.800 C 380.530 354.800,380.800 354.620,380.800 354.400 C 380.800 354.180,381.076 354.000,381.414 354.000 C 382.011 354.000,383.993 352.900,384.404 352.341 C 384.516 352.188,385.101 351.940,385.704 351.788 C 386.307 351.637,386.800 351.353,386.800 351.157 C 386.800 350.960,387.160 350.800,387.600 350.800 C 388.040 350.800,388.400 350.640,388.400 350.443 C 388.400 350.247,388.809 349.984,389.308 349.859 C 389.807 349.734,390.614 349.260,391.100 348.807 C 391.587 348.354,392.528 347.874,393.192 347.742 C 393.857 347.609,394.400 347.343,394.400 347.150 C 394.400 346.958,394.655 346.800,394.967 346.800 C 395.278 346.800,395.593 346.665,395.667 346.500 C 395.740 346.335,396.475 345.888,397.300 345.506 L 398.800 344.813 398.800 328.580 C 398.800 319.652,398.960 312.044,399.155 311.674 C 399.893 310.274,400.186 107.600,399.450 107.600 C 399.093 107.600,398.800 107.423,398.800 107.208 C 398.800 106.992,398.350 106.702,397.800 106.564 C 397.250 106.426,396.800 106.153,396.800 105.957 C 396.800 105.760,396.530 105.600,396.200 105.600 C 395.870 105.600,395.600 105.428,395.600 105.218 C 395.600 105.008,394.970 104.718,394.200 104.574 C 393.430 104.429,392.800 104.151,392.800 103.955 C 392.800 103.760,392.530 103.600,392.200 103.600 C 391.870 103.600,391.600 103.432,391.600 103.227 C 391.600 103.022,391.195 102.728,390.700 102.573 C 390.205 102.419,389.710 102.172,389.600 102.025 C 389.322 101.654,386.575 100.400,386.040 100.400 C 385.798 100.400,385.600 100.220,385.600 100.000 C 385.600 99.780,385.330 99.600,385.000 99.600 C 384.670 99.600,384.398 99.465,384.396 99.300 C 384.394 99.135,383.584 98.645,382.596 98.210 C 381.608 97.776,380.800 97.295,380.800 97.142 C 380.800 96.989,380.260 96.745,379.600 96.600 C 378.940 96.455,378.400 96.171,378.400 95.968 C 378.400 95.766,378.040 95.600,377.600 95.600 C 377.160 95.600,376.800 95.440,376.800 95.243 C 376.800 95.047,376.350 94.774,375.800 94.636 C 375.250 94.498,374.800 94.208,374.800 93.992 C 374.800 93.777,374.530 93.600,374.200 93.600 C 373.870 93.600,373.600 93.428,373.600 93.218 C 373.600 93.008,372.970 92.718,372.200 92.574 C 371.430 92.429,370.800 92.151,370.800 91.955 C 370.800 91.760,370.530 91.600,370.200 91.600 C 369.870 91.600,369.600 91.420,369.600 91.200 C 369.600 90.980,369.343 90.800,369.029 90.800 C 368.714 90.800,368.219 90.568,367.929 90.285 C 367.305 89.677,364.670 88.400,364.040 88.400 C 363.798 88.400,363.600 88.220,363.600 88.000 C 363.600 87.780,363.330 87.600,363.000 87.600 C 362.670 87.600,362.400 87.420,362.400 87.200 C 362.400 86.980,362.051 86.800,361.624 86.800 C 361.197 86.800,360.743 86.631,360.615 86.424 C 360.487 86.216,359.531 85.631,358.491 85.124 C 357.451 84.616,356.540 84.065,356.467 83.900 C 356.393 83.735,355.988 83.600,355.567 83.600 C 355.145 83.600,354.800 83.420,354.800 83.200 C 354.800 82.980,354.575 82.799,354.300 82.798 C 354.025 82.797,352.990 82.258,352.000 81.600 C 351.010 80.942,349.885 80.403,349.500 80.402 C 349.115 80.401,348.800 80.220,348.800 80.000 C 348.800 79.780,348.530 79.600,348.200 79.600 C 347.870 79.600,347.600 79.440,347.600 79.243 C 347.600 79.047,347.155 78.775,346.610 78.638 C 346.066 78.502,344.961 77.942,344.155 77.395 C 343.348 76.848,342.443 76.400,342.144 76.400 C 341.845 76.400,341.600 76.220,341.600 76.000 C 341.600 75.780,341.330 75.600,341.000 75.600 C 340.670 75.600,340.400 75.442,340.400 75.250 C 340.400 75.057,339.857 74.791,339.192 74.658 C 338.528 74.526,337.587 74.046,337.100 73.593 C 336.614 73.140,335.807 72.666,335.308 72.541 C 334.809 72.416,334.400 72.153,334.400 71.957 C 334.400 71.760,334.040 71.600,333.600 71.600 C 333.160 71.600,332.800 71.440,332.800 71.243 C 332.800 71.047,332.307 70.763,331.704 70.612 C 331.101 70.460,330.516 70.212,330.404 70.059 C 329.993 69.500,328.011 68.400,327.414 68.400 C 327.076 68.400,326.800 68.220,326.800 68.000 C 326.800 67.780,326.530 67.600,326.200 67.600 C 325.870 67.600,325.600 67.428,325.600 67.218 C 325.600 67.008,324.970 66.718,324.200 66.574 C 323.430 66.429,322.800 66.179,322.800 66.018 C 322.800 65.858,322.125 65.383,321.300 64.963 C 320.475 64.543,319.710 64.101,319.600 63.979 C 319.278 63.623,316.520 62.400,316.040 62.400 C 315.798 62.400,315.600 62.220,315.600 62.000 C 315.600 61.780,315.330 61.600,315.000 61.600 C 314.670 61.600,314.400 61.423,314.400 61.208 C 314.400 60.992,313.950 60.702,313.400 60.564 C 312.850 60.426,312.400 60.153,312.400 59.957 C 312.400 59.760,312.040 59.600,311.600 59.600 C 311.160 59.600,310.800 59.434,310.800 59.232 C 310.800 59.029,310.260 58.745,309.600 58.600 C 308.940 58.455,308.400 58.171,308.400 57.968 C 308.400 57.766,308.040 57.600,307.600 57.600 C 307.160 57.600,306.800 57.432,306.800 57.227 C 306.800 57.022,306.395 56.728,305.900 56.573 C 305.405 56.419,304.910 56.181,304.800 56.046 C 304.392 55.544,302.055 54.400,301.438 54.400 C 301.087 54.400,300.800 54.220,300.800 54.000 C 300.800 53.780,300.530 53.600,300.200 53.600 C 299.870 53.600,299.600 53.432,299.600 53.227 C 299.600 53.022,299.195 52.728,298.700 52.573 C 298.205 52.419,297.710 52.172,297.600 52.025 C 297.322 51.654,294.575 50.400,294.040 50.400 C 293.798 50.400,293.600 50.220,293.600 50.000 C 293.600 49.780,293.345 49.600,293.033 49.600 C 292.722 49.600,292.407 49.465,292.333 49.300 C 292.260 49.135,290.940 48.370,289.400 47.600 C 287.860 46.830,286.540 46.065,286.467 45.900 C 286.393 45.735,285.988 45.600,285.567 45.600 C 285.145 45.600,284.800 45.420,284.800 45.200 C 284.800 44.980,284.543 44.800,284.229 44.800 C 283.914 44.800,283.416 44.575,283.121 44.300 C 282.263 43.499,280.132 42.400,279.438 42.400 C 279.087 42.400,278.800 42.220,278.800 42.000 C 278.800 41.780,278.545 41.600,278.233 41.600 C 277.922 41.600,277.607 41.465,277.533 41.300 C 277.460 41.135,276.140 40.370,274.600 39.600 C 273.060 38.830,271.710 38.094,271.600 37.964 C 271.490 37.835,270.635 37.395,269.700 36.987 C 268.765 36.580,268.000 36.141,268.000 36.013 C 268.000 35.884,267.192 35.424,266.204 34.990 C 265.216 34.555,264.406 34.065,264.404 33.900 C 264.402 33.735,264.040 33.600,263.600 33.600 C 263.160 33.600,262.800 33.420,262.800 33.200 C 262.800 32.980,262.595 32.800,262.344 32.800 C 262.094 32.800,261.011 32.260,259.938 31.600 C 258.866 30.940,257.736 30.400,257.427 30.400 C 257.119 30.400,256.807 30.265,256.733 30.100 C 256.523 29.627,254.144 28.400,253.438 28.400 C 253.087 28.400,252.800 28.217,252.800 27.994 C 252.800 27.770,252.125 27.275,251.300 26.894 C 250.475 26.512,249.710 26.101,249.600 25.979 C 249.278 25.623,246.520 24.400,246.040 24.400 C 245.798 24.400,245.600 24.249,245.600 24.064 C 245.600 23.880,244.882 23.385,244.005 22.964 C 243.127 22.544,242.407 22.065,242.405 21.900 C 242.402 21.735,242.145 21.600,241.832 21.600 C 241.298 21.600,238.836 20.446,238.400 19.991 C 237.855 19.421,235.960 18.400,235.447 18.400 C 235.128 18.400,234.807 18.265,234.733 18.100 C 234.523 17.627,232.144 16.400,231.438 16.400 C 231.087 16.400,230.800 16.241,230.800 16.047 C 230.800 15.852,230.485 15.588,230.100 15.458 C 229.400 15.223,227.977 14.387,227.600 13.989 C 227.490 13.873,226.590 13.428,225.600 13.000 C 224.610 12.572,223.710 12.127,223.600 12.011 C 223.223 11.613,221.800 10.777,221.100 10.542 C 220.715 10.412,220.400 10.148,220.400 9.953 C 220.400 9.759,220.113 9.600,219.762 9.600 C 219.056 9.600,216.677 8.373,216.467 7.900 C 216.393 7.735,216.010 7.600,215.616 7.600 C 215.221 7.600,214.674 7.330,214.400 7.000 C 214.126 6.670,213.654 6.400,213.351 6.400 C 213.048 6.400,212.800 6.234,212.800 6.032 C 212.800 5.829,212.260 5.545,211.600 5.400 C 210.940 5.255,210.400 4.971,210.400 4.768 C 210.400 4.566,210.040 4.400,209.600 4.400 C 209.160 4.400,208.800 4.240,208.800 4.043 C 208.800 3.847,208.391 3.584,207.892 3.459 C 207.393 3.334,206.598 2.871,206.126 2.432 C 205.654 1.992,204.758 1.507,204.134 1.355 C 203.510 1.202,202.884 0.900,202.743 0.684 C 202.456 0.245,198.988 -0.062,197.900 0.255 M202.338 38.852 C 203.582 39.541,206.310 41.002,208.400 42.099 C 210.490 43.196,212.740 44.408,213.400 44.793 C 214.060 45.178,215.770 46.125,217.200 46.898 C 218.630 47.672,220.610 48.749,221.600 49.293 C 222.590 49.837,225.200 51.234,227.400 52.398 C 229.600 53.562,231.580 54.641,231.800 54.797 C 232.020 54.952,233.550 55.803,235.200 56.689 C 236.850 57.574,239.010 58.745,240.000 59.290 C 240.990 59.836,243.600 61.234,245.800 62.398 C 248.000 63.562,249.980 64.642,250.200 64.798 C 250.420 64.954,252.220 65.943,254.200 66.997 C 260.172 70.175,268.735 74.822,273.000 77.200 C 273.660 77.567,276.000 78.820,278.200 79.984 C 280.400 81.147,282.740 82.413,283.400 82.796 C 284.060 83.179,285.770 84.125,287.200 84.898 C 288.630 85.672,290.610 86.749,291.600 87.293 C 292.590 87.837,295.200 89.234,297.400 90.398 C 299.600 91.562,301.580 92.643,301.800 92.800 C 302.020 92.957,304.000 94.037,306.200 95.200 C 308.400 96.363,310.380 97.442,310.600 97.597 C 310.820 97.753,312.980 98.922,315.400 100.195 C 317.820 101.468,319.980 102.639,320.200 102.797 C 320.420 102.956,322.400 104.038,324.600 105.202 C 329.071 107.568,332.033 109.162,335.000 110.800 C 338.237 112.586,340.835 114.006,343.500 115.448 C 344.875 116.192,347.125 117.408,348.500 118.152 C 349.875 118.896,351.810 119.949,352.800 120.492 C 358.014 123.354,360.499 124.704,363.400 126.249 L 366.600 127.953 366.600 152.876 C 366.600 204.309,365.576 324.147,365.132 324.682 C 364.896 324.967,364.560 325.200,364.387 325.200 C 364.213 325.200,362.841 325.892,361.336 326.737 C 359.831 327.582,357.379 328.938,355.888 329.750 C 354.396 330.563,352.596 331.552,351.888 331.948 C 348.690 333.738,345.935 335.237,342.600 336.999 C 340.620 338.045,338.460 339.215,337.800 339.597 C 336.121 340.571,331.383 343.139,329.000 344.368 C 327.900 344.936,326.910 345.490,326.800 345.600 C 326.561 345.839,326.164 346.057,321.000 348.786 C 318.800 349.948,316.460 351.213,315.800 351.596 C 314.189 352.532,310.534 354.516,306.400 356.698 C 304.530 357.684,302.820 358.625,302.600 358.787 C 302.380 358.949,300.580 359.940,298.600 360.990 C 296.620 362.039,294.460 363.212,293.800 363.596 C 292.306 364.464,288.781 366.382,284.600 368.602 C 282.840 369.536,280.770 370.653,280.000 371.085 C 279.230 371.516,277.520 372.460,276.200 373.183 C 274.880 373.905,272.900 374.992,271.800 375.600 C 270.700 376.207,268.900 377.200,267.800 377.807 C 266.700 378.413,264.360 379.673,262.600 380.605 C 260.840 381.537,258.770 382.653,258.000 383.085 C 257.230 383.516,255.520 384.460,254.200 385.183 C 252.880 385.905,250.900 386.992,249.800 387.600 C 248.700 388.207,246.900 389.200,245.800 389.807 C 244.700 390.413,242.360 391.673,240.600 392.605 C 238.840 393.537,236.770 394.653,236.000 395.085 C 235.230 395.516,233.520 396.460,232.200 397.183 C 230.880 397.905,228.900 398.992,227.800 399.600 C 226.700 400.207,224.900 401.200,223.800 401.807 C 222.700 402.413,220.360 403.673,218.600 404.605 C 216.840 405.537,214.731 406.676,213.912 407.136 C 213.094 407.596,211.204 408.633,209.712 409.440 C 208.221 410.247,206.460 411.219,205.800 411.600 C 205.140 411.981,203.383 412.951,201.895 413.756 L 199.189 415.220 197.295 414.162 C 196.253 413.580,194.230 412.472,192.800 411.698 C 191.370 410.925,189.660 409.981,189.000 409.600 C 187.220 408.572,182.481 406.011,180.200 404.843 C 179.100 404.280,178.110 403.725,178.000 403.610 C 177.890 403.494,176.900 402.936,175.800 402.368 C 173.463 401.163,168.722 398.594,167.000 397.600 C 166.340 397.219,164.540 396.225,163.000 395.390 C 161.460 394.556,159.390 393.433,158.400 392.895 C 157.410 392.356,155.340 391.240,153.800 390.413 C 152.260 389.587,150.100 388.414,149.000 387.807 C 147.900 387.200,146.100 386.207,145.000 385.600 C 140.227 382.966,136.266 380.810,131.800 378.414 C 130.260 377.588,128.370 376.556,127.600 376.121 C 126.830 375.687,125.210 374.788,124.000 374.126 C 121.405 372.704,116.159 369.849,110.200 366.614 C 108.660 365.778,106.680 364.697,105.800 364.213 C 104.920 363.728,103.120 362.740,101.800 362.018 C 100.480 361.295,98.500 360.205,97.400 359.595 C 96.300 358.985,94.410 357.956,93.200 357.309 C 90.322 355.769,85.859 353.347,83.600 352.099 C 82.610 351.552,80.630 350.472,79.200 349.698 C 77.770 348.925,76.060 347.981,75.400 347.600 C 74.192 346.902,71.367 345.366,66.200 342.595 C 64.660 341.769,62.680 340.697,61.800 340.213 C 59.696 339.054,55.729 336.853,54.112 335.948 C 52.478 335.033,48.447 332.838,45.600 331.311 C 42.919 329.874,38.433 327.442,36.000 326.105 C 35.010 325.561,33.975 324.933,33.699 324.709 C 33.300 324.384,33.219 304.363,33.299 226.127 L 33.400 127.953 36.600 126.249 C 40.667 124.083,45.055 121.692,46.600 120.800 C 47.260 120.419,48.970 119.475,50.400 118.702 C 51.830 117.928,53.810 116.852,54.800 116.309 C 55.790 115.766,58.220 114.458,60.200 113.403 C 62.180 112.347,65.150 110.726,66.800 109.800 C 68.450 108.874,71.420 107.251,73.400 106.194 C 75.380 105.136,78.231 103.580,79.736 102.736 C 81.241 101.891,82.529 101.200,82.600 101.200 C 82.671 101.200,83.959 100.508,85.464 99.663 C 88.456 97.982,91.389 96.374,96.000 93.887 C 97.650 92.997,100.231 91.579,101.736 90.735 C 103.241 89.891,104.529 89.200,104.600 89.200 C 104.671 89.200,105.959 88.508,107.464 87.663 C 110.456 85.982,113.389 84.374,118.000 81.887 C 119.650 80.997,122.231 79.579,123.736 78.735 C 125.241 77.891,126.529 77.200,126.600 77.200 C 126.671 77.200,127.959 76.508,129.464 75.663 C 132.449 73.987,135.854 72.126,140.200 69.795 C 141.740 68.969,143.810 67.846,144.800 67.299 C 145.790 66.752,147.770 65.672,149.200 64.898 C 150.630 64.125,152.340 63.180,153.000 62.798 C 153.660 62.416,155.640 61.336,157.400 60.399 C 161.457 58.237,165.235 56.192,167.000 55.200 C 167.757 54.775,169.596 53.767,171.088 52.960 C 172.579 52.153,174.340 51.180,175.000 50.798 C 175.660 50.416,177.640 49.336,179.400 48.399 C 183.611 46.155,187.274 44.170,189.112 43.135 C 189.931 42.674,191.950 41.567,193.600 40.675 C 195.250 39.782,197.140 38.726,197.800 38.328 C 199.402 37.360,199.706 37.395,202.338 38.852 " stroke="none" fill="#040404" fill-rule="evenodd"></path><path id="path4" d="M197.800 38.328 C 197.140 38.726,195.250 39.782,193.600 40.675 C 191.950 41.567,189.931 42.674,189.112 43.135 C 187.274 44.170,183.611 46.155,179.400 48.399 C 177.640 49.336,175.660 50.416,175.000 50.798 C 174.340 51.180,172.579 52.153,171.088 52.960 C 169.596 53.767,167.757 54.775,167.000 55.200 C 165.235 56.192,161.457 58.237,157.400 60.399 C 155.640 61.336,153.660 62.416,153.000 62.798 C 152.340 63.180,150.579 64.153,149.088 64.960 C 147.596 65.767,145.762 66.772,145.013 67.193 C 144.263 67.614,142.902 68.340,141.986 68.807 C 141.071 69.274,140.413 69.746,140.523 69.856 C 140.633 69.967,142.017 69.324,143.598 68.429 C 145.178 67.533,146.529 66.800,146.600 66.800 C 146.671 66.800,147.959 66.108,149.464 65.263 C 152.456 63.582,155.389 61.974,160.000 59.487 C 161.650 58.597,164.231 57.179,165.736 56.335 C 167.241 55.491,168.529 54.800,168.600 54.800 C 168.671 54.800,169.959 54.108,171.464 53.261 C 172.969 52.415,175.640 50.952,177.400 50.011 C 179.160 49.069,181.500 47.803,182.600 47.198 C 185.693 45.495,188.359 44.035,191.200 42.489 C 192.630 41.710,195.031 40.382,196.536 39.537 C 200.028 37.575,198.828 37.360,205.800 41.198 C 206.900 41.803,209.240 43.065,211.000 44.001 C 212.760 44.937,214.740 46.016,215.400 46.398 C 216.676 47.137,219.786 48.819,225.000 51.590 C 226.760 52.526,229.100 53.789,230.200 54.397 C 233.196 56.054,235.914 57.541,238.700 59.048 C 240.075 59.792,242.325 61.008,243.700 61.752 C 245.075 62.496,247.010 63.549,248.000 64.092 C 248.990 64.636,250.970 65.716,252.400 66.492 C 253.830 67.269,255.810 68.349,256.800 68.893 C 257.790 69.437,260.400 70.834,262.600 71.998 C 264.800 73.162,266.780 74.242,267.000 74.398 C 267.220 74.554,269.020 75.540,271.000 76.590 C 272.980 77.639,275.194 78.856,275.921 79.295 C 276.648 79.733,277.340 79.993,277.460 79.874 C 277.580 79.754,276.929 79.274,276.014 78.807 C 275.098 78.340,273.776 77.637,273.075 77.244 C 269.176 75.062,260.344 70.267,254.200 66.997 C 252.220 65.943,250.420 64.954,250.200 64.798 C 249.980 64.642,248.000 63.562,245.800 62.398 C 243.600 61.234,240.990 59.836,240.000 59.290 C 239.010 58.745,236.850 57.574,235.200 56.689 C 233.550 55.803,232.020 54.952,231.800 54.797 C 231.580 54.641,229.600 53.562,227.400 52.398 C 225.200 51.234,222.590 49.837,221.600 49.293 C 220.610 48.749,218.630 47.672,217.200 46.898 C 215.770 46.125,214.060 45.178,213.400 44.793 C 212.740 44.408,210.490 43.196,208.400 42.099 C 206.310 41.002,203.582 39.541,202.338 38.852 C 199.706 37.395,199.402 37.360,197.800 38.328 M138.800 70.534 C 137.107 71.429,132.341 74.048,129.464 75.663 C 127.959 76.508,126.671 77.200,126.600 77.200 C 126.529 77.200,125.241 77.891,123.736 78.735 C 122.231 79.579,119.650 80.997,118.000 81.887 C 113.389 84.374,110.456 85.982,107.464 87.663 C 105.959 88.508,104.671 89.200,104.600 89.200 C 104.529 89.200,103.241 89.891,101.736 90.735 C 100.231 91.579,97.650 92.997,96.000 93.887 C 91.389 96.374,88.456 97.982,85.464 99.663 C 83.959 100.508,82.671 101.200,82.600 101.200 C 82.529 101.200,81.241 101.891,79.736 102.736 C 78.231 103.580,75.380 105.136,73.400 106.194 C 71.420 107.251,68.450 108.874,66.800 109.800 C 65.150 110.726,62.180 112.347,60.200 113.403 C 58.220 114.458,55.790 115.766,54.800 116.309 C 53.810 116.852,51.830 117.928,50.400 118.702 C 48.970 119.475,47.260 120.419,46.600 120.800 C 45.940 121.181,44.140 122.167,42.600 122.992 C 39.719 124.534,38.336 125.499,39.800 124.944 C 40.240 124.778,41.770 123.986,43.200 123.184 C 46.096 121.560,49.121 119.903,53.600 117.487 C 55.250 116.597,57.831 115.179,59.336 114.335 C 60.841 113.491,62.129 112.800,62.200 112.800 C 62.271 112.800,63.559 112.108,65.064 111.263 C 66.569 110.417,68.790 109.187,70.000 108.528 C 73.340 106.710,77.529 104.437,80.200 102.993 C 82.729 101.626,85.286 100.228,88.600 98.400 C 91.900 96.580,94.460 95.180,97.100 93.752 C 98.475 93.008,100.725 91.792,102.100 91.048 C 104.740 89.620,107.300 88.220,110.600 86.400 C 115.690 83.592,119.234 81.667,124.600 78.792 C 126.360 77.849,129.150 76.324,130.800 75.402 C 132.450 74.480,135.060 73.047,136.600 72.217 C 139.155 70.841,140.444 69.996,139.980 70.002 C 139.881 70.004,139.350 70.243,138.800 70.534 M278.200 80.331 C 278.420 80.539,279.860 81.384,281.400 82.208 C 282.940 83.033,284.740 84.020,285.400 84.402 C 286.060 84.784,287.950 85.821,289.600 86.706 C 298.507 91.482,304.436 94.703,308.735 97.098 C 309.689 97.629,310.559 97.974,310.669 97.865 C 310.779 97.755,310.448 97.446,309.934 97.178 C 306.684 95.485,302.138 93.038,301.800 92.798 C 301.580 92.642,299.600 91.562,297.400 90.398 C 295.200 89.234,292.590 87.837,291.600 87.293 C 290.610 86.749,288.630 85.667,287.200 84.889 C 285.770 84.110,283.430 82.818,282.000 82.016 C 279.180 80.435,277.542 79.709,278.200 80.331 M311.400 98.294 C 311.788 98.689,312.972 99.367,318.400 102.302 C 319.830 103.075,321.540 104.020,322.200 104.402 C 323.373 105.081,325.723 106.344,333.000 110.208 C 334.980 111.259,336.780 112.246,337.000 112.402 C 337.220 112.558,339.200 113.638,341.400 114.802 C 343.600 115.966,346.210 117.363,347.200 117.907 C 348.190 118.451,350.170 119.533,351.600 120.311 C 353.030 121.090,355.370 122.382,356.800 123.184 C 358.230 123.986,359.760 124.778,360.200 124.944 C 361.657 125.496,360.287 124.538,357.400 122.986 C 355.860 122.158,353.790 121.036,352.800 120.492 C 351.810 119.949,349.875 118.896,348.500 118.152 C 347.125 117.408,344.875 116.192,343.500 115.448 C 340.835 114.006,338.237 112.586,335.000 110.800 C 332.033 109.162,329.071 107.568,324.600 105.202 C 322.400 104.038,320.420 102.956,320.200 102.797 C 319.305 102.152,311.030 97.918,311.400 98.294 M35.700 126.670 L 33.200 128.044 33.200 226.195 L 33.200 324.346 34.362 325.173 C 35.001 325.628,35.615 326.000,35.726 326.000 C 35.837 326.000,37.222 326.733,38.802 327.629 C 40.383 328.524,41.757 329.176,41.855 329.078 C 41.954 328.979,41.352 328.538,40.517 328.097 C 39.683 327.656,37.830 326.655,36.400 325.873 L 33.800 324.450 33.699 226.433 L 33.598 128.417 35.699 127.230 C 38.431 125.687,39.089 125.242,38.600 125.271 C 38.380 125.284,37.075 125.914,35.700 126.670 M361.600 125.609 C 361.930 125.848,363.143 126.576,364.296 127.227 L 366.393 128.412 366.240 170.306 C 366.132 200.091,366.175 206.535,366.389 192.600 C 366.554 181.820,366.714 162.878,366.745 150.506 L 366.800 128.012 364.300 126.709 C 361.621 125.312,360.632 124.910,361.600 125.609 M365.466 261.066 C 365.320 277.272,365.200 298.088,365.200 307.322 C 365.200 322.843,365.147 324.152,364.500 324.643 C 364.115 324.935,364.003 325.180,364.251 325.187 C 364.499 325.194,364.896 324.966,365.133 324.680 C 365.568 324.156,366.361 231.600,365.930 231.600 C 365.821 231.600,365.612 244.860,365.466 261.066 M360.084 326.994 C 356.634 328.846,352.564 331.072,350.200 332.400 C 348.435 333.392,344.657 335.437,340.600 337.599 C 338.840 338.536,336.860 339.616,336.200 339.998 C 334.633 340.905,329.710 343.586,328.275 344.313 C 327.656 344.627,327.236 344.969,327.341 345.074 C 327.445 345.179,328.401 344.778,329.465 344.184 C 330.529 343.590,332.570 342.472,334.000 341.698 C 335.430 340.925,337.140 339.979,337.800 339.596 C 338.460 339.213,340.800 337.947,343.000 336.784 C 345.200 335.620,347.540 334.367,348.200 334.000 C 348.860 333.632,350.480 332.732,351.800 332.000 C 353.120 331.268,354.740 330.370,355.400 330.004 C 356.060 329.638,358.175 328.483,360.100 327.437 C 362.025 326.391,363.600 325.460,363.600 325.368 C 363.600 325.107,363.592 325.110,360.084 326.994 M42.400 329.359 C 42.400 329.696,45.244 331.289,45.460 331.074 C 45.580 330.954,44.940 330.480,44.039 330.020 C 43.137 329.560,42.400 329.263,42.400 329.359 M46.000 331.384 C 46.000 331.494,46.720 331.951,47.600 332.400 C 48.480 332.849,49.200 333.126,49.200 333.016 C 49.200 332.906,48.480 332.449,47.600 332.000 C 46.720 331.551,46.000 331.274,46.000 331.384 M53.200 335.360 C 53.200 335.447,53.875 335.873,54.700 336.306 C 55.525 336.738,56.869 337.470,57.688 337.932 C 58.506 338.394,60.396 339.433,61.888 340.240 C 63.379 341.047,65.194 342.064,65.921 342.499 C 66.648 342.935,67.340 343.193,67.460 343.074 C 67.580 342.954,66.929 342.474,66.014 342.007 C 65.098 341.540,63.686 340.784,62.875 340.328 C 62.064 339.871,60.050 338.771,58.400 337.883 C 56.750 336.996,55.045 336.029,54.611 335.735 C 53.839 335.211,53.200 335.042,53.200 335.360 M68.000 343.352 C 68.000 343.653,70.895 345.238,71.089 345.044 C 71.193 344.941,70.540 344.480,69.639 344.020 C 68.737 343.560,68.000 343.260,68.000 343.352 M71.600 345.384 C 71.600 345.494,72.320 345.951,73.200 346.400 C 74.080 346.849,74.800 347.126,74.800 347.016 C 74.800 346.906,74.080 346.449,73.200 346.000 C 72.320 345.551,71.600 345.274,71.600 345.384 M325.000 346.146 C 324.120 346.648,321.420 348.105,319.000 349.384 C 316.580 350.663,314.420 351.837,314.200 351.994 C 313.788 352.287,308.276 355.289,306.275 356.310 C 305.656 356.625,305.236 356.969,305.341 357.074 C 305.445 357.179,306.401 356.778,307.465 356.184 C 308.529 355.590,310.570 354.472,312.000 353.698 C 313.430 352.925,315.140 351.979,315.800 351.596 C 317.300 350.725,324.689 346.793,325.897 346.223 C 326.390 345.990,326.795 345.665,326.797 345.500 C 326.801 345.108,326.852 345.090,325.000 346.146 M75.420 347.543 C 75.629 347.732,77.150 348.611,78.800 349.496 C 84.434 352.518,86.600 353.706,87.921 354.499 C 88.648 354.935,89.334 355.200,89.446 355.087 C 89.558 354.975,89.144 354.627,88.525 354.313 C 87.086 353.584,82.667 351.162,78.714 348.937 C 75.796 347.294,74.570 346.776,75.420 347.543 M90.000 355.359 C 90.000 355.696,92.844 357.289,93.060 357.074 C 93.180 356.954,92.540 356.480,91.639 356.020 C 90.737 355.560,90.000 355.263,90.000 355.359 M93.600 357.384 C 93.600 357.494,94.320 357.951,95.200 358.400 C 96.080 358.849,96.800 359.126,96.800 359.016 C 96.800 358.906,96.080 358.449,95.200 358.000 C 94.320 357.551,93.600 357.274,93.600 357.384 M302.983 358.135 C 302.093 358.643,299.393 360.106,296.983 361.384 C 294.572 362.663,292.420 363.837,292.200 363.994 C 291.788 364.287,286.276 367.289,284.275 368.310 C 283.656 368.625,283.236 368.969,283.341 369.074 C 283.445 369.179,284.401 368.778,285.465 368.184 C 286.529 367.590,288.570 366.472,290.000 365.698 C 291.430 364.925,293.140 363.980,293.800 363.598 C 294.460 363.216,296.440 362.134,298.200 361.194 C 302.456 358.920,304.800 357.560,304.800 357.362 C 304.800 357.109,304.703 357.151,302.983 358.135 M97.420 359.543 C 97.629 359.732,99.150 360.611,100.800 361.496 C 106.434 364.518,108.600 365.706,109.921 366.499 C 110.648 366.935,111.334 367.200,111.446 367.087 C 111.558 366.975,111.144 366.627,110.525 366.313 C 109.463 365.775,108.313 365.148,100.651 360.932 C 97.590 359.248,96.642 358.840,97.420 359.543 M112.000 367.359 C 112.000 367.696,114.844 369.289,115.060 369.074 C 115.180 368.954,114.540 368.480,113.639 368.020 C 112.737 367.560,112.000 367.263,112.000 367.359 M115.600 369.352 C 115.600 369.653,118.495 371.238,118.689 371.044 C 118.793 370.941,118.140 370.480,117.239 370.020 C 116.337 369.560,115.600 369.260,115.600 369.352 M280.400 370.433 C 279.190 371.104,276.490 372.566,274.400 373.683 C 272.310 374.800,270.420 375.842,270.200 375.998 C 269.862 376.238,265.316 378.685,262.066 380.378 C 261.552 380.646,261.221 380.955,261.331 381.065 C 261.441 381.174,262.401 380.778,263.465 380.184 C 264.529 379.590,266.570 378.472,268.000 377.698 C 269.430 376.925,271.140 375.981,271.800 375.600 C 272.460 375.219,274.170 374.275,275.600 373.502 C 280.829 370.675,282.208 369.894,282.580 369.551 C 283.235 368.946,282.673 369.174,280.400 370.433 M119.420 371.543 C 119.629 371.732,121.150 372.609,122.800 373.492 C 124.450 374.375,126.430 375.451,127.200 375.883 C 132.099 378.634,133.290 379.243,133.451 379.082 C 133.551 378.982,132.770 378.450,131.716 377.898 C 130.662 377.346,127.485 375.614,124.656 374.047 C 119.778 371.347,118.556 370.763,119.420 371.543 M134.000 379.359 C 134.000 379.696,136.844 381.289,137.060 381.074 C 137.180 380.954,136.540 380.480,135.639 380.020 C 134.737 379.560,134.000 379.263,134.000 379.359 M137.600 381.352 C 137.600 381.653,140.495 383.238,140.689 383.044 C 140.793 382.941,140.140 382.480,139.239 382.020 C 138.337 381.560,137.600 381.260,137.600 381.352 M257.800 382.741 C 251.119 386.368,249.330 387.348,248.200 388.000 C 246.796 388.811,242.384 391.191,240.463 392.174 C 239.727 392.551,239.217 392.950,239.328 393.062 C 239.440 393.173,240.401 392.778,241.465 392.184 C 242.529 391.590,244.570 390.472,246.000 389.698 C 247.430 388.925,249.140 387.981,249.800 387.600 C 250.460 387.219,252.170 386.275,253.600 385.502 C 258.829 382.675,260.208 381.894,260.580 381.551 C 261.246 380.936,260.669 381.183,257.800 382.741 M141.200 383.361 C 141.200 383.457,142.775 384.391,144.700 385.437 C 146.625 386.483,148.740 387.638,149.400 388.004 C 150.060 388.370,151.651 389.253,152.935 389.966 C 154.219 390.680,155.370 391.163,155.492 391.041 C 155.615 390.919,155.375 390.688,154.960 390.529 C 154.544 390.370,152.224 389.131,149.802 387.777 C 144.576 384.853,141.200 383.120,141.200 383.361 M156.000 391.359 C 156.000 391.696,158.844 393.289,159.060 393.074 C 159.180 392.954,158.540 392.480,157.639 392.020 C 156.737 391.560,156.000 391.263,156.000 391.359 M159.600 393.352 C 159.600 393.653,162.495 395.238,162.689 395.044 C 162.793 394.941,162.140 394.480,161.239 394.020 C 160.337 393.560,159.600 393.260,159.600 393.352 M235.800 394.741 C 229.119 398.368,227.330 399.348,226.200 400.000 C 224.796 400.811,220.384 403.191,218.463 404.174 C 217.727 404.551,217.217 404.950,217.328 405.062 C 217.440 405.173,218.401 404.778,219.465 404.184 C 220.529 403.590,222.570 402.472,224.000 401.698 C 225.430 400.925,227.140 399.981,227.800 399.600 C 228.460 399.219,230.170 398.275,231.600 397.502 C 236.829 394.675,238.208 393.894,238.580 393.551 C 239.246 392.936,238.669 393.183,235.800 394.741 M163.200 395.361 C 163.200 395.457,164.775 396.391,166.700 397.437 C 168.625 398.483,170.740 399.638,171.400 400.004 C 172.060 400.370,173.651 401.253,174.935 401.966 C 176.219 402.680,177.370 403.163,177.492 403.041 C 177.615 402.919,177.375 402.688,176.960 402.529 C 176.544 402.370,174.224 401.131,171.802 399.777 C 166.576 396.853,163.200 395.120,163.200 395.361 M178.010 403.506 C 178.022 403.866,180.833 405.301,181.067 405.066 C 181.159 404.974,180.507 404.519,179.617 404.056 C 178.728 403.592,178.004 403.345,178.010 403.506 M181.600 405.352 C 181.600 405.653,184.495 407.238,184.689 407.044 C 184.793 406.941,184.140 406.480,183.239 406.020 C 182.337 405.560,181.600 405.260,181.600 405.352 M213.800 406.741 C 208.959 409.369,205.493 411.275,202.664 412.863 C 199.311 414.747,199.095 414.750,195.938 412.964 C 191.276 410.327,185.200 407.146,185.200 407.342 C 185.200 407.448,186.775 408.391,188.700 409.437 C 190.625 410.483,192.740 411.638,193.400 412.004 C 194.060 412.370,195.633 413.243,196.895 413.944 L 199.191 415.219 201.895 413.756 C 203.383 412.951,205.140 411.981,205.800 411.600 C 206.460 411.219,208.170 410.275,209.600 409.502 C 214.829 406.675,216.208 405.894,216.580 405.551 C 217.246 404.936,216.669 405.183,213.800 406.741 " stroke="none" fill="#18554e" fill-rule="evenodd"></path></g></svg>