<svg viewBox="0 0 16 16" xmlns="http://www.w3.org/2000/svg">
    <path d="M14.483 6H4.721a1 1 0 0 0-.949.684L2 12V5h12a1 1 0 0 0-1-1H7.562a1 1 0 0 1-.64-.232l-.644-.536A1 1 0 0 0 5.638 3H2a1 1 0 0 0-1 1v8a1 1 0 0 0 1 1h11l2.403-5.606A1 1 0 0 0 14.483 6" fill="#66808dff" />
    <path d="M12.1 11.5c0-.9.8-1.6 1.6-1.6s1.6.7 1.6 1.6v1.5c0 .3.2.5.5.5v.4h-4.2v-.4c.3 0 .5-.2.5-.5v-1.5z" fill="#FFD700" stroke="#FFB000" stroke-width="0.15"/>
    <path d="M13.2 13.9h1c0 .3-.2.5-.5.5s-.5-.2-.5-.5z" fill="#FFB000"/>
</svg>