<svg id="svg" version="1.1" xmlns="http://www.w3.org/2000/svg" xmlns:xlink="http://www.w3.org/1999/xlink" width="400" height="321.25" viewBox="0, 0, 400,321.25"><g id="svgg"><path id="path0" d="M182.570 0.224 C 181.643 0.296,180.884 0.492,180.884 0.659 C 180.884 0.827,180.233 0.964,179.438 0.964 C 178.643 0.964,177.992 1.108,177.992 1.285 C 177.992 1.471,176.981 1.606,175.601 1.606 C 174.286 1.606,173.121 1.751,173.012 1.928 C 172.903 2.104,172.527 2.249,172.176 2.249 C 171.826 2.249,171.229 2.538,170.850 2.892 C 170.358 3.350,169.716 3.534,168.614 3.534 C 167.764 3.534,167.068 3.679,167.068 3.855 C 167.068 4.032,166.643 4.177,166.123 4.177 C 165.604 4.177,165.089 4.321,164.980 4.498 C 164.871 4.675,164.501 4.819,164.158 4.819 C 163.815 4.819,163.534 4.964,163.534 5.141 C 163.534 5.317,163.156 5.462,162.694 5.462 C 162.231 5.462,161.183 5.669,160.364 5.923 C 154.592 7.709,153.299 8.165,152.068 8.852 C 151.306 9.278,150.306 9.694,149.846 9.778 C 149.386 9.861,148.627 10.189,148.160 10.507 C 146.983 11.306,144.853 12.495,144.177 12.731 C 143.867 12.838,143.614 13.054,143.614 13.210 C 143.614 13.366,143.384 13.494,143.102 13.494 C 142.577 13.494,140.648 14.715,140.455 15.169 C 140.396 15.308,140.137 15.422,139.879 15.422 C 139.622 15.422,139.101 15.711,138.721 16.064 C 138.342 16.418,137.797 16.707,137.510 16.707 C 137.223 16.707,136.695 16.981,136.336 17.315 C 135.976 17.650,135.262 18.158,134.749 18.444 C 133.155 19.332,132.627 19.720,131.314 20.964 C 130.615 21.627,129.827 22.169,129.564 22.169 C 129.301 22.169,128.394 22.747,127.550 23.454 C 126.706 24.161,125.884 24.739,125.724 24.739 C 125.564 24.739,124.886 25.317,124.216 26.024 C 123.546 26.731,122.875 27.309,122.725 27.309 C 122.576 27.309,122.361 27.598,122.249 27.952 C 122.137 28.305,121.932 28.594,121.794 28.594 C 121.052 28.594,109.237 40.395,109.237 41.136 C 109.237 41.254,108.839 41.772,108.353 42.287 C 107.867 42.802,107.253 43.652,106.988 44.175 C 106.723 44.698,105.964 45.707,105.301 46.417 C 104.639 47.127,104.096 48.033,104.096 48.432 C 104.096 48.942,103.906 49.157,103.454 49.157 C 102.954 49.157,102.811 49.371,102.811 50.120 C 102.811 50.825,102.660 51.084,102.247 51.084 C 101.916 51.084,101.499 51.516,101.238 52.129 C 100.994 52.703,100.469 53.534,100.072 53.976 C 99.675 54.418,99.098 55.285,98.788 55.904 C 98.479 56.522,98.029 57.144,97.788 57.285 C 97.547 57.426,97.349 57.896,97.349 58.329 C 97.349 58.762,97.241 59.118,97.108 59.119 C 96.838 59.122,96.064 60.662,96.064 61.198 C 96.064 61.389,95.775 61.753,95.422 62.008 C 95.068 62.263,94.779 62.720,94.779 63.024 C 94.779 63.328,94.635 63.666,94.458 63.775 C 94.281 63.884,94.137 64.389,94.137 64.897 C 94.137 65.538,93.940 65.882,93.494 66.024 C 93.141 66.136,92.851 66.499,92.851 66.830 C 92.851 67.161,92.707 67.521,92.530 67.631 C 92.353 67.740,92.209 68.112,92.209 68.457 C 92.209 68.802,92.064 69.372,91.888 69.723 C 91.711 70.074,91.422 70.649,91.245 71.000 C 89.636 74.196,91.602 75.497,94.167 72.932 C 95.051 72.048,95.896 71.325,96.045 71.325 C 96.194 71.325,96.407 70.964,96.517 70.522 C 96.628 70.080,96.880 69.719,97.077 69.719 C 97.274 69.719,97.668 69.459,97.954 69.141 C 98.240 68.824,98.980 68.216,99.598 67.792 C 101.077 66.777,103.154 65.070,105.008 63.347 C 105.832 62.582,106.904 61.809,107.390 61.629 C 107.876 61.450,108.273 61.118,108.273 60.892 C 108.273 60.667,108.707 60.395,109.237 60.289 C 109.802 60.176,110.201 59.894,110.201 59.606 C 110.201 59.337,110.420 59.116,110.687 59.116 C 111.372 59.116,112.460 58.463,113.497 57.430 C 113.984 56.944,114.599 56.546,114.862 56.546 C 115.126 56.546,115.341 56.402,115.341 56.225 C 115.341 56.048,115.631 55.904,115.984 55.904 C 116.337 55.904,116.627 55.759,116.627 55.582 C 116.627 55.406,116.843 55.261,117.108 55.261 C 117.373 55.261,117.590 55.116,117.590 54.940 C 117.590 54.763,117.848 54.618,118.162 54.618 C 118.476 54.618,118.942 54.329,119.197 53.976 C 119.452 53.622,119.917 53.333,120.232 53.333 C 120.546 53.333,120.803 53.189,120.803 53.012 C 120.803 52.835,120.991 52.691,121.221 52.691 C 121.812 52.691,123.368 51.935,123.371 51.647 C 123.372 51.514,123.771 51.401,124.257 51.395 C 124.743 51.390,125.421 51.173,125.764 50.913 C 126.107 50.654,126.630 50.442,126.926 50.442 C 127.222 50.442,127.808 50.181,128.230 49.862 C 128.651 49.543,129.647 49.083,130.442 48.841 C 132.200 48.305,133.634 47.617,134.224 47.027 C 134.466 46.784,135.088 46.586,135.605 46.586 C 136.123 46.586,136.546 46.442,136.546 46.265 C 136.546 46.088,137.042 45.944,137.649 45.944 C 138.470 45.944,138.804 45.779,138.956 45.301 C 139.107 44.826,139.442 44.659,140.244 44.659 C 140.840 44.659,141.417 44.514,141.526 44.337 C 141.635 44.161,142.078 44.016,142.509 44.016 C 142.940 44.016,143.293 43.871,143.293 43.695 C 143.293 43.518,143.582 43.373,143.936 43.373 C 144.289 43.373,144.578 43.229,144.578 43.052 C 144.578 42.876,145.076 42.731,145.684 42.731 C 146.292 42.731,146.879 42.586,146.988 42.410 C 147.097 42.233,147.756 42.088,148.453 42.088 C 149.149 42.088,149.719 41.944,149.719 41.767 C 149.719 41.590,150.338 41.446,151.094 41.446 C 152.086 41.446,152.594 41.272,152.918 40.823 C 153.247 40.365,153.928 40.141,155.479 39.980 C 156.640 39.859,158.530 39.548,159.679 39.289 C 160.827 39.030,162.166 38.742,162.655 38.649 C 163.143 38.556,163.621 38.352,163.718 38.196 C 163.814 38.040,164.971 37.912,166.288 37.912 C 167.606 37.912,168.934 37.781,169.241 37.621 C 169.920 37.268,175.575 36.619,177.933 36.623 C 178.872 36.625,179.941 36.466,180.309 36.269 C 180.677 36.072,182.323 35.925,183.968 35.941 C 185.612 35.958,187.045 35.830,187.152 35.656 C 187.267 35.471,189.582 35.341,192.794 35.341 C 196.479 35.341,198.442 35.216,198.860 34.955 C 199.339 34.656,199.646 34.655,200.221 34.951 C 200.664 35.179,203.102 35.395,206.265 35.487 C 214.578 35.727,217.459 35.917,218.629 36.303 C 219.225 36.500,220.483 36.645,221.423 36.625 C 222.363 36.606,224.196 36.752,225.496 36.951 C 226.795 37.149,228.032 37.246,228.243 37.165 C 228.454 37.083,228.981 37.213,229.414 37.453 C 229.861 37.701,231.183 37.894,232.477 37.900 C 233.728 37.907,234.852 38.012,234.975 38.134 C 235.097 38.256,235.519 38.402,235.912 38.458 C 236.305 38.514,237.007 38.713,237.471 38.901 C 237.936 39.089,238.514 39.209,238.757 39.168 C 238.999 39.127,239.617 39.267,240.132 39.478 C 240.646 39.689,241.296 39.836,241.577 39.803 C 242.547 39.689,245.462 40.244,245.462 40.542 C 245.462 40.707,245.606 40.752,245.783 40.643 C 245.960 40.533,246.104 40.669,246.104 40.945 C 246.104 41.332,246.470 41.446,247.711 41.446 C 248.594 41.446,249.317 41.590,249.317 41.767 C 249.317 41.944,249.896 42.088,250.602 42.088 C 251.309 42.088,251.888 42.233,251.888 42.410 C 251.888 42.586,252.240 42.731,252.672 42.731 C 253.103 42.731,253.545 42.876,253.655 43.052 C 253.764 43.229,254.351 43.373,254.959 43.373 C 255.567 43.373,256.064 43.518,256.064 43.695 C 256.064 43.871,256.353 44.016,256.707 44.016 C 257.060 44.016,257.349 44.130,257.349 44.269 C 257.349 44.408,257.815 44.557,258.384 44.601 C 258.953 44.644,259.721 44.964,260.091 45.312 C 260.462 45.659,261.072 45.944,261.448 45.944 C 261.823 45.944,262.220 46.088,262.329 46.265 C 262.439 46.442,263.013 46.586,263.607 46.586 C 264.200 46.586,264.734 46.695,264.793 46.827 C 265.034 47.371,267.014 48.514,267.714 48.514 C 268.127 48.514,268.606 48.654,268.778 48.826 C 268.950 48.998,269.424 49.189,269.832 49.252 C 270.241 49.314,270.691 49.553,270.833 49.783 C 270.975 50.013,271.494 50.245,271.986 50.299 C 272.479 50.353,273.012 50.630,273.171 50.916 C 273.348 51.231,273.690 51.361,274.046 51.248 C 274.368 51.146,274.833 51.248,275.079 51.475 C 275.812 52.150,276.899 52.691,277.524 52.691 C 278.269 52.691,280.230 54.121,279.915 54.435 C 279.785 54.566,279.823 54.643,280.000 54.607 C 280.727 54.461,281.359 54.650,281.947 55.191 C 282.290 55.506,283.121 56.023,283.795 56.340 C 284.468 56.657,285.095 57.115,285.188 57.358 C 285.282 57.601,285.851 57.963,286.454 58.162 C 287.057 58.361,287.550 58.657,287.550 58.820 C 287.550 58.983,287.830 59.116,288.171 59.116 C 288.513 59.116,288.884 59.408,288.997 59.764 C 289.110 60.120,289.318 60.340,289.459 60.253 C 289.600 60.165,290.123 60.444,290.621 60.872 C 291.119 61.300,291.617 61.594,291.727 61.526 C 291.837 61.458,292.551 61.972,293.314 62.669 C 294.076 63.366,294.835 63.936,294.999 63.936 C 295.164 63.936,295.210 64.080,295.100 64.257 C 294.991 64.434,295.136 64.578,295.422 64.578 C 295.708 64.578,295.852 64.723,295.743 64.900 C 295.634 65.076,295.784 65.221,296.077 65.221 C 296.370 65.221,297.055 65.691,297.600 66.265 C 298.144 66.839,298.480 67.092,298.347 66.827 C 298.213 66.562,298.404 66.687,298.771 67.104 C 299.138 67.521,299.442 67.738,299.448 67.586 C 299.453 67.434,299.605 67.562,299.785 67.871 C 299.965 68.181,300.322 68.434,300.578 68.434 C 300.834 68.434,301.044 68.655,301.044 68.926 C 301.044 69.196,301.297 69.512,301.606 69.626 C 302.248 69.864,303.293 70.959,303.293 71.393 C 303.293 71.554,303.438 71.595,303.614 71.486 C 303.791 71.377,303.936 71.433,303.936 71.611 C 303.936 72.096,305.414 73.596,305.654 73.355 C 305.769 73.240,305.863 73.315,305.863 73.521 C 305.863 74.190,305.952 74.371,306.474 74.769 C 308.241 76.115,309.065 73.954,307.810 71.266 C 307.453 70.504,307.116 69.568,307.060 69.188 C 307.004 68.808,306.785 68.288,306.574 68.034 C 306.363 67.780,306.274 67.488,306.376 67.386 C 306.478 67.284,306.260 67.039,305.891 66.842 C 305.493 66.629,305.221 66.165,305.221 65.701 C 305.221 64.979,304.153 62.701,303.640 62.329 C 303.325 62.101,302.008 59.201,302.008 58.736 C 302.008 58.523,301.643 57.967,301.197 57.502 C 300.751 57.036,300.319 56.305,300.237 55.878 C 300.155 55.450,299.898 54.956,299.665 54.779 C 298.976 54.255,296.546 50.898,296.546 50.470 C 296.546 49.915,295.725 49.157,295.123 49.157 C 294.794 49.157,294.618 48.867,294.618 48.322 C 294.618 47.808,294.247 47.140,293.655 46.586 C 293.124 46.091,292.691 45.444,292.691 45.149 C 292.691 44.526,291.897 43.632,291.605 43.924 C 291.495 44.034,291.406 43.818,291.406 43.445 C 291.406 43.072,291.106 42.557,290.740 42.301 C 290.373 42.044,290.029 41.566,289.974 41.238 C 289.919 40.911,289.717 40.677,289.525 40.720 C 289.333 40.762,289.006 40.473,288.798 40.077 C 288.291 39.112,285.731 36.625,285.491 36.865 C 285.387 36.969,285.301 36.835,285.301 36.566 C 285.301 36.297,284.892 35.731,284.393 35.308 C 283.893 34.884,283.392 34.285,283.279 33.976 C 283.165 33.667,282.877 33.414,282.638 33.414 C 282.102 33.414,280.615 31.765,280.755 31.325 C 280.811 31.149,280.751 31.110,280.622 31.239 C 280.492 31.368,280.119 31.166,279.792 30.788 C 279.464 30.411,279.197 30.212,279.197 30.346 C 279.197 30.480,278.763 30.105,278.234 29.512 C 277.704 28.919,277.162 28.327,277.029 28.197 C 274.421 25.643,273.277 24.689,272.779 24.651 C 272.446 24.626,272.199 24.455,272.231 24.271 C 272.263 24.086,272.098 23.975,271.864 24.024 C 271.630 24.073,271.520 23.980,271.620 23.818 C 271.720 23.656,271.405 23.258,270.921 22.932 C 269.709 22.118,268.594 21.534,268.594 21.714 C 268.594 21.796,268.124 21.435,267.550 20.913 C 266.976 20.390,266.398 19.953,266.265 19.941 C 266.133 19.929,265.723 19.619,265.356 19.251 C 264.988 18.884,264.265 18.436,263.749 18.256 C 263.233 18.076,262.811 17.799,262.811 17.639 C 262.811 17.480,262.586 17.349,262.310 17.349 C 262.035 17.349,261.899 17.205,262.008 17.028 C 262.179 16.751,261.166 16.560,260.729 16.787 C 260.644 16.831,260.347 16.542,260.068 16.145 C 259.790 15.747,259.316 15.422,259.015 15.422 C 258.714 15.422,258.287 15.133,258.067 14.779 C 257.846 14.426,257.441 14.137,257.167 14.137 C 256.893 14.137,256.743 14.016,256.834 13.869 C 256.925 13.722,256.825 13.594,256.612 13.585 C 256.121 13.564,253.871 12.560,254.278 12.543 C 254.906 12.517,253.301 11.586,252.610 11.576 C 252.213 11.571,251.888 11.413,251.888 11.226 C 251.888 11.039,251.758 10.966,251.600 11.064 C 251.442 11.161,251.240 11.053,251.152 10.824 C 251.064 10.594,250.362 10.220,249.592 9.991 C 248.823 9.763,247.976 9.448,247.711 9.292 C 246.570 8.618,244.565 7.741,243.684 7.529 C 243.160 7.404,242.570 7.175,242.373 7.021 C 242.176 6.866,241.380 6.656,240.606 6.554 C 239.831 6.451,238.777 6.163,238.264 5.914 C 237.751 5.666,236.847 5.462,236.256 5.462 C 235.665 5.462,235.181 5.317,235.181 5.141 C 235.181 4.964,234.892 4.819,234.538 4.819 C 234.185 4.819,233.896 4.691,233.896 4.534 C 233.896 4.222,232.597 3.899,230.361 3.657 C 228.837 3.492,227.405 2.935,227.618 2.590 C 227.688 2.477,227.358 2.353,226.884 2.314 C 226.411 2.275,225.976 2.100,225.917 1.925 C 225.858 1.750,224.810 1.606,223.588 1.606 C 222.320 1.606,221.365 1.468,221.365 1.285 C 221.365 1.108,220.744 0.964,219.984 0.964 C 219.224 0.964,218.422 0.783,218.201 0.562 C 217.810 0.171,187.011 -0.122,182.570 0.224 M18.956 80.643 C 18.956 80.819,18.450 80.964,17.831 80.964 C 17.213 80.964,16.707 81.108,16.707 81.285 C 16.707 81.462,16.418 81.606,16.064 81.606 C 15.711 81.606,15.422 81.751,15.422 81.928 C 15.422 82.104,14.988 82.249,14.458 82.249 C 13.928 82.249,13.494 82.394,13.494 82.570 C 13.494 82.747,13.237 82.892,12.922 82.892 C 12.608 82.892,12.142 83.181,11.888 83.534 C 11.633 83.888,11.199 84.177,10.924 84.177 C 10.648 84.177,10.215 84.466,9.960 84.819 C 9.705 85.173,9.276 85.465,9.005 85.469 C 8.385 85.477,4.819 89.065,4.819 89.681 C 4.819 89.933,4.530 90.348,4.177 90.602 C 3.823 90.857,3.534 91.291,3.534 91.566 C 3.534 91.842,3.245 92.275,2.892 92.530 C 2.538 92.785,2.249 93.250,2.249 93.565 C 2.249 93.879,2.104 94.137,1.928 94.137 C 1.751 94.137,1.606 94.570,1.606 95.100 C 1.606 95.631,1.462 96.064,1.285 96.064 C 1.108 96.064,0.964 96.341,0.964 96.680 C 0.964 97.019,0.783 97.356,0.562 97.430 C -0.029 97.627,-0.029 304.301,0.562 304.498 C 0.783 304.572,0.964 304.909,0.964 305.248 C 0.964 305.586,1.108 305.863,1.285 305.863 C 1.462 305.863,1.606 306.297,1.606 306.827 C 1.606 307.357,1.751 307.791,1.928 307.791 C 2.104 307.791,2.249 308.048,2.249 308.363 C 2.249 308.677,2.538 309.143,2.892 309.398 C 3.245 309.652,3.534 310.086,3.534 310.361 C 3.534 310.637,3.823 311.071,4.177 311.325 C 4.530 311.580,4.819 311.995,4.819 312.247 C 4.819 312.863,8.385 316.451,9.005 316.459 C 9.276 316.463,9.705 316.755,9.960 317.108 C 10.215 317.462,10.648 317.751,10.924 317.751 C 11.199 317.751,11.633 318.040,11.888 318.394 C 12.142 318.747,12.608 319.036,12.922 319.036 C 13.237 319.036,13.494 319.181,13.494 319.357 C 13.494 319.534,13.928 319.679,14.458 319.679 C 14.988 319.679,15.422 319.823,15.422 320.000 C 15.422 320.177,15.699 320.321,16.037 320.321 C 16.376 320.321,16.714 320.502,16.787 320.723 C 16.984 321.314,383.016 321.314,383.213 320.723 C 383.286 320.502,383.624 320.321,383.963 320.321 C 384.301 320.321,384.578 320.177,384.578 320.000 C 384.578 319.823,385.012 319.679,385.542 319.679 C 386.072 319.679,386.506 319.534,386.506 319.357 C 386.506 319.181,386.763 319.036,387.078 319.036 C 387.392 319.036,387.858 318.747,388.112 318.394 C 388.367 318.040,388.801 317.751,389.076 317.751 C 389.352 317.751,389.785 317.462,390.040 317.108 C 390.295 316.755,390.712 316.466,390.967 316.466 C 391.551 316.466,395.181 312.811,395.181 312.223 C 395.181 311.984,395.470 311.580,395.823 311.325 C 396.177 311.071,396.466 310.637,396.466 310.361 C 396.466 310.086,396.755 309.652,397.108 309.398 C 397.462 309.143,397.751 308.677,397.751 308.363 C 397.751 308.048,397.896 307.791,398.072 307.791 C 398.249 307.791,398.394 307.357,398.394 306.827 C 398.394 306.297,398.538 305.863,398.715 305.863 C 398.892 305.863,399.036 305.586,399.036 305.248 C 399.036 304.909,399.217 304.572,399.438 304.498 C 400.029 304.301,400.029 97.627,399.438 97.430 C 399.217 97.356,399.036 97.019,399.036 96.680 C 399.036 96.341,398.892 96.064,398.715 96.064 C 398.538 96.064,398.394 95.631,398.394 95.100 C 398.394 94.570,398.249 94.137,398.072 94.137 C 397.896 94.137,397.751 93.879,397.751 93.565 C 397.751 93.250,397.462 92.785,397.108 92.530 C 396.755 92.275,396.466 91.842,396.466 91.566 C 396.466 91.291,396.177 90.857,395.823 90.602 C 395.470 90.348,395.181 89.944,395.181 89.704 C 395.181 89.117,391.551 85.462,390.967 85.462 C 390.712 85.462,390.295 85.173,390.040 84.819 C 389.785 84.466,389.352 84.177,389.076 84.177 C 388.801 84.177,388.367 83.888,388.112 83.534 C 387.858 83.181,387.392 82.892,387.078 82.892 C 386.763 82.892,386.506 82.747,386.506 82.570 C 386.506 82.394,386.072 82.249,385.542 82.249 C 385.012 82.249,384.578 82.104,384.578 81.928 C 384.578 81.751,384.289 81.606,383.936 81.606 C 383.582 81.606,383.293 81.462,383.293 81.285 C 383.293 81.108,382.787 80.964,382.169 80.964 C 381.550 80.964,381.044 80.819,381.044 80.643 C 381.044 80.429,320.482 80.321,200.000 80.321 C 79.518 80.321,18.956 80.429,18.956 80.643 M378.153 200.964 L 378.153 299.438 200.000 299.438 L 21.847 299.438 21.847 200.964 L 21.847 102.490 200.000 102.490 L 378.153 102.490 378.153 200.964 M57.510 132.426 C 53.595 133.538,53.274 134.663,53.396 146.865 L 53.494 156.678 54.399 157.864 C 56.183 160.201,55.917 160.149,66.652 160.262 C 82.975 160.434,82.352 161.026,82.191 145.491 L 82.088 135.641 81.091 134.407 C 79.321 132.217,78.550 132.082,67.952 132.095 C 62.781 132.101,58.134 132.248,57.510 132.426 M54.192 240.212 C 53.776 240.628,53.941 267.788,54.361 268.209 C 54.967 268.814,107.091 268.762,107.595 268.156 C 107.856 267.840,107.935 263.844,107.875 253.939 L 107.791 240.161 81.100 240.078 C 66.419 240.033,54.311 240.094,54.192 240.212 M298.688 240.214 C 298.420 240.482,298.402 267.390,298.669 268.086 C 298.926 268.755,351.397 268.876,352.064 268.209 C 352.726 267.547,352.608 240.451,351.942 240.195 C 351.245 239.928,298.956 239.947,298.688 240.214 " stroke="none" fill="#e0641e" fill-rule="evenodd"></path><path id="path1" d="M108.273 146.506 L 108.273 160.649 122.169 160.566 L 136.064 160.482 136.064 146.506 L 136.064 132.530 122.169 132.446 L 108.273 132.363 108.273 146.506 M162.145 132.580 C 162.026 132.700,161.928 138.988,161.928 146.553 L 161.928 160.309 162.651 160.485 C 163.048 160.581,169.373 160.620,176.707 160.571 L 190.040 160.482 190.040 146.506 L 190.040 132.530 176.201 132.446 C 168.590 132.400,162.265 132.461,162.145 132.580 M216.302 146.426 L 216.386 160.482 230.281 160.566 L 244.177 160.649 244.177 146.509 L 244.177 132.369 230.197 132.369 L 216.218 132.369 216.302 146.426 M270.201 146.506 L 270.201 160.649 284.096 160.566 L 297.992 160.482 297.992 146.506 L 297.992 132.530 284.096 132.446 L 270.201 132.363 270.201 146.506 M324.073 132.580 C 323.548 133.105,323.831 160.243,324.364 160.448 C 325.129 160.741,351.263 160.672,351.730 160.376 C 352.048 160.174,352.117 157.146,352.052 146.324 L 351.968 132.530 338.129 132.446 C 330.518 132.400,324.193 132.461,324.073 132.580 M323.855 167.952 C 323.855 168.084,330.181 168.193,337.912 168.193 L 351.968 168.193 351.968 191.165 L 351.968 214.137 325.385 214.219 L 298.803 214.301 298.713 201.528 L 298.623 188.755 298.629 201.606 L 298.635 214.458 325.462 214.458 L 352.289 214.458 352.372 191.084 L 352.454 167.711 338.155 167.711 C 330.290 167.711,323.855 167.819,323.855 167.952 M54.297 200.321 L 54.297 214.297 80.964 214.297 L 107.631 214.297 107.631 200.321 L 107.631 186.345 80.964 186.345 L 54.297 186.345 54.297 200.321 M136.867 200.321 L 136.867 214.297 150.843 214.297 L 164.819 214.297 164.819 200.321 L 164.819 186.345 150.843 186.345 L 136.867 186.345 136.867 200.321 M190.843 200.321 L 190.843 214.297 204.819 214.297 L 218.795 214.297 218.795 200.321 L 218.795 186.345 204.819 186.345 L 190.843 186.345 190.843 200.321 M244.498 200.321 L 244.498 214.297 258.635 214.297 L 272.771 214.297 272.771 200.321 L 272.771 186.345 258.635 186.345 L 244.498 186.345 244.498 200.321 M305.119 188.835 C 308.509 188.887,314.148 188.887,317.649 188.835 C 321.151 188.783,318.378 188.741,311.486 188.740 C 304.594 188.740,301.729 188.783,305.119 188.835 M136.623 254.216 L 136.707 268.434 204.819 268.434 L 272.932 268.434 272.932 254.297 L 272.932 240.161 204.736 240.080 L 136.539 239.999 136.623 254.216 M272.694 254.217 L 272.610 268.112 204.819 268.112 L 137.028 268.112 136.944 254.217 L 136.861 240.321 204.819 240.321 L 272.778 240.321 272.694 254.217 " stroke="none" fill="#747474" fill-rule="evenodd"></path><path id="path2" d="M324.073 168.243 C 323.953 168.363,323.855 173.063,323.855 178.688 L 323.855 188.916 311.325 188.916 L 298.795 188.916 298.795 201.608 L 298.795 214.301 325.382 214.219 L 351.968 214.137 351.968 191.165 L 351.968 168.193 338.129 168.109 C 330.518 168.063,324.193 168.123,324.073 168.243 M136.944 254.217 L 137.028 268.112 204.819 268.112 L 272.610 268.112 272.694 254.217 L 272.778 240.321 204.819 240.321 L 136.861 240.321 136.944 254.217 " stroke="none" fill="#2d2d2d" fill-rule="evenodd"></path><path id="path3" d="M22.001 102.879 C 21.914 103.107,21.881 147.390,21.926 201.285 L 22.008 299.277 27.631 299.381 C 30.723 299.439,110.783 299.385,205.542 299.261 L 377.831 299.037 377.831 200.930 L 377.831 102.824 325.060 102.737 C 134.556 102.424,22.154 102.476,22.001 102.879 M77.741 132.107 C 82.118 133.117,82.559 134.423,82.565 146.386 C 82.573 160.952,82.896 160.643,67.663 160.643 C 52.814 160.643,53.012 160.835,53.012 146.436 C 53.012 131.726,52.908 131.831,67.526 131.765 C 73.112 131.740,76.668 131.859,77.741 132.107 M136.482 132.112 C 137.245 132.875,137.012 160.221,136.240 160.635 C 135.823 160.857,130.975 160.943,121.862 160.887 L 108.112 160.803 108.029 146.667 C 107.983 138.892,108.014 132.349,108.099 132.129 C 108.318 131.558,135.912 131.542,136.482 132.112 M190.458 132.112 C 191.215 132.870,190.989 160.221,190.222 160.631 C 189.370 161.087,163.079 161.087,162.228 160.631 C 161.606 160.298,161.208 133.783,161.801 132.235 C 162.057 131.569,189.795 131.450,190.458 132.112 M244.337 146.345 L 244.337 160.803 231.004 160.896 C 223.671 160.946,217.201 160.904,216.627 160.801 L 215.582 160.613 215.582 146.358 C 215.582 135.254,215.671 132.066,215.984 131.938 C 216.205 131.848,222.675 131.800,230.361 131.831 L 244.337 131.888 244.337 146.345 M298.463 132.348 C 299.165 133.661,298.894 160.246,298.174 160.631 C 297.233 161.135,270.450 161.085,269.944 160.578 C 269.437 160.072,269.387 133.289,269.891 132.348 C 270.212 131.749,270.710 131.727,284.177 131.727 C 297.643 131.727,298.142 131.749,298.463 132.348 M352.438 132.348 C 353.141 133.661,352.870 160.246,352.150 160.631 C 351.481 160.989,325.559 161.110,324.257 160.761 L 323.534 160.568 323.534 146.361 C 323.534 138.548,323.631 132.059,323.748 131.941 C 324.365 131.324,352.101 131.718,352.438 132.348 M352.699 190.522 C 352.748 203.157,352.709 213.819,352.613 214.217 L 352.438 214.940 325.467 214.940 C 299.026 214.940,298.490 214.927,298.160 214.311 C 297.938 213.896,297.852 209.446,297.908 201.219 L 297.992 188.755 310.763 188.671 L 323.534 188.587 323.534 177.985 L 323.534 167.383 338.072 167.467 L 352.610 167.550 352.699 190.522 M107.652 186.035 C 108.623 186.555,108.623 214.087,107.652 214.607 C 107.238 214.829,98.318 214.940,80.964 214.940 C 63.610 214.940,54.690 214.829,54.276 214.607 C 53.356 214.115,53.298 186.585,54.217 186.050 C 55.001 185.593,106.799 185.579,107.652 186.035 M164.980 200.321 L 164.980 214.779 151.041 214.863 C 141.017 214.923,136.979 214.844,136.664 214.583 C 135.907 213.955,136.026 186.494,136.787 186.048 C 137.153 185.834,142.176 185.744,151.165 185.791 L 164.980 185.863 164.980 200.321 M218.816 186.035 C 219.416 186.356,219.438 186.855,219.438 200.321 C 219.438 213.788,219.416 214.286,218.816 214.607 C 217.503 215.310,190.919 215.038,190.533 214.318 C 190.319 213.918,190.201 208.927,190.201 200.321 C 190.201 191.716,190.319 186.724,190.533 186.324 C 190.919 185.604,217.503 185.333,218.816 186.035 M272.584 185.898 C 273.359 186.195,273.359 214.447,272.584 214.745 C 271.546 215.143,244.971 214.963,244.562 214.554 C 244.008 214.000,244.008 186.643,244.562 186.088 C 244.971 185.680,271.546 185.499,272.584 185.898 M273.015 239.946 C 273.333 240.147,273.402 243.271,273.337 254.479 L 273.253 268.755 204.819 268.755 L 136.386 268.755 136.302 254.479 C 136.236 243.271,136.305 240.147,136.623 239.946 C 137.153 239.610,272.486 239.610,273.015 239.946 M107.952 254.297 L 107.952 268.594 80.964 268.594 L 53.976 268.594 53.976 254.297 L 53.976 240.000 80.964 240.000 L 107.952 240.000 107.952 254.297 M352.373 254.378 L 352.289 268.755 325.944 268.843 C 311.454 268.892,299.273 268.853,298.876 268.757 L 298.153 268.582 298.153 254.291 L 298.153 240.000 325.305 240.000 L 352.456 240.000 352.373 254.378 " stroke="none" fill="#fcf4e4" fill-rule="evenodd"></path><path id="path4" d="M264.337 102.729 C 265.795 102.789,268.181 102.789,269.639 102.729 C 271.096 102.669,269.904 102.621,266.988 102.621 C 264.072 102.621,262.880 102.669,264.337 102.729 M326.024 102.731 L 377.831 102.813 377.831 200.964 L 377.831 299.115 291.647 299.197 L 205.462 299.278 291.807 299.358 L 378.153 299.438 378.153 200.964 L 378.153 102.490 326.185 102.569 L 274.217 102.649 326.024 102.731 M63.213 131.967 C 65.731 132.021,69.851 132.021,72.369 131.967 C 74.888 131.913,72.827 131.868,67.791 131.868 C 62.755 131.868,60.695 131.913,63.213 131.967 M108.099 132.129 C 108.014 132.349,107.983 138.892,108.029 146.667 L 108.112 160.803 121.862 160.887 C 130.975 160.943,135.823 160.857,136.240 160.635 C 137.012 160.221,137.245 132.875,136.482 132.112 C 135.912 131.542,108.318 131.558,108.099 132.129 M161.801 132.235 C 161.208 133.783,161.606 160.298,162.228 160.631 C 163.079 161.087,189.370 161.087,190.222 160.631 C 190.989 160.221,191.215 132.870,190.458 132.112 C 189.795 131.450,162.057 131.569,161.801 132.235 M215.984 131.938 C 215.671 132.066,215.582 135.254,215.582 146.358 L 215.582 160.613 216.627 160.801 C 217.201 160.904,223.671 160.946,231.004 160.896 L 244.337 160.803 244.337 146.345 L 244.337 131.888 230.361 131.831 C 222.675 131.800,216.205 131.848,215.984 131.938 M269.891 132.348 C 269.387 133.289,269.437 160.072,269.944 160.578 C 270.450 161.085,297.233 161.135,298.174 160.631 C 298.894 160.246,299.165 133.661,298.463 132.348 C 298.142 131.749,297.643 131.727,284.177 131.727 C 270.710 131.727,270.212 131.749,269.891 132.348 M323.748 131.941 C 323.631 132.059,323.534 138.548,323.534 146.361 L 323.534 160.568 324.257 160.761 C 325.559 161.110,351.481 160.989,352.150 160.631 C 352.870 160.246,353.141 133.661,352.438 132.348 C 352.101 131.718,324.365 131.324,323.748 131.941 M55.392 133.253 C 54.859 133.739,54.648 133.966,54.923 133.757 C 55.198 133.549,55.857 133.152,56.386 132.876 C 56.916 132.599,57.127 132.373,56.855 132.371 C 56.584 132.370,55.925 132.767,55.392 133.253 M136.064 146.506 L 136.064 160.482 122.169 160.566 L 108.273 160.649 108.273 146.506 L 108.273 132.363 122.169 132.446 L 136.064 132.530 136.064 146.506 M190.040 146.506 L 190.040 160.482 176.707 160.571 C 169.373 160.620,163.048 160.581,162.651 160.485 L 161.928 160.309 161.928 146.553 C 161.928 138.988,162.026 132.700,162.145 132.580 C 162.265 132.461,168.590 132.400,176.201 132.446 L 190.040 132.530 190.040 146.506 M244.177 146.509 L 244.177 160.649 230.281 160.566 L 216.386 160.482 216.302 146.426 L 216.218 132.369 230.197 132.369 L 244.177 132.369 244.177 146.509 M297.992 146.506 L 297.992 160.482 284.096 160.566 L 270.201 160.649 270.201 146.506 L 270.201 132.363 284.096 132.446 L 297.992 132.530 297.992 146.506 M352.052 146.324 C 352.117 157.146,352.048 160.174,351.730 160.376 C 351.263 160.672,325.129 160.741,324.364 160.448 C 323.831 160.243,323.548 133.105,324.073 132.580 C 324.193 132.461,330.518 132.400,338.129 132.446 L 351.968 132.530 352.052 146.324 M80.826 134.041 C 81.331 134.696,81.814 135.161,81.899 135.075 C 81.985 134.989,81.572 134.454,80.982 133.885 L 79.909 132.851 80.826 134.041 M82.088 146.345 C 82.088 152.055,82.195 156.559,82.324 156.355 C 82.454 156.151,82.560 151.647,82.560 146.345 C 82.560 141.044,82.454 136.540,82.324 136.336 C 82.195 136.132,82.088 140.636,82.088 146.345 M53.082 146.185 C 53.049 151.398,53.128 155.830,53.258 156.035 C 53.388 156.239,53.456 153.131,53.411 149.127 C 53.274 137.230,53.147 136.085,53.082 146.185 M53.907 157.590 C 54.089 157.944,54.649 158.594,55.151 159.035 L 56.064 159.837 55.103 158.714 C 53.580 156.934,53.559 156.914,53.907 157.590 M80.439 158.598 C 79.709 159.369,79.223 160.000,79.358 160.000 C 79.678 160.000,81.928 157.687,81.928 157.359 C 81.928 157.022,81.950 157.004,80.439 158.598 M57.442 160.379 C 57.744 160.499,62.402 160.597,67.791 160.597 C 73.181 160.597,77.838 160.499,78.141 160.379 C 78.443 160.259,73.786 160.161,67.791 160.161 C 61.796 160.161,57.139 160.259,57.442 160.379 M323.610 178.069 L 323.686 188.755 323.775 178.233 L 323.864 167.711 338.159 167.711 L 352.454 167.711 352.372 191.084 L 352.289 214.458 325.462 214.458 L 298.635 214.458 298.550 201.788 C 298.485 191.875,298.555 189.058,298.872 188.839 C 299.152 188.646,299.079 188.591,298.635 188.662 C 297.888 188.780,297.441 212.967,298.160 214.311 C 298.490 214.927,299.026 214.940,325.467 214.940 L 352.438 214.940 352.613 214.217 C 352.709 213.819,352.748 203.157,352.699 190.522 L 352.610 167.550 338.072 167.467 L 323.534 167.383 323.610 178.069 M54.217 186.050 C 53.298 186.585,53.356 214.115,54.276 214.607 C 54.690 214.829,63.610 214.940,80.964 214.940 C 98.318 214.940,107.238 214.829,107.652 214.607 C 108.623 214.087,108.623 186.555,107.652 186.035 C 106.799 185.579,55.001 185.593,54.217 186.050 M136.787 186.048 C 136.026 186.494,135.907 213.955,136.664 214.583 C 136.979 214.844,141.017 214.923,151.041 214.863 L 164.980 214.779 164.980 200.321 L 164.980 185.863 151.165 185.791 C 142.176 185.744,137.153 185.834,136.787 186.048 M190.533 186.324 C 190.319 186.724,190.201 191.716,190.201 200.321 C 190.201 208.927,190.319 213.918,190.533 214.318 C 190.919 215.038,217.503 215.310,218.816 214.607 C 219.416 214.286,219.438 213.788,219.438 200.321 C 219.438 186.855,219.416 186.356,218.816 186.035 C 217.503 185.333,190.919 185.604,190.533 186.324 M244.562 186.088 C 244.008 186.643,244.008 214.000,244.562 214.554 C 244.971 214.963,271.546 215.143,272.584 214.745 C 273.359 214.447,273.359 186.195,272.584 185.898 C 271.546 185.499,244.971 185.680,244.562 186.088 M107.631 200.321 L 107.631 214.297 80.964 214.297 L 54.297 214.297 54.297 200.321 L 54.297 186.345 80.964 186.345 L 107.631 186.345 107.631 200.321 M164.819 200.321 L 164.819 214.297 150.843 214.297 L 136.867 214.297 136.867 200.321 L 136.867 186.345 150.843 186.345 L 164.819 186.345 164.819 200.321 M218.795 200.321 L 218.795 214.297 204.819 214.297 L 190.843 214.297 190.843 200.321 L 190.843 186.345 204.819 186.345 L 218.795 186.345 218.795 200.321 M272.771 200.321 L 272.771 214.297 258.635 214.297 L 244.498 214.297 244.498 200.321 L 244.498 186.345 258.635 186.345 L 272.771 186.345 272.771 200.321 M204.819 239.999 L 272.932 240.161 272.932 254.297 L 272.932 268.434 204.819 268.434 L 136.707 268.434 136.539 254.137 L 136.372 239.839 136.379 254.297 L 136.386 268.755 204.819 268.755 L 273.253 268.755 273.337 254.479 C 273.402 243.271,273.333 240.147,273.015 239.946 C 272.793 239.804,242.032 239.722,204.659 239.763 L 136.707 239.837 204.819 239.999 M298.153 254.291 L 298.153 268.582 298.876 268.757 C 300.804 269.223,352.235 268.758,352.383 268.273 C 352.502 267.884,352.448 267.869,352.104 268.193 C 351.771 268.507,345.950 268.594,325.243 268.594 L 298.807 268.594 298.630 267.871 C 298.532 267.474,298.493 261.040,298.544 253.574 C 298.594 246.108,298.526 240.000,298.394 240.000 C 298.261 240.000,298.153 246.431,298.153 254.291 " stroke="none" fill="#bababa" fill-rule="evenodd"></path></g></svg>