<svg id="svg" version="1.1" xmlns="http://www.w3.org/2000/svg" xmlns:xlink="http://www.w3.org/1999/xlink" width="400" height="400" viewBox="0, 0, 400,400"><g id="svgg"><path id="path0" d="M275.944 97.965 L 275.000 98.729 274.880 200.065 L 274.760 301.400 275.624 302.100 C 276.989 303.205,317.137 303.175,318.138 302.069 C 319.177 300.920,319.118 289.212,318.069 288.262 C 317.424 287.679,315.994 287.600,306.083 287.600 C 295.365 287.600,294.808 287.563,294.414 286.826 C 294.132 286.300,294.000 258.553,294.000 200.000 C 294.000 141.447,294.132 113.700,294.414 113.174 C 294.808 112.437,295.366 112.400,306.152 112.400 C 316.615 112.400,317.526 112.344,318.138 111.669 C 319.177 110.520,319.118 98.812,318.069 97.862 C 316.856 96.765,277.307 96.861,275.944 97.965 M82.438 98.554 C 82.125 98.932,82.014 101.062,82.089 105.254 L 82.200 111.400 93.881 111.600 C 102.714 111.751,105.688 111.927,106.081 112.320 C 106.850 113.090,106.850 286.910,106.081 287.680 C 105.688 288.073,102.714 288.249,93.881 288.400 L 82.200 288.600 82.089 294.746 C 82.014 298.938,82.125 301.068,82.438 301.446 C 83.068 302.205,122.764 302.276,123.520 301.520 C 124.219 300.821,124.219 99.179,123.520 98.480 C 122.764 97.724,83.068 97.795,82.438 98.554 M233.655 146.752 C 233.010 148.053,232.351 149.721,232.192 150.459 C 231.895 151.832,230.634 155.249,228.948 159.250 C 228.427 160.488,228.000 161.815,228.000 162.200 C 228.000 162.585,227.579 163.912,227.064 165.150 C 225.870 168.018,224.921 170.744,224.019 173.896 C 223.626 175.269,223.106 176.632,222.863 176.924 C 222.621 177.216,222.213 178.431,221.958 179.623 C 221.702 180.816,221.258 182.154,220.972 182.596 C 220.686 183.038,220.238 184.300,219.976 185.400 C 219.714 186.500,219.252 187.800,218.948 188.289 C 218.645 188.777,218.206 190.067,217.972 191.155 C 217.739 192.243,217.200 193.816,216.774 194.651 C 216.348 195.486,215.996 196.536,215.991 196.985 C 215.986 197.433,215.610 198.610,215.154 199.600 C 214.698 200.590,214.086 202.300,213.793 203.400 C 213.499 204.500,212.977 205.940,212.632 206.600 C 212.287 207.260,212.000 208.160,211.994 208.600 C 211.987 209.040,211.610 210.210,211.154 211.200 C 210.698 212.190,210.086 213.900,209.793 215.000 C 209.499 216.100,208.977 217.540,208.632 218.200 C 208.287 218.860,208.004 219.721,208.002 220.113 C 208.001 220.505,207.724 221.486,207.387 222.292 C 207.050 223.099,206.601 224.982,206.389 226.477 C 206.177 227.973,205.643 229.870,205.202 230.692 C 204.761 231.515,204.398 232.551,204.396 232.994 C 204.394 233.437,203.950 234.700,203.409 235.800 C 202.868 236.900,202.419 237.997,202.413 238.238 C 202.353 240.320,199.631 239.716,199.587 237.611 C 199.581 237.275,199.132 236.100,198.591 235.000 C 198.050 233.900,197.600 232.640,197.591 232.200 C 197.582 231.760,197.132 230.500,196.591 229.400 C 196.050 228.300,195.600 227.040,195.591 226.600 C 195.582 226.160,195.132 224.900,194.591 223.800 C 194.050 222.700,193.600 221.440,193.591 221.000 C 193.582 220.560,193.132 219.300,192.591 218.200 C 192.050 217.100,191.600 215.840,191.591 215.400 C 191.582 214.960,191.132 213.700,190.591 212.600 C 190.050 211.500,189.600 210.240,189.591 209.800 C 189.582 209.360,189.132 208.100,188.591 207.000 C 188.050 205.900,187.605 204.550,187.602 204.000 C 187.599 203.450,187.233 202.403,186.789 201.674 C 186.344 200.945,185.785 199.415,185.545 198.274 C 185.306 197.133,184.866 195.923,184.569 195.584 C 184.271 195.245,183.821 193.985,183.569 192.784 C 183.316 191.583,182.883 190.330,182.606 190.000 C 182.329 189.670,181.876 188.410,181.600 187.200 C 181.324 185.990,180.871 184.730,180.594 184.400 C 180.317 184.070,179.898 182.900,179.663 181.800 C 179.428 180.700,178.867 179.087,178.418 178.215 C 177.968 177.344,177.594 176.264,177.587 175.815 C 177.581 175.367,177.132 174.100,176.591 173.000 C 176.050 171.900,175.600 170.640,175.591 170.200 C 175.582 169.760,175.132 168.500,174.591 167.400 C 174.050 166.300,173.600 165.040,173.591 164.600 C 173.582 164.160,173.132 162.900,172.591 161.800 C 172.050 160.700,171.606 159.437,171.604 158.994 C 171.602 158.551,171.237 157.511,170.793 156.683 C 170.350 155.856,169.790 154.238,169.548 153.089 C 169.307 151.940,168.871 150.727,168.578 150.394 C 168.286 150.061,167.872 149.012,167.659 148.063 C 167.445 147.114,167.210 146.297,167.136 146.248 C 164.953 144.800,164.956 144.800,155.846 144.800 L 146.864 144.800 146.606 145.971 C 146.424 146.803,146.646 147.770,147.375 149.310 C 147.939 150.502,148.400 151.731,148.400 152.042 C 148.400 152.352,148.826 153.415,149.346 154.403 C 149.866 155.391,150.410 156.857,150.556 157.660 C 150.702 158.463,151.074 159.329,151.383 159.586 C 151.692 159.842,152.143 160.978,152.386 162.110 C 152.629 163.241,153.075 164.445,153.377 164.784 C 153.678 165.123,154.118 166.120,154.353 167.000 C 154.588 167.880,155.145 169.313,155.590 170.185 C 156.036 171.056,156.400 172.049,156.400 172.391 C 156.400 172.732,156.746 173.657,157.168 174.445 C 157.591 175.234,158.148 176.671,158.405 177.639 C 158.663 178.608,159.117 179.673,159.415 180.006 C 159.712 180.340,160.155 181.507,160.400 182.600 C 160.645 183.693,161.088 184.860,161.385 185.194 C 161.683 185.527,162.118 186.520,162.353 187.400 C 162.588 188.280,163.145 189.713,163.590 190.585 C 164.036 191.456,164.406 192.446,164.413 192.785 C 164.419 193.123,164.868 194.300,165.409 195.400 C 165.950 196.500,166.394 197.671,166.396 198.003 C 166.398 198.335,166.826 199.415,167.346 200.403 C 167.866 201.391,168.410 202.857,168.556 203.660 C 168.702 204.463,169.074 205.329,169.383 205.586 C 169.692 205.842,170.143 206.978,170.386 208.110 C 170.629 209.241,171.075 210.445,171.377 210.784 C 171.678 211.123,172.118 212.120,172.353 213.000 C 172.588 213.880,173.145 215.313,173.590 216.185 C 174.036 217.056,174.406 218.046,174.413 218.385 C 174.419 218.723,174.868 219.900,175.409 221.000 C 175.950 222.100,176.394 223.271,176.396 223.603 C 176.398 223.935,176.826 225.015,177.346 226.003 C 177.866 226.991,178.410 228.457,178.556 229.260 C 178.702 230.063,179.074 230.929,179.383 231.186 C 179.692 231.442,180.143 232.578,180.386 233.710 C 180.629 234.841,181.075 236.045,181.377 236.384 C 181.678 236.723,182.118 237.720,182.353 238.600 C 182.588 239.480,183.145 240.913,183.590 241.785 C 184.036 242.656,184.400 243.648,184.400 243.988 C 184.400 244.328,184.826 245.415,185.346 246.403 C 185.866 247.391,186.410 248.857,186.556 249.660 C 186.702 250.463,187.074 251.329,187.383 251.586 C 187.692 251.842,188.145 252.983,188.389 254.121 C 188.655 255.362,189.256 256.632,189.891 257.295 L 190.950 258.400 200.095 258.400 C 209.810 258.400,211.600 258.097,211.600 256.450 C 211.600 256.049,212.137 254.928,212.793 253.960 C 213.449 252.992,213.989 251.966,213.993 251.680 C 213.997 251.394,214.301 250.584,214.668 249.880 C 215.036 249.176,215.737 247.520,216.226 246.200 C 216.715 244.880,217.600 242.540,218.193 241.000 C 218.785 239.460,219.596 237.281,219.995 236.158 C 220.394 235.035,220.916 233.775,221.154 233.358 C 221.392 232.941,221.928 231.610,222.344 230.400 C 223.741 226.337,224.093 225.409,225.049 223.291 C 225.572 222.131,226.002 220.961,226.004 220.691 C 226.006 220.421,226.450 219.300,226.991 218.200 C 227.532 217.100,227.982 215.930,227.991 215.600 C 228.000 215.270,228.450 214.100,228.991 213.000 C 229.532 211.900,229.982 210.730,229.991 210.400 C 230.000 210.070,230.450 208.900,230.991 207.800 C 231.532 206.700,231.982 205.530,231.991 205.200 C 232.000 204.870,232.450 203.700,232.991 202.600 C 233.532 201.500,233.982 200.330,233.991 200.000 C 234.000 199.670,234.450 198.500,234.991 197.400 C 235.532 196.300,235.982 195.130,235.991 194.800 C 236.000 194.470,236.450 193.300,236.991 192.200 C 237.532 191.100,237.982 189.930,237.991 189.600 C 238.000 189.270,238.450 188.100,238.991 187.000 C 239.532 185.900,239.982 184.730,239.991 184.400 C 240.000 184.070,240.450 182.900,240.991 181.800 C 241.532 180.700,241.982 179.530,241.991 179.200 C 242.000 178.870,242.450 177.700,242.991 176.600 C 243.532 175.500,243.982 174.330,243.991 174.000 C 244.000 173.670,244.450 172.500,244.991 171.400 C 245.532 170.300,245.982 169.130,245.991 168.800 C 246.000 168.470,246.450 167.300,246.991 166.200 C 247.532 165.100,247.982 163.930,247.991 163.600 C 248.000 163.270,248.450 162.100,248.991 161.000 C 249.532 159.900,249.982 158.730,249.991 158.400 C 250.000 158.070,250.450 156.900,250.991 155.800 C 251.532 154.700,251.981 153.547,251.987 153.239 C 251.994 152.930,252.468 151.688,253.040 150.478 C 253.628 149.236,254.107 147.478,254.140 146.439 L 254.200 144.600 244.515 144.493 L 234.829 144.386 233.655 146.752 " stroke="none" fill="#f9fafb" fill-rule="evenodd"></path><path id="path1" d="M29.200 10.200 C 29.200 11.122,29.056 11.200,27.358 11.200 C 25.869 11.200,25.364 11.392,24.729 12.200 C 24.163 12.919,23.557 13.200,22.571 13.200 C 21.375 13.200,21.200 13.328,21.200 14.200 C 21.200 15.000,21.000 15.200,20.200 15.200 C 19.400 15.200,19.200 15.400,19.200 16.200 C 19.200 17.000,19.000 17.200,18.200 17.200 C 17.400 17.200,17.200 17.400,17.200 18.200 C 17.200 19.000,17.000 19.200,16.200 19.200 C 15.400 19.200,15.200 19.400,15.200 20.200 C 15.200 21.000,15.000 21.200,14.200 21.200 C 13.328 21.200,13.200 21.375,13.200 22.571 C 13.200 23.557,12.919 24.163,12.200 24.729 C 11.392 25.364,11.200 25.869,11.200 27.358 C 11.200 29.056,11.122 29.200,10.200 29.200 L 9.200 29.200 9.200 200.000 L 9.200 370.800 10.200 370.800 C 11.120 370.800,11.200 370.945,11.200 372.619 C 11.200 374.056,11.410 374.623,12.197 375.319 C 12.806 375.857,13.228 376.696,13.280 377.472 C 13.327 378.172,13.464 378.736,13.583 378.725 C 14.771 378.617,15.200 378.902,15.200 379.800 C 15.200 380.600,15.400 380.800,16.200 380.800 C 17.000 380.800,17.200 381.000,17.200 381.800 C 17.200 382.600,17.400 382.800,18.200 382.800 C 19.000 382.800,19.200 383.000,19.200 383.800 C 19.200 384.600,19.400 384.800,20.200 384.800 C 21.000 384.800,21.200 385.000,21.200 385.800 C 21.200 386.672,21.375 386.800,22.571 386.800 C 23.557 386.800,24.163 387.081,24.729 387.800 C 25.364 388.608,25.869 388.800,27.358 388.800 C 29.056 388.800,29.200 388.878,29.200 389.800 L 29.200 390.800 138.600 390.800 L 248.000 390.800 247.992 389.900 C 247.974 387.803,247.155 383.503,246.619 382.684 C 246.299 382.197,245.830 380.458,245.576 378.819 C 245.322 377.181,244.851 375.440,244.531 374.951 C 244.211 374.462,243.780 372.871,243.574 371.416 C 243.368 369.961,242.934 368.366,242.610 367.872 C 242.287 367.378,241.837 365.668,241.610 364.072 C 241.384 362.476,240.934 360.765,240.610 360.271 C 240.286 359.777,239.853 358.188,239.648 356.739 C 239.443 355.291,238.971 353.518,238.600 352.800 C 238.229 352.082,237.761 350.341,237.562 348.932 C 237.362 347.523,236.934 345.966,236.610 345.472 C 236.287 344.978,235.837 343.268,235.610 341.672 C 235.384 340.076,234.934 338.366,234.610 337.872 C 234.287 337.378,233.842 335.720,233.623 334.187 C 233.404 332.654,232.859 330.687,232.412 329.815 C 231.965 328.944,231.600 327.501,231.600 326.609 C 231.600 325.718,231.239 324.315,230.798 323.492 C 230.357 322.670,229.817 320.731,229.598 319.183 C 229.378 317.636,228.939 315.972,228.621 315.485 C 228.304 314.998,227.844 313.340,227.600 311.800 C 227.356 310.260,226.896 308.602,226.579 308.115 C 226.261 307.628,225.821 305.957,225.600 304.400 C 225.379 302.843,224.934 301.166,224.610 300.672 C 224.287 300.178,223.837 298.468,223.610 296.872 C 223.384 295.276,222.939 293.572,222.621 293.085 C 222.304 292.598,221.847 290.962,221.606 289.450 C 221.366 287.937,220.889 286.158,220.547 285.497 C 220.205 284.835,219.761 283.141,219.562 281.732 C 219.362 280.323,218.934 278.766,218.610 278.272 C 218.287 277.778,217.837 276.068,217.610 274.472 C 217.384 272.876,216.939 271.172,216.622 270.685 C 216.305 270.198,215.860 268.647,215.635 267.237 C 215.409 265.827,214.866 263.757,214.429 262.637 C 213.992 261.517,213.521 259.715,213.383 258.634 L 213.131 256.668 212.411 258.275 C 211.464 260.391,211.481 260.388,200.087 260.395 L 190.373 260.400 189.050 259.077 C 188.153 258.180,187.640 257.211,187.458 256.071 C 187.310 255.146,186.855 254.055,186.448 253.648 C 186.040 253.240,185.576 252.036,185.416 250.971 C 185.257 249.906,184.856 248.837,184.526 248.595 C 184.196 248.354,183.768 247.311,183.575 246.278 C 183.382 245.246,182.876 243.905,182.450 243.300 C 182.023 242.695,181.553 241.490,181.404 240.621 C 181.256 239.753,180.789 238.604,180.367 238.067 C 179.945 237.531,179.600 236.611,179.600 236.024 C 179.600 235.436,179.169 234.371,178.642 233.657 C 178.116 232.944,177.559 231.521,177.405 230.497 C 177.252 229.472,176.856 228.437,176.526 228.195 C 176.196 227.954,175.768 226.911,175.575 225.878 C 175.382 224.846,174.876 223.505,174.450 222.900 C 174.023 222.295,173.555 221.100,173.409 220.245 C 173.263 219.390,172.813 218.220,172.409 217.645 C 172.005 217.070,171.553 215.880,171.405 215.000 C 171.257 214.120,170.813 213.040,170.420 212.600 C 170.026 212.160,169.588 211.032,169.446 210.094 C 169.305 209.156,168.855 208.055,168.448 207.648 C 168.040 207.240,167.576 206.036,167.416 204.971 C 167.257 203.906,166.856 202.837,166.526 202.595 C 166.196 202.354,165.768 201.311,165.575 200.278 C 165.382 199.246,164.876 197.905,164.450 197.300 C 164.023 196.695,163.553 195.480,163.404 194.600 C 163.254 193.720,162.856 192.691,162.517 192.314 C 162.179 191.937,161.749 190.810,161.562 189.810 C 161.375 188.809,160.876 187.618,160.452 187.164 C 160.028 186.709,159.556 185.503,159.404 184.485 C 159.251 183.467,158.856 182.437,158.526 182.195 C 158.196 181.954,157.768 180.911,157.575 179.878 C 157.382 178.846,156.876 177.505,156.450 176.900 C 156.023 176.295,155.555 175.100,155.409 174.245 C 155.263 173.390,154.813 172.220,154.409 171.645 C 154.005 171.070,153.555 169.900,153.409 169.045 C 153.263 168.190,152.813 167.020,152.409 166.445 C 152.005 165.870,151.558 164.715,151.415 163.878 C 151.272 163.040,150.829 162.029,150.431 161.631 C 150.033 161.233,149.576 160.036,149.416 158.971 C 149.257 157.906,148.856 156.837,148.526 156.595 C 148.196 156.354,147.766 155.299,147.570 154.250 C 147.374 153.201,146.871 151.908,146.453 151.376 C 146.035 150.845,145.566 149.567,145.412 148.538 C 145.257 147.509,144.867 146.263,144.544 145.771 C 143.276 143.836,144.572 143.600,156.460 143.600 C 168.207 143.600,168.067 143.571,168.618 146.080 C 168.773 146.789,169.222 147.826,169.614 148.384 C 170.007 148.943,170.447 150.268,170.593 151.329 C 170.739 152.390,171.178 153.578,171.569 153.969 C 171.968 154.368,172.407 155.631,172.567 156.841 C 172.724 158.028,173.177 159.360,173.573 159.800 C 173.970 160.240,174.409 161.487,174.549 162.571 C 174.689 163.655,175.100 164.868,175.461 165.268 C 175.823 165.667,176.266 166.926,176.446 168.065 C 176.626 169.204,176.932 170.241,177.127 170.368 C 177.758 170.782,178.292 172.160,178.573 174.100 C 178.725 175.145,178.996 176.000,179.176 176.000 C 179.605 176.000,180.298 177.797,180.642 179.800 C 180.793 180.680,181.229 181.803,181.612 182.295 C 181.995 182.788,182.434 184.031,182.588 185.057 C 182.742 186.084,183.196 187.391,183.598 187.962 C 184.000 188.533,184.451 189.892,184.601 190.983 C 184.751 192.074,185.149 193.167,185.486 193.413 C 185.822 193.659,186.248 194.815,186.433 195.981 C 186.617 197.147,187.072 198.437,187.443 198.848 C 187.815 199.258,188.265 200.518,188.443 201.648 C 188.622 202.777,189.045 204.008,189.383 204.382 C 189.722 204.756,190.211 206.128,190.471 207.431 C 190.730 208.734,191.179 209.980,191.468 210.200 C 191.758 210.420,192.205 211.680,192.462 213.000 C 192.720 214.320,193.240 215.803,193.619 216.295 C 193.998 216.788,194.434 218.031,194.588 219.057 C 194.742 220.084,195.194 221.391,195.594 221.962 C 195.993 222.533,196.434 223.789,196.574 224.754 C 196.713 225.718,197.181 226.958,197.613 227.508 C 198.046 228.058,198.403 229.069,198.406 229.754 C 198.409 230.439,198.672 231.450,198.990 232.000 C 200.061 233.851,200.348 234.593,200.606 236.172 C 200.875 237.814,201.581 237.515,201.594 235.754 C 201.597 235.289,201.935 234.479,202.344 233.954 C 202.753 233.429,203.290 231.842,203.537 230.427 C 203.784 229.012,204.156 227.684,204.364 227.476 C 204.577 227.263,204.600 226.726,204.416 226.242 C 204.237 225.771,203.882 224.039,203.626 222.394 C 203.371 220.748,202.901 219.003,202.582 218.516 C 202.263 218.029,201.821 216.357,201.600 214.800 C 201.379 213.243,200.937 211.571,200.618 211.084 C 200.299 210.597,199.830 208.858,199.576 207.219 C 199.322 205.581,198.873 203.871,198.579 203.420 C 198.285 202.969,197.844 201.340,197.600 199.800 C 197.356 198.260,196.895 196.600,196.575 196.110 C 196.256 195.621,195.803 193.839,195.568 192.151 C 195.333 190.463,194.889 188.697,194.581 188.227 C 194.273 187.757,193.851 186.209,193.644 184.786 C 193.436 183.364,192.991 181.660,192.655 181.000 C 192.319 180.340,191.849 178.570,191.609 177.066 C 191.370 175.562,190.925 173.942,190.622 173.466 C 190.319 172.990,189.871 171.283,189.628 169.674 C 189.384 168.065,188.923 166.349,188.603 165.861 C 188.283 165.372,187.851 163.809,187.644 162.386 C 187.436 160.964,186.985 159.250,186.642 158.577 C 186.299 157.905,185.851 156.168,185.645 154.718 C 185.440 153.268,184.991 151.652,184.647 151.128 C 184.303 150.603,183.837 148.868,183.610 147.272 C 183.384 145.676,182.939 143.972,182.621 143.485 C 182.304 142.998,181.848 141.370,181.609 139.866 C 181.370 138.362,180.925 136.742,180.622 136.266 C 180.319 135.790,179.871 134.083,179.628 132.474 C 179.384 130.865,178.923 129.149,178.603 128.661 C 178.283 128.173,177.837 126.468,177.610 124.872 C 177.384 123.276,176.939 121.572,176.621 121.085 C 176.304 120.598,175.855 119.015,175.625 117.568 C 175.395 116.120,174.945 114.410,174.625 113.768 C 174.306 113.125,173.849 111.370,173.609 109.866 C 173.370 108.362,172.915 106.736,172.598 106.253 C 172.281 105.769,171.837 104.068,171.610 102.472 C 171.384 100.876,170.939 99.172,170.621 98.685 C 170.304 98.198,169.855 96.615,169.625 95.168 C 169.395 93.720,168.945 92.010,168.625 91.368 C 168.306 90.725,167.849 88.970,167.609 87.466 C 167.370 85.962,166.914 84.336,166.597 83.852 C 166.281 83.369,165.853 81.788,165.648 80.339 C 165.443 78.891,164.989 77.152,164.639 76.476 C 164.289 75.800,163.837 74.111,163.635 72.723 C 163.432 71.335,162.991 69.660,162.655 69.000 C 162.319 68.340,161.849 66.570,161.609 65.066 C 161.370 63.562,160.915 61.936,160.598 61.453 C 160.281 60.969,159.837 59.268,159.610 57.672 C 159.384 56.076,158.934 54.365,158.610 53.871 C 158.286 53.377,157.853 51.782,157.647 50.327 C 157.440 48.872,157.002 47.258,156.671 46.741 C 156.341 46.223,155.871 44.483,155.628 42.874 C 155.384 41.265,154.928 39.555,154.614 39.074 C 154.301 38.593,153.847 36.962,153.606 35.450 C 153.366 33.937,152.913 32.205,152.600 31.600 C 152.287 30.995,151.838 29.292,151.603 27.816 C 151.367 26.340,150.925 24.742,150.622 24.266 C 150.319 23.790,149.871 22.083,149.628 20.474 C 149.384 18.865,148.923 17.149,148.603 16.661 C 148.119 15.922,147.237 11.520,147.208 9.700 C 147.202 9.302,135.129 9.200,88.200 9.200 L 29.200 9.200 29.200 10.200 M125.364 97.231 L 126.400 98.461 126.400 200.000 L 126.400 301.539 125.364 302.769 L 124.329 304.000 103.181 304.000 L 82.032 304.000 81.016 302.904 C 80.013 301.822,80.000 301.725,80.000 295.166 C 80.000 286.185,78.628 287.030,93.441 286.883 L 105.200 286.766 105.200 200.000 L 105.200 113.234 93.441 113.117 C 78.628 112.970,80.000 113.815,80.000 104.834 C 80.000 98.275,80.013 98.178,81.016 97.096 L 82.032 96.000 103.181 96.000 L 124.329 96.000 125.364 97.231 " stroke="none" fill="#04549c" fill-rule="evenodd"></path><path id="path2" d="M148.590 11.099 C 148.745 12.145,149.141 13.302,149.471 13.670 C 149.800 14.039,150.245 15.746,150.458 17.464 C 150.671 19.183,151.118 20.888,151.450 21.256 C 151.783 21.623,152.236 23.227,152.456 24.820 C 152.677 26.413,153.128 28.129,153.458 28.633 C 153.788 29.136,154.240 30.865,154.462 32.474 C 154.683 34.083,155.117 35.681,155.426 36.024 C 155.735 36.368,156.185 38.078,156.426 39.824 C 156.668 41.571,157.132 43.296,157.457 43.658 C 157.782 44.020,158.223 45.550,158.437 47.058 C 158.650 48.565,159.162 50.519,159.575 51.399 C 159.987 52.280,160.448 54.080,160.599 55.400 C 160.750 56.720,161.123 58.080,161.427 58.421 C 161.732 58.763,162.189 60.473,162.442 62.221 C 162.695 63.970,163.165 65.702,163.486 66.070 C 163.807 66.439,164.242 68.124,164.452 69.816 C 164.662 71.507,165.081 73.139,165.384 73.441 C 165.957 74.015,166.172 74.847,166.610 78.200 C 166.754 79.300,167.140 80.501,167.469 80.868 C 167.797 81.235,168.251 82.945,168.476 84.668 C 168.702 86.391,169.155 88.104,169.483 88.476 C 169.812 88.848,170.265 90.603,170.492 92.376 C 170.718 94.149,171.046 95.600,171.221 95.600 C 171.659 95.600,172.280 97.771,172.592 100.398 C 172.736 101.607,173.126 102.898,173.460 103.266 C 173.793 103.635,174.251 105.345,174.476 107.068 C 174.702 108.791,175.149 110.498,175.471 110.862 C 175.792 111.226,176.236 112.827,176.456 114.420 C 176.677 116.013,177.128 117.729,177.458 118.233 C 177.788 118.736,178.240 120.465,178.462 122.074 C 178.683 123.683,179.136 125.302,179.468 125.670 C 179.799 126.039,180.245 127.746,180.458 129.464 C 180.671 131.183,181.118 132.888,181.450 133.256 C 181.783 133.623,182.236 135.227,182.456 136.820 C 182.677 138.413,183.128 140.129,183.458 140.633 C 183.788 141.136,184.240 142.865,184.462 144.474 C 184.683 146.083,185.136 147.702,185.468 148.070 C 185.799 148.439,186.245 150.146,186.458 151.864 C 186.671 153.582,187.116 155.287,187.447 155.652 C 187.778 156.018,188.223 157.550,188.437 159.058 C 188.650 160.565,189.162 162.519,189.575 163.399 C 189.987 164.280,190.448 166.080,190.599 167.400 C 190.750 168.720,191.142 170.101,191.470 170.468 C 191.798 170.835,192.251 172.545,192.476 174.268 C 192.702 175.991,193.152 177.701,193.477 178.069 C 193.801 178.436,194.227 180.010,194.422 181.565 C 194.617 183.121,195.058 184.821,195.400 185.344 C 195.743 185.867,196.189 187.752,196.392 189.532 C 196.595 191.313,197.029 193.181,197.357 193.685 C 197.684 194.188,198.074 195.590,198.223 196.800 C 198.372 198.010,198.833 199.789,199.247 200.752 C 199.662 201.716,200.180 203.621,200.398 204.985 C 200.615 206.349,201.055 207.990,201.375 208.632 C 201.694 209.275,202.151 211.030,202.391 212.534 C 202.630 214.038,203.074 215.658,203.378 216.134 C 203.681 216.610,204.110 218.170,204.330 219.600 C 204.551 221.030,205.081 222.971,205.507 223.913 L 206.283 225.626 207.142 223.085 C 207.614 221.687,208.001 220.286,208.002 219.972 C 208.004 219.657,208.287 218.860,208.632 218.200 C 208.977 217.540,209.499 216.100,209.793 215.000 C 210.086 213.900,210.698 212.190,211.154 211.200 C 211.610 210.210,211.987 209.040,211.994 208.600 C 212.000 208.160,212.287 207.260,212.632 206.600 C 212.977 205.940,213.499 204.500,213.793 203.400 C 214.086 202.300,214.698 200.590,215.154 199.600 C 215.610 198.610,215.986 197.433,215.991 196.985 C 215.996 196.536,216.348 195.486,216.774 194.651 C 217.200 193.816,217.739 192.243,217.972 191.155 C 218.206 190.067,218.645 188.777,218.948 188.289 C 219.252 187.800,219.714 186.500,219.976 185.400 C 220.238 184.300,220.686 183.038,220.972 182.596 C 221.258 182.154,221.702 180.816,221.958 179.623 C 222.213 178.431,222.621 177.216,222.863 176.924 C 223.106 176.632,223.626 175.269,224.019 173.896 C 224.921 170.744,225.870 168.018,227.064 165.150 C 227.579 163.912,228.000 162.585,228.000 162.200 C 228.000 161.815,228.427 160.488,228.948 159.250 C 230.634 155.249,231.895 151.832,232.192 150.459 C 232.351 149.721,233.010 148.053,233.655 146.752 L 234.829 144.386 244.515 144.493 L 254.200 144.600 254.140 146.439 C 254.107 147.478,253.628 149.236,253.040 150.478 C 252.468 151.688,251.994 152.930,251.987 153.239 C 251.981 153.547,251.532 154.700,250.991 155.800 C 250.450 156.900,250.000 158.070,249.991 158.400 C 249.982 158.730,249.532 159.900,248.991 161.000 C 248.450 162.100,248.000 163.270,247.991 163.600 C 247.982 163.930,247.532 165.100,246.991 166.200 C 246.450 167.300,246.000 168.470,245.991 168.800 C 245.982 169.130,245.532 170.300,244.991 171.400 C 244.450 172.500,244.000 173.670,243.991 174.000 C 243.982 174.330,243.532 175.500,242.991 176.600 C 242.450 177.700,242.000 178.870,241.991 179.200 C 241.982 179.530,241.532 180.700,240.991 181.800 C 240.450 182.900,240.000 184.070,239.991 184.400 C 239.982 184.730,239.532 185.900,238.991 187.000 C 238.450 188.100,238.000 189.270,237.991 189.600 C 237.982 189.930,237.532 191.100,236.991 192.200 C 236.450 193.300,236.000 194.470,235.991 194.800 C 235.982 195.130,235.532 196.300,234.991 197.400 C 234.450 198.500,234.000 199.670,233.991 200.000 C 233.982 200.330,233.532 201.500,232.991 202.600 C 232.450 203.700,232.000 204.870,231.991 205.200 C 231.982 205.530,231.532 206.700,230.991 207.800 C 230.450 208.900,230.000 210.070,229.991 210.400 C 229.982 210.730,229.532 211.900,228.991 213.000 C 228.450 214.100,228.000 215.270,227.991 215.600 C 227.982 215.930,227.532 217.100,226.991 218.200 C 226.450 219.300,226.006 220.421,226.004 220.691 C 226.002 220.961,225.572 222.131,225.049 223.291 C 224.093 225.409,223.741 226.337,222.344 230.400 C 221.928 231.610,221.392 232.941,221.154 233.358 C 220.916 233.775,220.394 235.035,219.995 236.158 C 219.596 237.281,218.816 239.370,218.263 240.800 C 217.709 242.230,216.824 244.570,216.296 246.000 C 215.768 247.430,215.036 249.176,214.668 249.880 C 214.301 250.584,214.000 251.415,214.000 251.726 C 214.000 252.037,213.598 252.803,213.107 253.427 C 212.616 254.051,212.427 254.430,212.687 254.270 C 213.330 253.873,213.937 255.115,214.445 257.861 C 214.675 259.107,215.109 260.502,215.408 260.963 C 215.707 261.423,216.074 262.790,216.223 264.000 C 216.372 265.210,216.833 266.989,217.247 267.952 C 217.662 268.916,218.187 270.867,218.414 272.287 C 218.641 273.706,219.075 275.258,219.378 275.734 C 219.681 276.210,220.129 277.917,220.372 279.526 C 220.616 281.135,221.071 282.845,221.384 283.326 C 221.696 283.807,222.074 285.190,222.223 286.400 C 222.372 287.610,222.833 289.389,223.247 290.352 C 223.662 291.316,224.180 293.221,224.398 294.585 C 224.615 295.949,225.055 297.590,225.375 298.232 C 225.694 298.875,226.151 300.630,226.391 302.134 C 226.630 303.638,227.080 305.258,227.389 305.734 C 227.699 306.210,228.074 307.590,228.223 308.800 C 228.372 310.010,228.833 311.789,229.247 312.752 C 229.662 313.716,230.187 315.667,230.414 317.087 C 230.641 318.506,231.075 320.058,231.378 320.534 C 231.681 321.010,232.129 322.717,232.372 324.326 C 232.616 325.935,233.071 327.645,233.384 328.126 C 233.696 328.607,234.074 329.990,234.223 331.200 C 234.372 332.410,234.838 334.201,235.260 335.180 C 235.681 336.159,236.185 338.049,236.380 339.380 C 236.575 340.711,237.009 342.340,237.345 343.000 C 237.681 343.660,238.151 345.430,238.391 346.934 C 238.630 348.438,239.080 350.058,239.389 350.534 C 239.699 351.010,240.074 352.390,240.223 353.600 C 240.372 354.810,240.833 356.589,241.247 357.552 C 241.662 358.516,242.187 360.467,242.414 361.887 C 242.641 363.306,243.075 364.858,243.378 365.334 C 243.681 365.810,244.129 367.517,244.372 369.126 C 244.616 370.735,245.063 372.445,245.365 372.926 C 245.668 373.407,246.125 375.044,246.381 376.564 C 246.636 378.084,247.098 379.817,247.407 380.414 C 247.716 381.011,248.163 382.717,248.401 384.206 C 248.639 385.694,249.096 387.287,249.417 387.745 C 249.737 388.203,250.000 389.079,250.000 389.690 L 250.000 390.803 310.100 390.701 L 370.200 390.600 370.595 389.700 C 370.918 388.964,371.309 388.800,372.737 388.800 C 374.113 388.800,374.648 388.593,375.252 387.825 C 375.720 387.230,376.523 386.801,377.310 386.725 C 378.296 386.629,378.630 386.388,378.728 385.700 C 378.820 385.049,379.124 384.800,379.828 384.800 C 380.598 384.800,380.800 384.592,380.800 383.800 C 380.800 383.000,381.000 382.800,381.800 382.800 C 382.600 382.800,382.800 382.600,382.800 381.800 C 382.800 381.000,383.000 380.800,383.800 380.800 C 384.592 380.800,384.800 380.598,384.800 379.828 C 384.800 379.124,385.049 378.820,385.700 378.728 C 386.388 378.630,386.629 378.296,386.725 377.310 C 386.801 376.523,387.230 375.720,387.825 375.252 C 388.593 374.648,388.800 374.113,388.800 372.737 C 388.800 371.309,388.964 370.918,389.700 370.595 L 390.600 370.200 390.600 200.000 L 390.600 29.800 389.700 29.405 C 388.964 29.082,388.800 28.691,388.800 27.263 C 388.800 25.887,388.593 25.352,387.825 24.748 C 387.230 24.280,386.801 23.477,386.725 22.690 C 386.629 21.704,386.388 21.370,385.700 21.272 C 385.049 21.180,384.800 20.876,384.800 20.172 C 384.800 19.402,384.592 19.200,383.800 19.200 C 383.000 19.200,382.800 19.000,382.800 18.200 C 382.800 17.400,382.600 17.200,381.800 17.200 C 381.000 17.200,380.800 17.000,380.800 16.200 C 380.800 15.408,380.598 15.200,379.828 15.200 C 379.124 15.200,378.820 14.951,378.728 14.300 C 378.630 13.612,378.296 13.371,377.310 13.275 C 376.523 13.199,375.720 12.770,375.252 12.175 C 374.640 11.398,374.117 11.200,372.670 11.200 C 371.093 11.200,370.839 11.082,370.728 10.300 L 370.600 9.400 259.454 9.299 L 148.309 9.199 148.590 11.099 M318.069 97.862 C 319.118 98.812,319.177 110.520,318.138 111.669 C 317.526 112.344,316.615 112.400,306.152 112.400 C 295.366 112.400,294.808 112.437,294.414 113.174 C 294.132 113.700,294.000 141.447,294.000 200.000 C 294.000 258.553,294.132 286.300,294.414 286.826 C 294.808 287.563,295.365 287.600,306.083 287.600 C 315.994 287.600,317.424 287.679,318.069 288.262 C 319.118 289.212,319.177 300.920,318.138 302.069 C 317.137 303.175,276.989 303.205,275.624 302.100 L 274.760 301.400 274.880 200.065 L 275.000 98.729 275.944 97.965 C 277.307 96.861,316.856 96.765,318.069 97.862 " stroke="none" fill="#3cbff9" fill-rule="evenodd"></path><path id="path3" d="M81.670 97.726 C 80.776 98.677,80.301 110.235,81.106 111.440 C 81.918 112.656,83.315 112.800,94.321 112.800 L 105.495 112.800 105.743 114.300 C 106.067 116.260,106.067 283.740,105.743 285.700 L 105.495 287.200 94.321 287.200 C 79.709 287.200,80.815 286.543,80.806 295.230 C 80.797 304.159,78.119 303.200,103.072 303.200 C 123.125 303.200,123.511 303.185,124.546 302.371 L 125.600 301.542 125.600 200.000 L 125.600 98.458 124.546 97.629 C 123.511 96.815,123.125 96.800,103.016 96.800 L 82.539 96.800 81.670 97.726 M123.520 98.480 C 124.219 99.179,124.219 300.821,123.520 301.520 C 122.764 302.276,83.068 302.205,82.438 301.446 C 82.125 301.068,82.014 298.938,82.089 294.746 L 82.200 288.600 93.881 288.400 C 102.714 288.249,105.688 288.073,106.081 287.680 C 106.850 286.910,106.850 113.090,106.081 112.320 C 105.688 111.927,102.714 111.751,93.881 111.600 L 82.200 111.400 82.089 105.254 C 82.014 101.062,82.125 98.932,82.438 98.554 C 83.068 97.795,122.764 97.724,123.520 98.480 M145.861 144.506 C 144.989 145.143,145.561 148.332,147.048 151.129 C 147.572 152.113,148.000 153.276,148.000 153.712 C 148.000 154.149,148.341 155.067,148.757 155.753 C 149.173 156.439,149.644 157.615,149.803 158.366 C 149.962 159.117,150.522 160.539,151.046 161.525 C 151.571 162.512,152.001 163.607,152.001 163.960 C 152.002 164.312,152.341 165.155,152.755 165.833 C 153.169 166.512,153.635 167.682,153.792 168.433 C 153.949 169.185,154.401 170.363,154.796 171.051 C 155.191 171.738,155.643 172.908,155.801 173.651 C 155.958 174.393,156.407 175.540,156.800 176.200 C 157.193 176.860,157.641 178.030,157.796 178.800 C 157.951 179.570,158.345 180.620,158.671 181.134 C 158.997 181.648,159.514 182.908,159.821 183.934 C 160.127 184.960,160.743 186.513,161.189 187.385 C 161.635 188.256,162.001 189.246,162.001 189.585 C 162.002 189.923,162.341 190.755,162.755 191.433 C 163.169 192.112,163.638 193.261,163.797 193.987 C 163.957 194.714,164.518 196.165,165.044 197.212 C 165.570 198.259,166.000 199.429,166.000 199.811 C 166.000 200.193,166.341 201.067,166.757 201.753 C 167.173 202.439,167.641 203.630,167.796 204.400 C 167.951 205.170,168.345 206.221,168.671 206.735 C 168.997 207.249,169.594 208.599,169.997 209.735 C 171.794 214.795,172.765 217.278,173.123 217.722 C 173.334 217.985,173.638 218.830,173.797 219.600 C 173.956 220.370,174.407 221.540,174.800 222.200 C 175.193 222.860,175.641 224.030,175.796 224.800 C 175.951 225.570,176.345 226.620,176.671 227.134 C 176.997 227.648,177.514 228.908,177.821 229.934 C 178.127 230.960,178.743 232.513,179.189 233.385 C 179.635 234.256,180.001 235.246,180.001 235.585 C 180.002 235.923,180.341 236.755,180.755 237.433 C 181.169 238.112,181.638 239.261,181.797 239.987 C 181.957 240.714,182.518 242.165,183.044 243.212 C 183.570 244.259,184.000 245.429,184.000 245.811 C 184.000 246.193,184.341 247.067,184.757 247.753 C 185.173 248.439,185.643 249.630,185.800 250.400 C 185.957 251.170,186.410 252.340,186.807 253.000 C 187.203 253.660,187.720 254.928,187.956 255.817 C 188.193 256.706,188.951 258.011,189.641 258.717 L 190.895 260.000 199.860 260.000 C 210.351 260.000,211.203 259.807,212.247 257.200 C 212.678 256.121,213.094 255.627,213.452 255.765 C 214.148 256.032,214.152 255.561,213.463 254.619 C 212.852 253.783,211.600 255.032,211.600 256.479 C 211.600 258.094,209.769 258.400,200.095 258.400 L 190.950 258.400 189.891 257.295 C 189.256 256.632,188.655 255.362,188.389 254.121 C 188.145 252.983,187.692 251.842,187.383 251.586 C 187.074 251.329,186.702 250.463,186.556 249.660 C 186.410 248.857,185.866 247.391,185.346 246.403 C 184.826 245.415,184.400 244.328,184.400 243.988 C 184.400 243.648,184.036 242.656,183.590 241.785 C 183.145 240.913,182.588 239.480,182.353 238.600 C 182.118 237.720,181.678 236.723,181.377 236.384 C 181.075 236.045,180.629 234.841,180.386 233.710 C 180.143 232.578,179.692 231.442,179.383 231.186 C 179.074 230.929,178.702 230.063,178.556 229.260 C 178.410 228.457,177.866 226.991,177.346 226.003 C 176.826 225.015,176.398 223.935,176.396 223.603 C 176.394 223.271,175.950 222.100,175.409 221.000 C 174.868 219.900,174.419 218.723,174.413 218.385 C 174.406 218.046,174.036 217.056,173.590 216.185 C 173.145 215.313,172.588 213.880,172.353 213.000 C 172.118 212.120,171.678 211.123,171.377 210.784 C 171.075 210.445,170.629 209.241,170.386 208.110 C 170.143 206.978,169.692 205.842,169.383 205.586 C 169.074 205.329,168.702 204.463,168.556 203.660 C 168.410 202.857,167.866 201.391,167.346 200.403 C 166.826 199.415,166.398 198.335,166.396 198.003 C 166.394 197.671,165.950 196.500,165.409 195.400 C 164.868 194.300,164.419 193.123,164.413 192.785 C 164.406 192.446,164.036 191.456,163.590 190.585 C 163.145 189.713,162.588 188.280,162.353 187.400 C 162.118 186.520,161.683 185.527,161.385 185.194 C 161.088 184.860,160.645 183.693,160.400 182.600 C 160.155 181.507,159.712 180.340,159.415 180.006 C 159.117 179.673,158.663 178.608,158.405 177.639 C 158.148 176.671,157.591 175.234,157.168 174.445 C 156.746 173.657,156.400 172.732,156.400 172.391 C 156.400 172.049,156.036 171.056,155.590 170.185 C 155.145 169.313,154.588 167.880,154.353 167.000 C 154.118 166.120,153.678 165.123,153.377 164.784 C 153.075 164.445,152.629 163.241,152.386 162.110 C 152.143 160.978,151.692 159.842,151.383 159.586 C 151.074 159.329,150.702 158.463,150.556 157.660 C 150.410 156.857,149.866 155.391,149.346 154.403 C 148.826 153.415,148.400 152.352,148.400 152.042 C 148.400 151.731,147.939 150.502,147.375 149.310 C 146.646 147.770,146.424 146.803,146.606 145.971 L 146.864 144.800 155.846 144.800 C 164.956 144.800,164.953 144.800,167.136 146.248 C 167.210 146.297,167.445 147.114,167.659 148.063 C 167.872 149.012,168.286 150.061,168.578 150.394 C 168.871 150.727,169.307 151.940,169.548 153.089 C 169.790 154.238,170.350 155.856,170.793 156.683 C 171.237 157.511,171.602 158.551,171.604 158.994 C 171.606 159.437,172.050 160.700,172.591 161.800 C 173.132 162.900,173.582 164.160,173.591 164.600 C 173.600 165.040,174.050 166.300,174.591 167.400 C 175.132 168.500,175.582 169.760,175.591 170.200 C 175.600 170.640,176.050 171.900,176.591 173.000 C 177.132 174.100,177.581 175.367,177.587 175.815 C 177.594 176.264,177.968 177.344,178.418 178.215 C 178.867 179.087,179.428 180.700,179.663 181.800 C 179.898 182.900,180.317 184.070,180.594 184.400 C 180.871 184.730,181.324 185.990,181.600 187.200 C 181.876 188.410,182.329 189.670,182.606 190.000 C 182.883 190.330,183.316 191.583,183.569 192.784 C 183.821 193.985,184.271 195.245,184.569 195.584 C 184.866 195.923,185.306 197.133,185.545 198.274 C 185.785 199.415,186.344 200.945,186.789 201.674 C 187.233 202.403,187.599 203.450,187.602 204.000 C 187.605 204.550,188.050 205.900,188.591 207.000 C 189.132 208.100,189.582 209.360,189.591 209.800 C 189.600 210.240,190.050 211.500,190.591 212.600 C 191.132 213.700,191.582 214.960,191.591 215.400 C 191.600 215.840,192.050 217.100,192.591 218.200 C 193.132 219.300,193.582 220.560,193.591 221.000 C 193.600 221.440,194.050 222.700,194.591 223.800 C 195.132 224.900,195.582 226.160,195.591 226.600 C 195.600 227.040,196.050 228.300,196.591 229.400 C 197.132 230.500,197.582 231.760,197.591 232.200 C 197.600 232.640,198.050 233.900,198.591 235.000 C 199.132 236.100,199.581 237.275,199.587 237.611 C 199.631 239.716,202.353 240.320,202.413 238.238 C 202.419 237.997,202.868 236.900,203.409 235.800 C 203.950 234.700,204.394 233.437,204.396 232.994 C 204.398 232.551,204.757 231.522,205.193 230.709 C 206.206 228.818,206.572 226.478,206.055 225.200 C 205.661 224.225,205.650 224.233,205.625 225.522 C 205.611 226.249,205.260 227.599,204.845 228.522 C 204.430 229.445,203.963 230.830,203.806 231.600 C 203.650 232.370,203.200 233.720,202.806 234.600 C 202.413 235.480,201.890 236.705,201.644 237.323 C 201.081 238.734,200.507 238.408,200.171 236.486 C 200.027 235.669,199.659 234.600,199.353 234.110 C 199.046 233.621,198.540 232.241,198.228 231.043 C 197.916 229.844,197.395 228.445,197.070 227.932 C 196.744 227.419,196.362 226.370,196.220 225.600 C 196.078 224.830,195.625 223.390,195.213 222.400 C 194.801 221.410,194.179 219.745,193.832 218.700 C 193.484 217.655,192.916 215.945,192.568 214.900 C 192.221 213.855,191.596 212.190,191.181 211.200 C 190.765 210.210,190.244 208.680,190.022 207.800 C 189.801 206.920,189.255 205.487,188.810 204.615 C 188.364 203.744,188.000 202.661,188.000 202.209 C 188.000 201.758,187.669 200.761,187.264 199.994 C 186.859 199.227,186.312 197.728,186.049 196.663 C 185.785 195.597,185.320 194.337,185.014 193.863 C 184.709 193.388,184.334 192.280,184.181 191.400 C 184.028 190.520,183.580 189.260,183.185 188.600 C 182.790 187.940,182.340 186.680,182.185 185.800 C 182.030 184.920,181.580 183.660,181.185 183.000 C 180.790 182.340,180.338 181.080,180.180 180.200 C 180.021 179.320,179.561 177.941,179.156 177.136 C 178.751 176.330,178.253 174.980,178.048 174.136 C 177.843 173.291,177.319 171.700,176.883 170.600 C 175.998 168.367,175.389 166.663,174.522 164.000 C 174.200 163.010,173.596 161.390,173.181 160.400 C 172.765 159.410,172.225 157.806,171.980 156.836 C 171.735 155.866,171.302 154.696,171.017 154.236 C 170.733 153.776,170.284 152.502,170.020 151.405 C 169.757 150.308,169.368 149.203,169.158 148.949 C 168.947 148.695,168.548 147.704,168.271 146.747 C 167.942 145.611,167.426 144.835,166.783 144.509 C 165.373 143.796,146.836 143.793,145.861 144.506 " stroke="none" fill="#86a8cd" fill-rule="evenodd"></path><path id="path4" d="M147.208 9.700 C 147.237 11.520,148.119 15.922,148.603 16.661 C 148.923 17.149,149.384 18.865,149.628 20.474 C 149.871 22.083,150.319 23.790,150.622 24.266 C 150.925 24.742,151.367 26.340,151.603 27.816 C 151.838 29.292,152.287 30.995,152.600 31.600 C 152.913 32.205,153.366 33.937,153.606 35.450 C 153.847 36.962,154.301 38.593,154.614 39.074 C 154.928 39.555,155.384 41.265,155.628 42.874 C 155.871 44.483,156.341 46.223,156.671 46.741 C 157.002 47.258,157.440 48.872,157.647 50.327 C 157.853 51.782,158.286 53.377,158.610 53.871 C 158.934 54.365,159.384 56.076,159.610 57.672 C 159.837 59.268,160.281 60.969,160.598 61.453 C 160.915 61.936,161.370 63.562,161.609 65.066 C 161.849 66.570,162.319 68.340,162.655 69.000 C 162.991 69.660,163.432 71.335,163.635 72.723 C 163.837 74.111,164.289 75.800,164.639 76.476 C 164.989 77.152,165.443 78.891,165.648 80.339 C 165.853 81.788,166.281 83.369,166.597 83.852 C 166.914 84.336,167.370 85.962,167.609 87.466 C 167.849 88.970,168.306 90.725,168.625 91.368 C 168.945 92.010,169.395 93.720,169.625 95.168 C 169.855 96.615,170.304 98.198,170.621 98.685 C 170.939 99.172,171.384 100.876,171.610 102.472 C 171.837 104.068,172.281 105.769,172.598 106.253 C 172.915 106.736,173.370 108.362,173.609 109.866 C 173.849 111.370,174.306 113.125,174.625 113.768 C 174.945 114.410,175.395 116.120,175.625 117.568 C 175.855 119.015,176.304 120.598,176.621 121.085 C 176.939 121.572,177.384 123.276,177.610 124.872 C 177.837 126.468,178.283 128.173,178.603 128.661 C 178.923 129.149,179.384 130.865,179.628 132.474 C 179.871 134.083,180.319 135.790,180.622 136.266 C 180.925 136.742,181.370 138.362,181.609 139.866 C 181.848 141.370,182.304 142.998,182.621 143.485 C 182.939 143.972,183.384 145.676,183.610 147.272 C 183.837 148.868,184.303 150.603,184.647 151.128 C 184.991 151.652,185.440 153.268,185.645 154.718 C 185.851 156.168,186.299 157.905,186.642 158.577 C 186.985 159.250,187.436 160.964,187.644 162.386 C 187.851 163.809,188.283 165.372,188.603 165.861 C 188.923 166.349,189.384 168.065,189.628 169.674 C 189.871 171.283,190.319 172.990,190.622 173.466 C 190.925 173.942,191.370 175.562,191.609 177.066 C 191.849 178.570,192.319 180.340,192.655 181.000 C 192.991 181.660,193.436 183.364,193.644 184.786 C 193.851 186.209,194.273 187.757,194.581 188.227 C 194.889 188.697,195.333 190.463,195.568 192.151 C 195.803 193.839,196.256 195.621,196.575 196.110 C 196.895 196.600,197.356 198.260,197.600 199.800 C 197.844 201.340,198.285 202.969,198.579 203.420 C 198.873 203.871,199.322 205.581,199.576 207.219 C 199.830 208.858,200.299 210.597,200.618 211.084 C 200.937 211.571,201.379 213.243,201.600 214.800 C 201.821 216.357,202.263 218.029,202.582 218.516 C 202.901 219.003,203.371 220.748,203.626 222.394 C 203.882 224.039,204.237 225.771,204.416 226.242 C 204.600 226.726,204.577 227.263,204.364 227.476 C 204.156 227.684,203.784 229.012,203.537 230.427 C 203.290 231.842,202.753 233.429,202.344 233.954 C 201.935 234.479,201.597 235.289,201.594 235.754 C 201.581 237.515,200.875 237.814,200.606 236.172 C 200.348 234.593,200.061 233.851,198.990 232.000 C 198.672 231.450,198.409 230.439,198.406 229.754 C 198.403 229.069,198.046 228.058,197.613 227.508 C 197.181 226.958,196.713 225.718,196.574 224.754 C 196.434 223.789,195.993 222.533,195.594 221.962 C 195.194 221.391,194.742 220.084,194.588 219.057 C 194.434 218.031,193.998 216.788,193.619 216.295 C 193.240 215.803,192.720 214.320,192.462 213.000 C 192.205 211.680,191.758 210.420,191.468 210.200 C 191.179 209.980,190.730 208.734,190.471 207.431 C 190.211 206.128,189.722 204.756,189.383 204.382 C 189.045 204.008,188.622 202.777,188.443 201.648 C 188.265 200.518,187.815 199.258,187.443 198.848 C 187.072 198.437,186.617 197.147,186.433 195.981 C 186.248 194.815,185.822 193.659,185.486 193.413 C 185.149 193.167,184.751 192.074,184.601 190.983 C 184.451 189.892,184.000 188.533,183.598 187.962 C 183.196 187.391,182.742 186.084,182.588 185.057 C 182.434 184.031,181.995 182.788,181.612 182.295 C 181.229 181.803,180.793 180.680,180.642 179.800 C 180.298 177.797,179.605 176.000,179.176 176.000 C 178.996 176.000,178.725 175.145,178.573 174.100 C 178.292 172.160,177.758 170.782,177.127 170.368 C 176.932 170.241,176.626 169.204,176.446 168.065 C 176.266 166.926,175.823 165.667,175.461 165.268 C 175.100 164.868,174.689 163.655,174.549 162.571 C 174.409 161.487,173.970 160.240,173.573 159.800 C 173.177 159.360,172.724 158.028,172.567 156.841 C 172.407 155.631,171.968 154.368,171.569 153.969 C 171.178 153.578,170.739 152.390,170.593 151.329 C 170.447 150.268,170.007 148.943,169.614 148.384 C 169.222 147.826,168.773 146.789,168.618 146.080 C 168.067 143.571,168.207 143.600,156.460 143.600 C 144.572 143.600,143.276 143.836,144.544 145.771 C 144.867 146.263,145.257 147.509,145.412 148.538 C 145.566 149.567,146.035 150.845,146.453 151.376 C 146.871 151.908,147.374 153.201,147.570 154.250 C 147.766 155.299,148.196 156.354,148.526 156.595 C 148.856 156.837,149.257 157.906,149.416 158.971 C 149.576 160.036,150.033 161.233,150.431 161.631 C 150.829 162.029,151.272 163.040,151.415 163.878 C 151.558 164.715,152.005 165.870,152.409 166.445 C 152.813 167.020,153.263 168.190,153.409 169.045 C 153.555 169.900,154.005 171.070,154.409 171.645 C 154.813 172.220,155.263 173.390,155.409 174.245 C 155.555 175.100,156.023 176.295,156.450 176.900 C 156.876 177.505,157.382 178.846,157.575 179.878 C 157.768 180.911,158.196 181.954,158.526 182.195 C 158.856 182.437,159.251 183.467,159.404 184.485 C 159.556 185.503,160.028 186.709,160.452 187.164 C 160.876 187.618,161.375 188.809,161.562 189.810 C 161.749 190.810,162.179 191.937,162.517 192.314 C 162.856 192.691,163.254 193.720,163.404 194.600 C 163.553 195.480,164.023 196.695,164.450 197.300 C 164.876 197.905,165.382 199.246,165.575 200.278 C 165.768 201.311,166.196 202.354,166.526 202.595 C 166.856 202.837,167.257 203.906,167.416 204.971 C 167.576 206.036,168.040 207.240,168.448 207.648 C 168.855 208.055,169.305 209.156,169.446 210.094 C 169.588 211.032,170.026 212.160,170.420 212.600 C 170.813 213.040,171.257 214.120,171.405 215.000 C 171.553 215.880,172.005 217.070,172.409 217.645 C 172.813 218.220,173.263 219.390,173.409 220.245 C 173.555 221.100,174.023 222.295,174.450 222.900 C 174.876 223.505,175.382 224.846,175.575 225.878 C 175.768 226.911,176.196 227.954,176.526 228.195 C 176.856 228.437,177.252 229.472,177.405 230.497 C 177.559 231.521,178.116 232.944,178.642 233.657 C 179.169 234.371,179.600 235.436,179.600 236.024 C 179.600 236.611,179.945 237.531,180.367 238.067 C 180.789 238.604,181.256 239.753,181.404 240.621 C 181.553 241.490,182.023 242.695,182.450 243.300 C 182.876 243.905,183.382 245.246,183.575 246.278 C 183.768 247.311,184.196 248.354,184.526 248.595 C 184.856 248.837,185.257 249.906,185.416 250.971 C 185.576 252.036,186.040 253.240,186.448 253.648 C 186.855 254.055,187.310 255.146,187.458 256.071 C 187.640 257.211,188.153 258.180,189.050 259.077 L 190.373 260.400 200.087 260.395 C 211.481 260.388,211.464 260.391,212.411 258.275 L 213.131 256.668 213.383 258.634 C 213.521 259.715,213.992 261.517,214.429 262.637 C 214.866 263.757,215.409 265.827,215.635 267.237 C 215.860 268.647,216.305 270.198,216.622 270.685 C 216.939 271.172,217.384 272.876,217.610 274.472 C 217.837 276.068,218.287 277.778,218.610 278.272 C 218.934 278.766,219.362 280.323,219.562 281.732 C 219.761 283.141,220.205 284.835,220.547 285.497 C 220.889 286.158,221.366 287.937,221.606 289.450 C 221.847 290.962,222.304 292.598,222.621 293.085 C 222.939 293.572,223.384 295.276,223.610 296.872 C 223.837 298.468,224.287 300.178,224.610 300.672 C 224.934 301.166,225.379 302.843,225.600 304.400 C 225.821 305.957,226.261 307.628,226.579 308.115 C 226.896 308.602,227.356 310.260,227.600 311.800 C 227.844 313.340,228.304 314.998,228.621 315.485 C 228.939 315.972,229.378 317.636,229.598 319.183 C 229.817 320.731,230.357 322.670,230.798 323.492 C 231.239 324.315,231.600 325.718,231.600 326.609 C 231.600 327.501,231.965 328.944,232.412 329.815 C 232.859 330.687,233.404 332.654,233.623 334.187 C 233.842 335.720,234.287 337.378,234.610 337.872 C 234.934 338.366,235.384 340.076,235.610 341.672 C 235.837 343.268,236.287 344.978,236.610 345.472 C 236.934 345.966,237.362 347.523,237.562 348.932 C 237.761 350.341,238.229 352.082,238.600 352.800 C 238.971 353.518,239.443 355.291,239.648 356.739 C 239.853 358.188,240.286 359.777,240.610 360.271 C 240.934 360.765,241.384 362.476,241.610 364.072 C 241.837 365.668,242.287 367.378,242.610 367.872 C 242.934 368.366,243.368 369.961,243.574 371.416 C 243.780 372.871,244.211 374.462,244.531 374.951 C 244.851 375.440,245.322 377.181,245.576 378.819 C 245.830 380.458,246.310 382.214,246.643 382.722 C 246.976 383.229,247.446 385.255,247.688 387.222 C 248.102 390.581,248.186 390.800,249.064 390.800 C 250.183 390.800,250.377 389.116,249.417 387.745 C 249.096 387.287,248.639 385.694,248.401 384.206 C 248.163 382.717,247.716 381.011,247.407 380.414 C 247.098 379.817,246.636 378.084,246.381 376.564 C 246.125 375.044,245.668 373.407,245.365 372.926 C 245.063 372.445,244.616 370.735,244.372 369.126 C 244.129 367.517,243.681 365.810,243.378 365.334 C 243.075 364.858,242.641 363.306,242.414 361.887 C 242.187 360.467,241.662 358.516,241.247 357.552 C 240.833 356.589,240.372 354.810,240.223 353.600 C 240.074 352.390,239.699 351.010,239.389 350.534 C 239.080 350.058,238.630 348.438,238.391 346.934 C 238.151 345.430,237.681 343.660,237.345 343.000 C 237.009 342.340,236.575 340.711,236.380 339.380 C 236.185 338.049,235.681 336.159,235.260 335.180 C 234.838 334.201,234.372 332.410,234.223 331.200 C 234.074 329.990,233.696 328.607,233.384 328.126 C 233.071 327.645,232.616 325.935,232.372 324.326 C 232.129 322.717,231.681 321.010,231.378 320.534 C 231.075 320.058,230.641 318.506,230.414 317.087 C 230.187 315.667,229.662 313.716,229.247 312.752 C 228.833 311.789,228.372 310.010,228.223 308.800 C 228.074 307.590,227.699 306.210,227.389 305.734 C 227.080 305.258,226.630 303.638,226.391 302.134 C 226.151 300.630,225.694 298.875,225.375 298.232 C 225.055 297.590,224.615 295.949,224.398 294.585 C 224.180 293.221,223.662 291.316,223.247 290.352 C 222.833 289.389,222.372 287.610,222.223 286.400 C 222.074 285.190,221.696 283.807,221.384 283.326 C 221.071 282.845,220.616 281.135,220.372 279.526 C 220.129 277.917,219.681 276.210,219.378 275.734 C 219.075 275.258,218.641 273.706,218.414 272.287 C 218.187 270.867,217.662 268.916,217.247 267.952 C 216.833 266.989,216.372 265.210,216.223 264.000 C 216.074 262.790,215.697 261.408,215.385 260.928 C 215.074 260.449,214.700 259.279,214.555 258.328 C 214.083 255.236,213.201 254.815,212.238 257.223 C 211.205 259.804,210.332 260.000,199.860 260.000 L 190.895 260.000 189.641 258.717 C 188.951 258.011,188.193 256.706,187.956 255.817 C 187.720 254.928,187.203 253.660,186.807 253.000 C 186.410 252.340,185.957 251.170,185.800 250.400 C 185.643 249.630,185.173 248.439,184.757 247.753 C 184.341 247.067,184.000 246.193,184.000 245.811 C 184.000 245.429,183.570 244.259,183.044 243.212 C 182.518 242.165,181.957 240.714,181.797 239.987 C 181.638 239.261,181.169 238.112,180.755 237.433 C 180.341 236.755,180.002 235.923,180.001 235.585 C 180.001 235.246,179.635 234.256,179.189 233.385 C 178.743 232.513,178.127 230.960,177.821 229.934 C 177.514 228.908,176.997 227.648,176.671 227.134 C 176.345 226.620,175.951 225.570,175.796 224.800 C 175.641 224.030,175.193 222.860,174.800 222.200 C 174.407 221.540,173.956 220.370,173.797 219.600 C 173.638 218.830,173.334 217.985,173.123 217.722 C 172.765 217.278,171.794 214.795,169.997 209.735 C 169.594 208.599,168.997 207.249,168.671 206.735 C 168.345 206.221,167.951 205.170,167.796 204.400 C 167.641 203.630,167.173 202.439,166.757 201.753 C 166.341 201.067,166.000 200.193,166.000 199.811 C 166.000 199.429,165.570 198.259,165.044 197.212 C 164.518 196.165,163.957 194.714,163.797 193.987 C 163.638 193.261,163.169 192.112,162.755 191.433 C 162.341 190.755,162.002 189.923,162.001 189.585 C 162.001 189.246,161.635 188.256,161.189 187.385 C 160.743 186.513,160.127 184.960,159.821 183.934 C 159.514 182.908,158.997 181.648,158.671 181.134 C 158.345 180.620,157.951 179.570,157.796 178.800 C 157.641 178.030,157.193 176.860,156.800 176.200 C 156.407 175.540,155.958 174.393,155.801 173.651 C 155.643 172.908,155.191 171.738,154.796 171.051 C 154.401 170.363,153.949 169.185,153.792 168.433 C 153.635 167.682,153.169 166.512,152.755 165.833 C 152.341 165.155,152.002 164.312,152.001 163.960 C 152.001 163.607,151.571 162.512,151.046 161.525 C 150.522 160.539,149.962 159.117,149.803 158.366 C 149.644 157.615,149.173 156.439,148.757 155.753 C 148.341 155.067,148.000 154.149,148.000 153.712 C 148.000 153.276,147.572 152.113,147.048 151.129 C 143.498 144.451,144.078 143.998,156.176 144.006 C 167.179 144.013,167.500 144.085,168.271 146.747 C 168.548 147.704,168.947 148.695,169.158 148.949 C 169.368 149.203,169.757 150.308,170.020 151.405 C 170.284 152.502,170.733 153.776,171.017 154.236 C 171.302 154.696,171.735 155.866,171.980 156.836 C 172.225 157.806,172.765 159.410,173.181 160.400 C 173.596 161.390,174.200 163.010,174.522 164.000 C 175.389 166.663,175.998 168.367,176.883 170.600 C 177.319 171.700,177.843 173.291,178.048 174.136 C 178.253 174.980,178.751 176.330,179.156 177.136 C 179.561 177.941,180.021 179.320,180.180 180.200 C 180.338 181.080,180.790 182.340,181.185 183.000 C 181.580 183.660,182.030 184.920,182.185 185.800 C 182.340 186.680,182.790 187.940,183.185 188.600 C 183.580 189.260,184.028 190.520,184.181 191.400 C 184.334 192.280,184.709 193.388,185.014 193.863 C 185.320 194.337,185.785 195.597,186.049 196.663 C 186.312 197.728,186.859 199.227,187.264 199.994 C 187.669 200.761,188.000 201.758,188.000 202.209 C 188.000 202.661,188.364 203.744,188.810 204.615 C 189.255 205.487,189.801 206.920,190.022 207.800 C 190.244 208.680,190.765 210.210,191.181 211.200 C 191.596 212.190,192.221 213.855,192.568 214.900 C 192.916 215.945,193.484 217.655,193.832 218.700 C 194.179 219.745,194.801 221.410,195.213 222.400 C 195.625 223.390,196.078 224.830,196.220 225.600 C 196.362 226.370,196.744 227.419,197.070 227.932 C 197.395 228.445,197.916 229.844,198.228 231.043 C 198.540 232.241,199.046 233.621,199.353 234.110 C 199.659 234.600,200.027 235.669,200.171 236.486 C 200.507 238.408,201.081 238.734,201.644 237.323 C 201.890 236.705,202.413 235.480,202.806 234.600 C 203.200 233.720,203.650 232.370,203.806 231.600 C 203.963 230.830,204.430 229.445,204.845 228.522 C 205.739 226.535,205.795 225.061,205.059 222.950 C 204.762 222.098,204.391 220.410,204.235 219.200 C 204.080 217.990,203.699 216.610,203.389 216.134 C 203.080 215.658,202.630 214.038,202.391 212.534 C 202.151 211.030,201.694 209.275,201.375 208.632 C 201.055 207.990,200.615 206.349,200.398 204.985 C 200.180 203.621,199.662 201.716,199.247 200.752 C 198.833 199.789,198.372 198.010,198.223 196.800 C 198.074 195.590,197.684 194.188,197.357 193.685 C 197.029 193.181,196.595 191.313,196.392 189.532 C 196.189 187.752,195.743 185.867,195.400 185.344 C 195.058 184.821,194.617 183.121,194.422 181.565 C 194.227 180.010,193.801 178.436,193.477 178.069 C 193.152 177.701,192.702 175.991,192.476 174.268 C 192.251 172.545,191.798 170.835,191.470 170.468 C 191.142 170.101,190.750 168.720,190.599 167.400 C 190.448 166.080,189.987 164.280,189.575 163.399 C 189.162 162.519,188.650 160.565,188.437 159.058 C 188.223 157.550,187.778 156.018,187.447 155.652 C 187.116 155.287,186.671 153.582,186.458 151.864 C 186.245 150.146,185.799 148.439,185.468 148.070 C 185.136 147.702,184.683 146.083,184.462 144.474 C 184.240 142.865,183.788 141.136,183.458 140.633 C 183.128 140.129,182.677 138.413,182.456 136.820 C 182.236 135.227,181.783 133.623,181.450 133.256 C 181.118 132.888,180.671 131.183,180.458 129.464 C 180.245 127.746,179.799 126.039,179.468 125.670 C 179.136 125.302,178.683 123.683,178.462 122.074 C 178.240 120.465,177.788 118.736,177.458 118.233 C 177.128 117.729,176.677 116.013,176.456 114.420 C 176.236 112.827,175.792 111.226,175.471 110.862 C 175.149 110.498,174.702 108.791,174.476 107.068 C 174.251 105.345,173.793 103.635,173.460 103.266 C 173.126 102.898,172.736 101.607,172.592 100.398 C 172.280 97.771,171.659 95.600,171.221 95.600 C 171.046 95.600,170.718 94.149,170.492 92.376 C 170.265 90.603,169.812 88.848,169.483 88.476 C 169.155 88.104,168.702 86.391,168.476 84.668 C 168.251 82.945,167.797 81.235,167.469 80.868 C 167.140 80.501,166.754 79.300,166.610 78.200 C 166.172 74.847,165.957 74.015,165.384 73.441 C 165.081 73.139,164.662 71.507,164.452 69.816 C 164.242 68.124,163.807 66.439,163.486 66.070 C 163.165 65.702,162.695 63.970,162.442 62.221 C 162.189 60.473,161.732 58.763,161.427 58.421 C 161.123 58.080,160.750 56.720,160.599 55.400 C 160.448 54.080,159.987 52.280,159.575 51.399 C 159.162 50.519,158.650 48.565,158.437 47.058 C 158.223 45.550,157.782 44.020,157.457 43.658 C 157.132 43.296,156.668 41.571,156.426 39.824 C 156.185 38.078,155.735 36.368,155.426 36.024 C 155.117 35.681,154.683 34.083,154.462 32.474 C 154.240 30.865,153.788 29.136,153.458 28.633 C 153.128 28.129,152.677 26.413,152.456 24.820 C 152.236 23.227,151.783 21.623,151.450 21.256 C 151.118 20.888,150.671 19.183,150.458 17.464 C 150.245 15.746,149.800 14.039,149.471 13.670 C 149.141 13.302,148.745 12.145,148.590 11.100 C 148.339 9.403,147.185 8.233,147.208 9.700 M81.016 97.096 C 80.013 98.178,80.000 98.275,80.000 104.834 C 80.000 113.815,78.628 112.970,93.441 113.117 L 105.200 113.234 105.200 200.000 L 105.200 286.766 93.441 286.883 C 78.628 287.030,80.000 286.185,80.000 295.166 C 80.000 301.725,80.013 301.822,81.016 302.904 L 82.032 304.000 103.181 304.000 L 124.329 304.000 125.364 302.769 L 126.400 301.539 126.400 200.000 L 126.400 98.461 125.364 97.231 L 124.329 96.000 103.181 96.000 L 82.032 96.000 81.016 97.096 M124.546 97.629 L 125.600 98.458 125.600 200.000 L 125.600 301.542 124.546 302.371 C 123.511 303.185,123.125 303.200,103.072 303.200 C 78.119 303.200,80.797 304.159,80.806 295.230 C 80.815 286.543,79.709 287.200,94.321 287.200 L 105.495 287.200 105.743 285.700 C 106.067 283.740,106.067 116.260,105.743 114.300 L 105.495 112.800 94.321 112.800 C 83.315 112.800,81.918 112.656,81.106 111.440 C 80.301 110.235,80.776 98.677,81.670 97.726 L 82.539 96.800 103.016 96.800 C 123.125 96.800,123.511 96.815,124.546 97.629 " stroke="none" fill="#298dca" fill-rule="evenodd"></path></g></svg>