<svg id="svg" version="1.1" xmlns="http://www.w3.org/2000/svg" xmlns:xlink="http://www.w3.org/1999/xlink" width="400" height="400" viewBox="0, 0, 400,400"><g id="svgg"><path id="path0" d="M262.884 122.365 C 259.154 122.530,257.473 122.756,257.247 123.122 C 256.462 124.397,255.885 272.123,256.650 275.949 C 257.051 277.953,258.071 278.067,274.280 277.926 C 291.367 277.777,289.800 278.351,289.800 272.241 C 289.800 265.995,290.423 266.400,280.813 266.400 C 273.301 266.400,272.888 266.360,272.162 265.558 C 270.966 264.237,270.966 135.763,272.162 134.442 C 272.888 133.640,273.301 133.600,280.813 133.600 C 287.663 133.600,288.774 133.513,289.251 132.939 C 290.005 132.030,290.030 123.470,289.281 122.720 C 288.704 122.143,272.768 121.929,262.884 122.365 M111.670 123.726 C 110.918 124.525,110.800 125.112,110.800 128.030 C 110.800 132.662,110.572 132.547,120.290 132.800 C 127.625 132.991,128.022 133.042,128.890 133.911 L 129.800 134.822 129.800 200.000 L 129.800 265.178 128.890 266.089 C 128.022 266.958,127.625 267.009,120.290 267.200 C 110.556 267.453,110.800 267.329,110.800 272.026 C 110.800 277.548,109.716 277.200,126.903 277.200 L 141.155 277.200 141.777 276.311 C 142.729 274.953,142.729 125.047,141.777 123.689 L 141.155 122.800 126.847 122.800 L 112.539 122.800 111.670 123.726 M225.781 160.030 C 224.769 161.633,223.516 164.898,222.031 169.800 C 221.631 171.120,220.651 173.603,219.854 175.318 C 219.056 177.033,218.285 179.193,218.139 180.118 C 217.994 181.043,217.570 182.520,217.198 183.400 C 216.825 184.280,216.390 185.720,216.230 186.600 C 216.071 187.480,215.602 188.920,215.190 189.800 C 213.254 193.927,212.000 197.228,212.000 198.193 C 212.000 198.776,211.804 199.619,211.564 200.067 C 211.325 200.514,210.678 202.438,210.127 204.340 C 209.575 206.243,208.517 209.060,207.774 210.600 C 206.997 212.212,206.244 214.588,206.001 216.200 C 205.368 220.379,203.957 226.118,203.393 226.800 C 203.120 227.130,202.600 227.985,202.238 228.700 C 201.876 229.415,201.321 230.000,201.005 230.000 C 200.482 230.000,197.600 224.677,197.600 223.712 C 197.600 223.490,197.255 222.869,196.833 222.333 C 196.411 221.796,195.938 220.647,195.782 219.779 C 195.627 218.910,195.178 217.480,194.785 216.600 C 194.393 215.720,193.873 213.908,193.631 212.574 C 193.389 211.239,192.384 208.539,191.397 206.574 C 190.410 204.608,189.602 202.585,189.601 202.078 C 189.600 201.571,189.259 200.401,188.843 199.478 C 188.426 198.555,187.866 196.720,187.597 195.400 C 187.328 194.080,186.768 192.332,186.354 191.516 C 185.939 190.700,185.600 189.783,185.600 189.478 C 185.600 189.173,185.262 188.618,184.848 188.244 C 184.425 187.860,183.887 186.497,183.616 185.118 C 183.351 183.773,182.889 182.296,182.589 181.836 C 182.289 181.376,181.844 179.743,181.599 178.207 C 181.355 176.670,180.916 175.140,180.625 174.807 C 180.333 174.473,179.963 173.750,179.802 173.200 C 179.641 172.650,179.185 171.660,178.789 171.000 C 178.393 170.340,177.795 168.810,177.461 167.600 C 177.127 166.390,176.579 164.680,176.244 163.800 C 175.909 162.920,175.627 161.802,175.618 161.316 C 175.575 159.151,174.420 158.800,167.352 158.800 C 159.862 158.800,158.767 159.726,161.436 163.799 C 161.729 164.245,162.174 165.572,162.426 166.747 C 162.678 167.923,163.207 169.207,163.601 169.601 C 163.996 169.996,164.447 170.922,164.604 171.659 C 164.761 172.397,165.125 173.270,165.414 173.600 C 165.703 173.930,166.159 175.100,166.428 176.200 C 166.696 177.300,167.063 178.390,167.243 178.623 C 167.423 178.856,167.844 180.099,168.179 181.385 C 168.514 182.672,169.047 184.011,169.363 184.362 C 169.679 184.713,170.067 185.540,170.225 186.200 C 170.384 186.860,170.938 188.136,171.457 189.035 C 171.975 189.934,172.406 191.104,172.413 191.635 C 172.419 192.166,172.868 193.500,173.409 194.600 C 173.950 195.700,174.394 197.071,174.396 197.646 C 174.398 198.221,174.782 199.177,175.248 199.770 C 175.714 200.363,176.261 201.582,176.462 202.479 C 176.664 203.376,177.167 204.541,177.581 205.067 C 177.995 205.593,178.459 206.764,178.612 207.668 C 178.764 208.573,179.404 210.124,180.032 211.115 C 181.225 212.996,182.178 215.561,182.622 218.086 C 182.766 218.903,183.125 219.772,183.420 220.017 C 183.715 220.261,184.175 221.483,184.443 222.731 C 184.711 223.979,185.153 225.270,185.426 225.600 C 186.412 226.794,188.323 231.443,188.578 233.267 C 188.722 234.294,189.085 235.338,189.384 235.587 C 189.684 235.836,190.152 236.976,190.423 238.120 C 190.694 239.264,191.250 240.629,191.658 241.154 C 192.066 241.679,192.400 242.347,192.400 242.639 C 192.400 244.264,206.270 244.564,208.027 242.976 C 209.137 241.974,211.316 237.559,211.954 235.019 C 212.228 233.930,213.232 231.410,214.185 229.419 C 215.139 227.429,216.051 225.173,216.212 224.406 C 216.373 223.639,216.738 222.649,217.023 222.206 C 217.308 221.763,217.671 220.688,217.830 219.817 C 218.110 218.291,219.010 216.021,221.009 211.800 C 221.531 210.700,222.077 209.123,222.224 208.296 C 222.371 207.468,222.637 206.701,222.815 206.591 C 222.993 206.481,223.450 205.448,223.831 204.295 C 224.211 203.143,224.763 201.830,225.056 201.378 C 225.583 200.566,226.373 198.450,228.185 193.000 C 229.239 189.828,230.177 187.463,230.961 186.000 C 231.256 185.450,231.723 184.280,232.001 183.400 C 232.278 182.520,232.647 181.618,232.823 181.395 C 232.998 181.172,233.362 180.092,233.632 178.995 C 234.167 176.820,236.597 170.528,237.170 169.833 C 237.529 169.397,238.700 166.251,239.836 162.672 C 240.172 161.611,240.392 160.261,240.324 159.672 L 240.200 158.600 233.511 158.490 L 226.822 158.381 225.781 160.030 " stroke="none" fill="#f7f9fa" fill-rule="evenodd"></path><path id="path1" d="M69.467 55.467 C 69.320 55.613,69.200 56.063,69.200 56.467 C 69.200 57.100,68.857 57.200,66.680 57.200 C 63.746 57.200,63.200 57.589,63.200 59.680 C 63.200 61.035,63.091 61.200,62.200 61.200 C 61.400 61.200,61.200 61.400,61.200 62.200 C 61.200 63.091,61.035 63.200,59.680 63.200 C 57.594 63.200,57.200 63.748,57.200 66.652 C 57.200 68.932,57.123 69.155,56.300 69.272 L 55.400 69.400 55.400 200.000 L 55.400 330.600 56.300 330.728 C 57.123 330.845,57.200 331.068,57.200 333.348 C 57.200 336.252,57.594 336.800,59.680 336.800 C 61.035 336.800,61.200 336.909,61.200 337.800 C 61.200 338.600,61.400 338.800,62.200 338.800 C 63.091 338.800,63.200 338.965,63.200 340.320 C 63.200 342.406,63.748 342.800,66.652 342.800 C 68.932 342.800,69.155 342.877,69.272 343.700 L 69.400 344.600 152.700 344.701 L 236.000 344.802 235.979 343.901 C 235.938 342.127,234.917 337.223,234.480 336.696 C 234.234 336.400,233.819 334.818,233.557 333.179 C 233.295 331.541,232.935 330.010,232.756 329.778 C 232.577 329.546,232.152 327.752,231.810 325.792 C 231.468 323.832,230.846 321.502,230.428 320.614 C 230.010 319.726,229.542 318.190,229.387 317.200 C 229.232 316.210,228.867 314.934,228.576 314.364 C 228.284 313.794,227.834 312.084,227.575 310.564 C 227.316 309.044,226.865 307.216,226.574 306.503 C 226.282 305.790,225.854 303.842,225.622 302.175 C 225.390 300.507,224.930 298.873,224.600 298.543 C 224.270 298.213,224.000 297.899,224.000 297.845 C 224.000 296.946,222.987 292.748,222.580 291.961 C 222.280 291.381,221.858 289.807,221.641 288.464 C 221.425 287.120,220.525 283.991,219.643 281.510 C 218.760 279.030,217.825 275.470,217.567 273.600 C 217.308 271.730,216.843 269.702,216.535 269.094 C 216.226 268.486,215.727 266.686,215.426 265.094 C 215.124 263.502,214.234 260.400,213.446 258.200 C 212.300 254.997,211.200 250.014,211.200 248.026 C 211.200 246.874,208.928 244.917,208.204 245.446 C 207.625 245.870,205.729 246.000,200.124 246.000 L 192.801 246.000 191.200 244.447 C 190.207 243.483,189.600 242.529,189.600 241.931 C 189.600 241.402,189.236 240.256,188.792 239.385 C 188.347 238.513,187.776 236.675,187.523 235.300 C 187.269 233.925,186.928 232.800,186.764 232.800 C 186.600 232.800,186.146 231.945,185.754 230.900 C 185.363 229.855,184.833 228.870,184.576 228.711 C 184.320 228.552,183.891 227.562,183.623 226.511 C 183.355 225.460,182.844 224.061,182.487 223.403 C 182.131 222.744,181.709 221.243,181.549 220.067 C 181.390 218.891,180.967 217.606,180.610 217.212 C 180.254 216.817,179.773 215.798,179.542 214.947 C 179.312 214.096,178.806 213.040,178.418 212.600 C 178.030 212.160,177.524 211.080,177.293 210.200 C 177.063 209.320,176.498 207.569,176.037 206.310 C 175.577 205.050,175.200 203.655,175.200 203.210 C 175.200 202.764,175.022 202.400,174.805 202.400 C 174.375 202.400,173.200 199.856,173.200 198.923 C 173.200 198.604,172.935 198.078,172.611 197.753 C 172.286 197.429,171.831 196.407,171.599 195.482 C 171.367 194.557,170.935 193.350,170.640 192.800 C 170.345 192.250,169.878 190.810,169.602 189.600 C 169.326 188.390,168.783 187.040,168.394 186.600 C 168.005 186.160,167.554 185.177,167.393 184.416 C 167.232 183.654,166.779 182.574,166.387 182.016 C 165.995 181.457,165.555 180.299,165.408 179.442 C 165.262 178.584,164.887 177.494,164.575 177.018 C 164.263 176.542,163.824 175.183,163.600 173.997 C 163.375 172.812,162.852 171.472,162.439 171.021 C 162.025 170.569,161.553 169.570,161.391 168.800 C 161.229 168.030,160.780 166.997,160.393 166.503 C 160.007 166.010,159.564 164.930,159.409 164.103 C 159.255 163.277,158.983 162.420,158.806 162.200 C 158.628 161.980,158.302 161.137,158.081 160.326 C 157.371 157.725,157.793 157.600,167.309 157.600 C 176.201 157.600,176.800 157.754,176.800 160.040 C 176.800 160.404,177.054 160.913,177.365 161.171 C 177.676 161.429,178.147 162.576,178.412 163.720 C 178.678 164.864,179.609 167.321,180.481 169.179 C 181.354 171.038,182.255 173.648,182.483 174.979 C 182.711 176.311,183.120 177.670,183.392 178.000 C 183.665 178.330,184.098 179.500,184.356 180.600 C 184.615 181.700,185.077 183.140,185.385 183.800 C 187.687 188.740,188.323 190.468,188.534 192.355 C 188.667 193.540,189.073 194.839,189.437 195.240 C 189.800 195.642,190.256 196.833,190.449 197.886 C 190.641 198.939,191.047 200.340,191.351 201.000 C 191.654 201.660,192.448 203.370,193.115 204.800 C 193.783 206.230,194.445 208.378,194.588 209.573 C 194.730 210.768,195.105 211.938,195.421 212.173 C 195.736 212.408,196.202 213.680,196.455 215.000 C 196.709 216.320,197.138 217.670,197.408 218.000 C 197.678 218.330,198.102 219.230,198.350 220.000 C 198.598 220.770,199.251 222.286,199.801 223.368 C 200.350 224.450,200.814 225.710,200.832 226.168 C 200.854 226.746,200.930 226.817,201.083 226.400 C 201.205 226.070,201.746 224.849,202.287 223.688 C 203.560 220.952,203.380 218.257,201.614 213.600 C 200.905 211.730,200.067 208.580,199.751 206.600 C 199.436 204.620,198.926 202.460,198.619 201.800 C 198.311 201.140,197.837 199.700,197.564 198.600 C 197.292 197.500,196.837 196.240,196.553 195.799 C 196.270 195.359,195.830 193.649,195.576 191.999 C 195.321 190.350,194.940 188.672,194.728 188.272 C 194.516 187.872,194.012 185.712,193.610 183.472 C 192.869 179.353,192.158 176.874,190.778 173.600 C 190.360 172.610,189.827 170.630,189.592 169.200 C 189.357 167.770,188.917 165.956,188.614 165.169 C 188.310 164.382,187.869 162.350,187.633 160.653 C 187.397 158.956,186.957 157.079,186.655 156.483 C 186.354 155.888,185.876 154.410,185.593 153.200 C 185.310 151.990,184.846 150.640,184.561 150.200 C 184.277 149.760,183.854 148.207,183.622 146.749 C 183.390 145.291,182.953 143.491,182.650 142.749 C 182.347 142.007,181.886 139.912,181.626 138.092 C 181.367 136.273,180.808 134.023,180.386 133.092 C 179.963 132.162,179.614 131.075,179.609 130.678 C 179.604 130.281,179.224 129.131,178.765 128.123 C 178.306 127.115,177.746 125.100,177.520 123.645 C 177.295 122.190,176.882 120.550,176.602 120.000 C 176.323 119.450,175.965 118.010,175.807 116.800 C 175.650 115.590,175.187 113.831,174.779 112.890 C 174.371 111.950,173.819 110.060,173.553 108.690 C 173.287 107.321,172.846 105.840,172.574 105.400 C 172.301 104.960,171.859 103.267,171.592 101.637 C 171.325 100.007,170.868 98.102,170.576 97.404 C 170.284 96.706,169.922 95.159,169.771 93.967 C 169.620 92.775,169.089 90.900,168.590 89.800 C 168.091 88.700,167.556 86.902,167.403 85.805 C 167.249 84.708,166.877 83.336,166.577 82.755 C 166.277 82.175,165.837 80.482,165.599 78.992 C 165.361 77.503,164.977 75.931,164.746 75.498 C 164.514 75.066,164.077 73.178,163.773 71.302 C 163.469 69.426,162.967 67.504,162.656 67.030 C 162.346 66.556,161.879 65.095,161.618 63.784 C 161.358 62.473,160.890 60.839,160.579 60.152 C 160.267 59.466,159.964 58.071,159.906 57.053 L 159.800 55.200 114.767 55.200 C 89.998 55.200,69.613 55.320,69.467 55.467 M143.669 121.862 C 144.751 122.842,144.820 276.873,143.738 278.069 C 142.768 279.141,111.111 279.206,109.931 278.138 C 109.292 277.560,109.200 276.801,109.200 272.138 C 109.200 264.742,108.555 265.200,118.953 265.200 C 127.071 265.200,127.108 265.196,127.348 264.300 C 127.663 263.124,127.663 136.876,127.348 135.700 C 127.108 134.804,127.071 134.800,118.953 134.800 C 108.565 134.800,109.200 135.247,109.200 127.931 C 109.200 123.590,109.317 122.534,109.862 121.931 C 110.832 120.859,142.489 120.794,143.669 121.862 " stroke="none" fill="#04549c" fill-rule="evenodd"></path><path id="path2" d="M162.022 56.297 C 162.087 59.646,162.758 63.690,163.358 64.353 C 163.722 64.756,164.222 66.236,164.468 67.642 C 164.715 69.049,165.150 70.560,165.434 71.000 C 165.717 71.440,166.163 73.060,166.423 74.600 C 166.683 76.140,167.141 77.999,167.441 78.731 C 167.740 79.463,168.178 81.610,168.413 83.502 C 168.675 85.611,169.064 87.107,169.418 87.371 C 169.736 87.607,170.190 88.880,170.425 90.200 C 170.661 91.520,171.186 93.320,171.593 94.200 C 172.000 95.080,172.459 96.790,172.613 98.000 C 172.767 99.210,173.132 100.666,173.423 101.234 C 173.714 101.803,174.166 103.870,174.426 105.827 C 174.699 107.880,175.132 109.557,175.448 109.792 C 175.750 110.017,176.190 111.280,176.425 112.600 C 176.661 113.920,177.186 115.720,177.593 116.600 C 178.000 117.480,178.455 119.151,178.606 120.313 C 178.756 121.476,179.233 123.366,179.667 124.513 C 181.258 128.727,182.332 132.662,182.557 135.106 C 182.685 136.484,183.047 138.014,183.362 138.506 C 183.677 138.998,184.198 140.750,184.518 142.400 C 184.839 144.050,185.764 147.279,186.575 149.576 C 187.402 151.921,188.230 155.241,188.463 157.150 C 188.692 159.019,189.136 160.941,189.451 161.422 C 189.766 161.902,190.272 163.623,190.576 165.247 C 190.881 166.871,191.783 170.000,192.581 172.200 C 193.428 174.535,194.195 177.584,194.423 179.525 C 194.638 181.354,195.094 183.276,195.435 183.797 C 195.776 184.318,196.331 186.600,196.668 188.869 C 197.005 191.138,197.507 193.446,197.784 193.997 C 198.654 195.730,199.968 200.557,200.401 203.607 C 200.630 205.219,200.980 206.734,201.179 206.974 C 201.378 207.214,201.763 208.308,202.034 209.405 C 202.305 210.502,202.859 212.027,203.264 212.794 C 203.669 213.561,204.000 214.765,204.000 215.470 C 204.000 216.627,204.581 217.552,205.028 217.105 C 205.124 217.009,205.396 215.866,205.632 214.565 C 205.868 213.264,206.290 211.840,206.570 211.400 C 206.850 210.960,207.306 209.880,207.584 209.000 C 207.862 208.120,208.340 207.000,208.647 206.511 C 208.953 206.022,209.460 204.527,209.772 203.188 C 210.084 201.850,210.540 200.513,210.786 200.217 C 211.031 199.922,211.410 198.571,211.629 197.215 C 211.847 195.859,212.380 194.088,212.813 193.281 C 213.246 192.473,213.601 191.539,213.603 191.206 C 213.604 190.873,213.960 190.061,214.394 189.403 C 214.829 188.744,215.389 187.214,215.639 186.003 C 215.890 184.791,216.418 183.170,216.812 182.400 C 217.206 181.630,217.718 179.954,217.949 178.675 C 218.179 177.396,218.981 175.056,219.730 173.475 C 220.479 171.894,221.304 169.721,221.565 168.646 C 221.825 167.572,222.375 166.033,222.786 165.228 C 223.197 164.422,223.651 163.134,223.795 162.367 C 223.939 161.599,224.656 160.257,225.388 159.385 L 226.718 157.800 233.544 157.800 C 241.757 157.800,242.063 157.929,241.034 160.962 C 240.685 161.988,240.400 163.054,240.400 163.329 C 240.400 163.605,240.036 164.544,239.590 165.415 C 239.145 166.287,238.588 167.720,238.353 168.600 C 238.118 169.480,237.661 170.497,237.337 170.860 C 237.014 171.223,236.497 172.393,236.188 173.460 C 235.010 177.541,233.921 180.655,233.175 182.079 C 232.749 182.893,232.400 183.811,232.400 184.120 C 232.400 184.428,231.962 185.504,231.427 186.511 C 230.892 187.517,230.271 188.939,230.046 189.670 C 228.922 193.339,225.667 202.036,225.210 202.591 C 224.818 203.067,223.417 206.916,222.586 209.800 C 222.269 210.900,221.274 213.240,220.376 215.000 C 219.477 216.760,218.499 219.190,218.203 220.400 C 217.397 223.688,216.158 226.986,214.219 231.000 C 213.262 232.980,212.356 235.314,212.206 236.186 C 212.055 237.059,211.702 238.229,211.421 238.786 C 210.705 240.211,210.287 243.200,210.805 243.200 C 211.436 243.200,211.930 244.843,212.382 248.444 C 212.607 250.239,212.951 251.908,213.147 252.154 C 213.343 252.399,213.812 253.680,214.190 255.000 C 214.567 256.320,215.057 257.620,215.278 257.889 C 215.499 258.158,216.020 260.048,216.435 262.089 C 216.850 264.130,217.462 266.784,217.795 267.987 C 218.128 269.190,218.400 270.775,218.400 271.509 C 218.400 272.243,218.740 273.599,219.155 274.522 C 219.570 275.445,220.037 276.830,220.194 277.600 C 220.350 278.370,220.741 279.414,221.062 279.921 C 221.383 280.427,221.979 282.587,222.385 284.721 C 222.792 286.854,223.314 289.050,223.546 289.600 C 223.777 290.150,224.145 291.836,224.364 293.347 C 224.583 294.858,225.025 296.388,225.348 296.747 C 225.670 297.106,226.144 298.570,226.402 300.000 C 226.659 301.430,227.044 302.810,227.256 303.066 C 227.468 303.323,227.983 305.229,228.400 307.302 C 228.817 309.375,229.340 311.505,229.562 312.036 C 229.785 312.566,230.145 314.236,230.364 315.747 C 230.583 317.258,231.025 318.788,231.348 319.147 C 231.670 319.506,232.144 320.970,232.402 322.400 C 232.659 323.830,233.040 325.206,233.249 325.457 C 233.457 325.709,233.983 327.749,234.417 329.991 C 234.852 332.232,235.366 334.366,235.560 334.733 C 235.755 335.100,236.118 336.727,236.368 338.348 C 236.618 339.970,237.087 341.675,237.411 342.137 C 237.735 342.600,238.000 343.389,238.000 343.891 L 238.000 344.803 284.100 344.702 L 330.200 344.600 330.595 343.700 C 330.942 342.909,331.284 342.800,333.415 342.800 C 336.239 342.800,336.800 342.394,336.800 340.348 C 336.800 339.105,336.950 338.834,337.700 338.728 C 338.278 338.646,338.646 338.278,338.728 337.700 C 338.834 336.950,339.105 336.800,340.348 336.800 C 342.394 336.800,342.800 336.239,342.800 333.415 C 342.800 331.284,342.909 330.942,343.700 330.595 L 344.600 330.200 344.600 200.000 L 344.600 69.800 343.700 69.405 C 342.909 69.058,342.800 68.716,342.800 66.585 C 342.800 63.761,342.394 63.200,340.348 63.200 C 339.105 63.200,338.834 63.050,338.728 62.300 C 338.646 61.722,338.278 61.354,337.700 61.272 C 336.950 61.166,336.800 60.895,336.800 59.652 C 336.800 57.606,336.239 57.200,333.415 57.200 C 331.284 57.200,330.942 57.091,330.595 56.300 L 330.200 55.400 246.100 55.297 L 162.000 55.195 162.022 56.297 M289.684 122.276 C 290.297 122.831,290.400 123.621,290.400 127.773 C 290.400 134.848,291.037 134.400,280.967 134.400 L 272.780 134.400 272.390 135.426 C 272.143 136.077,272.000 159.678,272.000 200.000 C 272.000 240.322,272.143 263.923,272.390 264.574 L 272.780 265.600 280.967 265.600 C 291.028 265.600,290.400 265.163,290.400 272.158 C 290.400 279.064,292.232 278.400,273.167 278.400 C 259.237 278.400,257.179 278.322,256.629 277.771 C 255.639 276.782,255.670 123.173,256.660 122.349 C 258.089 121.159,288.376 121.092,289.684 122.276 " stroke="none" fill="#3cbff9" fill-rule="evenodd"></path><path id="path3" d="M263.160 121.600 C 259.045 121.741,257.124 121.962,256.660 122.349 C 255.670 123.173,255.639 276.782,256.629 277.771 C 257.179 278.322,259.237 278.400,273.167 278.400 C 292.232 278.400,290.400 279.064,290.400 272.158 C 290.400 265.163,291.028 265.600,280.967 265.600 L 272.780 265.600 272.390 264.574 C 272.143 263.923,272.000 240.322,272.000 200.000 C 272.000 159.678,272.143 136.077,272.390 135.426 L 272.780 134.400 280.967 134.400 C 291.037 134.400,290.400 134.848,290.400 127.773 C 290.400 123.621,290.297 122.831,289.684 122.276 C 288.888 121.555,274.881 121.199,263.160 121.600 M110.480 122.480 C 109.700 123.260,109.827 132.570,110.629 133.371 C 111.158 133.901,112.513 134.000,119.206 134.000 C 126.966 134.000,127.169 134.021,127.777 134.889 C 128.335 135.685,128.400 142.521,128.400 200.000 C 128.400 257.479,128.335 264.315,127.777 265.111 C 127.169 265.979,126.966 266.000,119.206 266.000 C 112.513 266.000,111.158 266.099,110.629 266.629 C 109.827 267.430,109.700 276.740,110.480 277.520 C 111.109 278.149,141.657 278.212,142.826 277.586 C 144.044 276.934,144.044 123.066,142.826 122.414 C 141.657 121.788,111.109 121.851,110.480 122.480 M289.281 122.720 C 290.030 123.470,290.005 132.030,289.251 132.939 C 288.774 133.513,287.663 133.600,280.813 133.600 C 273.301 133.600,272.888 133.640,272.162 134.442 C 270.966 135.763,270.966 264.237,272.162 265.558 C 272.888 266.360,273.301 266.400,280.813 266.400 C 290.423 266.400,289.800 265.995,289.800 272.241 C 289.800 278.351,291.367 277.777,274.280 277.926 C 258.071 278.067,257.051 277.953,256.650 275.949 C 255.885 272.123,256.462 124.397,257.247 123.122 C 257.903 122.057,288.238 121.676,289.281 122.720 M141.777 123.689 C 142.729 125.047,142.729 274.953,141.777 276.311 L 141.155 277.200 126.903 277.200 C 109.716 277.200,110.800 277.548,110.800 272.026 C 110.800 267.329,110.556 267.453,120.290 267.200 C 127.625 267.009,128.022 266.958,128.890 266.089 L 129.800 265.178 129.800 200.000 L 129.800 134.822 128.890 133.911 C 128.022 133.042,127.625 132.991,120.290 132.800 C 110.572 132.547,110.800 132.662,110.800 128.030 C 110.800 125.112,110.918 124.525,111.670 123.726 L 112.539 122.800 126.847 122.800 L 141.155 122.800 141.777 123.689 M227.514 157.868 C 226.172 158.093,224.210 160.489,223.802 162.400 C 223.637 163.170,223.173 164.451,222.770 165.246 C 222.368 166.042,221.825 167.572,221.565 168.646 C 221.304 169.721,220.479 171.894,219.730 173.475 C 218.981 175.056,218.179 177.396,217.949 178.675 C 217.718 179.954,217.206 181.630,216.812 182.400 C 216.418 183.170,215.890 184.791,215.639 186.003 C 215.389 187.214,214.829 188.744,214.394 189.403 C 213.960 190.061,213.604 190.873,213.603 191.206 C 213.601 191.539,213.246 192.473,212.813 193.281 C 212.380 194.088,211.847 195.859,211.629 197.215 C 211.410 198.571,211.031 199.922,210.786 200.217 C 210.540 200.513,210.084 201.850,209.772 203.188 C 209.460 204.527,208.953 206.022,208.647 206.511 C 208.340 207.000,207.862 208.120,207.584 209.000 C 207.306 209.880,206.850 210.960,206.570 211.400 C 206.290 211.840,205.867 213.270,205.630 214.577 C 205.393 215.884,204.986 217.085,204.726 217.246 C 204.466 217.406,204.115 218.837,203.945 220.425 C 203.733 222.410,203.234 224.123,202.349 225.903 L 201.061 228.494 200.030 226.322 C 197.417 220.813,195.160 214.687,193.751 209.276 C 193.434 208.060,192.652 206.061,192.013 204.833 C 191.374 203.605,190.541 201.430,190.163 200.000 C 189.784 198.570,189.253 196.950,188.983 196.400 C 188.713 195.850,188.284 194.393,188.030 193.161 C 187.776 191.930,186.856 189.503,185.984 187.769 C 185.113 186.034,184.400 184.331,184.400 183.984 C 184.400 183.637,183.860 181.873,183.200 180.065 C 182.540 178.257,182.000 176.412,182.000 175.967 C 182.000 175.118,180.920 172.387,179.635 169.989 C 179.219 169.213,178.674 167.773,178.423 166.789 C 177.140 161.757,175.510 158.419,174.217 158.177 C 172.179 157.794,159.679 158.159,159.225 158.614 C 158.757 159.084,160.124 164.461,161.050 165.789 C 161.352 166.223,161.600 166.860,161.600 167.204 C 161.600 167.549,161.979 168.544,162.443 169.415 C 163.451 171.311,164.955 175.250,166.003 178.738 C 166.422 180.134,166.930 181.484,167.131 181.738 C 167.331 181.992,167.723 182.920,168.000 183.800 C 168.277 184.680,168.642 185.580,168.810 185.800 C 168.978 186.020,169.688 187.730,170.388 189.600 C 171.088 191.470,172.024 193.900,172.468 195.000 C 172.912 196.100,173.414 197.540,173.583 198.200 C 173.753 198.860,174.366 200.282,174.946 201.360 C 175.526 202.437,176.000 203.583,176.000 203.905 C 176.000 204.227,176.336 205.146,176.747 205.946 C 177.158 206.745,177.709 208.298,177.971 209.395 C 178.233 210.492,178.685 211.662,178.975 211.995 C 179.729 212.862,181.184 216.206,182.023 219.000 C 183.427 223.681,184.093 225.442,185.823 229.051 C 186.786 231.059,187.755 233.399,187.977 234.251 C 189.044 238.354,190.787 242.693,191.773 243.700 L 192.850 244.800 199.912 244.800 C 208.952 244.800,210.232 244.424,210.635 241.652 C 210.783 240.634,211.135 239.344,211.418 238.786 C 211.700 238.229,212.055 237.059,212.206 236.186 C 212.356 235.314,213.262 232.980,214.219 231.000 C 216.158 226.986,217.397 223.688,218.203 220.400 C 218.499 219.190,219.477 216.760,220.376 215.000 C 221.274 213.240,222.269 210.900,222.586 209.800 C 223.417 206.916,224.818 203.067,225.210 202.591 C 225.667 202.036,228.922 193.339,230.046 189.670 C 230.271 188.939,230.892 187.517,231.427 186.511 C 231.962 185.504,232.400 184.428,232.400 184.120 C 232.400 183.811,232.749 182.893,233.175 182.079 C 233.921 180.655,235.010 177.541,236.188 173.460 C 236.497 172.393,237.014 171.223,237.337 170.860 C 237.661 170.497,238.118 169.480,238.353 168.600 C 238.588 167.720,239.145 166.287,239.590 165.415 C 240.036 164.544,240.400 163.605,240.400 163.329 C 240.400 163.054,240.685 161.988,241.034 160.962 C 242.038 158.003,241.651 157.812,234.486 157.743 C 231.249 157.711,228.111 157.767,227.514 157.868 M240.324 159.672 C 240.392 160.261,240.172 161.611,239.836 162.672 C 238.700 166.251,237.529 169.397,237.170 169.833 C 236.597 170.528,234.167 176.820,233.632 178.995 C 233.362 180.092,232.998 181.172,232.823 181.395 C 232.647 181.618,232.278 182.520,232.001 183.400 C 231.723 184.280,231.256 185.450,230.961 186.000 C 230.177 187.463,229.239 189.828,228.185 193.000 C 226.373 198.450,225.583 200.566,225.056 201.378 C 224.763 201.830,224.211 203.143,223.831 204.295 C 223.450 205.448,222.993 206.481,222.815 206.591 C 222.637 206.701,222.371 207.468,222.224 208.296 C 222.077 209.123,221.531 210.700,221.009 211.800 C 219.010 216.021,218.110 218.291,217.830 219.817 C 217.671 220.688,217.308 221.763,217.023 222.206 C 216.738 222.649,216.373 223.639,216.212 224.406 C 216.051 225.173,215.139 227.429,214.185 229.419 C 213.232 231.410,212.228 233.930,211.954 235.019 C 211.316 237.559,209.137 241.974,208.027 242.976 C 206.270 244.564,192.400 244.264,192.400 242.639 C 192.400 242.347,192.066 241.679,191.658 241.154 C 191.250 240.629,190.694 239.264,190.423 238.120 C 190.152 236.976,189.684 235.836,189.384 235.587 C 189.085 235.338,188.722 234.294,188.578 233.267 C 188.323 231.443,186.412 226.794,185.426 225.600 C 185.153 225.270,184.711 223.979,184.443 222.731 C 184.175 221.483,183.715 220.261,183.420 220.017 C 183.125 219.772,182.766 218.903,182.622 218.086 C 182.178 215.561,181.225 212.996,180.032 211.115 C 179.404 210.124,178.764 208.573,178.612 207.668 C 178.459 206.764,177.995 205.593,177.581 205.067 C 177.167 204.541,176.664 203.376,176.462 202.479 C 176.261 201.582,175.714 200.363,175.248 199.770 C 174.782 199.177,174.398 198.221,174.396 197.646 C 174.394 197.071,173.950 195.700,173.409 194.600 C 172.868 193.500,172.419 192.166,172.413 191.635 C 172.406 191.104,171.975 189.934,171.457 189.035 C 170.938 188.136,170.384 186.860,170.225 186.200 C 170.067 185.540,169.679 184.713,169.363 184.362 C 169.047 184.011,168.514 182.672,168.179 181.385 C 167.844 180.099,167.423 178.856,167.243 178.623 C 167.063 178.390,166.696 177.300,166.428 176.200 C 166.159 175.100,165.703 173.930,165.414 173.600 C 165.125 173.270,164.761 172.397,164.604 171.659 C 164.447 170.922,163.996 169.996,163.601 169.601 C 163.207 169.207,162.678 167.923,162.426 166.747 C 162.174 165.572,161.729 164.245,161.436 163.799 C 158.767 159.726,159.862 158.800,167.352 158.800 C 174.420 158.800,175.575 159.151,175.618 161.316 C 175.627 161.802,175.909 162.920,176.244 163.800 C 176.579 164.680,177.127 166.390,177.461 167.600 C 177.795 168.810,178.393 170.340,178.789 171.000 C 179.185 171.660,179.641 172.650,179.802 173.200 C 179.963 173.750,180.333 174.473,180.625 174.807 C 180.916 175.140,181.355 176.670,181.599 178.207 C 181.844 179.743,182.289 181.376,182.589 181.836 C 182.889 182.296,183.351 183.773,183.616 185.118 C 183.887 186.497,184.425 187.860,184.848 188.244 C 185.262 188.618,185.600 189.173,185.600 189.478 C 185.600 189.783,185.939 190.700,186.354 191.516 C 186.768 192.332,187.328 194.080,187.597 195.400 C 187.866 196.720,188.426 198.555,188.843 199.478 C 189.259 200.401,189.600 201.571,189.601 202.078 C 189.602 202.585,190.410 204.608,191.397 206.574 C 192.384 208.539,193.389 211.239,193.631 212.574 C 193.873 213.908,194.393 215.720,194.785 216.600 C 195.178 217.480,195.627 218.910,195.782 219.779 C 195.938 220.647,196.411 221.796,196.833 222.333 C 197.255 222.869,197.600 223.490,197.600 223.712 C 197.600 224.677,200.482 230.000,201.005 230.000 C 201.321 230.000,201.876 229.415,202.238 228.700 C 202.600 227.985,203.120 227.130,203.393 226.800 C 203.957 226.118,205.368 220.379,206.001 216.200 C 206.244 214.588,206.997 212.212,207.774 210.600 C 208.517 209.060,209.575 206.243,210.127 204.340 C 210.678 202.438,211.325 200.514,211.564 200.067 C 211.804 199.619,212.000 198.776,212.000 198.193 C 212.000 197.228,213.254 193.927,215.190 189.800 C 215.602 188.920,216.071 187.480,216.230 186.600 C 216.390 185.720,216.825 184.280,217.198 183.400 C 217.570 182.520,217.994 181.043,218.139 180.118 C 218.285 179.193,219.056 177.033,219.854 175.318 C 220.651 173.603,221.631 171.120,222.031 169.800 C 223.516 164.898,224.769 161.633,225.781 160.030 L 226.822 158.381 233.511 158.490 L 240.200 158.600 240.324 159.672 " stroke="none" fill="#83bde2" fill-rule="evenodd"></path><path id="path4" d="M159.921 55.413 C 159.579 55.755,160.032 58.893,160.612 60.200 C 160.905 60.860,161.358 62.473,161.618 63.784 C 161.879 65.095,162.346 66.556,162.656 67.030 C 162.967 67.504,163.469 69.426,163.773 71.302 C 164.077 73.178,164.514 75.066,164.746 75.498 C 164.977 75.931,165.361 77.503,165.599 78.992 C 165.837 80.482,166.277 82.175,166.577 82.755 C 166.877 83.336,167.249 84.708,167.403 85.805 C 167.556 86.902,168.091 88.700,168.590 89.800 C 169.089 90.900,169.620 92.775,169.771 93.967 C 169.922 95.159,170.284 96.706,170.576 97.404 C 170.868 98.102,171.325 100.007,171.592 101.637 C 171.859 103.267,172.301 104.960,172.574 105.400 C 172.846 105.840,173.287 107.321,173.553 108.690 C 173.819 110.060,174.371 111.950,174.779 112.890 C 175.187 113.831,175.650 115.590,175.807 116.800 C 175.965 118.010,176.323 119.450,176.602 120.000 C 176.882 120.550,177.295 122.190,177.520 123.645 C 177.746 125.100,178.306 127.115,178.765 128.123 C 179.224 129.131,179.604 130.281,179.609 130.678 C 179.614 131.075,179.963 132.162,180.386 133.092 C 180.808 134.023,181.367 136.273,181.626 138.092 C 181.886 139.912,182.347 142.007,182.650 142.749 C 182.953 143.491,183.390 145.291,183.622 146.749 C 183.854 148.207,184.277 149.760,184.561 150.200 C 184.846 150.640,185.310 151.990,185.593 153.200 C 185.876 154.410,186.354 155.888,186.655 156.483 C 186.957 157.079,187.397 158.956,187.633 160.653 C 187.869 162.350,188.310 164.382,188.614 165.169 C 188.917 165.956,189.357 167.770,189.592 169.200 C 189.827 170.630,190.360 172.610,190.778 173.600 C 192.158 176.874,192.869 179.353,193.610 183.472 C 194.012 185.712,194.516 187.872,194.728 188.272 C 194.940 188.672,195.321 190.350,195.576 191.999 C 195.830 193.649,196.270 195.359,196.553 195.799 C 196.837 196.240,197.292 197.500,197.564 198.600 C 197.837 199.700,198.311 201.140,198.619 201.800 C 198.926 202.460,199.436 204.620,199.751 206.600 C 200.067 208.580,200.905 211.730,201.614 213.600 C 203.380 218.257,203.560 220.952,202.287 223.688 C 201.746 224.849,201.205 226.070,201.083 226.400 C 200.930 226.817,200.854 226.746,200.832 226.168 C 200.814 225.710,200.350 224.450,199.801 223.368 C 199.251 222.286,198.598 220.770,198.350 220.000 C 198.102 219.230,197.678 218.330,197.408 218.000 C 197.138 217.670,196.709 216.320,196.455 215.000 C 196.202 213.680,195.736 212.408,195.421 212.173 C 195.105 211.938,194.730 210.768,194.588 209.573 C 194.445 208.378,193.783 206.230,193.115 204.800 C 192.448 203.370,191.654 201.660,191.351 201.000 C 191.047 200.340,190.641 198.939,190.449 197.886 C 190.256 196.833,189.800 195.642,189.437 195.240 C 189.073 194.839,188.667 193.540,188.534 192.355 C 188.323 190.468,187.687 188.740,185.385 183.800 C 185.077 183.140,184.615 181.700,184.356 180.600 C 184.098 179.500,183.665 178.330,183.392 178.000 C 183.120 177.670,182.711 176.311,182.483 174.979 C 182.255 173.648,181.354 171.038,180.481 169.179 C 179.609 167.321,178.678 164.864,178.412 163.720 C 178.147 162.576,177.676 161.429,177.365 161.171 C 177.054 160.913,176.800 160.404,176.800 160.040 C 176.800 157.754,176.201 157.600,167.309 157.600 C 157.793 157.600,157.371 157.725,158.081 160.326 C 158.302 161.137,158.628 161.980,158.806 162.200 C 158.983 162.420,159.255 163.277,159.409 164.103 C 159.564 164.930,160.007 166.010,160.393 166.503 C 160.780 166.997,161.229 168.030,161.391 168.800 C 161.553 169.570,162.025 170.569,162.439 171.021 C 162.852 171.472,163.375 172.812,163.600 173.997 C 163.824 175.183,164.263 176.542,164.575 177.018 C 164.887 177.494,165.262 178.584,165.408 179.442 C 165.555 180.299,165.995 181.457,166.387 182.016 C 166.779 182.574,167.232 183.654,167.393 184.416 C 167.554 185.177,168.005 186.160,168.394 186.600 C 168.783 187.040,169.326 188.390,169.602 189.600 C 169.878 190.810,170.345 192.250,170.640 192.800 C 170.935 193.350,171.367 194.557,171.599 195.482 C 171.831 196.407,172.286 197.429,172.611 197.753 C 172.935 198.078,173.200 198.604,173.200 198.923 C 173.200 199.856,174.375 202.400,174.805 202.400 C 175.022 202.400,175.200 202.764,175.200 203.210 C 175.200 203.655,175.577 205.050,176.037 206.310 C 176.498 207.569,177.063 209.320,177.293 210.200 C 177.524 211.080,178.030 212.160,178.418 212.600 C 178.806 213.040,179.312 214.096,179.542 214.947 C 179.773 215.798,180.254 216.817,180.610 217.212 C 180.967 217.606,181.390 218.891,181.549 220.067 C 181.709 221.243,182.131 222.744,182.487 223.403 C 182.844 224.061,183.355 225.460,183.623 226.511 C 183.891 227.562,184.320 228.552,184.576 228.711 C 184.833 228.870,185.363 229.855,185.754 230.900 C 186.146 231.945,186.600 232.800,186.764 232.800 C 186.928 232.800,187.269 233.925,187.523 235.300 C 187.776 236.675,188.347 238.513,188.792 239.385 C 189.236 240.256,189.600 241.402,189.600 241.931 C 189.600 242.529,190.207 243.483,191.200 244.447 L 192.801 246.000 200.124 246.000 C 205.729 246.000,207.625 245.870,208.204 245.446 C 208.928 244.917,211.200 246.874,211.200 248.026 C 211.200 250.014,212.300 254.997,213.446 258.200 C 214.234 260.400,215.124 263.502,215.426 265.094 C 215.727 266.686,216.226 268.486,216.535 269.094 C 216.843 269.702,217.308 271.730,217.567 273.600 C 217.825 275.470,218.760 279.030,219.643 281.510 C 220.525 283.991,221.425 287.120,221.641 288.464 C 221.858 289.807,222.280 291.381,222.580 291.961 C 222.987 292.748,224.000 296.946,224.000 297.845 C 224.000 297.899,224.270 298.213,224.600 298.543 C 224.930 298.873,225.390 300.507,225.622 302.175 C 225.854 303.842,226.282 305.790,226.574 306.503 C 226.865 307.216,227.316 309.044,227.575 310.564 C 227.834 312.084,228.284 313.794,228.576 314.364 C 228.867 314.934,229.232 316.210,229.387 317.200 C 229.542 318.190,230.010 319.726,230.428 320.614 C 230.846 321.502,231.468 323.832,231.810 325.792 C 232.152 327.752,232.577 329.546,232.756 329.778 C 232.935 330.010,233.291 331.517,233.549 333.127 C 233.806 334.736,234.264 336.446,234.567 336.927 C 234.870 337.407,235.345 339.375,235.623 341.300 C 236.094 344.558,236.193 344.800,237.064 344.800 C 238.177 344.800,238.349 343.477,237.411 342.137 C 237.087 341.675,236.618 339.970,236.368 338.348 C 236.118 336.727,235.755 335.100,235.560 334.733 C 235.366 334.366,234.852 332.232,234.417 329.991 C 233.983 327.749,233.457 325.709,233.249 325.457 C 233.040 325.206,232.659 323.830,232.402 322.400 C 232.144 320.970,231.670 319.506,231.348 319.147 C 231.025 318.788,230.583 317.258,230.364 315.747 C 230.145 314.236,229.785 312.566,229.562 312.036 C 229.340 311.505,228.817 309.375,228.400 307.302 C 227.983 305.229,227.468 303.323,227.256 303.066 C 227.044 302.810,226.659 301.430,226.402 300.000 C 226.144 298.570,225.670 297.106,225.348 296.747 C 225.025 296.388,224.583 294.858,224.364 293.347 C 224.145 291.836,223.777 290.150,223.546 289.600 C 223.314 289.050,222.792 286.854,222.385 284.721 C 221.979 282.587,221.383 280.427,221.062 279.921 C 220.741 279.414,220.350 278.370,220.194 277.600 C 220.037 276.830,219.570 275.445,219.155 274.522 C 218.740 273.599,218.400 272.243,218.400 271.509 C 218.400 270.775,218.128 269.190,217.795 267.987 C 217.462 266.784,216.850 264.130,216.435 262.089 C 216.020 260.048,215.499 258.158,215.278 257.889 C 215.057 257.620,214.567 256.320,214.190 255.000 C 213.812 253.680,213.343 252.399,213.147 252.154 C 212.951 251.908,212.607 250.239,212.382 248.444 C 211.997 245.372,211.442 243.200,211.043 243.200 C 210.946 243.200,210.026 243.560,209.000 244.000 C 207.366 244.700,206.245 244.800,199.992 244.800 L 192.850 244.800 191.773 243.700 C 190.787 242.693,189.044 238.354,187.977 234.251 C 187.755 233.399,186.786 231.059,185.823 229.051 C 184.093 225.442,183.427 223.681,182.023 219.000 C 181.184 216.206,179.729 212.862,178.975 211.995 C 178.685 211.662,178.233 210.492,177.971 209.395 C 177.709 208.298,177.158 206.745,176.747 205.946 C 176.336 205.146,176.000 204.227,176.000 203.905 C 176.000 203.583,175.526 202.437,174.946 201.360 C 174.366 200.282,173.753 198.860,173.583 198.200 C 173.414 197.540,172.912 196.100,172.468 195.000 C 172.024 193.900,171.088 191.470,170.388 189.600 C 169.688 187.730,168.978 186.020,168.810 185.800 C 168.642 185.580,168.277 184.680,168.000 183.800 C 167.723 182.920,167.331 181.992,167.131 181.738 C 166.930 181.484,166.422 180.134,166.003 178.738 C 164.955 175.250,163.451 171.311,162.443 169.415 C 161.979 168.544,161.600 167.549,161.600 167.204 C 161.600 166.860,161.352 166.223,161.050 165.789 C 160.124 164.461,158.757 159.084,159.225 158.614 C 159.679 158.159,172.179 157.794,174.217 158.177 C 175.510 158.419,177.140 161.757,178.423 166.789 C 178.674 167.773,179.219 169.213,179.635 169.989 C 180.920 172.387,182.000 175.118,182.000 175.967 C 182.000 176.412,182.540 178.257,183.200 180.065 C 183.860 181.873,184.400 183.637,184.400 183.984 C 184.400 184.331,185.113 186.034,185.984 187.769 C 186.856 189.503,187.776 191.930,188.030 193.161 C 188.284 194.393,188.713 195.850,188.983 196.400 C 189.253 196.950,189.784 198.570,190.163 200.000 C 190.541 201.430,191.374 203.605,192.013 204.833 C 192.652 206.061,193.434 208.060,193.751 209.276 C 195.160 214.687,197.417 220.813,200.030 226.322 L 201.061 228.494 202.342 225.917 C 204.384 221.811,204.752 215.018,203.079 212.330 C 202.760 211.818,202.284 210.502,202.020 209.405 C 201.757 208.308,201.378 207.214,201.179 206.974 C 200.980 206.734,200.630 205.219,200.401 203.607 C 199.968 200.557,198.654 195.730,197.784 193.997 C 197.507 193.446,197.005 191.138,196.668 188.869 C 196.331 186.600,195.776 184.318,195.435 183.797 C 195.094 183.276,194.638 181.354,194.423 179.525 C 194.195 177.584,193.428 174.535,192.581 172.200 C 191.783 170.000,190.881 166.871,190.576 165.247 C 190.272 163.623,189.766 161.902,189.451 161.422 C 189.136 160.941,188.692 159.019,188.463 157.150 C 188.230 155.241,187.402 151.921,186.575 149.576 C 185.764 147.279,184.839 144.050,184.518 142.400 C 184.198 140.750,183.677 138.998,183.362 138.506 C 183.047 138.014,182.685 136.484,182.557 135.106 C 182.332 132.662,181.258 128.727,179.667 124.513 C 179.233 123.366,178.756 121.476,178.606 120.313 C 178.455 119.151,178.000 117.480,177.593 116.600 C 177.186 115.720,176.661 113.920,176.425 112.600 C 176.190 111.280,175.750 110.017,175.448 109.792 C 175.132 109.557,174.699 107.880,174.426 105.827 C 174.166 103.870,173.714 101.803,173.423 101.234 C 173.132 100.666,172.767 99.210,172.613 98.000 C 172.459 96.790,172.000 95.080,171.593 94.200 C 171.186 93.320,170.661 91.520,170.425 90.200 C 170.190 88.880,169.736 87.607,169.418 87.371 C 169.064 87.107,168.675 85.611,168.413 83.502 C 168.178 81.610,167.740 79.463,167.441 78.731 C 167.141 77.999,166.683 76.140,166.423 74.600 C 166.163 73.060,165.717 71.440,165.434 71.000 C 165.150 70.560,164.715 69.049,164.468 67.642 C 164.222 66.236,163.722 64.756,163.358 64.353 C 162.758 63.691,162.087 59.647,162.022 56.300 C 162.001 55.262,160.644 54.689,159.921 55.413 M109.862 121.931 C 109.317 122.534,109.200 123.590,109.200 127.931 C 109.200 135.247,108.565 134.800,118.953 134.800 C 127.071 134.800,127.108 134.804,127.348 135.700 C 127.663 136.876,127.663 263.124,127.348 264.300 C 127.108 265.196,127.071 265.200,118.953 265.200 C 108.555 265.200,109.200 264.742,109.200 272.138 C 109.200 276.801,109.292 277.560,109.931 278.138 C 111.111 279.206,142.768 279.141,143.738 278.069 C 144.820 276.873,144.751 122.842,143.669 121.862 C 142.489 120.794,110.832 120.859,109.862 121.931 M142.826 122.414 C 144.044 123.066,144.044 276.934,142.826 277.586 C 141.657 278.212,111.109 278.149,110.480 277.520 C 109.700 276.740,109.827 267.430,110.629 266.629 C 111.158 266.099,112.513 266.000,119.206 266.000 C 126.966 266.000,127.169 265.979,127.777 265.111 C 128.335 264.315,128.400 257.479,128.400 200.000 C 128.400 142.521,128.335 135.685,127.777 134.889 C 127.169 134.021,126.966 134.000,119.206 134.000 C 112.513 134.000,111.158 133.901,110.629 133.371 C 109.827 132.570,109.700 123.260,110.480 122.480 C 111.109 121.851,141.657 121.788,142.826 122.414 " stroke="none" fill="#248dcc" fill-rule="evenodd"></path></g></svg>