<svg id="svg" version="1.1" xmlns="http://www.w3.org/2000/svg" xmlns:xlink="http://www.w3.org/1999/xlink" width="400" height="400" viewBox="0, 0, 400,400"><g id="svgg"><path id="path0" d="M169.167 33.965 C 169.625 34.053,170.375 34.053,170.833 33.965 C 171.292 33.877,170.917 33.805,170.000 33.805 C 169.083 33.805,168.708 33.877,169.167 33.965 M237.037 112.264 C 227.545 113.101,217.681 115.326,205.000 119.490 C 196.489 122.285,176.247 134.574,171.852 139.613 C 171.750 139.730,170.529 140.813,169.138 142.020 C 165.520 145.160,158.543 152.834,157.296 155.046 C 157.052 155.478,155.543 157.645,153.943 159.861 C 142.381 175.873,135.311 194.641,133.141 215.089 C 132.227 223.703,132.364 251.789,133.335 254.868 C 136.076 263.558,143.597 266.332,154.817 262.790 C 165.316 259.475,176.494 256.878,193.889 253.711 C 269.460 239.953,298.788 230.383,291.592 221.831 C 291.042 221.177,288.692 219.393,286.369 217.865 C 257.719 199.027,285.871 186.535,376.069 178.063 C 377.083 177.968,377.145 177.860,377.293 175.926 C 377.378 174.806,377.679 172.972,377.961 171.852 C 378.244 170.731,378.731 168.815,379.044 167.593 C 379.356 166.370,379.869 163.370,380.182 160.926 C 380.495 158.481,381.035 155.648,381.382 154.630 C 382.322 151.871,382.317 137.655,381.375 133.704 C 379.727 126.795,374.008 113.333,372.721 113.333 C 372.461 113.333,372.070 113.000,371.852 112.593 C 371.426 111.797,245.802 111.491,237.037 112.264 " stroke="none" fill="#44d4fb" fill-rule="evenodd"></path><path id="path1" d="M99.541 122.484 C 100.002 122.573,100.669 122.569,101.023 122.477 C 101.377 122.384,101.000 122.312,100.185 122.316 C 99.370 122.320,99.081 122.396,99.541 122.484 M375.370 192.819 C 341.982 201.971,333.273 210.662,345.184 222.941 C 362.514 240.808,349.853 251.433,297.720 262.777 C 264.057 270.101,248.112 277.152,235.502 290.290 C 214.395 312.281,228.162 336.822,273.391 357.829 C 288.247 364.728,292.324 364.936,308.034 359.590 C 326.487 353.311,348.738 338.708,355.775 328.259 C 356.571 327.078,357.317 326.028,357.432 325.926 C 357.548 325.824,358.298 324.657,359.098 323.333 C 359.899 322.009,360.763 320.706,361.018 320.437 C 361.273 320.167,361.481 319.729,361.481 319.462 C 361.481 319.195,363.152 315.916,365.194 312.174 C 367.318 308.280,369.868 302.915,371.155 299.630 C 372.393 296.472,373.537 293.722,373.698 293.519 C 375.488 291.250,380.121 270.037,381.666 257.037 C 381.750 256.324,381.904 255.157,382.008 254.444 C 382.111 253.731,382.281 252.398,382.384 251.481 C 382.488 250.565,382.823 247.883,383.128 245.522 C 384.301 236.453,384.615 222.538,383.793 216.111 C 383.559 214.278,383.187 210.442,382.967 207.588 C 382.346 199.537,380.557 191.825,379.322 191.879 C 378.982 191.894,377.204 192.317,375.370 192.819 M74.815 202.222 C 74.815 203.309,74.883 204.128,74.966 204.043 C 75.248 203.756,75.342 200.774,75.078 200.510 C 74.933 200.365,74.815 201.136,74.815 202.222 " stroke="none" fill="#09538f" fill-rule="evenodd"></path><path id="path2" d="M67.222 52.381 C 45.452 56.931,30.065 71.256,28.043 88.855 C 27.617 92.561,27.331 271.850,27.735 281.852 C 28.085 290.525,32.363 304.446,36.557 310.556 C 43.067 320.040,58.697 328.573,71.176 329.455 C 72.872 329.575,74.843 329.773,75.556 329.895 C 77.126 330.164,233.333 330.488,233.333 330.223 C 233.333 330.120,232.593 328.976,231.688 327.681 C 218.623 308.992,228.276 289.150,257.222 275.195 C 268.420 269.797,275.665 267.575,297.720 262.777 C 349.853 251.433,362.514 240.808,345.184 222.941 C 335.422 212.878,339.536 205.477,359.068 197.966 C 364.526 195.866,377.968 191.852,379.538 191.852 C 380.949 191.852,382.658 201.686,383.558 214.977 C 383.833 219.048,383.974 218.829,385.924 211.278 C 386.764 208.029,388.082 202.954,388.854 200.000 C 389.626 197.046,391.614 189.380,393.271 182.963 C 394.929 176.546,397.031 168.427,397.942 164.921 C 399.411 159.271,399.600 157.940,399.310 155.278 C 399.271 154.922,397.187 154.815,390.267 154.815 L 381.276 154.815 380.648 159.722 C 380.302 162.421,379.532 166.630,378.936 169.074 C 378.341 171.519,377.738 174.547,377.598 175.803 L 377.342 178.088 375.615 178.303 C 374.666 178.421,372.056 178.688,369.815 178.896 C 336.211 182.010,303.131 187.833,289.836 192.973 C 272.170 199.804,271.097 207.473,286.396 217.576 C 290.852 220.518,292.425 221.981,292.818 223.547 C 294.898 231.835,264.775 241.088,193.500 254.053 C 175.320 257.360,165.105 259.759,153.704 263.402 C 143.086 266.794,134.627 262.781,132.639 253.408 C 132.105 250.890,132.082 225.458,132.608 218.333 C 134.233 196.302,142.406 174.494,155.476 157.315 L 157.378 154.815 130.795 154.815 L 104.212 154.815 102.247 162.500 C 101.166 166.727,99.068 174.935,97.585 180.741 C 96.102 186.546,94.132 194.213,93.206 197.778 C 92.281 201.343,89.838 210.841,87.776 218.886 C 83.092 237.166,80.350 247.848,78.933 253.333 C 78.328 255.676,76.722 261.926,75.364 267.222 C 74.006 272.519,72.083 280.019,71.091 283.889 C 69.062 291.800,68.329 293.073,66.553 291.759 C 65.968 291.327,65.926 285.637,65.917 205.741 L 65.907 120.185 66.698 119.537 C 67.446 118.925,71.344 118.889,136.927 118.889 L 206.364 118.889 211.608 117.224 C 220.997 114.244,229.445 112.606,239.259 111.862 C 248.215 111.183,371.285 111.354,371.859 112.046 C 372.678 113.033,372.638 112.403,371.690 109.403 C 368.621 99.691,355.132 89.841,341.831 87.599 C 337.368 86.847,235.659 86.957,220.556 87.731 C 215.667 87.981,208.833 88.219,205.370 88.260 L 199.074 88.333 196.643 87.181 C 192.907 85.411,181.786 74.563,170.486 61.667 C 165.769 56.284,163.165 54.352,158.009 52.411 L 155.539 51.481 113.417 51.506 L 71.296 51.530 67.222 52.381 M371.190 299.537 C 369.856 302.949,367.367 308.195,365.195 312.174 C 363.153 315.916,361.481 319.078,361.481 319.201 C 361.481 320.462,368.670 311.880,370.274 308.704 C 372.320 304.652,374.779 293.704,373.642 293.704 C 373.548 293.704,372.444 296.329,371.190 299.537 " stroke="none" fill="#93a3ac" fill-rule="evenodd"></path><path id="path3" d="M146.024 264.710 C 146.587 264.795,147.420 264.793,147.875 264.705 C 148.331 264.617,147.870 264.548,146.852 264.550 C 145.833 264.553,145.461 264.625,146.024 264.710 " stroke="none" fill="#5cc1e3" fill-rule="evenodd"></path><path id="path4" d="M274.566 111.759 C 292.457 111.812,321.624 111.812,339.381 111.759 C 357.138 111.706,342.500 111.663,306.852 111.663 C 271.204 111.663,256.675 111.706,274.566 111.759 M278.128 199.537 L 276.852 200.926 278.241 199.650 C 279.533 198.462,279.800 198.148,279.517 198.148 C 279.455 198.148,278.830 198.773,278.128 199.537 M279.074 212.222 C 279.870 213.037,280.604 213.704,280.706 213.704 C 280.808 213.704,280.240 213.037,279.444 212.222 C 278.649 211.407,277.914 210.741,277.813 210.741 C 277.711 210.741,278.278 211.407,279.074 212.222 M132.392 236.852 C 132.392 245.407,132.440 248.855,132.500 244.512 C 132.559 240.170,132.559 233.170,132.500 228.957 C 132.440 224.743,132.392 228.296,132.392 236.852 " stroke="none" fill="#6cbcd4" fill-rule="evenodd"></path></g></svg>