<svg id="svg" version="1.1" xmlns="http://www.w3.org/2000/svg" xmlns:xlink="http://www.w3.org/1999/xlink" width="400" height="400" viewBox="0, 0, 400,400"><g id="svgg"><path id="path0" d="M171.507 12.950 C 170.301 12.985,169.266 13.085,169.207 13.172 C 169.148 13.259,167.210 13.445,164.900 13.585 C 162.590 13.725,160.655 13.911,160.600 13.998 C 160.545 14.085,159.623 14.222,158.550 14.302 C 157.478 14.382,156.600 14.520,156.600 14.609 C 156.600 14.697,155.790 14.833,154.800 14.911 C 153.810 14.988,153.000 15.130,153.000 15.226 C 153.000 15.322,152.640 15.400,152.200 15.400 C 151.760 15.400,151.400 15.472,151.400 15.560 C 151.400 15.647,150.527 15.829,149.459 15.964 C 148.391 16.099,147.469 16.285,147.409 16.378 C 147.349 16.471,146.692 16.611,145.950 16.689 C 145.208 16.768,144.600 16.915,144.600 17.016 C 144.600 17.117,144.377 17.200,144.104 17.200 C 143.309 17.200,140.800 17.668,140.800 17.817 C 140.800 17.891,140.080 18.069,139.200 18.212 C 138.320 18.355,137.600 18.546,137.600 18.636 C 137.600 18.726,137.375 18.800,137.100 18.800 C 136.825 18.800,136.600 18.890,136.600 19.000 C 136.600 19.110,136.375 19.200,136.100 19.200 C 135.825 19.200,135.600 19.269,135.600 19.354 C 135.600 19.439,134.995 19.624,134.256 19.764 C 133.517 19.904,132.864 20.089,132.806 20.176 C 132.748 20.262,132.138 20.450,131.450 20.594 C 130.763 20.737,130.200 20.924,130.200 21.009 C 130.200 21.093,129.750 21.224,129.200 21.300 C 128.650 21.376,128.200 21.507,128.200 21.591 C 128.200 21.676,127.660 21.860,127.000 22.000 C 126.340 22.140,125.800 22.359,125.800 22.486 C 125.800 22.613,125.260 22.837,124.600 22.984 C 123.940 23.130,123.400 23.319,123.400 23.403 C 123.400 23.487,123.085 23.615,122.700 23.687 C 122.315 23.759,122.000 23.885,122.000 23.968 C 122.000 24.050,121.460 24.237,120.800 24.384 C 120.140 24.530,119.600 24.722,119.600 24.811 C 119.600 24.899,119.105 25.082,118.500 25.217 C 117.895 25.353,117.400 25.529,117.400 25.610 C 117.400 25.690,117.085 25.815,116.700 25.887 C 116.292 25.963,116.000 26.136,116.000 26.301 C 116.000 26.462,115.632 26.691,115.150 26.832 C 114.683 26.969,114.255 27.134,114.200 27.200 C 114.145 27.266,113.718 27.431,113.250 27.568 C 112.783 27.704,112.400 27.898,112.400 27.999 C 112.400 28.100,112.085 28.241,111.700 28.313 C 111.315 28.385,111.000 28.516,111.000 28.602 C 111.000 28.689,110.550 28.868,110.000 29.000 C 109.450 29.132,109.000 29.319,109.000 29.416 C 109.000 29.513,108.775 29.649,108.500 29.718 C 108.225 29.787,108.000 29.924,108.000 30.022 C 108.000 30.120,107.865 30.200,107.700 30.200 C 107.535 30.200,107.400 30.283,107.400 30.384 C 107.400 30.485,107.130 30.628,106.800 30.700 C 106.470 30.772,106.200 30.903,106.200 30.990 C 106.200 31.077,105.801 31.260,105.313 31.396 C 104.825 31.533,104.378 31.770,104.319 31.922 C 104.260 32.075,104.075 32.200,103.906 32.200 C 103.738 32.200,103.600 32.270,103.600 32.356 C 103.600 32.442,103.195 32.632,102.700 32.778 C 102.205 32.925,101.800 33.124,101.800 33.222 C 101.800 33.320,101.675 33.400,101.521 33.400 C 101.368 33.400,101.191 33.535,101.128 33.700 C 101.064 33.865,100.875 34.000,100.706 34.000 C 100.538 34.000,100.400 34.083,100.400 34.184 C 100.400 34.285,100.130 34.428,99.800 34.500 C 99.470 34.572,99.200 34.697,99.200 34.776 C 99.200 34.855,98.885 35.034,98.500 35.173 C 98.115 35.312,97.800 35.493,97.800 35.576 C 97.800 35.658,97.485 35.849,97.100 36.000 C 96.715 36.151,96.400 36.338,96.400 36.416 C 96.400 36.493,96.175 36.613,95.900 36.682 C 95.625 36.751,95.400 36.934,95.400 37.088 C 95.400 37.242,95.131 37.427,94.801 37.500 C 94.472 37.572,94.134 37.737,94.051 37.866 C 93.968 37.995,93.630 38.236,93.300 38.400 C 92.970 38.565,92.581 38.813,92.436 38.950 C 92.290 39.088,92.043 39.200,91.886 39.200 C 91.729 39.200,91.600 39.273,91.600 39.363 C 91.600 39.452,91.285 39.649,90.900 39.800 C 90.515 39.951,90.200 40.137,90.200 40.213 C 90.200 40.289,89.930 40.463,89.600 40.600 C 89.270 40.737,89.000 40.971,89.000 41.120 C 89.000 41.270,88.775 41.449,88.500 41.518 C 88.225 41.587,88.000 41.724,88.000 41.822 C 88.000 41.920,87.870 42.000,87.711 42.000 C 87.553 42.000,87.305 42.157,87.161 42.350 C 87.018 42.542,86.630 42.834,86.300 42.997 C 85.970 43.161,85.502 43.498,85.260 43.747 C 85.017 43.996,84.677 44.200,84.503 44.200 C 84.330 44.200,84.136 44.335,84.072 44.500 C 84.009 44.665,83.877 44.800,83.779 44.800 C 83.598 44.800,83.404 44.951,82.281 45.966 C 81.941 46.274,81.378 46.643,81.031 46.787 C 80.684 46.931,80.400 47.122,80.400 47.211 C 80.400 47.300,80.215 47.432,79.989 47.504 C 79.762 47.575,79.494 47.852,79.393 48.117 C 79.293 48.383,79.105 48.600,78.977 48.600 C 78.848 48.600,78.485 48.870,78.170 49.200 C 77.855 49.530,77.485 49.802,77.348 49.803 C 77.212 49.805,76.888 50.030,76.629 50.303 C 76.370 50.577,76.082 50.800,75.989 50.800 C 75.737 50.800,74.800 51.714,74.800 51.959 C 74.800 52.077,74.620 52.230,74.400 52.300 C 74.180 52.370,74.000 52.511,74.000 52.613 C 74.000 52.716,73.881 52.800,73.736 52.800 C 73.591 52.800,73.293 53.002,73.075 53.250 C 72.856 53.498,72.429 53.880,72.124 54.100 C 71.279 54.711,70.480 55.504,70.339 55.870 C 70.269 56.052,70.078 56.200,69.913 56.200 C 69.749 56.200,69.518 56.380,69.400 56.600 C 69.282 56.820,69.096 57.000,68.987 57.000 C 68.717 57.000,63.200 62.514,63.200 62.785 C 63.200 62.903,63.110 63.000,63.001 63.000 C 62.656 63.000,59.400 66.325,59.400 66.677 C 59.400 66.862,59.259 67.067,59.086 67.133 C 58.572 67.330,56.660 69.341,56.375 69.983 C 56.230 70.311,55.921 70.682,55.688 70.807 C 55.455 70.931,55.137 71.216,54.982 71.440 C 54.827 71.664,54.407 72.153,54.050 72.527 C 53.692 72.901,53.400 73.299,53.400 73.410 C 53.400 73.522,53.085 73.928,52.700 74.313 C 52.315 74.698,51.996 75.078,51.992 75.157 C 51.987 75.236,51.717 75.521,51.392 75.791 C 51.066 76.060,50.800 76.401,50.800 76.547 C 50.800 76.693,50.668 76.863,50.508 76.925 C 50.347 76.986,50.155 77.231,50.081 77.468 C 50.007 77.706,49.711 78.128,49.423 78.406 C 49.135 78.684,48.789 79.156,48.654 79.456 C 48.519 79.755,48.272 80.000,48.104 80.000 C 47.937 80.000,47.800 80.138,47.800 80.306 C 47.800 80.475,47.665 80.664,47.500 80.728 C 47.335 80.791,47.200 80.991,47.200 81.171 C 47.200 81.469,46.767 82.101,45.915 83.050 C 45.742 83.243,45.600 83.493,45.600 83.606 C 45.600 83.720,45.478 83.859,45.329 83.917 C 45.179 83.974,44.940 84.376,44.797 84.810 C 44.653 85.245,44.421 85.600,44.281 85.600 C 44.141 85.600,43.973 85.769,43.908 85.976 C 43.842 86.183,43.612 86.566,43.398 86.826 C 42.583 87.815,42.200 88.477,42.200 88.897 C 42.200 89.064,42.108 89.200,41.995 89.200 C 41.882 89.200,41.705 89.425,41.600 89.700 C 41.495 89.975,41.318 90.200,41.205 90.200 C 41.092 90.200,41.000 90.329,41.000 90.487 C 41.000 90.644,40.823 90.829,40.607 90.898 C 40.355 90.978,40.166 91.276,40.082 91.727 C 40.009 92.115,39.831 92.477,39.687 92.533 C 39.543 92.588,39.368 92.888,39.300 93.200 C 39.232 93.512,39.055 93.813,38.907 93.870 C 38.759 93.927,38.579 94.242,38.507 94.570 C 38.435 94.898,38.246 95.216,38.088 95.277 C 37.930 95.338,37.800 95.566,37.800 95.785 C 37.800 96.003,37.575 96.407,37.300 96.682 C 37.025 96.957,36.800 97.276,36.800 97.391 C 36.800 97.506,36.714 97.600,36.608 97.600 C 36.502 97.600,36.308 97.960,36.176 98.400 C 36.045 98.840,35.868 99.200,35.784 99.200 C 35.700 99.200,35.520 99.535,35.385 99.944 C 35.250 100.354,35.018 100.810,34.870 100.959 C 34.721 101.107,34.600 101.357,34.600 101.514 C 34.600 101.671,34.522 101.800,34.426 101.800 C 34.330 101.800,34.139 102.205,34.000 102.700 C 33.861 103.195,33.632 103.600,33.490 103.600 C 33.347 103.600,33.127 103.915,33.000 104.300 C 32.873 104.685,32.693 105.000,32.600 105.000 C 32.508 105.000,32.372 105.270,32.300 105.600 C 32.228 105.930,32.107 106.200,32.031 106.200 C 31.956 106.200,31.787 106.653,31.656 107.206 C 31.524 107.759,31.285 108.343,31.125 108.504 C 30.964 108.664,30.773 109.067,30.700 109.398 C 30.628 109.729,30.497 110.000,30.409 110.000 C 30.322 110.000,30.196 110.270,30.130 110.600 C 30.064 110.930,29.890 111.200,29.743 111.200 C 29.590 111.200,29.366 111.627,29.219 112.200 C 29.078 112.750,28.896 113.200,28.813 113.200 C 28.731 113.200,28.553 113.695,28.417 114.300 C 28.282 114.905,28.088 115.400,27.986 115.400 C 27.884 115.400,27.800 115.574,27.800 115.786 C 27.800 115.998,27.683 116.290,27.541 116.436 C 27.399 116.581,27.159 117.218,27.009 117.850 C 26.859 118.483,26.665 119.000,26.577 119.000 C 26.490 119.000,26.359 119.315,26.287 119.700 C 26.215 120.085,26.075 120.400,25.978 120.400 C 25.880 120.400,25.800 120.535,25.800 120.700 C 25.800 120.865,25.720 121.000,25.623 121.000 C 25.525 121.000,25.385 121.405,25.310 121.900 C 25.236 122.395,25.091 122.800,24.988 122.800 C 24.884 122.800,24.800 122.951,24.800 123.136 C 24.800 123.505,24.366 124.841,24.194 125.000 C 24.135 125.055,23.969 125.685,23.825 126.399 C 23.682 127.114,23.486 127.747,23.391 127.805 C 23.296 127.864,23.158 128.292,23.084 128.756 C 23.010 129.220,22.870 129.600,22.774 129.600 C 22.678 129.600,22.600 129.870,22.600 130.200 C 22.600 130.530,22.516 130.800,22.412 130.800 C 22.309 130.800,22.164 131.205,22.090 131.700 C 22.015 132.195,21.885 132.600,21.800 132.600 C 21.715 132.600,21.585 133.005,21.510 133.500 C 21.436 133.995,21.306 134.400,21.220 134.400 C 21.134 134.400,20.945 135.165,20.800 136.100 C 20.655 137.035,20.469 137.800,20.388 137.800 C 20.308 137.800,20.133 138.565,20.000 139.500 C 19.867 140.435,19.687 141.200,19.600 141.200 C 19.512 141.200,19.377 141.830,19.300 142.600 C 19.210 143.495,19.071 144.000,18.914 144.000 C 18.685 144.000,18.195 146.430,18.199 147.550 C 18.199 147.797,18.123 148.000,18.030 148.000 C 17.936 148.000,17.743 149.080,17.600 150.400 C 17.457 151.720,17.276 152.800,17.197 152.800 C 17.119 152.800,16.990 153.677,16.912 154.748 C 16.833 155.819,16.696 156.742,16.608 156.798 C 16.519 156.854,16.332 158.520,16.191 160.500 C 16.051 162.480,15.872 164.145,15.795 164.200 C 14.956 164.795,14.953 219.968,15.792 220.600 C 15.865 220.655,16.038 221.218,16.177 221.850 C 16.315 222.482,16.504 223.000,16.597 223.000 C 16.689 223.000,16.826 223.360,16.900 223.800 C 16.974 224.240,17.100 224.600,17.180 224.600 C 17.260 224.600,17.449 224.915,17.600 225.300 C 17.751 225.685,17.937 226.000,18.014 226.000 C 18.091 226.000,18.202 226.187,18.262 226.415 C 18.321 226.643,18.557 226.879,18.785 226.938 C 19.023 227.000,19.200 227.210,19.200 227.430 C 19.200 227.640,19.332 227.863,19.492 227.925 C 19.653 227.986,19.846 228.229,19.920 228.463 C 20.068 228.929,21.699 230.600,22.006 230.600 C 22.111 230.600,22.455 230.870,22.770 231.200 C 23.085 231.530,23.405 231.800,23.481 231.800 C 23.557 231.800,23.828 232.026,24.084 232.301 C 24.339 232.577,24.830 232.901,25.174 233.021 C 25.518 233.141,25.800 233.312,25.800 233.401 C 25.800 233.490,26.250 233.678,26.800 233.819 C 27.350 233.960,27.800 234.145,27.800 234.229 C 27.800 234.313,28.115 234.441,28.500 234.513 C 28.885 234.585,29.200 234.762,29.200 234.906 C 29.200 235.083,29.782 235.249,31.000 235.422 C 31.990 235.562,32.800 235.749,32.800 235.838 C 32.800 235.927,34.240 236.000,36.000 236.000 C 37.760 236.000,39.200 235.926,39.200 235.836 C 39.200 235.745,40.055 235.554,41.100 235.410 C 42.402 235.232,43.000 235.067,43.000 234.887 C 43.000 234.729,43.359 234.571,43.900 234.490 C 44.395 234.415,44.800 234.287,44.800 234.205 C 44.800 234.122,45.340 233.940,46.000 233.800 C 46.660 233.660,47.200 233.485,47.200 233.412 C 47.200 233.338,47.875 233.165,48.700 233.026 C 49.525 232.887,50.200 232.695,50.200 232.599 C 50.200 232.503,50.605 232.364,51.100 232.290 C 51.595 232.215,52.000 232.086,52.000 232.003 C 52.000 231.920,52.450 231.792,53.000 231.719 C 53.550 231.646,54.000 231.499,54.000 231.393 C 54.000 231.287,54.270 231.200,54.600 231.200 C 54.930 231.200,55.200 231.120,55.200 231.023 C 55.200 230.925,55.627 230.781,56.150 230.703 C 56.673 230.625,57.148 230.483,57.207 230.389 C 57.265 230.294,57.985 230.113,58.807 229.986 C 59.628 229.859,60.346 229.682,60.402 229.593 C 60.459 229.503,61.246 229.314,62.152 229.171 C 63.059 229.028,63.800 228.848,63.800 228.770 C 63.800 228.692,64.295 228.567,64.900 228.491 C 65.505 228.416,66.000 228.283,66.000 228.197 C 66.000 228.110,66.540 227.977,67.200 227.900 C 67.860 227.823,68.400 227.680,68.400 227.580 C 68.400 227.481,68.625 227.400,68.900 227.400 C 69.175 227.400,69.400 227.327,69.400 227.239 C 69.400 227.150,70.210 226.958,71.200 226.811 C 72.190 226.664,73.000 226.477,73.000 226.395 C 73.000 226.314,73.585 226.184,74.300 226.107 C 75.015 226.031,75.600 225.897,75.600 225.810 C 75.600 225.723,76.455 225.538,77.500 225.400 C 78.545 225.262,79.400 225.082,79.400 225.000 C 79.400 224.918,79.963 224.790,80.650 224.715 C 82.869 224.473,83.400 224.354,83.400 224.098 C 83.400 223.931,83.905 223.800,84.900 223.706 C 85.725 223.629,86.400 223.497,86.400 223.412 C 86.400 223.327,87.368 223.144,88.550 223.005 C 89.733 222.865,90.745 222.682,90.800 222.596 C 90.855 222.511,91.913 222.323,93.150 222.179 C 94.388 222.034,95.400 221.854,95.400 221.779 C 95.400 221.703,96.120 221.578,97.000 221.500 C 97.880 221.422,98.600 221.293,98.600 221.214 C 98.600 221.134,99.725 220.948,101.100 220.800 C 102.770 220.620,103.600 220.450,103.600 220.289 C 103.600 220.129,104.374 219.964,105.900 219.800 C 107.165 219.664,108.200 219.482,108.200 219.397 C 108.200 219.312,108.920 219.178,109.800 219.100 C 110.680 219.022,111.400 218.894,111.400 218.814 C 111.400 218.735,112.525 218.552,113.900 218.408 C 115.275 218.264,116.400 218.083,116.400 218.005 C 116.400 217.928,117.435 217.750,118.700 217.609 C 119.965 217.468,121.000 217.282,121.000 217.197 C 121.000 217.112,121.720 216.978,122.600 216.900 C 123.671 216.805,124.200 216.676,124.200 216.509 C 124.200 216.337,124.956 216.175,126.600 215.992 C 127.920 215.845,129.000 215.664,129.000 215.589 C 129.000 215.514,129.990 215.335,131.200 215.191 C 132.410 215.047,133.400 214.861,133.400 214.778 C 133.400 214.695,134.120 214.565,135.000 214.488 C 135.880 214.411,136.600 214.283,136.600 214.204 C 136.600 214.124,137.545 213.942,138.700 213.800 C 139.855 213.658,140.800 213.464,140.800 213.370 C 140.800 213.277,141.115 213.200,141.500 213.200 C 141.885 213.200,142.200 213.110,142.200 213.000 C 142.200 212.890,142.560 212.800,143.000 212.800 C 143.440 212.800,143.800 212.722,143.800 212.626 C 143.800 212.531,144.790 212.335,146.000 212.191 C 147.210 212.047,148.200 211.867,148.200 211.791 C 148.200 211.716,149.190 211.539,150.400 211.400 C 151.610 211.261,152.600 211.074,152.600 210.985 C 152.600 210.897,153.230 210.762,154.000 210.686 C 154.770 210.610,155.400 210.479,155.400 210.394 C 155.400 210.309,156.345 210.128,157.500 209.991 C 158.906 209.824,159.600 209.660,159.600 209.493 C 159.600 209.329,160.277 209.159,161.600 208.990 C 162.700 208.850,163.600 208.670,163.600 208.591 C 163.600 208.512,164.185 208.384,164.900 208.307 C 165.615 208.231,166.200 208.098,166.200 208.013 C 166.200 207.928,167.145 207.746,168.300 207.609 C 169.455 207.472,170.400 207.291,170.400 207.206 C 170.400 207.121,171.278 206.937,172.350 206.796 C 173.423 206.656,174.350 206.465,174.411 206.372 C 174.472 206.278,175.080 206.144,175.761 206.072 C 176.489 205.996,177.000 205.848,177.000 205.712 C 177.000 205.490,179.271 205.000,180.304 205.000 C 180.577 205.000,180.800 204.928,180.800 204.841 C 180.800 204.674,183.245 204.200,184.104 204.200 C 184.377 204.200,184.600 204.120,184.600 204.023 C 184.600 203.926,185.095 203.784,185.700 203.709 C 186.305 203.633,186.800 203.505,186.800 203.424 C 186.800 203.344,187.610 203.158,188.600 203.011 C 189.590 202.864,190.400 202.674,190.400 202.588 C 190.400 202.502,190.985 202.369,191.700 202.293 C 192.415 202.216,193.000 202.074,193.000 201.977 C 193.000 201.880,193.225 201.800,193.500 201.800 C 193.775 201.800,194.000 201.723,194.000 201.628 C 194.000 201.533,194.466 201.401,195.035 201.333 C 195.604 201.266,196.122 201.130,196.185 201.031 C 196.248 200.933,197.088 200.736,198.050 200.594 C 199.013 200.452,199.800 200.271,199.800 200.192 C 199.800 200.113,200.494 199.945,201.341 199.819 C 202.189 199.693,202.933 199.508,202.995 199.408 C 203.057 199.308,203.578 199.164,204.154 199.087 C 204.729 199.011,205.200 198.870,205.200 198.774 C 205.200 198.678,205.470 198.600,205.800 198.600 C 206.130 198.600,206.400 198.513,206.400 198.407 C 206.400 198.301,206.850 198.154,207.400 198.081 C 207.950 198.008,208.400 197.882,208.400 197.802 C 208.400 197.721,209.075 197.546,209.900 197.413 C 210.725 197.280,211.400 197.096,211.400 197.004 C 211.400 196.913,211.850 196.776,212.400 196.700 C 212.950 196.624,213.400 196.489,213.400 196.399 C 213.400 196.310,214.030 196.130,214.800 196.000 C 215.570 195.870,216.200 195.692,216.200 195.605 C 216.200 195.517,216.605 195.385,217.100 195.310 C 217.610 195.234,218.000 195.068,218.000 194.928 C 218.000 194.776,218.583 194.576,219.500 194.413 C 220.325 194.266,221.000 194.078,221.000 193.995 C 221.000 193.912,221.585 193.727,222.300 193.585 C 223.015 193.443,223.600 193.263,223.600 193.186 C 223.600 193.109,224.005 192.985,224.500 192.910 C 224.995 192.836,225.400 192.702,225.400 192.613 C 225.400 192.523,225.940 192.330,226.600 192.184 C 227.260 192.037,227.800 191.860,227.800 191.791 C 227.800 191.721,228.295 191.553,228.900 191.417 C 229.564 191.269,230.000 191.065,230.000 190.903 C 230.000 190.746,230.332 190.579,230.800 190.500 C 231.240 190.426,231.600 190.300,231.600 190.220 C 231.600 190.141,232.070 189.955,232.644 189.808 C 233.218 189.661,233.802 189.427,233.940 189.288 C 234.079 189.150,234.554 188.975,234.996 188.901 C 235.438 188.826,235.800 188.690,235.800 188.598 C 235.800 188.507,236.070 188.372,236.400 188.300 C 236.730 188.228,237.000 188.095,237.000 188.006 C 237.000 187.916,237.225 187.787,237.500 187.718 C 237.775 187.649,238.000 187.504,238.000 187.396 C 238.000 187.288,238.180 187.200,238.400 187.200 C 238.620 187.200,238.800 187.124,238.800 187.032 C 238.800 186.939,239.160 186.755,239.600 186.624 C 240.040 186.492,240.400 186.298,240.400 186.192 C 240.400 186.086,240.521 186.000,240.669 186.000 C 240.818 186.000,241.146 185.820,241.400 185.600 C 241.654 185.380,242.023 185.200,242.221 185.200 C 242.418 185.200,242.652 185.082,242.740 184.938 C 242.828 184.794,243.193 184.558,243.550 184.414 C 243.907 184.270,244.200 184.027,244.200 183.876 C 244.200 183.724,244.276 183.600,244.369 183.600 C 244.462 183.600,244.799 183.375,245.119 183.100 C 245.439 182.825,245.770 182.600,245.856 182.600 C 245.942 182.600,246.302 182.273,246.656 181.874 C 247.010 181.475,247.457 181.005,247.650 180.830 C 247.843 180.655,248.000 180.361,248.000 180.177 C 248.000 179.993,248.131 179.792,248.292 179.731 C 248.466 179.664,248.638 179.211,248.718 178.609 C 248.791 178.054,248.930 177.600,249.026 177.600 C 249.122 177.600,249.200 177.375,249.200 177.100 C 249.200 176.825,249.123 176.600,249.028 176.600 C 248.933 176.600,248.800 176.128,248.731 175.550 C 248.662 174.967,248.472 174.401,248.304 174.278 C 248.137 174.156,248.000 173.951,248.000 173.822 C 248.000 173.693,247.868 173.537,247.708 173.475 C 247.547 173.414,247.364 173.202,247.302 173.005 C 247.176 172.608,246.082 171.400,245.848 171.400 C 245.711 171.400,244.910 170.786,244.200 170.139 C 244.035 169.988,243.743 169.808,243.550 169.739 C 243.357 169.669,243.200 169.520,243.200 169.406 C 243.200 169.293,243.075 169.200,242.921 169.200 C 242.768 169.200,242.591 169.065,242.528 168.900 C 242.464 168.735,242.230 168.600,242.006 168.600 C 241.783 168.600,241.600 168.510,241.600 168.400 C 241.600 168.290,241.469 168.200,241.310 168.200 C 241.150 168.200,240.948 168.087,240.860 167.950 C 240.772 167.812,240.430 167.565,240.100 167.400 C 239.770 167.235,239.455 167.055,239.400 167.000 C 239.170 166.769,238.385 166.400,238.124 166.400 C 237.969 166.400,237.791 166.265,237.728 166.100 C 237.664 165.935,237.475 165.800,237.306 165.800 C 237.138 165.800,237.000 165.660,237.000 165.490 C 237.000 165.319,236.730 165.085,236.400 164.970 C 236.070 164.855,235.800 164.691,235.800 164.605 C 235.800 164.519,235.530 164.337,235.200 164.200 C 234.870 164.063,234.600 163.872,234.600 163.776 C 234.600 163.679,234.462 163.600,234.294 163.600 C 234.125 163.600,233.937 163.468,233.875 163.308 C 233.814 163.147,233.593 162.961,233.385 162.895 C 233.177 162.829,232.649 162.421,232.211 161.988 C 231.774 161.554,231.356 161.200,231.284 161.200 C 231.076 161.200,227.800 157.808,227.800 157.593 C 227.800 157.487,227.663 157.400,227.495 157.400 C 227.327 157.400,227.105 157.175,227.000 156.900 C 226.895 156.625,226.729 156.400,226.629 156.400 C 226.530 156.400,226.329 156.107,226.183 155.750 C 226.037 155.393,225.801 154.981,225.658 154.836 C 225.516 154.690,225.400 154.443,225.400 154.286 C 225.400 154.129,225.322 154.000,225.226 154.000 C 225.130 154.000,224.934 153.572,224.791 153.050 C 224.647 152.528,224.433 152.036,224.315 151.957 C 224.013 151.757,224.022 146.035,224.325 145.843 C 224.449 145.764,224.612 145.415,224.687 145.066 C 224.763 144.718,224.999 144.232,225.212 143.986 C 225.426 143.740,225.600 143.394,225.600 143.218 C 225.600 143.041,225.780 142.784,226.000 142.646 C 226.220 142.509,226.400 142.312,226.400 142.209 C 226.400 142.000,227.279 141.000,227.463 141.000 C 227.673 141.000,228.527 140.108,228.659 139.750 C 228.729 139.558,228.883 139.400,229.000 139.400 C 229.118 139.400,229.464 139.153,229.770 138.850 C 230.421 138.206,231.081 137.800,231.476 137.800 C 231.631 137.800,231.809 137.665,231.872 137.500 C 231.936 137.335,232.125 137.200,232.294 137.200 C 232.462 137.200,232.600 137.121,232.600 137.024 C 232.600 136.928,232.870 136.737,233.200 136.600 C 233.530 136.463,233.800 136.229,233.800 136.079 C 233.800 135.922,234.184 135.709,234.700 135.579 C 235.195 135.454,235.600 135.280,235.600 135.192 C 235.600 135.104,235.870 134.972,236.200 134.900 C 236.530 134.828,236.800 134.685,236.800 134.583 C 236.800 134.482,237.205 134.290,237.700 134.158 C 238.195 134.025,238.600 133.860,238.600 133.791 C 238.600 133.721,238.960 133.545,239.400 133.400 C 239.840 133.255,240.200 133.070,240.200 132.990 C 240.200 132.910,240.515 132.785,240.900 132.713 C 241.285 132.641,241.600 132.465,241.600 132.323 C 241.600 132.172,242.059 131.961,242.700 131.817 C 243.305 131.682,243.800 131.500,243.800 131.413 C 243.800 131.326,244.340 131.140,245.000 131.000 C 245.660 130.860,246.200 130.676,246.200 130.590 C 246.200 130.505,246.560 130.374,247.000 130.300 C 247.440 130.226,247.800 130.093,247.800 130.005 C 247.800 129.917,248.385 129.735,249.100 129.600 C 249.815 129.465,250.400 129.275,250.400 129.177 C 250.400 129.080,250.572 129.000,250.783 129.000 C 250.994 129.000,251.197 128.908,251.235 128.796 C 251.272 128.684,251.774 128.537,252.351 128.468 C 252.928 128.400,253.400 128.270,253.400 128.179 C 253.400 128.088,253.850 127.954,254.400 127.881 C 254.950 127.808,255.400 127.678,255.400 127.592 C 255.400 127.506,256.030 127.330,256.800 127.200 C 257.570 127.070,258.200 126.895,258.200 126.811 C 258.200 126.727,259.010 126.542,260.000 126.400 C 260.990 126.258,261.800 126.070,261.800 125.981 C 261.800 125.892,262.340 125.759,263.000 125.684 C 263.739 125.600,264.200 125.454,264.200 125.303 C 264.200 125.068,266.375 124.600,267.472 124.600 C 267.744 124.600,267.997 124.514,268.033 124.409 C 268.070 124.304,268.933 124.108,269.950 123.973 C 270.968 123.838,271.800 123.663,271.800 123.584 C 271.800 123.505,272.430 123.377,273.200 123.300 C 273.970 123.223,274.600 123.090,274.600 123.006 C 274.600 122.922,275.590 122.735,276.800 122.591 C 278.010 122.447,279.000 122.263,279.000 122.182 C 279.000 122.101,279.675 121.971,280.500 121.894 C 281.470 121.803,282.000 121.667,282.000 121.509 C 282.000 121.346,282.780 121.177,284.350 120.998 C 285.643 120.852,286.745 120.667,286.800 120.588 C 286.855 120.509,287.888 120.338,289.097 120.209 C 290.305 120.079,291.340 119.899,291.397 119.808 C 291.453 119.717,292.288 119.578,293.250 119.498 C 294.213 119.418,295.000 119.285,295.000 119.201 C 295.000 119.118,296.170 118.934,297.600 118.792 C 299.030 118.651,300.200 118.468,300.200 118.386 C 300.200 118.304,301.055 118.173,302.100 118.095 C 303.145 118.017,304.000 117.873,304.000 117.776 C 304.000 117.679,304.405 117.600,304.900 117.600 C 305.395 117.600,305.800 117.522,305.800 117.426 C 305.800 117.330,306.632 117.186,307.650 117.107 C 308.667 117.027,309.545 116.890,309.600 116.801 C 309.655 116.712,311.072 116.525,312.750 116.384 C 314.428 116.244,315.800 116.065,315.800 115.988 C 315.800 115.911,317.150 115.733,318.800 115.593 C 320.450 115.454,321.800 115.273,321.800 115.192 C 321.800 115.111,322.880 114.979,324.200 114.900 C 325.520 114.821,326.600 114.676,326.600 114.578 C 326.600 114.480,327.005 114.400,327.500 114.400 C 327.995 114.400,328.400 114.321,328.400 114.224 C 328.400 114.127,329.435 113.983,330.700 113.904 C 331.965 113.825,333.000 113.697,333.000 113.619 C 333.000 113.542,334.688 113.359,336.750 113.214 C 338.813 113.069,340.545 112.880,340.601 112.793 C 340.656 112.707,341.848 112.571,343.251 112.491 C 344.653 112.411,345.800 112.281,345.800 112.201 C 345.800 112.121,347.645 111.939,349.900 111.795 C 352.155 111.652,354.000 111.472,354.000 111.396 C 354.000 111.319,355.980 111.141,358.400 111.000 C 361.624 110.812,362.800 110.677,362.800 110.496 C 362.800 110.316,363.660 110.208,365.950 110.102 C 367.683 110.021,369.145 109.886,369.200 109.801 C 369.255 109.716,371.663 109.529,374.550 109.386 C 377.438 109.243,379.800 109.052,379.800 108.963 C 379.800 108.873,380.363 108.799,381.050 108.799 C 381.738 108.798,382.908 108.740,383.650 108.670 L 385.000 108.542 385.000 60.671 L 385.000 12.800 279.350 12.842 C 221.243 12.866,172.713 12.914,171.507 12.950 " stroke="none" fill="#04d4fc" fill-rule="evenodd"></path><path id="path1" d="M383.750 127.346 C 383.338 127.389,383.000 127.500,383.000 127.592 C 383.000 127.685,382.460 127.823,381.800 127.900 C 381.140 127.977,380.600 128.110,380.600 128.196 C 380.600 128.283,380.015 128.416,379.300 128.493 C 378.585 128.569,378.000 128.715,378.000 128.816 C 378.000 128.917,377.730 129.000,377.400 129.000 C 377.070 129.000,376.800 129.074,376.800 129.164 C 376.800 129.255,375.945 129.446,374.900 129.590 C 373.855 129.733,373.000 129.919,373.000 130.002 C 373.000 130.086,372.505 130.216,371.900 130.291 C 371.295 130.367,370.800 130.495,370.800 130.576 C 370.800 130.656,369.990 130.842,369.000 130.989 C 368.010 131.136,367.200 131.323,367.200 131.404 C 367.200 131.486,366.480 131.669,365.600 131.812 C 364.565 131.980,364.000 132.163,364.000 132.329 C 364.000 132.487,363.613 132.638,363.000 132.719 C 362.450 132.792,362.000 132.923,362.000 133.011 C 362.000 133.099,361.325 133.280,360.500 133.413 C 359.675 133.546,359.000 133.724,359.000 133.809 C 359.000 133.894,358.370 134.070,357.600 134.200 C 356.830 134.330,356.200 134.507,356.200 134.593 C 356.200 134.679,355.820 134.810,355.356 134.884 C 354.892 134.958,354.462 135.100,354.400 135.200 C 354.338 135.300,353.683 135.496,352.944 135.636 C 352.205 135.776,351.600 135.993,351.600 136.118 C 351.600 136.243,351.060 136.460,350.400 136.600 C 349.740 136.740,349.200 136.927,349.200 137.015 C 349.200 137.103,348.795 137.236,348.300 137.310 C 347.805 137.385,347.400 137.519,347.400 137.608 C 347.400 137.698,346.905 137.882,346.300 138.017 C 345.695 138.153,345.200 138.325,345.200 138.400 C 345.200 138.475,344.705 138.647,344.100 138.783 C 343.495 138.918,343.000 139.102,343.000 139.192 C 343.000 139.282,342.685 139.415,342.300 139.487 C 341.915 139.559,341.600 139.738,341.600 139.884 C 341.600 140.038,341.271 140.202,340.814 140.275 C 340.382 140.344,339.893 140.535,339.728 140.700 C 339.564 140.865,339.249 141.000,339.029 141.000 C 338.809 141.000,338.497 141.131,338.337 141.291 C 338.177 141.452,337.631 141.687,337.123 141.815 C 336.615 141.943,336.200 142.123,336.200 142.216 C 336.200 142.308,335.840 142.492,335.400 142.624 C 334.960 142.755,334.600 142.939,334.600 143.032 C 334.600 143.124,334.465 143.200,334.300 143.200 C 334.135 143.200,334.000 143.290,334.000 143.400 C 334.000 143.510,333.865 143.600,333.700 143.600 C 333.535 143.600,333.400 143.678,333.400 143.774 C 333.400 143.870,332.995 144.061,332.500 144.200 C 332.005 144.339,331.600 144.519,331.600 144.602 C 331.600 144.684,331.330 144.863,331.000 145.000 C 330.670 145.137,330.400 145.328,330.400 145.424 C 330.400 145.521,330.234 145.600,330.031 145.600 C 329.827 145.600,329.457 145.777,329.207 145.994 C 328.957 146.211,328.583 146.442,328.376 146.508 C 328.169 146.573,328.000 146.747,328.000 146.894 C 328.000 147.041,327.730 147.255,327.400 147.370 C 327.070 147.485,326.800 147.674,326.800 147.790 C 326.800 147.905,326.623 148.000,326.407 148.000 C 326.191 148.000,325.918 148.180,325.800 148.400 C 325.682 148.620,325.469 148.800,325.326 148.800 C 325.182 148.800,324.687 149.160,324.224 149.600 C 323.762 150.040,323.297 150.400,323.192 150.400 C 323.086 150.400,323.000 150.538,323.000 150.706 C 323.000 150.875,322.843 151.072,322.650 151.145 C 322.258 151.293,321.200 152.291,321.200 152.513 C 321.200 152.592,320.938 152.907,320.619 153.212 C 320.299 153.518,319.921 154.090,319.779 154.484 C 319.636 154.878,319.448 155.200,319.360 155.200 C 319.272 155.200,319.200 155.329,319.200 155.487 C 319.200 155.644,319.034 155.826,318.831 155.890 C 318.578 155.970,318.377 156.368,318.193 157.154 C 318.045 157.784,317.828 158.364,317.712 158.443 C 317.390 158.659,317.426 164.242,317.750 164.350 C 317.888 164.396,318.000 164.682,318.000 164.987 C 318.000 165.685,318.381 166.800,318.620 166.800 C 318.719 166.800,318.800 166.935,318.800 167.100 C 318.800 167.265,318.890 167.400,319.000 167.400 C 319.110 167.400,319.200 167.535,319.200 167.700 C 319.200 167.865,319.276 168.000,319.368 168.000 C 319.461 168.000,319.642 168.351,319.770 168.779 C 319.899 169.208,320.138 169.610,320.302 169.673 C 320.466 169.736,320.600 169.905,320.600 170.049 C 320.600 170.193,320.757 170.455,320.950 170.631 C 321.143 170.808,321.513 171.233,321.773 171.576 C 322.032 171.919,322.370 172.200,322.523 172.200 C 322.675 172.200,322.800 172.291,322.800 172.403 C 322.800 172.691,326.078 176.000,326.363 176.000 C 326.493 176.000,326.600 176.105,326.600 176.233 C 326.600 176.361,327.140 176.998,327.800 177.648 C 328.460 178.297,329.000 178.954,329.000 179.108 C 329.000 179.261,329.180 179.482,329.400 179.600 C 329.620 179.718,329.800 179.946,329.800 180.107 C 329.800 180.268,329.937 180.400,330.105 180.400 C 330.273 180.400,330.495 180.625,330.600 180.900 C 330.705 181.175,330.876 181.400,330.982 181.400 C 331.087 181.400,331.227 181.569,331.292 181.776 C 331.358 181.983,331.588 182.366,331.802 182.626 C 332.017 182.887,332.270 183.193,332.364 183.307 C 332.458 183.420,332.595 183.755,332.669 184.050 C 332.744 184.345,333.025 184.806,333.294 185.076 C 333.563 185.345,333.842 185.798,333.914 186.083 C 333.985 186.367,334.112 186.600,334.196 186.600 C 334.280 186.600,334.405 186.952,334.474 187.383 C 334.543 187.814,334.689 188.197,334.798 188.233 C 334.908 188.270,335.108 188.998,335.244 189.850 C 335.379 190.703,335.560 191.400,335.645 191.400 C 335.730 191.400,335.800 192.480,335.800 193.800 C 335.800 195.120,335.728 196.200,335.640 196.200 C 335.552 196.200,335.360 196.875,335.213 197.700 C 335.066 198.525,334.876 199.200,334.789 199.200 C 334.703 199.200,334.572 199.470,334.500 199.800 C 334.428 200.130,334.291 200.400,334.198 200.400 C 334.104 200.400,333.963 200.603,333.885 200.850 C 333.807 201.097,333.589 201.435,333.400 201.600 C 333.211 201.765,332.992 202.107,332.912 202.360 C 332.832 202.613,332.507 203.086,332.191 203.410 C 331.874 203.734,331.507 204.201,331.376 204.449 C 331.244 204.697,330.971 205.018,330.768 205.161 C 330.566 205.305,330.400 205.553,330.400 205.711 C 330.400 205.870,330.288 206.002,330.150 206.003 C 330.013 206.005,329.688 206.230,329.429 206.503 C 329.170 206.777,328.875 207.000,328.773 207.000 C 328.671 207.000,328.299 207.315,327.945 207.700 C 327.592 208.085,327.190 208.400,327.051 208.400 C 326.913 208.400,326.800 208.495,326.800 208.610 C 326.800 208.726,326.530 208.915,326.200 209.030 C 325.870 209.145,325.600 209.357,325.600 209.500 C 325.600 209.643,325.330 209.855,325.000 209.970 C 324.670 210.085,324.400 210.274,324.400 210.390 C 324.400 210.505,324.269 210.600,324.110 210.600 C 323.950 210.600,323.748 210.713,323.660 210.850 C 323.450 211.177,322.686 211.600,322.303 211.600 C 322.136 211.600,322.000 211.673,322.000 211.763 C 322.000 211.852,321.685 212.049,321.300 212.200 C 320.915 212.351,320.600 212.548,320.600 212.637 C 320.600 212.727,320.498 212.800,320.373 212.800 C 320.249 212.800,320.001 212.968,319.823 213.173 C 319.645 213.378,319.201 213.612,318.836 213.692 C 318.471 213.772,318.127 213.959,318.070 214.107 C 318.013 214.255,317.704 214.433,317.383 214.504 C 317.062 214.574,316.800 214.714,316.800 214.814 C 316.800 214.913,316.434 215.054,315.987 215.125 C 315.539 215.197,315.059 215.370,314.918 215.510 C 314.778 215.650,314.289 215.877,313.832 216.014 C 313.374 216.151,313.000 216.376,313.000 216.514 C 313.000 216.652,312.640 216.826,312.200 216.900 C 311.760 216.974,311.400 217.116,311.400 217.215 C 311.400 217.313,310.995 217.496,310.500 217.621 C 310.005 217.746,309.600 217.916,309.600 217.999 C 309.600 218.082,309.060 218.270,308.400 218.416 C 307.740 218.563,307.200 218.750,307.200 218.832 C 307.200 218.915,306.885 219.041,306.500 219.113 C 306.115 219.185,305.800 219.312,305.800 219.395 C 305.800 219.478,305.260 219.660,304.600 219.800 C 303.906 219.947,303.400 220.161,303.400 220.306 C 303.400 220.455,302.872 220.662,302.100 220.815 C 301.385 220.957,300.800 221.137,300.800 221.214 C 300.800 221.291,300.395 221.415,299.900 221.490 C 299.405 221.564,299.000 221.697,299.000 221.785 C 299.000 221.873,298.438 222.063,297.750 222.206 C 297.063 222.350,296.452 222.538,296.394 222.624 C 296.336 222.711,295.683 222.896,294.944 223.036 C 294.205 223.176,293.600 223.350,293.600 223.423 C 293.600 223.495,293.195 223.615,292.700 223.690 C 292.180 223.768,291.800 223.931,291.800 224.077 C 291.800 224.237,291.212 224.429,290.200 224.600 C 289.320 224.749,288.600 224.932,288.600 225.007 C 288.600 225.082,287.925 225.259,287.100 225.400 C 286.275 225.541,285.600 225.723,285.600 225.805 C 285.600 225.887,285.105 226.016,284.500 226.091 C 283.895 226.167,283.400 226.312,283.400 226.414 C 283.400 226.516,283.203 226.600,282.962 226.600 C 282.227 226.600,280.200 227.070,280.200 227.240 C 280.200 227.328,279.930 227.400,279.600 227.400 C 279.270 227.400,279.000 227.481,279.000 227.580 C 279.000 227.680,278.460 227.823,277.800 227.900 C 277.140 227.977,276.600 228.114,276.600 228.205 C 276.600 228.297,276.082 228.435,275.450 228.513 C 274.818 228.590,274.252 228.729,274.192 228.820 C 274.133 228.912,273.256 229.100,272.242 229.238 C 271.229 229.376,270.400 229.549,270.400 229.623 C 270.400 229.698,269.635 229.872,268.700 230.011 C 267.765 230.151,267.000 230.329,267.000 230.409 C 267.000 230.488,266.415 230.616,265.700 230.693 C 264.985 230.769,264.400 230.915,264.400 231.016 C 264.400 231.117,264.048 231.200,263.617 231.200 C 263.186 231.200,262.803 231.289,262.767 231.398 C 262.730 231.507,262.137 231.655,261.450 231.727 C 260.762 231.798,260.200 231.930,260.200 232.019 C 260.200 232.107,259.660 232.241,259.000 232.316 C 258.340 232.391,257.800 232.514,257.800 232.590 C 257.800 232.666,256.970 232.838,255.956 232.973 C 254.942 233.109,254.064 233.289,254.006 233.375 C 253.948 233.461,252.978 233.647,251.850 233.788 C 250.722 233.929,249.800 234.114,249.800 234.199 C 249.800 234.284,249.215 234.416,248.500 234.493 C 247.688 234.580,247.200 234.723,247.200 234.875 C 247.200 235.033,246.517 235.205,245.259 235.364 C 244.191 235.499,243.269 235.680,243.209 235.767 C 243.149 235.854,242.248 236.036,241.206 236.172 C 240.164 236.308,239.264 236.492,239.206 236.581 C 239.148 236.670,238.516 236.807,237.802 236.887 C 237.089 236.966,236.456 237.109,236.397 237.205 C 236.338 237.301,235.459 237.486,234.445 237.616 C 233.430 237.746,232.600 237.927,232.600 238.019 C 232.600 238.111,232.150 238.246,231.600 238.319 C 231.050 238.392,230.600 238.530,230.600 238.626 C 230.600 238.722,230.330 238.800,230.000 238.800 C 229.670 238.800,229.400 238.884,229.400 238.986 C 229.400 239.088,228.905 239.233,228.300 239.309 C 227.695 239.384,227.200 239.514,227.200 239.596 C 227.200 239.679,226.525 239.866,225.700 240.013 C 224.875 240.160,224.200 240.335,224.200 240.403 C 224.200 240.471,223.615 240.643,222.900 240.785 C 222.185 240.927,221.600 241.113,221.600 241.199 C 221.600 241.284,221.105 241.416,220.500 241.491 C 219.895 241.567,219.400 241.704,219.400 241.797 C 219.400 241.889,219.040 242.026,218.600 242.100 C 218.160 242.174,217.800 242.317,217.800 242.418 C 217.800 242.518,217.620 242.600,217.400 242.600 C 217.180 242.600,217.000 242.671,217.000 242.759 C 217.000 242.846,216.460 243.037,215.800 243.184 C 215.140 243.330,214.600 243.521,214.600 243.607 C 214.600 243.694,214.240 243.826,213.800 243.900 C 213.360 243.974,213.000 244.117,213.000 244.218 C 213.000 244.318,212.819 244.400,212.597 244.400 C 212.049 244.400,210.600 244.863,210.600 245.039 C 210.600 245.116,210.060 245.286,209.400 245.416 C 208.675 245.559,208.200 245.754,208.200 245.910 C 208.200 246.052,207.907 246.232,207.550 246.309 C 207.193 246.387,206.853 246.524,206.795 246.614 C 206.738 246.704,206.243 246.893,205.695 247.035 C 205.148 247.177,204.655 247.342,204.600 247.401 C 204.420 247.594,203.388 248.000,203.076 248.000 C 202.909 248.000,202.636 248.135,202.471 248.300 C 202.306 248.465,201.998 248.600,201.786 248.600 C 201.574 248.600,201.400 248.673,201.400 248.762 C 201.400 248.851,200.950 249.040,200.400 249.181 C 199.846 249.323,199.400 249.553,199.400 249.696 C 199.400 249.839,198.995 250.075,198.500 250.222 C 198.005 250.368,197.600 250.551,197.600 250.628 C 197.600 250.705,197.330 250.828,197.000 250.900 C 196.670 250.972,196.400 251.111,196.400 251.208 C 196.400 251.305,196.040 251.492,195.600 251.624 C 195.160 251.755,194.800 251.939,194.800 252.032 C 194.800 252.124,194.626 252.200,194.414 252.200 C 194.202 252.200,193.898 252.331,193.738 252.490 C 193.579 252.650,193.212 252.839,192.924 252.912 C 192.636 252.984,192.400 253.124,192.400 253.222 C 192.400 253.320,192.265 253.400,192.100 253.400 C 191.935 253.400,191.800 253.489,191.800 253.597 C 191.800 253.706,191.395 253.896,190.900 254.021 C 190.405 254.146,190.000 254.327,190.000 254.424 C 190.000 254.521,189.862 254.600,189.694 254.600 C 189.525 254.600,189.341 254.722,189.283 254.871 C 189.226 255.021,188.824 255.260,188.390 255.403 C 187.955 255.547,187.600 255.725,187.600 255.800 C 187.600 255.875,187.242 256.054,186.804 256.199 C 186.365 256.343,185.955 256.628,185.890 256.831 C 185.826 257.034,185.644 257.200,185.487 257.200 C 185.329 257.200,185.200 257.273,185.200 257.363 C 185.200 257.452,184.885 257.649,184.500 257.800 C 184.115 257.951,183.800 258.148,183.800 258.237 C 183.800 258.327,183.664 258.400,183.497 258.400 C 183.114 258.400,182.350 258.823,182.140 259.150 C 182.052 259.288,181.850 259.400,181.690 259.400 C 181.531 259.400,181.400 259.479,181.400 259.576 C 181.400 259.672,181.130 259.863,180.800 260.000 C 180.470 260.137,180.200 260.358,180.200 260.492 C 180.200 260.626,179.845 260.853,179.410 260.997 C 178.976 261.140,178.574 261.379,178.517 261.529 C 178.459 261.678,178.296 261.800,178.154 261.800 C 178.012 261.800,177.784 261.980,177.646 262.200 C 177.509 262.420,177.262 262.600,177.098 262.600 C 176.934 262.600,176.800 262.683,176.800 262.784 C 176.800 262.886,176.493 263.070,176.118 263.194 C 175.742 263.318,175.385 263.550,175.324 263.710 C 175.263 263.869,175.075 264.000,174.906 264.000 C 174.738 264.000,174.600 264.102,174.600 264.227 C 174.600 264.488,173.668 265.400,173.401 265.400 C 173.303 265.400,173.105 265.567,172.961 265.771 C 172.818 265.976,172.489 266.209,172.231 266.291 C 171.763 266.439,170.400 267.742,170.400 268.042 C 170.400 268.129,170.287 268.200,170.148 268.200 C 170.009 268.200,169.673 268.470,169.400 268.800 C 169.127 269.130,168.813 269.405,168.702 269.411 C 168.591 269.417,168.095 269.868,167.600 270.414 C 166.374 271.766,165.212 272.927,164.014 274.000 C 163.461 274.495,163.006 274.995,163.004 275.111 C 162.998 275.442,161.971 276.600,161.684 276.600 C 161.543 276.600,161.371 276.778,161.302 276.995 C 161.233 277.212,160.875 277.700,160.508 278.079 C 160.140 278.457,159.781 279.032,159.710 279.355 C 159.639 279.678,159.374 280.053,159.121 280.189 C 158.868 280.324,158.540 280.742,158.393 281.117 C 158.246 281.493,158.014 281.800,157.878 281.800 C 157.742 281.800,157.521 282.137,157.387 282.550 C 157.253 282.963,157.021 283.372,156.872 283.460 C 156.722 283.548,156.600 283.750,156.600 283.910 C 156.600 284.069,156.524 284.200,156.432 284.200 C 156.339 284.200,156.155 284.560,156.024 285.000 C 155.892 285.440,155.715 285.800,155.630 285.800 C 155.545 285.800,155.360 286.250,155.219 286.800 C 155.078 287.350,154.891 287.800,154.803 287.800 C 154.715 287.800,154.587 288.025,154.518 288.300 C 154.449 288.575,154.271 288.800,154.124 288.800 C 153.957 288.800,153.758 289.255,153.600 290.000 C 153.460 290.660,153.274 291.200,153.186 291.200 C 153.098 291.200,152.913 291.875,152.774 292.700 C 152.635 293.525,152.460 294.200,152.384 294.200 C 152.308 294.200,152.182 294.718,152.103 295.350 C 152.024 295.983,151.884 296.547,151.791 296.605 C 151.252 296.941,151.252 309.459,151.791 309.795 C 151.884 309.853,152.024 310.418,152.103 311.050 C 152.182 311.683,152.305 312.200,152.377 312.200 C 152.450 312.200,152.624 312.805,152.764 313.544 C 152.904 314.283,153.088 314.936,153.172 314.994 C 153.256 315.052,153.438 315.618,153.577 316.250 C 153.728 316.940,153.934 317.400,154.092 317.400 C 154.237 317.400,154.415 317.715,154.487 318.100 C 154.559 318.485,154.685 318.800,154.768 318.800 C 154.850 318.800,155.025 319.205,155.158 319.700 C 155.290 320.195,155.477 320.600,155.573 320.600 C 155.669 320.600,155.861 321.005,156.000 321.500 C 156.139 321.995,156.323 322.400,156.410 322.400 C 156.497 322.400,156.628 322.670,156.700 323.000 C 156.772 323.330,156.909 323.600,157.003 323.600 C 157.097 323.600,157.288 323.915,157.427 324.300 C 157.566 324.685,157.802 325.000,157.951 325.000 C 158.099 325.000,158.315 325.270,158.430 325.600 C 158.545 325.930,158.720 326.200,158.820 326.200 C 158.919 326.200,159.000 326.317,159.000 326.459 C 159.000 326.723,159.415 327.342,160.050 328.024 C 160.243 328.231,160.400 328.468,160.400 328.550 C 160.400 328.633,160.625 328.961,160.900 329.281 C 161.175 329.601,161.400 329.983,161.400 330.131 C 161.400 330.279,161.538 330.400,161.706 330.400 C 161.875 330.400,162.068 330.558,162.137 330.750 C 162.205 330.943,162.562 331.392,162.930 331.750 C 163.299 332.107,163.600 332.490,163.600 332.601 C 163.600 332.712,163.825 332.998,164.100 333.237 C 164.375 333.476,164.600 333.780,164.600 333.912 C 164.600 334.044,164.858 334.258,165.173 334.389 C 165.489 334.520,165.871 334.868,166.023 335.163 C 166.175 335.458,166.712 336.105,167.216 336.600 C 167.720 337.095,168.190 337.658,168.260 337.850 C 168.330 338.043,168.522 338.200,168.687 338.200 C 168.851 338.200,169.082 338.379,169.199 338.598 C 169.316 338.816,169.634 339.051,169.906 339.119 C 170.178 339.188,170.400 339.302,170.400 339.374 C 170.400 339.597,172.336 341.600,172.552 341.600 C 172.665 341.600,172.809 341.735,172.872 341.900 C 172.936 342.065,173.076 342.200,173.184 342.200 C 173.293 342.200,173.768 342.591,174.241 343.068 C 174.713 343.546,175.303 344.044,175.550 344.175 C 175.798 344.307,176.000 344.539,176.000 344.692 C 176.000 344.844,176.301 345.068,176.669 345.190 C 177.037 345.311,177.457 345.633,177.603 345.905 C 177.748 346.177,177.970 346.400,178.096 346.400 C 178.222 346.400,178.499 346.558,178.712 346.751 C 178.926 346.945,179.347 347.213,179.650 347.347 C 179.952 347.481,180.200 347.683,180.200 347.796 C 180.200 347.908,180.343 348.000,180.519 348.000 C 180.694 348.000,180.883 348.174,180.939 348.387 C 180.994 348.601,181.301 348.866,181.620 348.977 C 181.939 349.088,182.200 349.279,182.200 349.400 C 182.200 349.521,182.470 349.715,182.800 349.830 C 183.130 349.945,183.400 350.111,183.400 350.198 C 183.400 350.285,183.625 350.413,183.900 350.482 C 184.175 350.551,184.400 350.698,184.400 350.809 C 184.400 350.919,184.625 351.095,184.900 351.200 C 185.175 351.305,185.400 351.482,185.400 351.595 C 185.400 351.708,185.538 351.800,185.706 351.800 C 185.875 351.800,186.064 351.935,186.128 352.100 C 186.191 352.265,186.359 352.400,186.500 352.400 C 186.641 352.400,186.809 352.535,186.872 352.700 C 186.936 352.865,187.170 353.000,187.394 353.000 C 187.617 353.000,187.800 353.079,187.800 353.176 C 187.800 353.272,188.070 353.463,188.400 353.600 C 188.730 353.737,189.000 353.917,189.000 354.000 C 189.000 354.083,189.293 354.270,189.650 354.414 C 190.008 354.558,190.372 354.794,190.460 354.938 C 190.548 355.082,190.754 355.200,190.919 355.200 C 191.084 355.200,191.443 355.425,191.718 355.700 C 191.993 355.975,192.339 356.200,192.488 356.200 C 192.636 356.200,192.809 356.335,192.872 356.500 C 192.936 356.665,193.111 356.800,193.263 356.800 C 193.415 356.800,193.746 356.980,194.000 357.200 C 194.254 357.420,194.627 357.600,194.831 357.600 C 195.034 357.600,195.200 357.679,195.200 357.776 C 195.200 357.872,195.470 358.063,195.800 358.200 C 196.130 358.337,196.400 358.510,196.400 358.584 C 196.400 358.659,196.715 358.834,197.100 358.973 C 197.485 359.112,197.800 359.345,197.800 359.491 C 197.800 359.636,198.106 359.813,198.481 359.883 C 198.855 359.953,199.209 360.135,199.267 360.287 C 199.325 360.438,199.649 360.623,199.986 360.697 C 200.324 360.771,200.600 360.915,200.600 361.016 C 200.600 361.117,200.731 361.200,200.890 361.200 C 201.050 361.200,201.252 361.316,201.340 361.459 C 201.428 361.601,201.883 361.840,202.350 361.991 C 202.817 362.141,203.200 362.332,203.200 362.416 C 203.200 362.500,203.481 362.630,203.824 362.705 C 204.190 362.786,204.489 362.997,204.546 363.216 C 204.608 363.451,204.897 363.638,205.322 363.717 C 205.695 363.787,206.000 363.921,206.000 364.014 C 206.000 364.108,206.360 364.292,206.800 364.424 C 207.240 364.555,207.600 364.729,207.600 364.810 C 207.600 364.890,208.005 365.075,208.500 365.222 C 208.995 365.368,209.400 365.558,209.400 365.644 C 209.400 365.730,209.538 365.800,209.706 365.800 C 209.875 365.800,210.061 365.927,210.121 366.082 C 210.180 366.237,210.465 366.423,210.753 366.495 C 211.041 366.568,211.422 366.795,211.601 367.001 C 211.780 367.207,212.347 367.482,212.863 367.612 C 213.378 367.741,213.800 367.917,213.800 368.001 C 213.800 368.086,214.115 368.215,214.500 368.287 C 214.885 368.359,215.200 368.504,215.200 368.610 C 215.200 368.715,215.605 368.910,216.100 369.042 C 216.595 369.175,217.000 369.340,217.000 369.409 C 217.000 369.479,217.360 369.655,217.800 369.800 C 218.240 369.945,218.600 370.177,218.600 370.316 C 218.600 370.455,218.870 370.628,219.200 370.700 C 219.530 370.772,219.800 370.914,219.800 371.014 C 219.800 371.113,220.166 371.254,220.613 371.325 C 221.061 371.397,221.541 371.570,221.682 371.710 C 221.822 371.850,222.311 372.077,222.768 372.214 C 223.226 372.351,223.600 372.539,223.600 372.632 C 223.600 372.724,223.819 372.800,224.086 372.800 C 224.353 372.800,224.705 372.933,224.867 373.096 C 225.030 373.259,225.576 373.502,226.082 373.637 C 226.587 373.772,227.000 373.981,227.000 374.100 C 227.000 374.219,227.405 374.425,227.900 374.558 C 228.395 374.690,228.800 374.879,228.800 374.977 C 228.800 375.075,229.115 375.215,229.500 375.287 C 229.885 375.359,230.200 375.498,230.200 375.595 C 230.200 375.692,230.695 375.874,231.300 376.000 C 231.905 376.126,232.400 376.298,232.400 376.382 C 232.400 376.467,232.895 376.655,233.500 376.800 C 234.105 376.945,234.600 377.133,234.600 377.218 C 234.600 377.302,235.095 377.433,235.700 377.509 C 236.390 377.595,236.800 377.742,236.800 377.902 C 236.800 378.072,237.389 378.242,238.550 378.405 C 239.513 378.541,240.364 378.753,240.443 378.876 C 240.659 379.216,253.037 379.190,253.150 378.850 C 253.196 378.712,253.428 378.600,253.665 378.600 C 254.749 378.600,257.200 378.094,257.200 377.870 C 257.200 377.728,257.650 377.573,258.300 377.491 C 258.905 377.416,259.400 377.290,259.400 377.213 C 259.400 377.135,260.093 376.964,260.940 376.832 C 261.788 376.701,262.530 376.519,262.590 376.429 C 262.651 376.339,263.397 376.148,264.250 376.005 C 265.103 375.861,265.800 375.674,265.800 375.589 C 265.800 375.505,266.160 375.374,266.600 375.300 C 267.040 375.226,267.400 375.101,267.400 375.022 C 267.400 374.944,268.075 374.760,268.900 374.613 C 269.872 374.440,270.400 374.254,270.400 374.083 C 270.400 373.921,270.861 373.729,271.600 373.584 C 272.260 373.454,272.800 373.275,272.800 373.186 C 272.800 373.097,273.205 372.964,273.700 372.890 C 274.195 372.815,274.600 372.685,274.600 372.600 C 274.600 372.515,274.848 372.396,275.150 372.335 C 276.308 372.102,276.904 371.936,277.000 371.819 C 277.150 371.638,278.478 371.200,278.878 371.200 C 279.071 371.200,279.364 371.065,279.529 370.900 C 279.694 370.735,280.002 370.600,280.214 370.600 C 280.426 370.600,280.600 370.471,280.600 370.314 C 280.600 370.131,280.995 369.940,281.700 369.783 C 282.305 369.647,282.800 369.470,282.800 369.388 C 282.800 369.307,283.250 369.132,283.800 369.000 C 284.350 368.868,284.800 368.685,284.800 368.594 C 284.800 368.502,285.002 368.364,285.250 368.287 C 285.498 368.209,285.745 368.089,285.800 368.020 C 285.855 367.950,286.350 367.777,286.900 367.635 C 287.450 367.493,287.930 367.292,287.967 367.189 C 288.003 367.085,288.122 367.000,288.231 367.000 C 288.340 367.000,288.564 366.865,288.729 366.700 C 288.894 366.535,289.202 366.400,289.414 366.400 C 289.626 366.400,289.800 366.314,289.800 366.209 C 289.800 366.104,290.115 365.959,290.500 365.887 C 290.885 365.815,291.200 365.690,291.200 365.609 C 291.200 365.529,291.560 365.355,292.000 365.224 C 292.440 365.092,292.800 364.898,292.800 364.792 C 292.800 364.686,292.917 364.600,293.060 364.600 C 293.411 364.600,294.396 364.133,294.398 363.966 C 294.399 363.892,294.670 363.772,295.000 363.700 C 295.330 363.628,295.600 363.444,295.600 363.292 C 295.600 363.140,295.980 362.905,296.450 362.768 C 296.918 362.631,297.345 362.465,297.400 362.398 C 297.455 362.332,297.793 362.159,298.150 362.014 C 298.507 361.870,298.800 361.672,298.800 361.576 C 298.800 361.479,298.929 361.400,299.086 361.400 C 299.243 361.400,299.494 361.278,299.643 361.128 C 299.792 360.979,300.249 360.736,300.657 360.588 C 301.066 360.440,301.400 360.255,301.400 360.176 C 301.400 360.097,301.661 359.974,301.980 359.904 C 302.302 359.834,302.602 359.614,302.655 359.410 C 302.710 359.200,303.013 358.985,303.359 358.909 C 303.693 358.836,304.012 358.657,304.067 358.513 C 304.123 358.369,304.482 358.192,304.865 358.120 C 305.248 358.048,305.612 357.857,305.674 357.695 C 305.737 357.533,305.925 357.400,306.094 357.400 C 306.262 357.400,306.400 357.308,306.400 357.195 C 306.400 357.082,306.625 356.905,306.900 356.800 C 307.175 356.695,307.400 356.528,307.400 356.427 C 307.400 356.327,307.710 356.186,308.089 356.115 C 308.525 356.033,308.823 355.842,308.902 355.593 C 308.971 355.377,309.151 355.200,309.304 355.200 C 309.456 355.200,309.652 355.087,309.740 354.950 C 309.828 354.812,310.170 354.565,310.500 354.400 C 310.830 354.235,311.172 353.988,311.260 353.850 C 311.348 353.713,311.596 353.600,311.812 353.600 C 312.028 353.600,312.358 353.420,312.546 353.200 C 312.735 352.980,312.998 352.800,313.131 352.800 C 313.264 352.800,313.430 352.620,313.500 352.400 C 313.570 352.180,313.751 352.000,313.904 352.000 C 314.056 352.000,314.252 351.887,314.340 351.750 C 314.428 351.612,314.770 351.364,315.100 351.200 C 315.800 350.850,316.105 350.631,316.559 350.150 C 316.740 349.957,317.007 349.800,317.151 349.800 C 317.295 349.800,317.461 349.673,317.521 349.518 C 317.580 349.363,317.892 349.127,318.214 348.994 C 318.536 348.861,318.800 348.633,318.800 348.489 C 318.800 348.345,318.989 348.167,319.220 348.094 C 319.451 348.020,319.797 347.812,319.989 347.630 C 320.182 347.449,320.583 347.126,320.882 346.912 C 321.181 346.699,321.613 346.362,321.843 346.162 C 322.073 345.963,322.382 345.800,322.531 345.800 C 322.679 345.800,322.800 345.708,322.800 345.596 C 322.800 345.483,323.025 345.289,323.300 345.164 C 323.575 345.038,323.800 344.861,323.800 344.770 C 323.800 344.528,325.020 343.400,325.282 343.400 C 325.404 343.400,325.616 343.220,325.754 343.000 C 325.891 342.780,326.122 342.600,326.268 342.600 C 326.413 342.600,326.649 342.382,326.792 342.115 C 326.935 341.849,327.265 341.577,327.526 341.511 C 327.787 341.446,328.000 341.308,328.000 341.204 C 328.000 340.921,329.727 339.200,330.011 339.200 C 330.277 339.200,331.594 337.997,331.598 337.750 C 331.599 337.667,332.013 337.217,332.518 336.750 C 333.023 336.282,333.795 335.566,334.233 335.159 C 334.672 334.751,335.204 334.362,335.415 334.295 C 335.627 334.228,335.800 334.049,335.800 333.898 C 335.800 333.747,335.967 333.505,336.171 333.361 C 336.376 333.218,336.607 332.898,336.685 332.650 C 336.763 332.403,336.933 332.199,337.063 332.197 C 337.300 332.194,339.200 330.347,339.200 330.120 C 339.200 329.894,340.683 328.600,340.942 328.600 C 341.084 328.600,341.200 328.533,341.200 328.450 C 341.200 328.368,341.425 328.039,341.700 327.719 C 341.975 327.399,342.200 327.073,342.200 326.993 C 342.200 326.864,342.800 326.172,344.275 324.600 C 344.533 324.325,344.978 323.920,345.263 323.700 C 345.548 323.480,345.786 323.163,345.791 322.995 C 345.796 322.827,346.048 322.410,346.350 322.070 C 346.653 321.729,347.068 321.217,347.273 320.931 C 347.479 320.646,347.807 320.361,348.004 320.299 C 348.200 320.237,348.421 319.945,348.494 319.652 C 348.568 319.358,348.802 318.996,349.014 318.848 C 349.226 318.699,349.404 318.470,349.408 318.339 C 349.413 318.207,349.683 317.879,350.008 317.609 C 350.334 317.340,350.600 316.999,350.600 316.853 C 350.600 316.707,350.731 316.537,350.890 316.476 C 351.050 316.415,351.279 316.067,351.399 315.703 C 351.521 315.334,351.790 314.997,352.009 314.940 C 352.224 314.884,352.400 314.694,352.400 314.519 C 352.400 314.343,352.492 314.200,352.605 314.200 C 352.718 314.200,352.895 313.975,353.000 313.700 C 353.105 313.425,353.274 313.200,353.375 313.200 C 353.477 313.200,353.655 312.930,353.770 312.600 C 353.885 312.270,354.074 312.000,354.190 312.000 C 354.305 312.000,354.400 311.823,354.400 311.607 C 354.400 311.391,354.570 311.123,354.777 311.012 C 354.984 310.901,355.211 310.583,355.281 310.305 C 355.351 310.027,355.530 309.800,355.680 309.800 C 355.829 309.800,356.063 309.530,356.200 309.200 C 356.337 308.870,356.520 308.600,356.608 308.600 C 356.696 308.600,356.828 308.330,356.900 308.000 C 356.972 307.670,357.117 307.400,357.221 307.400 C 357.325 307.400,357.495 307.175,357.600 306.900 C 357.705 306.625,357.882 306.400,357.995 306.400 C 358.108 306.400,358.200 306.262,358.200 306.094 C 358.200 305.925,358.335 305.736,358.500 305.672 C 358.665 305.609,358.800 305.429,358.800 305.272 C 358.800 305.116,358.935 304.936,359.100 304.872 C 359.265 304.809,359.400 304.587,359.400 304.379 C 359.400 304.170,359.473 304.000,359.563 304.000 C 359.652 304.000,359.849 303.685,360.000 303.300 C 360.151 302.915,360.348 302.600,360.437 302.600 C 360.527 302.600,360.600 302.462,360.600 302.294 C 360.600 302.125,360.733 301.937,360.895 301.874 C 361.057 301.812,361.248 301.448,361.320 301.065 C 361.392 300.682,361.569 300.323,361.713 300.267 C 361.857 300.212,362.035 299.898,362.107 299.570 C 362.179 299.242,362.364 298.924,362.519 298.865 C 362.673 298.806,362.800 298.665,362.800 298.552 C 362.800 298.439,362.966 298.201,363.168 298.023 C 363.370 297.846,363.596 297.459,363.668 297.164 C 363.741 296.869,363.922 296.507,364.070 296.358 C 364.218 296.210,364.457 295.734,364.600 295.300 C 364.743 294.866,364.982 294.390,365.130 294.241 C 365.279 294.093,365.400 293.843,365.400 293.686 C 365.400 293.529,365.486 293.400,365.592 293.400 C 365.698 293.400,365.892 293.040,366.024 292.600 C 366.155 292.160,366.370 291.800,366.500 291.800 C 366.630 291.800,366.855 291.440,367.000 291.000 C 367.145 290.560,367.330 290.200,367.410 290.200 C 367.490 290.200,367.615 289.885,367.687 289.500 C 367.759 289.115,367.900 288.800,368.001 288.800 C 368.102 288.800,368.292 288.440,368.424 288.000 C 368.555 287.560,368.733 287.200,368.817 287.200 C 368.902 287.200,369.074 286.705,369.200 286.100 C 369.326 285.495,369.510 285.000,369.610 285.000 C 369.710 285.000,369.849 284.775,369.918 284.500 C 369.987 284.225,370.162 284.000,370.308 284.000 C 370.467 284.000,370.662 283.563,370.800 282.900 C 370.926 282.295,371.101 281.800,371.190 281.800 C 371.280 281.800,371.454 281.395,371.579 280.900 C 371.704 280.405,371.893 280.000,372.001 280.000 C 372.108 280.000,372.253 279.640,372.323 279.200 C 372.394 278.760,372.521 278.400,372.606 278.400 C 372.691 278.400,372.868 277.950,373.000 277.400 C 373.132 276.850,373.313 276.400,373.402 276.400 C 373.492 276.400,373.626 276.040,373.700 275.600 C 373.774 275.160,373.917 274.800,374.018 274.800 C 374.118 274.800,374.200 274.620,374.200 274.400 C 374.200 274.180,374.280 274.000,374.378 274.000 C 374.475 274.000,374.615 273.685,374.687 273.300 C 374.759 272.915,374.894 272.600,374.986 272.600 C 375.079 272.600,375.265 272.015,375.400 271.300 C 375.535 270.585,375.720 270.000,375.810 270.000 C 375.901 270.000,376.036 269.595,376.110 269.100 C 376.185 268.605,376.309 268.200,376.386 268.200 C 376.463 268.200,376.643 267.615,376.785 266.900 C 376.927 266.185,377.124 265.600,377.222 265.600 C 377.320 265.600,377.400 265.420,377.400 265.200 C 377.400 264.980,377.477 264.800,377.572 264.800 C 377.667 264.800,377.799 264.334,377.867 263.765 C 377.934 263.196,378.078 262.676,378.185 262.609 C 378.293 262.542,378.442 262.108,378.516 261.644 C 378.590 261.180,378.719 260.800,378.801 260.800 C 378.884 260.800,379.063 260.080,379.200 259.200 C 379.337 258.320,379.510 257.600,379.586 257.600 C 379.661 257.600,379.842 256.790,379.989 255.800 C 380.136 254.810,380.326 254.000,380.412 254.000 C 380.498 254.000,380.631 253.415,380.707 252.700 C 380.799 251.847,380.935 251.400,381.104 251.400 C 381.281 251.400,381.438 250.748,381.609 249.300 C 381.746 248.145,381.922 247.200,381.999 247.200 C 382.077 247.200,382.258 246.097,382.402 244.750 C 382.546 243.403,382.735 242.253,382.821 242.195 C 382.908 242.137,383.042 241.259,383.118 240.245 C 383.195 239.230,383.319 238.400,383.394 238.400 C 383.534 238.400,384.006 233.177,384.002 231.667 C 384.001 231.208,384.086 230.803,384.192 230.767 C 384.300 230.729,384.444 228.846,384.523 226.450 C 384.599 224.113,384.738 222.200,384.831 222.200 C 384.924 222.200,385.000 200.825,385.000 174.700 C 385.000 136.815,384.949 127.207,384.750 127.234 C 384.613 127.252,384.163 127.303,383.750 127.346 " stroke="none" fill="#045395" fill-rule="evenodd"></path><path id="path2" d="" stroke="none" fill="#04b0100" fill-rule="evenodd"></path><path id="path3" d="" stroke="none" fill="#04b0100" fill-rule="evenodd"></path><path id="path4" d="" stroke="none" fill="#04b0100" fill-rule="evenodd"></path></g></svg>