<svg id="svg" version="1.1" xmlns="http://www.w3.org/2000/svg" xmlns:xlink="http://www.w3.org/1999/xlink" width="400" height="400" viewBox="0, 0, 400,400"><g id="svgg"><path id="path0" d="M39.458 135.440 C 7.624 201.749,6.124 205.000,4.612 210.958 C 1.992 221.289,5.204 234.520,12.743 244.444 C 14.251 246.430,27.060 259.490,47.432 279.815 C 65.197 297.537,78.872 310.954,77.823 309.630 C 75.553 306.766,73.271 302.500,72.403 299.498 C 70.497 292.902,70.621 300.188,70.395 181.551 L 70.185 71.436 39.458 135.440 M199.629 199.811 L 325.740 325.926 360.463 325.926 L 395.185 325.926 395.185 246.013 L 395.185 166.100 353.426 124.399 C 306.691 77.729,308.304 79.174,299.717 76.311 C 291.880 73.699,301.861 73.911,181.667 73.798 L 73.519 73.696 199.629 199.811 " stroke="none" fill="#746b04" fill-rule="evenodd"></path><path id="path1" d="M211.968 4.069 C 207.656 4.448,203.135 5.355,199.815 6.507 C 198.389 7.002,168.806 21.646,134.074 39.050 L 70.926 70.692 178.519 70.827 C 292.012 70.970,287.640 70.902,294.387 72.623 C 298.166 73.587,304.013 76.483,307.419 79.079 C 309.197 80.434,298.344 69.325,277.037 47.981 C 258.806 29.719,242.806 13.973,241.481 12.991 C 232.084 6.021,222.546 3.138,211.968 4.069 M70.741 179.288 C 70.741 303.230,70.527 296.001,74.422 303.889 C 76.983 309.077,80.060 312.341,121.998 354.352 L 163.131 395.556 244.528 395.556 L 325.926 395.556 325.865 360.833 L 325.803 326.111 198.272 198.704 L 70.741 71.298 70.741 179.288 " stroke="none" fill="#f9b204" fill-rule="evenodd"></path><path id="path2" d="M72.029 72.214 L 73.086 73.318 180.710 73.443 C 278.227 73.556,288.646 73.625,291.667 74.172 C 297.888 75.298,304.308 77.517,307.508 79.645 C 308.698 80.437,308.697 80.435,307.407 79.317 C 304.076 76.428,297.992 73.536,292.963 72.450 C 286.941 71.150,284.111 71.117,177.246 71.114 L 70.973 71.111 72.029 72.214 " stroke="none" fill="#948c04" fill-rule="evenodd"></path><path id="path3" d="M70.553 177.778 C 70.553 236.546,70.596 260.588,70.648 231.204 C 70.700 201.819,70.700 153.736,70.648 124.352 C 70.596 94.968,70.553 119.009,70.553 177.778 M73.333 73.612 C 73.333 73.765,95.708 96.223,123.056 123.519 L 172.778 173.148 123.149 123.427 L 73.521 73.705 178.890 73.611 L 284.259 73.517 178.796 73.425 C 120.792 73.375,73.333 73.459,73.333 73.612 M199.259 199.815 C 204.451 205.009,208.782 209.259,208.883 209.259 C 208.985 209.259,204.821 205.009,199.630 199.815 C 194.438 194.620,190.107 190.370,190.005 190.370 C 189.904 190.370,194.068 194.620,199.259 199.815 M275.741 276.296 C 303.036 303.593,325.453 325.926,325.555 325.926 C 325.656 325.926,303.407 303.593,276.111 276.296 C 248.815 249.000,226.399 226.667,226.297 226.667 C 226.195 226.667,248.445 249.000,275.741 276.296 " stroke="none" fill="#968104" fill-rule="evenodd"></path><path id="path4" d="M70.741 71.038 C 70.741 71.202,71.366 71.911,72.130 72.613 L 73.519 73.889 72.243 72.501 L 70.967 71.112 175.761 71.019 L 280.556 70.925 175.648 70.833 C 117.949 70.782,70.741 70.875,70.741 71.038 M285.278 71.366 C 285.634 71.460,286.218 71.460,286.574 71.366 C 286.931 71.273,286.639 71.197,285.926 71.197 C 285.213 71.197,284.921 71.273,285.278 71.366 M181.111 181.667 C 185.895 186.454,189.892 190.370,189.994 190.370 C 190.096 190.370,186.265 186.454,181.481 181.667 C 176.698 176.880,172.700 172.963,172.599 172.963 C 172.497 172.963,176.327 176.880,181.111 181.667 M217.407 217.963 C 222.191 222.750,226.189 226.667,226.290 226.667 C 226.392 226.667,222.562 222.750,217.778 217.963 C 212.994 213.176,208.997 209.259,208.895 209.259 C 208.793 209.259,212.624 213.176,217.407 217.963 M70.827 290.000 C 70.827 290.713,70.903 291.005,70.996 290.648 C 71.089 290.292,71.089 289.708,70.996 289.352 C 70.903 288.995,70.827 289.287,70.827 290.000 M80.370 312.708 C 80.370 312.772,80.912 313.314,81.574 313.912 L 82.778 315.000 81.690 313.796 C 80.676 312.674,80.370 312.422,80.370 312.708 " stroke="none" fill="#b69204" fill-rule="evenodd"></path></g></svg>