<svg id="svg" version="1.1" xmlns="http://www.w3.org/2000/svg" xmlns:xlink="http://www.w3.org/1999/xlink" width="400" height="400" viewBox="0, 0, 400,400"><g id="svgg"><path id="path0" d="M211.968 4.069 C 207.656 4.448,203.135 5.355,199.815 6.507 C 198.389 7.002,168.806 21.647,134.074 39.052 L 70.926 70.696 178.704 70.825 C 237.981 70.897,287.065 71.078,287.778 71.229 C 288.491 71.380,290.405 71.762,292.031 72.077 C 297.458 73.129,303.293 75.795,307.822 79.293 C 308.918 80.139,294.981 65.969,276.852 47.804 C 258.722 29.639,242.806 13.973,241.481 12.991 C 232.084 6.021,222.546 3.138,211.968 4.069 M70.845 181.680 C 70.954 284.572,71.008 292.626,71.598 295.490 C 72.910 301.852,75.215 306.196,80.673 312.593 C 81.803 313.917,100.822 333.125,122.937 355.278 L 163.147 395.556 244.536 395.556 L 325.926 395.556 325.926 360.741 L 325.926 325.926 209.853 325.926 L 93.779 325.926 88.502 320.463 C 80.555 312.235,77.279 307.010,75.388 299.547 C 73.487 292.043,73.572 297.139,73.439 181.638 L 73.315 73.461 72.021 72.207 L 70.728 70.953 70.845 181.680 " stroke="none" fill="#38e848" fill-rule="evenodd"></path><path id="path1" d="M123.826 71.019 C 153.125 71.071,200.958 71.071,230.123 71.019 C 259.287 70.966,235.315 70.923,176.852 70.923 C 118.389 70.923,94.527 70.966,123.826 71.019 M73.442 181.852 C 73.538 267.587,73.662 290.463,74.041 292.963 C 75.195 300.576,77.472 306.784,80.917 311.713 C 81.845 313.040,82.506 314.285,82.386 314.480 C 82.265 314.674,82.323 314.787,82.513 314.731 C 82.703 314.675,85.341 317.179,88.374 320.294 L 93.889 325.959 209.537 325.850 L 325.186 325.741 199.253 199.815 L 73.321 73.889 73.442 181.852 " stroke="none" fill="#27db34" fill-rule="evenodd"></path><path id="path2" d="M39.458 135.440 C 7.624 201.749,6.124 205.000,4.612 210.958 C 1.992 221.289,5.204 234.520,12.743 244.444 C 14.251 246.430,27.060 259.490,47.432 279.815 C 65.197 297.537,78.875 310.956,77.828 309.635 C 74.482 305.410,72.494 300.922,71.235 294.753 C 70.653 291.903,70.589 283.241,70.395 181.551 L 70.185 71.436 39.458 135.440 M199.629 199.811 L 325.740 325.926 360.463 325.926 L 395.185 325.926 395.185 246.013 L 395.185 166.100 353.426 124.399 C 306.691 77.729,308.304 79.174,299.717 76.311 C 291.880 73.699,301.861 73.911,181.667 73.798 L 73.519 73.696 199.629 199.811 " stroke="none" fill="#047b14" fill-rule="evenodd"></path><path id="path3" d="M72.224 72.410 L 73.483 73.708 180.167 73.703 C 287.942 73.698,289.786 73.719,295.556 75.027 C 300.355 76.116,305.770 78.386,308.889 80.618 C 309.844 81.302,309.746 81.153,308.519 80.055 C 304.975 76.886,299.275 73.970,293.979 72.616 C 288.095 71.112,288.199 71.113,177.798 71.112 L 70.966 71.111 72.224 72.410 " stroke="none" fill="#249443" fill-rule="evenodd"></path><path id="path4" d="M70.553 177.778 C 70.553 236.546,70.596 260.588,70.648 231.204 C 70.700 201.819,70.700 153.736,70.648 124.352 C 70.596 94.968,70.553 119.009,70.553 177.778 M199.259 199.815 C 268.620 269.176,325.453 325.926,325.555 325.926 C 325.657 325.926,268.991 269.176,199.630 199.815 C 130.269 130.454,73.436 73.704,73.334 73.704 C 73.232 73.704,129.898 130.454,199.259 199.815 M80.741 313.148 C 81.432 313.861,82.080 314.444,82.182 314.444 C 82.284 314.444,81.802 313.861,81.111 313.148 C 80.420 312.435,79.771 311.852,79.670 311.852 C 79.568 311.852,80.050 312.435,80.741 313.148 " stroke="none" fill="#0c9424" fill-rule="evenodd"></path></g></svg>