<svg xmlns="http://www.w3.org/2000/svg" width="25.92" height="25.92" fill="none"><g clip-path="url(#a)"><path fill="#2ECC71" d="M14.602 22.213c-.510.620-1.544.281-1.555-.511l-.180-11.569h8.066c1.460 0 2.276 1.628 1.366 2.730z" style="fill:#2ecc71;fill:color(display-p3 .1804 .8 .4431);fill-opacity:1"/><path fill="url(#b)" fill-opacity=".8" d="M14.602 22.213c-.510.620-1.544.281-1.555-.511l-.180-11.569h8.066c1.460 0 2.276 1.628 1.366 2.730z"/><path fill="#2ECC71" d="M11.323 3.596c.510-.620 1.544-.281 1.555.511l.080 11.570H5.194c-1.461 0-2.276-1.628-1.367-2.732z" style="fill:#2ecc71;fill:color(display-p3 .1804 .8 .4431);fill-opacity:1"/></g><defs><linearGradient id="b" x1="9.689" x2="15.457" y1="8.501" y2="15.293" gradientUnits="userSpaceOnUse"><stop style="stop-color:black;stop-opacity:1"/><stop offset="1" stop-opacity="0" style="stop-color:none;stop-opacity:0"/></linearGradient><clipPath id="a"><path fill="#fff" d="M0 0h19.44v19.44H0z" style="fill:#fff;fill-opacity:1" transform="translate(3.24 3.24)"/></clipPath></defs></svg>