<svg id="svg" version="1.1" xmlns="http://www.w3.org/2000/svg" xmlns:xlink="http://www.w3.org/1999/xlink" width="400" height="400" viewBox="0, 0, 400,400"><g id="svgg"><path id="path0" d="M295.091 212.162 C 295.171 237.135,295.114 240.644,294.617 241.289 C 294.057 242.018,293.424 242.022,209.619 241.900 L 125.185 241.776 125.185 272.552 L 125.185 303.329 209.611 303.424 C 277.921 303.500,294.128 303.610,294.514 303.996 C 295.153 304.634,295.425 328.051,294.817 330.000 C 294.544 330.877,294.448 336.537,294.521 347.510 L 294.630 363.724 295.689 362.880 C 296.272 362.416,297.387 361.454,298.167 360.741 C 298.947 360.028,300.221 358.900,300.997 358.235 C 301.773 357.570,303.095 356.400,303.936 355.636 C 304.776 354.872,305.912 353.916,306.459 353.512 C 307.007 353.108,308.079 352.194,308.843 351.481 C 309.606 350.769,310.679 349.854,311.226 349.449 C 311.774 349.044,312.222 348.514,312.222 348.270 C 312.222 348.027,312.551 347.723,312.952 347.596 C 313.354 347.469,314.607 346.499,315.738 345.441 C 316.869 344.384,318.498 342.903,319.360 342.151 C 320.221 341.398,321.638 340.148,322.508 339.373 C 323.378 338.597,324.509 337.630,325.021 337.222 C 325.533 336.815,326.605 335.898,327.403 335.185 C 328.200 334.472,329.376 333.472,330.016 332.963 C 330.656 332.454,331.759 331.495,332.468 330.833 C 333.177 330.171,333.919 329.630,334.117 329.630 C 334.315 329.630,334.428 329.395,334.368 329.107 C 334.271 328.641,335.452 327.423,338.597 324.744 C 339.150 324.274,340.566 323.016,341.745 321.950 C 342.924 320.884,344.556 319.424,345.370 318.707 C 346.185 317.990,347.548 316.779,348.398 316.016 C 349.249 315.254,350.314 314.380,350.767 314.074 C 351.219 313.769,352.315 312.852,353.202 312.037 C 354.810 310.560,357.163 308.484,358.853 307.051 C 359.342 306.636,359.884 306.296,360.057 306.296 C 360.229 306.296,360.370 306.046,360.370 305.741 C 360.370 305.435,360.513 305.185,360.687 305.185 C 360.861 305.185,361.486 304.759,362.076 304.239 C 362.665 303.718,364.033 302.510,365.114 301.553 C 368.628 298.447,369.163 297.981,370.733 296.667 C 371.585 295.954,372.506 295.162,372.781 294.907 C 373.056 294.653,373.536 294.444,373.847 294.444 C 374.159 294.444,375.075 293.819,375.882 293.056 C 376.689 292.292,378.124 291.000,379.070 290.185 C 380.017 289.370,381.426 288.118,382.202 287.401 C 382.977 286.685,384.061 285.768,384.610 285.364 C 385.159 284.960,386.317 283.963,387.183 283.148 C 388.049 282.333,389.121 281.422,389.564 281.122 C 390.008 280.822,390.370 280.375,390.370 280.128 C 390.370 279.882,390.699 279.575,391.100 279.448 C 391.502 279.321,392.774 278.309,393.928 277.201 C 395.081 276.092,396.163 275.185,396.332 275.185 C 396.985 275.185,398.058 273.625,397.878 272.937 C 397.776 272.544,397.563 272.222,397.406 272.222 C 397.249 272.222,396.182 271.347,395.035 270.278 C 393.888 269.208,392.530 268.000,392.017 267.593 C 391.504 267.185,390.429 266.269,389.628 265.556 C 388.828 264.843,387.407 263.593,386.470 262.778 C 385.534 261.963,384.122 260.713,383.334 260.000 C 382.545 259.287,381.451 258.373,380.904 257.969 C 379.887 257.219,377.486 255.087,376.056 253.665 C 375.618 253.229,375.075 252.987,374.850 253.127 C 374.624 253.266,374.345 253.135,374.230 252.835 C 374.115 252.535,373.533 252.088,372.936 251.841 C 372.340 251.594,371.852 251.201,371.852 250.969 C 371.852 250.736,371.404 250.215,370.856 249.810 C 370.308 249.405,369.229 248.491,368.457 247.778 C 367.686 247.065,366.592 246.099,366.027 245.632 C 363.826 243.811,362.134 242.354,360.776 241.111 C 359.996 240.398,358.820 239.402,358.161 238.898 C 357.502 238.393,356.412 237.477,355.739 236.861 C 355.066 236.245,353.736 235.074,352.784 234.259 C 351.832 233.444,350.414 232.194,349.634 231.481 C 347.627 229.647,346.183 228.519,345.846 228.519 C 345.686 228.519,345.556 228.269,345.556 227.963 C 345.556 227.657,345.413 227.407,345.239 227.407 C 345.065 227.407,344.440 226.986,343.850 226.471 C 343.260 225.956,342.611 225.393,342.407 225.220 C 342.204 225.047,341.756 224.594,341.412 224.212 C 341.068 223.831,340.344 223.185,339.802 222.778 C 339.259 222.370,338.184 221.454,337.411 220.741 C 336.638 220.028,335.225 218.778,334.270 217.963 C 333.315 217.148,331.853 215.856,331.022 215.093 C 330.190 214.329,329.385 213.704,329.232 213.704 C 329.080 213.704,328.008 212.793,326.850 211.680 C 325.691 210.568,324.427 209.556,324.039 209.433 C 323.651 209.310,323.333 208.971,323.333 208.679 C 323.333 208.387,323.185 208.148,323.005 208.148 C 322.824 208.148,321.738 207.273,320.591 206.204 C 319.444 205.134,318.086 203.926,317.573 203.519 C 317.060 203.111,315.995 202.194,315.206 201.481 C 314.418 200.769,313.011 199.519,312.080 198.704 C 311.148 197.889,309.424 196.355,308.249 195.295 C 307.073 194.235,305.694 193.018,305.185 192.592 C 304.676 192.165,303.662 191.283,302.932 190.630 C 302.202 189.978,301.047 189.028,300.366 188.519 C 299.684 188.009,298.448 186.963,297.619 186.194 C 296.790 185.425,295.861 184.565,295.556 184.282 C 295.062 183.826,295.010 186.939,295.091 212.162 M398.374 253.860 C 398.650 254.582,399.630 254.915,399.630 254.287 C 399.630 254.010,399.366 253.682,399.044 253.558 C 398.212 253.239,398.147 253.269,398.374 253.860 " stroke="none" fill="#fbfbfb" fill-rule="evenodd"></path><path id="path1" d="M169.167 33.965 C 169.625 34.053,170.375 34.053,170.833 33.965 C 171.292 33.877,170.917 33.805,170.000 33.805 C 169.083 33.805,168.708 33.877,169.167 33.965 M68.148 52.051 C 49.469 55.465,34.412 67.235,29.314 82.407 C 27.368 88.199,27.344 89.619,27.490 192.407 L 27.622 285.741 28.659 290.000 C 33.366 309.344,39.010 316.952,54.361 324.641 C 66.361 330.652,59.456 330.362,190.855 330.367 L 294.857 330.370 294.780 317.563 C 294.722 307.862,294.590 304.643,294.238 304.291 C 293.511 303.564,269.207 303.334,192.870 303.334 L 124.815 303.333 124.815 272.222 L 124.815 241.111 197.963 241.111 C 246.481 241.111,271.111 241.236,271.111 241.481 C 271.111 242.272,293.257 241.952,294.119 241.149 C 294.868 240.451,294.873 240.227,294.752 211.609 L 294.630 182.774 296.545 184.628 C 297.599 185.647,298.911 186.812,299.461 187.216 C 300.012 187.620,301.097 188.537,301.873 189.253 C 302.648 189.969,304.057 191.222,305.004 192.037 C 305.950 192.852,307.362 194.102,308.141 194.815 C 308.919 195.528,310.000 196.444,310.542 196.852 C 311.084 197.259,311.809 197.903,312.153 198.282 C 312.994 199.210,313.472 199.648,314.837 200.741 C 315.473 201.250,316.604 202.206,317.349 202.865 C 318.094 203.524,319.120 204.404,319.630 204.822 C 320.139 205.240,321.536 206.488,322.733 207.596 C 323.931 208.704,325.223 209.709,325.604 209.830 C 325.985 209.951,326.296 210.174,326.296 210.325 C 326.296 210.712,327.456 211.900,328.689 212.778 C 329.261 213.185,330.198 213.935,330.771 214.444 C 333.671 217.023,336.102 219.204,337.375 220.370 C 338.153 221.083,339.334 222.083,340.000 222.593 C 340.666 223.102,341.845 224.102,342.620 224.815 C 343.396 225.528,344.665 226.655,345.441 227.321 C 346.217 227.986,347.550 229.152,348.404 229.913 C 349.257 230.674,350.729 231.963,351.674 232.778 C 352.620 233.593,353.773 234.593,354.236 235.000 C 354.700 235.407,355.437 235.986,355.873 236.285 C 356.310 236.585,356.667 237.032,356.667 237.279 C 356.667 237.526,356.995 237.832,357.397 237.960 C 357.798 238.087,359.040 239.057,360.157 240.114 C 361.274 241.172,362.710 242.454,363.348 242.963 C 365.314 244.532,366.197 245.299,368.333 247.293 C 369.465 248.351,370.721 249.321,371.122 249.448 C 371.523 249.575,371.852 249.882,371.852 250.128 C 371.852 250.375,372.213 250.822,372.654 251.122 C 373.095 251.422,373.775 251.972,374.166 252.346 C 375.138 253.275,374.558 255.152,381.084 229.967 C 384.325 217.457,389.838 196.222,393.334 182.778 C 399.566 158.815,400.160 155.963,399.135 154.938 C 398.892 154.694,104.539 154.595,104.300 154.839 C 104.213 154.927,102.636 160.833,100.795 167.963 C 93.413 196.560,69.259 290.717,69.259 290.899 C 69.259 291.727,67.349 292.284,66.657 291.658 C 65.683 290.777,65.481 121.121,66.452 119.793 C 66.970 119.084,69.010 119.073,220.198 118.980 L 373.419 118.886 373.168 116.388 C 371.776 102.549,359.594 90.981,343.037 87.776 C 338.632 86.923,239.829 86.611,227.037 87.410 C 215.961 88.101,202.847 88.446,200.445 88.110 C 195.355 87.397,191.294 84.029,177.340 68.949 C 165.914 56.601,164.758 55.535,160.556 53.479 L 156.852 51.667 113.889 51.605 C 78.894 51.555,70.411 51.638,68.148 52.051 M99.727 122.488 C 100.290 122.573,101.124 122.571,101.579 122.483 C 102.035 122.395,101.574 122.325,100.556 122.328 C 99.537 122.331,99.164 122.403,99.727 122.488 M69.353 123.889 C 69.357 124.704,69.433 124.993,69.521 124.533 C 69.610 124.072,69.606 123.405,69.514 123.051 C 69.421 122.697,69.349 123.074,69.353 123.889 M92.863 183.557 C 92.714 183.706,92.593 184.083,92.593 184.395 C 92.593 184.812,92.702 184.853,93.005 184.551 C 93.231 184.324,93.353 183.947,93.275 183.713 C 93.197 183.479,93.011 183.409,92.863 183.557 M89.159 189.483 C 89.010 189.632,88.894 190.100,88.900 190.525 C 88.911 191.237,88.941 191.246,89.297 190.634 C 89.711 189.922,89.605 189.037,89.159 189.483 M74.877 201.574 C 74.809 203.051,74.830 204.176,74.924 204.074 C 75.254 203.716,75.611 198.889,75.307 198.889 C 75.138 198.890,74.945 200.098,74.877 201.574 M69.353 253.889 C 69.357 254.704,69.433 254.993,69.521 254.533 C 69.610 254.072,69.606 253.405,69.514 253.051 C 69.421 252.697,69.349 253.074,69.353 253.889 M371.437 296.667 C 370.598 297.481,369.790 298.148,369.643 298.148 C 369.495 298.148,368.435 299.023,367.286 300.093 C 366.138 301.162,364.737 302.420,364.173 302.889 C 363.609 303.358,362.681 304.149,362.111 304.648 C 361.540 305.147,360.943 305.556,360.784 305.556 C 360.625 305.556,360.274 305.969,360.003 306.475 C 359.733 306.981,359.226 307.486,358.877 307.596 C 358.528 307.707,357.308 308.668,356.166 309.732 C 354.205 311.558,353.138 312.510,349.333 315.832 C 348.457 316.597,347.104 317.806,346.327 318.519 C 345.550 319.231,344.370 320.231,343.704 320.741 C 343.038 321.250,341.859 322.250,341.083 322.963 C 339.780 324.161,339.124 324.737,335.581 327.793 C 333.967 329.186,334.107 329.181,341.541 327.607 C 361.035 323.479,372.300 312.965,373.599 297.685 C 373.852 294.702,373.590 294.578,371.437 296.667 " stroke="none" fill="#14a404" fill-rule="evenodd"></path><path id="path2" d="M294.970 230.741 C 294.970 234.713,295.024 236.338,295.091 234.352 C 295.158 232.366,295.158 229.116,295.091 227.130 C 295.024 225.144,294.970 226.769,294.970 230.741 " stroke="none" fill="#6ac75e" fill-rule="evenodd"></path><path id="path3" d="M294.545 186.296 C 294.545 187.213,294.618 187.588,294.706 187.130 C 294.794 186.671,294.794 185.921,294.706 185.463 C 294.618 185.005,294.545 185.380,294.545 186.296 M124.815 241.481 C 124.815 241.727,149.444 241.852,197.963 241.852 C 246.481 241.852,271.111 241.727,271.111 241.481 C 271.111 241.236,246.481 241.111,197.963 241.111 C 149.444 241.111,124.815 241.236,124.815 241.481 M272.315 303.589 C 272.671 303.682,273.255 303.682,273.611 303.589 C 273.968 303.495,273.676 303.419,272.963 303.419 C 272.250 303.419,271.958 303.495,272.315 303.589 " stroke="none" fill="#3bb42b" fill-rule="evenodd"></path><path id="path4" d="M294.987 205.000 C 294.987 215.389,295.034 219.692,295.092 214.563 C 295.150 209.434,295.150 200.934,295.092 195.674 C 295.034 190.414,294.987 194.611,294.987 205.000 M124.992 272.593 C 124.992 289.602,125.037 296.560,125.092 288.056 C 125.148 279.551,125.148 265.634,125.092 257.130 C 125.037 248.625,124.992 255.583,124.992 272.593 M276.967 242.129 C 280.086 242.191,285.086 242.191,288.078 242.129 C 291.070 242.067,288.519 242.016,282.407 242.016 C 276.296 242.016,273.848 242.067,276.967 242.129 M278.796 303.610 C 281.088 303.675,284.838 303.675,287.130 303.610 C 289.421 303.545,287.546 303.492,282.963 303.492 C 278.380 303.492,276.505 303.545,278.796 303.610 M294.926 311.111 C 294.926 312.231,294.995 312.690,295.080 312.130 C 295.165 311.569,295.165 310.653,295.080 310.093 C 294.995 309.532,294.926 309.991,294.926 311.111 M294.960 318.148 C 294.960 320.898,295.018 322.023,295.089 320.648 C 295.161 319.273,295.161 317.023,295.089 315.648 C 295.018 314.273,294.960 315.398,294.960 318.148 M294.942 326.852 C 294.943 328.481,295.008 329.102,295.086 328.231 C 295.165 327.360,295.164 326.026,295.084 325.268 C 295.004 324.509,294.940 325.222,294.942 326.852 " stroke="none" fill="#8cd484" fill-rule="evenodd"></path></g></svg>